# Blender 5.1.0
# www.blender.org
mtllib building18.mtl
o GT_MC_Large_Building.018
v -30.044662 0.011400 -7.303358
v -21.927603 47.628304 -28.195431
v -30.044662 0.000000 27.922470
v 5.181158 0.011254 27.922470
v 18.076393 0.033442 -27.922455
v 5.902941 60.470749 -8.148241
v 5.491759 54.980755 28.207483
v 5.451466 47.377731 28.222326
v 17.587824 60.596840 -27.350552
v 5.487288 50.933990 28.221008
v -29.301228 79.725914 27.270985
v 30.968660 26.036020 21.602577
v 31.014122 31.645460 21.645983
v -30.343546 50.914886 28.221298
v 30.968258 14.832373 21.672806
v 5.317894 14.827922 21.549831
v 5.460023 33.872467 21.632399
v 18.373541 31.863001 -28.183355
v 18.482893 12.491933 -28.328955
v 18.375261 20.794262 -28.221373
v 18.401564 12.598492 -1.019853
v 18.375528 18.163458 -0.993329
v 30.934160 26.247723 -0.998189
v 5.506389 12.368980 28.328955
v 5.453636 18.063124 28.194099
v 5.443239 23.954025 28.207087
v 5.480814 33.867283 28.223343
v -21.885853 13.468801 -28.153870
v -21.980848 19.403858 -28.180820
v -21.911631 22.802755 -28.173807
v -21.925091 30.709620 -28.173220
v -22.072647 12.415819 -28.247686
v -30.310589 13.777948 -7.587669
v -30.298010 21.018137 -7.603124
v -30.336830 27.094059 -7.604457
v -30.341238 34.417698 -7.561193
v -21.991266 12.568047 -7.535731
v -21.863628 26.745758 -7.572162
v 5.479037 29.946064 21.584431
v 30.923220 13.312654 21.449289
v 30.991707 20.753534 21.612457
v 5.318175 20.567156 21.613628
v 5.494776 26.186954 21.604591
v 18.395720 16.571943 -28.224325
v 18.376364 25.392002 -28.218363
v 18.386198 31.854401 -0.983770
v 18.376711 22.867643 -0.884370
v 30.997858 13.357354 -0.896507
v 31.005053 16.846476 -0.993757
v 30.989834 20.606789 -1.007452
v 31.001593 32.968681 -0.997100
v 31.112909 12.415819 -1.101183
v 5.481686 28.445864 28.193760
v -30.293800 22.785624 28.232470
v -30.307800 15.959397 28.194523
v -30.325035 28.530725 28.215508
v -30.451145 12.415819 -7.709903
v -21.923449 18.159784 -7.604389
v -21.903526 35.459717 -7.611634
v 31.029015 35.050125 21.608013
v -30.318441 33.953743 28.223961
v -21.947311 53.989929 -28.211199
v -21.978790 52.481930 -7.550189
v -21.973633 47.452789 -7.603772
v 5.439191 49.127720 7.576726
v 5.485274 55.051472 7.575878
v 5.422263 45.649681 7.620484
v 18.324755 46.167946 7.531761
v 18.385870 53.532978 7.681931
v 18.365665 47.355473 -28.151659
v 18.400854 54.513023 -28.208475
v -30.350761 52.195572 -7.571451
v -30.302402 47.102383 -7.583661
v -30.311747 54.334091 28.233849
v -30.356888 47.362957 28.198994
v 5.683616 60.724304 6.872571
v 30.099590 39.943066 20.820219
v 4.597098 79.874229 -6.799438
v 17.472561 60.563225 6.681655
v -21.233496 60.641407 -27.399395
v -29.515591 79.726700 -6.697526
v -20.985781 60.647461 -7.777548
v 5.961515 39.821224 8.083731
v 18.856750 39.821224 8.083731
v 5.719454 39.914658 20.705574
v 18.548750 40.082657 -0.078275
v 30.213770 39.987766 -0.238211
v 4.652683 79.720551 27.337038
v -33.926067 6.836831 -6.284559
v -30.952820 6.723059 10.309525
v -33.926067 6.609282 26.903637
v -29.025866 6.836825 31.803862
v -12.431763 6.723053 28.830606
v 4.162328 6.609276 31.803862
v 7.113673 6.835921 25.195202
v 17.943790 6.723051 22.221945
v 28.773861 6.610177 25.195202
v 34.587811 6.835793 20.311224
v 31.614553 6.723053 10.309583
v 34.587811 6.610308 0.307917
v 17.558891 6.559363 -1.899032
v 17.497921 7.058364 -1.897953
v 17.546907 6.721033 -26.719191
v 16.331535 6.837075 -31.803864
v 16.331558 6.614892 -27.343985
v -7.837003 6.722089 -29.573915
v 22.691998 46.457298 15.021365
v 27.861799 46.457298 1.507237
v 22.690052 46.449051 1.509182
v 27.863745 46.449051 15.019422
v 22.815943 39.845501 1.659251
v 27.737858 39.845501 14.869365
v 27.711733 39.845501 1.633127
v 22.842070 39.845501 14.895489
v 3.256787 89.132240 23.179506
v -8.900981 89.132240 -2.560400
v -8.904869 88.970863 23.177076
v -9.020303 79.594978 23.295605
v -9.020304 79.594978 -2.676496
v 3.376111 79.594978 23.295599
v 3.260676 88.970848 -2.557967
v 3.376109 79.594978 -2.676497
v 18.464748 0.131561 -7.614515
v -12.569000 60.498314 -8.108141
v -12.089543 63.261379 -8.113992
v -11.717167 61.282562 -8.296497
v -11.649615 61.276558 -8.279472
v -11.683392 62.524876 -8.287984
v -10.651171 63.306114 -8.108513
v -11.130629 60.543053 -8.114322
v -11.570559 61.276558 -8.279472
v -11.503004 61.282562 -8.296497
v -11.536781 62.524876 -8.287984
v -12.930066 63.699638 -7.848222
v -10.290112 60.459370 -7.848353
v -10.290112 63.699638 -7.848155
v -12.930066 60.459370 -7.848222
v -2.355286 60.498314 -8.108141
v -2.355286 63.306114 -8.108513
v -3.274672 61.276558 -8.279472
v -3.207119 61.282562 -8.296496
v -3.240896 62.524876 -8.287984
v -3.793658 60.543053 -8.114322
v -3.793658 63.261379 -8.113992
v -3.421281 61.282562 -8.296496
v -3.353729 61.276558 -8.279472
v -3.387505 62.524876 -8.287983
v -4.634174 63.699638 -7.848155
v -1.994221 63.699638 -7.848222
v -4.634174 60.459370 -7.848353
v -1.994221 60.459370 -7.848222
v 6.941211 39.821224 7.848245
v 18.286079 13.118159 -0.838571
v 5.408421 13.413379 28.213661
v -30.180166 13.211911 28.139277
v 18.211895 13.312652 -28.057959
v -21.882954 13.065374 -7.438872
v 31.031645 12.491934 21.720270
v -30.369881 12.551134 28.247688
v -29.214417 81.363510 23.547148
v -21.536665 12.182343 -11.838499
v -21.749475 34.550549 -11.213865
v -21.545786 56.919041 -10.589235
v -30.688314 12.182343 -7.082849
v -29.439053 56.919044 -7.091966
v -30.063681 34.550484 -7.295657
v -29.912178 81.363510 -10.917027
v -21.412815 82.309982 -5.892986
v -29.144156 82.525589 -11.319510
v -27.973656 82.525589 -9.264149
v -30.170826 82.437607 -5.988985
v -21.481537 81.654030 -11.178638
v -23.597149 82.525589 -11.319508
v -21.631798 13.476417 -10.917027
v -30.126833 13.476417 -11.131686
v -30.189463 12.297051 -5.872229
v -22.426649 12.314338 -11.319507
v -21.272606 12.298075 -5.949067
v -8.359946 90.274414 -1.878950
v -8.347103 90.277328 -1.530013
v -8.353526 90.688477 -1.704481
v -8.347099 90.279655 22.149118
v -8.359942 90.272774 22.498058
v -8.353522 90.688477 22.323589
v 2.715782 90.275314 -1.878953
v 2.702939 90.276283 -1.530016
v 2.709361 90.688477 -1.704485
v 2.534896 90.283951 22.330006
v 2.709365 90.688477 22.323586
v 2.883834 90.270668 22.317163
v 27.868280 45.909172 3.035566
v 27.917995 45.668682 3.012424
v 27.923389 45.770287 4.320508
v 27.919722 45.668667 12.247427
v 27.905313 45.770287 13.559320
v 27.881229 45.907871 12.271316
v 22.681095 45.908730 4.258136
v 22.614084 45.668533 4.274735
v 22.648485 45.770287 2.969273
v 22.673729 45.630634 13.487882
v 22.633965 45.871674 13.516122
v 22.648487 45.770287 12.203721
v 6.024515 63.482761 -1.458150
v 5.990208 63.617004 -0.166973
v 6.065361 63.390003 -0.151007
v -8.068523 63.539352 -8.121477
v -8.096764 63.780388 -8.161242
v -6.784365 63.679001 -8.146719
v 17.266617 63.266827 -9.702719
v 17.218494 63.508892 -9.674942
v 17.224586 63.407501 -10.985305
v 5.183482 78.659210 18.482021
v 5.183482 76.412102 25.712606
v 5.182336 78.659210 25.712606
v 5.182336 76.412102 18.482021
v 5.183482 78.659210 10.425488
v 5.183482 76.412102 17.656078
v 5.182336 78.659210 17.656078
v 5.182336 76.412102 10.425488
v 5.183482 78.659210 2.368957
v 5.183482 76.412102 9.599545
v 5.182336 78.659210 9.599545
v 5.182336 76.412102 2.368957
v 5.183482 78.659210 -5.687575
v 5.183482 76.412102 1.543015
v 5.182336 78.659210 1.543015
v 5.182336 76.412102 -5.687575
v -3.675596 78.659210 -7.187831
v 3.554992 76.412102 -7.187831
v 3.554992 78.659210 -7.186686
v -3.675596 76.412102 -7.186685
v -11.732127 78.659210 -7.187831
v -4.501539 76.412102 -7.187831
v -4.501539 78.659210 -7.186685
v -11.732127 76.412102 -7.186685
v -19.788658 78.659210 -7.187831
v -12.558070 76.412102 -7.187831
v -12.558070 78.659210 -7.186686
v -19.788658 76.412102 -7.186685
vn -1.0000 -0.0039 0.0004
vn -1.0000 -0.0034 -0.0023
vn -0.7063 -0.0033 -0.7079
vn -0.5496 0.6382 -0.5391
vn -0.9985 0.0552 0.0042
vn -0.3214 0.3674 -0.8728
vn 0.7041 0.0010 0.7101
vn -0.0000 0.0016 1.0000
vn 0.7312 0.0309 0.6814
vn -0.0020 0.0045 1.0000
vn 0.7628 0.0026 0.6466
vn -0.0048 0.0102 0.9999
vn -0.0000 -0.0029 1.0000
vn 0.7170 -0.0109 0.6970
vn 0.7030 -0.0070 0.7112
vn 1.0000 -0.0084 0.0009
vn 1.0000 0.0021 0.0002
vn 0.7011 0.0038 -0.7131
vn 1.0000 -0.0000 -0.0002
vn 0.7202 0.0249 -0.6933
vn 0.5643 0.5968 0.5704
vn 0.7051 0.0205 0.7088
vn 0.8833 0.3588 0.3017
vn 1.0000 0.0046 0.0066
vn 0.8770 0.3642 0.3134
vn 0.9993 0.0371 0.0052
vn 0.7061 -0.0030 0.7081
vn 0.7083 -0.0026 0.7059
vn 0.7245 0.0293 0.6887
vn 1.0000 0.0063 0.0008
vn 0.9999 -0.0153 0.0016
vn 1.0000 0.0012 0.0017
vn 0.7026 -0.0016 -0.7115
vn 1.0000 0.0006 -0.0007
vn -0.0008 -0.0120 0.9999
vn 0.0003 0.0007 1.0000
vn 0.0005 -0.0012 1.0000
vn 0.7088 -0.0022 0.7054
vn -0.7081 -0.0011 0.7061
vn 0.3116 0.8993 -0.3070
vn 0.9995 -0.0306 0.0022
vn 0.5861 0.5589 -0.5866
vn 0.0006 0.0012 -1.0000
vn 0.0054 -0.0103 -0.9999
vn -0.7056 -0.0014 -0.7086
vn 0.0017 0.0359 0.9994
vn 0.7032 0.0769 0.7068
vn 0.5384 0.6376 -0.5509
vn 0.7029 0.0711 -0.7077
vn -1.0000 -0.0019 0.0003
vn -0.7059 -0.0004 -0.7084
vn 0.0080 -0.0236 -0.9997
vn -0.5857 0.5520 -0.5935
vn -0.3084 0.8998 -0.3087
vn -0.9998 -0.0211 0.0014
vn -0.5981 -0.5466 -0.5861
vn -0.5833 0.5638 0.5847
vn -0.9995 -0.0312 0.0019
vn -0.9997 -0.0259 -0.0000
vn -1.0000 0.0089 0.0030
vn -1.0000 0.0008 0.0017
vn -0.7082 -0.0010 -0.7060
vn -0.5754 -0.5754 -0.5812
vn -1.0000 -0.0009 0.0008
vn -1.0000 0.0029 0.0030
vn 0.7070 -0.0025 -0.7072
vn 0.7063 0.0017 -0.7079
vn 0.9964 0.0845 0.0006
vn 0.5827 -0.5785 -0.5708
vn -0.0043 -0.0044 -1.0000
vn -0.0018 -0.0166 -0.9999
vn -0.0050 0.0018 -1.0000
vn 0.5163 0.6686 0.5352
vn -0.0028 0.0825 0.9966
vn -0.5733 0.5974 -0.5607
vn -0.0115 0.0035 -0.9999
vn -0.0025 0.0002 -1.0000
vn -0.0033 0.0050 -1.0000
vn -0.0058 -0.0018 -1.0000
vn -0.0009 0.0017 -1.0000
vn 0.0014 -0.0113 -0.9999
vn -0.0001 0.0160 0.9999
vn -0.7065 -0.0002 0.7077
vn -0.0004 0.0004 1.0000
vn -0.0003 -0.0020 1.0000
vn 0.0004 -0.0047 1.0000
vn -1.0000 -0.0034 -0.0000
vn -1.0000 0.0012 0.0007
vn -1.0000 0.0059 -0.0005
vn -0.9999 0.0100 -0.0004
vn -0.9997 0.0229 0.0019
vn -0.5650 0.5982 0.5683
vn 0.8881 0.3510 -0.2968
vn 0.5411 0.6494 -0.5344
vn 0.7044 0.0881 -0.7044
vn -0.5843 0.5634 0.5841
vn 0.7080 -0.0407 0.7051
vn 0.5839 0.5487 0.5983
vn 0.9997 -0.0242 -0.0011
vn 0.4403 -0.8813 -0.1718
vn 0.5618 -0.6032 -0.5661
vn -0.5581 -0.6011 0.5720
vn -0.0003 0.0030 1.0000
vn -0.9986 0.0520 0.0023
vn -0.0007 0.0569 -0.9984
vn -0.0027 1.0000 0.0032
vn 0.6836 0.7298 0.0077
vn 0.5577 0.6133 -0.5594
vn 0.2720 0.9223 -0.2746
vn 0.5465 0.6481 0.5304
vn 0.0037 0.0470 0.9989
vn 0.0024 0.0848 0.9964
vn -0.0000 0.7701 -0.6379
vn -0.0000 0.7469 -0.6649
vn -0.0000 0.7493 -0.6623
vn -1.0000 -0.0000 -0.0000
vn -0.0039 -0.0000 1.0000
vn -0.0020 -0.0000 1.0000
vn -0.5825 0.5669 0.5825
vn -0.9998 -0.0201 0.0007
vn -0.9997 -0.0227 0.0020
vn 0.5825 0.5669 -0.5825
vn 0.9998 -0.0201 -0.0007
vn 0.9997 -0.0227 -0.0020
vn 0.5830 0.5661 0.5827
vn 0.0032 -0.0212 0.9998
vn 0.0053 -0.0228 0.9997
vn -0.5830 0.5661 -0.5827
vn -0.0032 -0.0212 -0.9998
vn -0.0053 -0.0228 -0.9997
vn 0.5713 0.5868 0.5739
vn -0.5713 0.5868 -0.5739
vn -0.5780 0.5778 0.5762
vn 0.0002 0.0124 -0.9999
vn -0.0000 0.0122 -0.9999
vn -0.0000 -1.0000 -0.0000
vn -0.9999 0.0125 -0.0001
vn -0.9999 0.0123 -0.0000
vn 0.5780 0.5778 -0.5762
vn 0.9999 0.0125 0.0001
vn 0.9999 0.0123 -0.0000
vn -0.0002 0.0124 0.9999
vn -0.0000 0.0122 0.9999
vn 0.0015 0.0006 -1.0000
vn -0.0019 -0.0006 -1.0000
vn -0.0043 -0.0014 -1.0000
vn -0.0000 -0.0000 -1.0000
vn -0.0000 0.0001 -1.0000
vn 0.0041 -0.0001 -1.0000
vn 0.0040 -0.0000 -1.0000
vn 0.0043 -0.0001 -1.0000
vn -0.0000 -0.0000 -0.0000
vn -0.1118 0.6491 0.7525
vn 0.3701 0.9272 -0.0570
vn -0.5990 0.5740 0.5583
vn 0.8283 -0.4976 -0.2575
vn 0.7051 -0.1117 -0.7002
vn 0.9873 0.0085 0.1585
vn -0.7302 0.1193 -0.6727
vn -0.9999 0.0030 -0.0134
vn 0.0071 0.0015 1.0000
vn 0.0086 0.0017 1.0000
vn -0.9993 -0.0000 0.0368
vn 0.9993 -0.0000 -0.0368
vn -0.9993 -0.0000 -0.0368
vn 0.9993 -0.0000 0.0368
vn -0.0368 -0.0000 -0.9993
vn 0.0368 -0.0000 0.9993
vn 0.9787 0.2042 -0.0199
vn -0.9866 -0.1630 0.0017
vn -0.0017 -0.1630 -0.9866
vn -0.9805 -0.1961 0.0106
vn 1.0000 0.0003 0.0001
vn 1.0000 -0.0003 -0.0001
vn 1.0000 0.0005 0.0002
vn 0.0001 0.0003 -1.0000
vn -0.0001 -0.0003 -1.0000
vn 0.0002 0.0005 -1.0000
vn -0.5885 0.5585 -0.5846
vn -0.0016 -0.0314 -0.9995
vn 0.7042 -0.0079 0.7100
vn 1.0000 -0.0063 -0.0009
vn 1.0000 -0.0020 -0.0013
vn 0.0007 0.0004 1.0000
vn -0.0011 0.0011 -1.0000
vn -0.0008 0.0028 -1.0000
vn 0.0005 -0.0237 -0.9997
vn -0.0012 -0.0011 -1.0000
vn -0.0011 0.0007 -1.0000
vn 0.9996 0.0278 -0.0097
vn 0.9961 0.0805 -0.0350
vn 0.9999 -0.0108 -0.0057
vn 0.9998 -0.0027 -0.0185
vn 0.9998 -0.0098 -0.0157
vn -0.3017 -0.6161 -0.7276
vn -1.0000 0.0005 -0.0015
vn -0.0000 -0.0259 0.9997
vn 0.5514 -0.6310 0.5457
vn -0.3058 -0.8963 -0.3211
vn -0.5798 -0.5733 0.5790
vn -0.2993 -0.9042 -0.3048
vn -0.0000 0.0792 0.9969
vn -0.1010 -0.9947 -0.0215
vn -0.9789 -0.0000 -0.2043
vn 0.0038 0.0014 -1.0000
vn 0.0038 0.0001 -1.0000
vn 0.5840 0.5600 0.5878
vn 0.5889 0.5539 -0.5885
vn 0.3116 0.8989 -0.3080
vn -0.1256 0.6290 -0.7672
vn 0.6245 0.3775 -0.6837
vn -0.5328 0.5805 -0.6158
vn 0.0596 -0.5976 -0.7996
vn -0.6421 -0.1988 -0.7404
vn -0.9787 -0.2042 0.0199
vn -0.9873 -0.1590 0.0015
vn 0.9873 0.1590 -0.0015
vn 0.9633 -0.2684 0.0045
vn -0.9633 0.2684 -0.0045
vn 0.9866 0.1630 -0.0017
vn -0.9495 -0.3138 0.0074
vn 0.9495 0.3138 -0.0074
vn 0.0017 0.1630 0.9866
vn 0.9805 0.1961 -0.0106
vn 1.0000 -0.0005 -0.0002
vn -0.0002 -0.0005 -1.0000
vt 0.600543 -0.031928
vt 1.162879 -0.031928
vt 1.162879 1.638727
vt 0.329618 1.177689
vt -0.120659 -0.492968
vt 0.329617 -0.492967
vt -0.405173 2.607205
vt 1.204373 2.653447
vt -0.405173 2.693808
vt 1.204373 1.800856
vt -0.405173 1.714253
vt 1.204373 1.714253
vt 1.204373 2.112758
vt -0.405173 2.026155
vt 1.204373 2.026155
vt 1.204373 2.532935
vt -0.405173 2.446332
vt 1.204373 2.446332
vt -0.667213 1.875126
vt 1.049689 1.918418
vt -0.667213 1.961729
vt -0.667213 2.285459
vt 1.049689 2.305820
vt -0.667213 2.372063
vt 1.848163 2.117133
vt 0.226752 2.117133
vt 0.677030 0.446475
vt 0.704256 0.105214
vt 0.799204 0.640681
vt 0.709996 1.775872
vt -2.658015 3.453989
vt -1.357836 3.482173
vt -2.658015 3.540592
vt -1.357836 3.614862
vt -1.357836 3.701465
vt -2.658015 3.701465
vt -0.667213 1.800856
vt -2.055002 1.714253
vt -0.667213 1.714253
vt -0.667213 2.112758
vt -2.055002 2.026155
vt -0.667213 2.026155
vt -2.626409 1.714253
vt -0.405173 1.749789
vt -2.626409 1.800856
vt -2.626409 2.285459
vt -0.405173 2.372063
vt -2.626409 2.372063
vt 0.553880 -0.217303
vt 1.305493 1.988818
vt 0.553880 1.988818
vt -2.098086 2.112758
vt -2.098086 2.026155
vt -2.626409 2.026155
vt 1.324332 2.771137
vt 1.324332 2.836879
vt 0.725310 2.792532
vt -0.165095 0.063788
vt 0.285181 0.063788
vt 0.285181 1.108621
vt 0.383718 1.196852
vt -0.083669 1.196852
vt -0.083668 0.173507
vt -0.250490 2.026155
vt -2.471725 2.060009
vt -0.250490 2.112758
vt -0.594030 1.300928
vt 0.159491 1.300928
vt 0.159491 0.621559
vt -2.471725 1.714253
vt -0.250490 1.800856
vt -0.250490 1.714253
vt 0.470235 -0.531809
vt -0.282727 2.322356
vt -0.283424 -0.531809
vt -2.055002 2.532935
vt -2.471725 2.484521
vt -2.055002 2.446332
vt -2.055002 2.693808
vt -2.471725 2.607205
vt -2.055002 2.607205
vt 1.049689 2.285459
vt -0.250490 2.339969
vt 1.049689 2.372063
vt 0.559353 1.425420
vt -0.740826 1.489801
vt 0.559353 1.512023
vt -0.250490 1.881030
vt 1.049689 1.961729
vt 1.049689 1.875126
vt -0.079969 -0.712005
vt 0.482366 2.508125
vt -0.079968 2.508125
vt 0.337547 -0.692172
vt -0.129841 1.091058
vt -0.129841 -0.692172
vt 0.714037 1.425420
vt -0.082375 1.512023
vt 0.714037 1.512023
vt 0.407961 1.757555
vt 0.338357 -0.731816
vt -0.129031 1.336361
vt -0.129031 -0.731816
vt -0.008380 1.916036
vt 1.162756 1.237170
vt 1.613034 1.916036
vt 0.630458 0.591156
vt 1.192794 1.270022
vt 0.630458 1.270022
vt -2.812698 3.453989
vt -2.284375 3.540592
vt -2.284375 3.453989
vt 0.109188 2.221297
vt 1.730598 -0.632865
vt 1.730598 2.221297
vt 0.389190 2.196264
vt 0.951942 -0.660015
vt 0.951943 2.196264
vt -0.591463 3.701465
vt -2.812698 3.614862
vt -0.591463 3.614862
vt -0.591463 3.540592
vt -0.591463 3.453989
vt 0.662140 0.641203
vt 1.224475 3.495368
vt 0.662140 3.495368
vt -0.436779 3.453989
vt -0.436779 3.540592
vt 0.109188 -0.755274
vt 1.730601 2.098888
vt 0.109188 2.098888
vt 0.759433 -0.715030
vt 1.226818 1.491093
vt 0.664483 1.491093
vt 0.329985 -1.177588
vt -0.120292 1.676575
vt -0.120292 -1.177588
vt 1.290341 2.319788
vt 0.537368 -0.534374
vt 1.290341 -0.534374
vt 0.500295 -0.624837
vt 0.428198 1.582923
vt 0.425959 -0.624837
vt 0.425959 2.240213
vt 0.425800 -0.703965
vt 0.500295 2.240213
vt 0.647130 1.254015
vt 0.645818 0.574646
vt 0.571482 0.574645
vt 0.768264 1.280397
vt 0.790439 -0.391498
vt 0.716103 -0.391498
vt 0.709630 2.586485
vt 0.783966 2.586485
vt 0.765624 -0.723932
vt 0.804947 0.366937
vt 0.592684 0.366937
vt 0.592684 0.162007
vt 0.012845 0.607373
vt 0.566994 0.053224
vt 0.566994 0.607373
vt 0.779257 0.946776
vt 0.592684 0.633063
vt 0.779257 0.392627
vt 0.592684 0.275588
vt 0.804947 0.229885
vt 0.804947 0.275588
vt 0.162007 0.231645
vt 0.366937 0.229885
vt 0.366937 0.275588
vt 1.000000 0.499999
vt 0.000000 0.489858
vt 0.000000 0.510143
vt 0.000000 0.561511
vt 1.000000 0.499999
vt 0.000000 0.438489
vt 2.131789 0.678699
vt 0.000000 -0.002428
vt 2.131789 -0.002428
vt 4.268579 0.678699
vt 2.136790 -0.002428
vt 4.268579 -0.002428
vt 5.085526 0.678699
vt 4.273580 -0.002428
vt 5.085527 -0.002428
vt 0.344111 0.000180
vt 0.659345 0.820814
vt 0.344111 0.820814
vt 5.902474 0.678699
vt 5.090528 -0.002428
vt 5.902474 -0.002428
vt -0.170048 1.903837
vt 1.170048 -0.903837
vt 1.170048 1.903837
vt 1.170048 0.604485
vt -0.170048 0.065053
vt 1.170048 0.065053
vt -0.170048 -0.903837
vt 1.903837 0.604485
vt -0.903837 0.065053
vt 1.903837 0.065053
vt -0.903837 0.604485
vt -0.170048 0.604485
vt -0.170048 0.065053
vt 0.370583 0.424310
vt 0.330212 0.323979
vt 0.389587 0.323979
vt 0.486467 0.370425
vt 0.705162 0.613971
vt 0.486467 0.613971
vt 0.330212 0.323979
vt 0.389587 0.424310
vt 0.338578 0.934706
vt 0.280546 -1.130761
vt 0.280546 0.934706
vt 0.719454 -1.130761
vt 0.661422 0.934706
vt 0.719454 0.934706
vt 0.281301 0.370831
vt 0.593350 0.531597
vt 0.702096 0.370831
vt -1.076779 0.397006
vt -1.076779 0.600900
vt 2.076780 0.397006
vt 2.076779 0.600900
vt -1.076779 0.397006
vt 2.076780 0.397006
vt 0.307476 -1.076779
vt 0.675921 2.076780
vt 0.675921 -1.076779
vt 0.197546 0.983496
vt 0.263062 0.761977
vt 0.131459 0.761977
vt 0.202174 0.983496
vt 0.141663 0.761977
vt 0.273266 0.761977
vt 0.263062 0.761977
vt 0.200838 0.983496
vt 0.131459 0.761977
vt 0.141663 0.761977
vt 0.200121 0.983496
vt 0.273266 0.761977
vt 0.263062 0.761977
vt 0.202174 0.983496
vt 0.131459 0.761977
vt 0.141663 0.761977
vt 0.273265 0.761977
vt 0.202362 0.983496
vt 0.246056 0.761977
vt 0.158669 0.761977
vt 0.523542 0.884848
vt 0.394973 0.822037
vt 0.519442 0.769177
vt 0.395611 0.816257
vt 0.522808 0.751550
vt 0.519301 0.870173
vt 0.395666 0.814555
vt 0.523883 0.752625
vt 0.519305 0.868526
vt 0.395988 0.817212
vt 0.523970 0.752712
vt 0.519303 0.868527
vt 0.959359 0.875014
vt 0.410181 0.704342
vt 0.959360 0.704342
vt 0.600543 1.638727
vt -0.120659 1.177689
vt 0.863400 3.502692
vt 0.542789 1.644592
vt 0.542789 -1.575538
vt 1.294403 -1.575538
vt -0.405173 2.812574
vt 1.204373 2.768077
vt 1.204373 2.854680
vt -0.405173 1.800856
vt -0.405173 2.112758
vt -0.405173 2.532935
vt -0.667213 2.512522
vt 1.049689 2.446332
vt 1.049689 2.532935
vt -0.667213 1.757555
vt 1.049689 1.714253
vt 1.049689 1.800856
vt -0.667213 2.058906
vt 1.049689 2.026155
vt 1.049689 2.112758
vt 0.559353 1.489939
vt -1.157549 1.512023
vt -1.157549 1.425420
vt 0.226752 0.446475
vt 0.677030 -0.737030
vt 1.848165 -0.737030
vt 1.266592 0.105214
vt 1.266592 0.640681
vt -2.658015 3.345641
vt -1.357836 3.293116
vt -1.357836 3.379718
vt -2.658015 3.614862
vt -0.667213 2.532935
vt -0.667213 2.446332
vt -2.055002 1.800856
vt -2.055002 2.112758
vt -2.545338 1.425786
vt -0.667213 2.798048
vt -2.055002 2.854680
vt -2.055002 2.768077
vt -2.626409 2.693808
vt -2.626409 2.607205
vt -3.116745 1.486364
vt -0.895510 1.425420
vt -0.895510 1.512023
vt -2.626409 1.944371
vt -0.405173 1.875126
vt -0.405173 1.961729
vt -0.405173 2.285459
vt -2.098086 2.285459
vt -2.098086 2.372063
vt 0.407961 2.305820
vt -0.082375 1.489939
vt -2.588422 1.425420
vt -2.588422 1.512023
vt -2.098086 1.785542
vt 0.407961 1.800856
vt 0.407961 1.714253
vt 0.407961 1.918418
vt -2.098086 1.875126
vt -2.098086 1.961729
vt -2.098086 2.048664
vt 0.407961 2.112758
vt 0.407961 2.026155
vt -2.098086 2.514891
vt 0.407961 2.532935
vt 0.407961 2.446332
vt -2.098086 1.762663
vt -2.626409 2.112758
vt -2.098086 2.607206
vt -0.165095 1.108621
vt 0.725310 2.714756
vt 0.725310 2.649014
vt 1.324332 2.667544
vt 0.725310 2.893259
vt 1.324332 2.942483
vt 0.725310 2.959002
vt 0.383719 0.173510
vt -2.471725 1.800856
vt -2.471725 2.285459
vt -2.471725 2.372063
vt -0.250490 2.320667
vt -2.471725 2.693808
vt -0.250490 2.693808
vt -0.250490 2.607205
vt 0.498590 0.233844
vt 0.470235 2.322356
vt -2.471725 2.080703
vt -2.962061 1.512023
vt -2.962061 1.425420
vt -2.545338 1.425573
vt -2.471725 1.749789
vt -2.471725 1.961729
vt -2.471725 1.875126
vt -2.055002 1.918839
vt -2.055002 2.332899
vt 1.049689 2.048664
vt 0.482366 -0.712008
vt 0.284745 -1.156903
vt 0.284746 2.063226
vt -0.165531 2.063226
vt -0.165531 -1.156903
vt -2.284375 3.502692
vt 0.221672 3.540592
vt 0.221672 3.453989
vt 0.337547 1.091058
vt -0.082375 1.425420
vt 1.204373 1.913528
vt 0.407961 1.875126
vt 0.407961 1.961729
vt 0.407961 2.058906
vt 0.407961 2.372063
vt 1.204373 2.331821
vt 0.407961 2.285459
vt 0.407961 2.512522
vt 0.338357 1.336361
vt -0.008380 -0.938127
vt 1.162756 -0.938127
vt 1.613031 1.237170
vt 1.192794 0.591156
vt -2.812698 3.540592
vt 0.109188 -0.632865
vt 0.389190 -0.660016
vt -2.812698 3.701465
vt 1.224475 0.641203
vt -0.436779 3.658224
vt 1.730601 -0.755274
vt 0.681733 -1.363070
vt 1.226818 -0.715030
vt 0.863400 3.540592
vt -1.357836 3.540592
vt 0.863400 3.453989
vt -1.357836 3.453989
vt 0.329984 1.676575
vt 0.536679 2.319788
vt 0.434134 -0.193782
vt 0.500295 1.678668
vt 0.425959 1.678668
vt 0.500295 -0.998440
vt 0.425959 -0.998441
vt 0.427837 2.311975
vt 0.500295 0.515268
vt 0.425959 0.515268
vt 0.429334 1.194639
vt 0.429334 -0.729647
vt 0.425959 2.214533
vt 0.500295 2.214533
vt 0.425959 1.280396
vt 0.500295 1.280396
vt 0.427837 -0.391497
vt 0.571482 1.280397
vt 0.645818 1.280397
vt 0.587672 -0.391498
vt 0.987155 0.162007
vt 0.987155 0.498590
vt 0.804947 0.498590
vt 0.012845 0.053224
vt 0.150760 0.946776
vt 0.150760 0.633063
vt 0.592684 0.392627
vt 0.592684 0.229885
vt 0.000000 0.567191
vt 1.000000 0.567191
vt 0.500000 0.432809
vt 0.000000 0.567191
vt 0.500000 0.432809
vt 0.000000 0.602951
vt 1.000000 0.602951
vt 0.500001 0.397049
vt 0.000000 0.602951
vt 0.000000 0.611478
vt 1.000000 0.611478
vt 0.499999 0.388522
vt 0.000000 0.611478
vt 0.000000 0.410160
vt 0.000000 0.413105
vt 1.000000 0.412134
vt 0.000000 0.561511
vt 0.000000 0.438489
vt 0.000000 0.678699
vt 2.136789 0.678699
vt 4.273579 0.678699
vt 0.660417 0.000892
vt 5.090528 0.678699
vt -0.170048 0.604485
vt -0.903837 0.604485
vt 0.866895 0.604485
vt 1.536941 0.604485
vt 0.804742 0.819776
vt 0.808499 0.917394
vt 0.800986 0.917394
vt 0.787185 0.819776
vt 0.790941 0.924097
vt 0.783428 0.924097
vt 0.311136 0.424310
vt 0.921824 0.492925
vt 0.929337 0.492925
vt 0.925581 0.590542
vt 0.792207 0.819776
vt 0.799720 0.819776
vt 0.795963 0.924097
vt 0.705162 0.370425
vt 0.330139 0.424310
vt 0.804742 0.819776
vt 0.000000 0.000000
vt 0.338578 -1.130761
vt 0.661422 -1.130761
vt 2.123152 0.370831
vt 2.130761 0.627075
vt 2.076779 0.627075
vt 2.076779 0.600900
vt 0.281301 0.627075
vt 0.390048 0.627075
vt 0.647723 0.627075
vt -1.129371 0.370831
vt -1.130761 0.627075
vt -1.076779 0.627075
vt 0.307476 2.076780
vt 0.442628 0.123592
vt 0.100636 0.838954
vt 0.839018 0.899323
vt 0.899397 0.160952
vt 0.549707 0.875670
vt 0.161016 0.100569
vt 0.520785 0.816171
vt 0.397067 0.769354
vt 0.393271 0.885218
vt 0.538784 0.874778
vt 0.161021 0.100561
vt 0.899390 0.160946
vt 0.520606 0.818605
vt 0.397492 0.770944
vt 0.393305 0.885252
vt 0.598818 0.136365
vt 0.100636 0.838953
vt 0.839015 0.899329
vt 0.391170 0.862712
vt 0.899385 0.160941
vt 0.161012 0.100574
vt 0.520683 0.822500
vt 0.392375 0.884322
vt 0.398203 0.773629
vt 0.616429 0.137815
vt 0.100639 0.838951
vt 0.839013 0.899325
vt 0.606872 0.137025
vt 0.100637 0.838956
vt 0.839013 0.899328
vt 0.410181 0.875014
s 1
usemtl GT_MC_Tiling_Grey_Concrete_Slab
f 1/67/52 57/68/53 37/69/54
f 44/141/99 153/142/100 156/143/101
f 155/144/102 154/145/103 55/146/35
f 36/147/77 59/148/79 38/149/43
f 63/150/5 62/151/104 2/152/3
f 2/153/3 62/154/105 71/155/95
f 103/171/113 101/172/114 102/173/115
f 104/174/116 106/175/117 105/176/118
f 163/213/152 161/214/152 162/215/152
f 164/216/152 165/217/152 166/218/152
f 48/402/69 15/403/31 40/404/198
f 44/405/187 156/406/101 28/407/63
f 58/408/44 157/409/199 33/410/56
f 33/411/56 155/412/200 55/413/55
f 157/414/201 58/415/64 28/416/63
f 38/417/61 59/418/1 31/419/62
f 89/428/152 91/429/152 90/430/152
f 91/429/152 89/431/152 90/430/152
f 92/428/203 94/429/203 93/432/204
f 94/429/203 92/431/203 93/432/204
f 95/433/147 97/434/147 96/435/147
f 97/434/147 95/436/147 96/435/147
f 98/437/152 100/438/152 99/439/152
f 100/438/152 98/440/152 99/439/152
f 102/441/115 101/442/114 103/443/113
f 106/175/117 104/444/116 105/445/118
f 158/471/207 52/471/208 21/471/209
f 21/471/40 19/471/42 37/471/54
f 19/471/42 32/471/179 37/471/54
f 37/471/54 57/471/53 159/471/57
f 155/471/200 33/471/56 157/471/199
f 157/471/201 28/471/63 156/471/101
f 48/471/69 40/471/198 153/471/195
f 157/471/201 156/471/101 153/471/100
f 163/213/152 162/472/152 161/214/152
f 164/216/152 166/473/152 165/217/152
usemtl GT_MC_Glass_Facade_3
f 39/7/7 13/8/8 17/9/9
f 41/10/10 16/11/11 15/12/12
f 12/13/13 42/14/14 41/15/10
f 13/16/8 43/17/15 12/18/13
f 22/19/16 20/20/17 47/21/18
f 47/22/18 45/23/19 46/24/20
f 8/31/24 65/32/27 10/33/28
f 65/34/27 66/35/29 7/36/22
f 50/37/30 15/38/31 49/39/32
f 23/40/33 41/41/34 50/42/30
f 55/43/35 25/44/36 54/45/37
f 54/46/37 53/47/38 56/48/39
f 38/52/43 58/53/44 34/54/45
f 68/55/46 69/56/47 65/57/27
f 34/64/45 54/65/50 35/66/51
f 55/70/55 34/71/45 33/72/56
f 39/76/7 53/77/38 43/78/15
f 17/79/9 53/80/38 39/81/7
f 30/82/60 38/83/61 31/84/62
f 28/85/63 58/86/64 29/87/65
f 58/88/64 30/89/60 29/90/65
f 48/97/69 22/98/70 49/99/71
f 49/12/71 22/100/70 50/10/72
f 73/110/80 63/111/81 64/112/78
f 7/119/22 14/120/86 10/121/28
f 10/122/28 75/110/85 8/123/84
f 73/127/87 14/33/89 72/128/90
f 2/268/3 64/127/2 63/128/5
f 17/272/9 13/273/8 60/274/74
f 41/10/10 42/275/14 16/11/11
f 12/13/13 43/276/15 42/14/14
f 13/16/8 39/277/7 43/17/15
f 46/278/20 45/279/19 18/280/67
f 22/281/16 44/282/99 20/283/17
f 47/284/18 20/285/17 45/286/19
f 44/287/99 22/288/16 153/289/100
f 8/295/24 67/296/26 65/297/27
f 10/298/28 65/34/27 7/36/22
f 51/299/49 13/76/182 12/78/183
f 12/78/183 23/300/33 51/299/49
f 50/37/30 41/301/34 15/38/31
f 23/40/33 12/302/183 41/41/34
f 15/303/31 48/289/69 49/288/32
f 51/304/49 60/305/68 13/306/182
f 61/307/83 56/308/39 27/9/181
f 56/308/39 53/7/38 27/9/181
f 55/309/35 154/310/103 25/311/36
f 54/312/37 25/313/36 26/314/184
f 54/46/37 26/315/184 53/47/38
f 30/316/185 31/317/62 45/318/186
f 44/319/187 28/320/63 29/321/188
f 29/322/188 20/323/189 44/324/187
f 20/325/189 29/326/188 30/327/185
f 30/328/185 45/329/186 20/330/189
f 31/331/62 18/332/67 45/333/186
f 34/45/45 58/334/44 33/43/56
f 35/335/51 38/52/43 34/54/45
f 38/336/43 35/308/51 36/307/77
f 65/338/27 67/339/111 68/340/46
f 65/341/27 69/342/47 66/343/29
f 55/70/55 54/345/50 34/71/45
f 54/346/50 56/347/39 35/348/51
f 61/349/83 36/350/88 35/351/51
f 35/351/51 56/80/39 61/349/83
f 43/302/15 26/354/192 42/41/14
f 25/355/193 154/356/194 16/357/11
f 42/301/14 25/358/193 16/38/11
f 26/359/192 25/360/193 42/361/14
f 43/362/15 53/347/38 26/346/192
f 17/79/9 27/349/181 53/80/38
f 30/363/60 58/64/64 38/66/61
f 2/369/3 71/370/95 70/371/66
f 48/97/69 153/373/195 22/98/70
f 50/374/72 22/375/70 47/376/18
f 47/377/18 23/13/33 50/15/72
f 46/378/20 23/379/33 47/380/18
f 51/16/49 23/18/33 46/381/20
f 73/110/80 72/387/76 63/111/81
f 7/119/22 74/390/82 14/120/86
f 10/122/28 14/387/86 75/110/85
f 73/127/87 75/31/196 14/33/89
f 72/392/90 14/298/89 74/36/91
f 71/396/95 69/397/47 70/398/66
f 69/397/47 68/399/190 70/398/66
usemtl GT_MC_Tiling_Grey_Horizontal_Tile
f 59/1/1 64/2/2 2/3/3
f 80/4/4 63/5/5 82/6/6
f 88/25/21 7/26/22 76/27/23
f 8/28/24 85/29/25 67/30/26
f 21/49/40 5/50/41 19/51/42
f 76/58/23 66/59/29 69/60/47
f 87/61/48 51/62/49 46/63/20
f 159/73/57 1/74/58 3/75/59
f 31/91/62 70/92/66 18/93/67
f 87/94/48 60/95/68 51/96/49
f 77/101/73 17/102/9 60/103/74
f 81/104/75 82/105/6 72/106/76
f 36/107/77 64/108/78 59/109/79
f 88/113/21 74/114/82 7/115/22
f 61/116/83 8/117/84 75/118/85
f 61/124/83 73/125/87 36/126/88
f 81/129/75 74/130/91 11/131/92
f 86/132/93 18/133/67 70/134/66
f 9/135/94 69/136/47 71/137/95
f 159/138/96 4/139/97 24/140/98
f 168/219/153 170/220/154 171/221/155
f 178/222/156 174/223/157 168/224/158
f 167/225/159 176/226/160 171/227/155
f 178/228/161 171/229/155 176/230/162
f 31/266/62 59/1/1 2/3/3
f 80/4/4 62/267/104 63/5/5
f 32/269/179 19/270/42 5/271/180
f 7/26/22 66/290/29 76/27/23
f 76/27/23 6/291/109 78/292/108
f 78/292/108 88/25/21 76/27/23
f 8/28/24 27/293/181 85/29/25
f 27/293/181 17/294/9 85/29/25
f 79/337/110 76/58/23 69/60/47
f 86/344/93 87/61/48 46/63/20
f 159/73/57 57/353/53 1/74/58
f 31/91/62 2/364/3 70/92/66
f 71/365/95 62/366/105 80/367/4
f 80/367/4 9/368/94 71/365/95
f 87/94/48 77/372/73 60/95/68
f 77/101/73 85/382/25 17/102/9
f 81/104/75 78/383/108 82/105/6
f 78/383/108 6/384/109 82/105/6
f 82/105/6 63/385/81 72/106/76
f 36/107/77 73/386/80 64/108/78
f 88/113/21 11/388/92 74/114/82
f 61/116/83 27/389/181 8/117/84
f 61/124/83 75/391/196 73/125/87
f 81/129/75 72/393/90 74/130/91
f 70/134/66 68/394/190 86/132/93
f 86/132/93 46/395/20 18/133/67
f 9/135/94 79/400/110 69/136/47
f 159/138/96 3/401/197 4/139/97
f 171/474/155 169/475/210 167/476/159
f 168/224/158 174/223/157 172/477/211
f 168/219/158 172/478/211 173/479/212
f 169/480/210 171/221/155 170/220/154
f 178/481/156 177/482/213 174/483/157
f 167/225/159 175/223/214 176/226/160
f 178/228/161 168/484/153 171/229/155
usemtl GT_MC_Tiling_X_Dark_Concrete
f 84/156/106 83/157/107 85/158/25
f 81/159/75 88/160/21 78/161/108
f 9/162/94 6/163/109 79/164/110
f 67/165/111 84/166/112 68/167/46
f 85/168/25 83/169/107 67/170/26
f 68/170/190 84/169/191 86/352/93
f 85/158/25 77/420/73 84/156/106
f 77/420/73 87/421/48 84/156/106
f 87/421/48 86/422/93 84/156/106
f 81/159/75 11/423/92 88/160/21
f 9/162/94 80/424/4 6/163/109
f 80/424/4 82/425/6 6/163/109
f 6/163/109 76/426/23 79/164/110
f 67/165/111 83/427/202 84/166/112
s 0
f 193/485/215 191/486/215 192/487/215
f 194/488/216 195/489/216 196/490/216
f 199/494/218 197/495/218 198/496/218
f 202/500/220 201/501/220 200/502/220
f 203/503/221 205/504/221 204/505/221
f 208/509/223 207/510/223 206/511/223
f 211/512/224 210/513/224 209/514/224
s 1
usemtl GT_MC_Tiling_Dirty_Metal
f 128/455/152 127/456/152 126/457/152
f 128/458/152 126/459/152 127/460/152
f 132/462/152 131/463/152 133/464/152
f 131/465/152 132/466/152 133/467/152
f 141/457/152 140/456/152 142/470/152
f 140/460/152 141/459/152 142/458/152
f 147/464/152 146/463/152 145/462/152
f 147/467/152 145/466/152 146/465/152
usemtl GT_MC_Tiling_White_Paint
f 107/186/119 108/187/122 109/188/128
f 107/186/119 110/449/125 108/187/122
s 0
usemtl GT_MC_Light
f 181/231/163 179/232/163 180/233/163
f 181/234/164 180/235/164 179/236/164
f 183/237/165 184/238/165 182/239/165
f 182/240/166 184/241/166 183/242/166
f 185/243/166 187/244/166 186/245/166
f 186/246/165 187/244/165 185/247/165
f 189/248/167 190/249/167 188/250/167
f 189/248/168 188/250/168 190/249/168
f 191/251/169 193/252/169 192/253/169
f 202/254/170 200/255/170 201/256/170
f 208/257/171 206/258/171 207/259/171
f 211/260/172 209/261/172 210/262/172
f 195/491/217 194/492/217 196/493/217
f 199/497/219 198/498/219 197/499/219
f 203/506/222 204/507/222 205/508/222
s 1
usemtl GT_MC_Trimsheet_1
f 213/263/173 212/264/174 214/265/175
f 217/263/173 216/264/174 218/265/175
f 221/263/173 220/264/174 222/265/175
f 225/263/173 224/264/174 226/265/175
f 229/263/176 228/264/177 230/265/178
f 233/263/176 232/264/177 234/265/178
f 237/263/176 236/264/177 238/265/178
f 213/263/173 215/515/225 212/264/174
f 217/263/173 219/515/225 216/264/174
f 221/263/173 223/515/225 220/264/174
f 225/263/173 227/515/225 224/264/174
f 229/263/176 231/515/226 228/264/177
f 233/263/176 235/515/226 232/264/177
f 237/263/176 239/515/226 236/264/177
usemtl GT_MC_Tiling_X_White_Corrugated
f 107/177/119 111/178/120 114/179/121
f 108/180/122 112/181/123 113/182/124
f 110/183/125 114/184/126 112/185/127
f 109/189/128 113/190/129 111/191/130
f 107/177/119 109/446/128 111/178/120
f 108/180/122 110/447/125 112/181/123
f 110/183/125 107/448/119 114/184/126
f 109/189/128 108/450/122 113/190/129
usemtl GT_MC_Tiling_Dark_Concrete_Slab
f 115/192/131 116/193/132 117/194/133
f 116/195/132 122/196/134 119/197/135
f 120/192/136 119/193/136 122/198/136
f 117/199/133 119/200/137 118/201/138
f 121/202/139 120/201/140 122/200/141
f 115/203/131 118/197/142 120/204/143
f 115/192/131 121/198/139 116/193/132
f 116/195/132 121/451/139 122/196/134
f 120/192/136 118/194/136 119/193/136
f 117/199/133 116/452/132 119/200/137
f 121/202/139 115/453/131 120/201/140
f 115/203/131 117/454/133 118/197/142
usemtl GT_MC_Tiling_X_Light_Concrete
f 135/208/147 134/209/147 136/210/148
f 149/209/147 150/208/147 148/210/148
f 135/208/147 137/468/147 134/209/147
f 149/209/147 151/468/147 150/208/147
usemtl GT_MC_Facade_1
f 125/205/144 130/206/145 124/207/146
f 143/211/149 139/212/150 138/207/151
f 130/206/145 125/205/144 129/461/205
f 143/211/149 144/469/206 139/212/150
