# Blender 5.1.0
# www.blender.org
mtllib building25.mtl
o GT_MC_Large_Building.0025
v -20.443624 134.924316 13.818027
v 20.428595 135.046967 -13.377424
v 17.589933 90.992416 -12.992256
v -23.597162 0.215449 -14.481574
v 23.596146 0.214906 14.482907
v 23.596046 0.214847 -14.850829
v 20.458118 134.693970 -13.564986
v 22.380638 -7.918404 -13.564983
v 22.380638 -7.918404 13.564983
v -20.039801 134.694031 -13.564983
v -22.380638 -7.918404 -13.564983
v -22.380638 -7.918404 13.564983
v -21.631741 5.379773 -12.946675
v 21.630896 5.380031 12.946256
v 21.630919 5.377250 -12.946762
v -21.632015 5.393664 12.946256
v 21.724981 9.677803 12.951086
v 21.724968 9.663906 -12.949867
v -21.832693 13.963345 -12.946393
v -22.161907 26.809658 -12.946255
v 22.840076 78.242699 -12.951150
v -22.844660 78.234192 12.946250
v -22.823507 82.522728 -12.946255
v 22.753950 82.526237 12.946270
v 22.818178 82.529060 -12.946267
v -22.823507 82.530136 12.946259
v -22.744167 86.811028 -12.946252
v 22.750383 86.817200 -12.946266
v -22.744169 86.818420 12.946262
v -22.605183 91.100182 -12.946249
v 22.630022 91.106339 -12.946265
v -22.404732 95.388870 -12.946247
v 22.454369 95.394989 -12.946265
v -19.593832 129.680878 -12.946241
v 19.724234 129.680054 12.946281
v -19.593840 129.687897 12.946282
v 22.757080 0.709171 4.635163
v 22.651678 0.700352 11.186557
v -22.539785 -6.565244 -11.160567
v 22.547243 0.444008 -13.590578
v 24.900246 87.232635 -14.299565
v -16.626215 0.917210 13.547000
v -18.505821 85.243179 13.735390
v 23.307886 85.464897 -13.472492
v -23.188692 96.953056 -11.048936
v -24.063169 87.112411 -13.564986
v 19.886478 0.917914 13.883735
v 24.853531 80.687225 -11.606130
v 22.672079 0.701907 -7.792098
v 24.255287 86.968140 13.759224
v 22.524431 0.445349 13.577857
v -20.043503 134.694031 13.564983
v -24.148247 87.123360 13.560594
v -23.594357 0.215404 14.850714
v 18.423487 82.763443 13.853165
v 16.501144 -3.577981 13.890189
v -25.024048 86.031265 -11.258647
v 11.305056 86.571358 -13.864697
v -24.496988 89.742828 -13.506124
v -22.546701 0.444160 -13.524703
v 22.674740 0.702053 -4.516239
v -22.920225 0.707636 1.453777
v 3.452115 135.466400 -12.900627
v -22.546806 0.444128 13.524665
v -24.495609 89.772690 13.506346
v -21.990429 86.220695 13.875381
v -16.725660 0.923038 -14.184498
v -19.918756 0.919922 -14.137940
v -21.985422 87.545891 -13.775537
v 22.792557 0.697173 1.415033
v 22.550596 0.699413 -1.150247
v -20.444605 134.923981 -13.817479
v 19.783762 -3.881205 -13.851837
v 24.972111 84.952507 -12.890582
v -19.784164 -3.906602 13.851722
v 21.422722 134.532501 13.562683
v 23.238136 89.676285 -11.148755
v -25.024050 86.031273 11.258648
v -22.539787 -6.565221 11.160567
v 24.126423 85.748520 -13.564788
v -22.786819 0.705817 -1.343159
v 21.935589 81.895103 13.739896
v 20.483688 93.404755 13.941170
v 22.655037 0.700482 7.911015
v 24.769468 87.045296 -10.936631
v 21.995731 85.719620 -13.875373
v 16.747906 0.919299 -14.097777
v 16.365444 135.772552 13.070719
v 19.034168 135.773010 13.070611
v -10.413245 135.782166 -13.071599
v 20.748823 136.197510 14.387152
v -20.664373 136.559296 -14.424478
v -20.519175 136.331970 14.271557
v -18.068897 166.673920 13.565005
v -19.529362 138.948151 -13.390594
v 19.726440 138.942108 13.390708
v 19.937065 138.947906 -13.390672
v -19.529369 138.955231 13.390685
v 19.541698 141.613708 13.390664
v 19.738329 141.616333 -13.390659
v -19.269676 141.618896 13.390662
v 19.550865 144.286255 -13.390665
v -18.155487 162.968018 -13.390628
v 18.663643 162.963928 13.390696
v 18.687361 162.971680 -13.390685
v -18.155489 162.974792 13.390652
v 19.480869 135.781219 0.191935
v 19.424980 166.191864 12.019832
v -20.648146 135.771790 -12.127279
v -18.312181 166.180603 -12.078197
v -20.624620 135.772949 12.045782
v -18.489334 135.798218 -13.072726
v 16.530165 135.772400 -14.659466
v 17.982481 166.181885 12.140890
v 18.552980 166.673889 13.564448
v -19.197910 135.772003 11.941718
v -18.817247 135.773041 -14.659628
v 21.070944 135.771912 -9.180437
v -15.799926 135.792053 13.072259
v -20.646624 135.771851 9.180202
v 12.784493 166.195618 13.070574
v -17.391346 166.175049 8.993006
v 18.802217 135.786407 14.658766
v 19.675854 144.401001 9.015017
v 18.728926 166.675262 -13.565216
v 20.948170 136.335419 -14.248071
v -19.001982 135.804626 -12.050494
v 19.248367 135.772705 -14.659548
v 21.059055 135.771973 -11.964518
v 19.397215 135.790039 -12.191281
v -18.817247 135.773041 14.659628
v -18.004585 166.673157 -13.564955
v -18.618654 166.699280 -13.590958
v -18.612347 166.698792 13.598528
v 18.618677 166.699280 13.590958
v 18.612345 166.698792 -13.598528
v -18.578770 166.507446 -13.565002
v 18.578648 166.436829 -13.565002
v 14.118875 178.719055 8.563546
v 14.131679 178.614075 -8.416835
v 14.057296 166.253235 8.474631
v -18.979023 179.430817 -13.579988
v 19.000641 179.428467 13.580604
v 18.965464 179.297485 -13.623095
v 19.314890 181.366943 13.759161
v 19.128080 181.878998 13.779035
v 18.943043 181.366913 13.796388
v -19.315012 181.366943 13.759161
v 18.942949 181.366913 -13.796152
v 19.118689 181.889923 -13.782804
v 19.308563 181.366455 -13.765202
v -19.308685 181.366455 -13.765202
v -19.119036 181.889404 -13.783644
v -18.943165 181.366913 -13.796387
v -19.201639 167.757843 14.019808
v -19.201639 177.654541 14.019808
v -19.201639 167.757843 -14.019808
v -19.201639 177.654541 -14.019808
v 19.201517 167.757843 14.019808
v 19.201517 177.654541 14.019808
v 19.201517 167.757843 -14.019808
v 19.201517 177.654541 -14.019808
v 17.811684 179.164459 12.557868
v 16.939651 179.164307 12.557829
v 17.373531 166.421906 12.557875
v 17.148741 178.844543 12.671627
v 17.071079 178.923004 12.388151
v 17.241159 178.918671 12.299047
v 17.519638 178.844940 12.372069
v -17.374788 166.421875 12.939146
v -17.374722 179.164337 12.558591
v -17.147844 178.845764 12.670485
v -17.338440 178.848145 12.368816
v 17.811043 166.421783 -12.939404
v 17.373531 179.164337 -12.557875
v 17.158445 166.421906 -12.367626
v 5.781615 166.730591 -12.559125
v 16.899044 177.814850 -12.599598
v 17.342360 178.844879 -12.372119
v 17.621174 178.918640 -12.299056
v -17.811165 179.164459 -12.939404
v -17.373653 166.421906 -12.557133
v -17.144581 178.848785 -12.488797
v -17.239750 178.921387 -12.296326
v -17.523809 178.848816 -12.368069
v 14.123861 -6.935251 14.496862
v 15.114051 -7.917540 13.270811
v 15.066340 -4.706750 13.254661
v 14.129224 -6.745592 -14.527535
v 15.114051 -7.917540 -13.270811
v 15.066340 -4.706750 -13.254661
vn 0.9890 -0.1478 -0.0000
vn -0.0000 -0.1120 -0.9937
vn -0.0000 -1.0000 -0.0000
vn -0.0000 -0.1121 0.9937
vn -0.0000 1.0000 0.0060
vn -0.9890 -0.1476 -0.0000
vn 0.9974 0.0166 0.0695
vn -0.0000 -0.0000 -1.0000
vn 0.0003 0.0105 -0.9999
vn 0.0636 0.0012 -0.9980
vn 0.0078 0.0149 0.9999
vn 0.0001 -0.0001 1.0000
vn 0.9912 0.0908 0.0964
vn -0.3296 0.0016 0.9441
vn -0.1262 0.0014 -0.9920
vn -0.1034 -0.0017 0.9946
vn -0.9963 0.0860 -0.0001
vn -1.0000 -0.0064 0.0001
vn -0.0053 -1.0000 -0.0079
vn -0.0032 -1.0000 -0.0048
vn 0.0466 -0.0020 -0.9989
vn -0.0000 0.0233 0.9997
vn -0.0466 0.0020 0.9989
vn -0.9968 0.0804 -0.0024
vn 0.0044 0.0281 -0.9996
vn 0.9972 0.0746 0.0074
vn 0.9972 0.0742 0.0059
vn 0.9972 0.0744 0.0060
vn 0.0035 1.0000 -0.0048
vn 0.0996 -0.0023 0.9950
vn -0.0996 0.0023 -0.9950
vn 0.0843 -0.0029 -0.9964
vn -0.0843 0.0029 0.9964
vn -0.0850 -0.0043 -0.9964
vn 0.0850 0.0043 0.9964
vn -1.0000 -0.0000 -0.0000
vn 1.0000 -0.0000 -0.0000
vn -0.0000 -0.0000 1.0000
vn -0.0000 1.0000 -0.0000
vn -0.0000 -0.0000 -0.0000
vn -0.0077 -0.1550 -0.9879
vn 0.0077 -0.1550 0.9879
vn 0.0039 1.0000 -0.0000
vn -0.9890 -0.1479 0.0001
vn 1.0000 -0.0062 -0.0000
vn 0.9966 0.0747 -0.0350
vn 0.3090 0.1036 -0.9454
vn 0.1034 0.0017 -0.9946
vn -0.0078 0.0151 -0.9999
vn 0.0635 0.0012 0.9980
vn -0.0071 0.0067 1.0000
vn 0.9950 -0.0278 -0.0957
vn -0.3358 -0.0213 0.9417
vn -0.0636 -0.0012 0.9980
vn -0.4398 -0.0238 -0.8978
vn -0.4656 0.0054 -0.8850
vn -0.0635 -0.0012 -0.9980
vn -0.3090 -0.1036 0.9454
vn 0.1262 -0.0014 0.9920
vn -0.9964 0.0843 -0.0032
vn -1.0000 -0.0053 -0.0031
vn -0.0027 0.0268 0.9996
vn -0.9961 0.0878 0.0057
vn -0.0000 0.0225 -0.9997
vn 0.9975 0.0697 0.0085
vn 0.9975 0.0695 0.0082
vn 0.9976 0.0691 0.0062
vn 1.0000 -0.0049 0.0008
vn 0.9934 -0.1148 -0.0000
vt 0.952166 -2.181655
vt 0.047834 -2.433713
vt 0.952166 -2.433713
vt -0.250212 -2.181655
vt 1.246021 -2.433713
vt -0.246021 -2.433713
vt 1.246021 0.952166
vt -0.246021 0.047834
vt -0.246021 0.952166
vt 1.250211 -2.181655
vt -0.168301 0.952166
vt 1.174440 0.047834
vt 1.182184 0.952166
vt 0.047834 -2.181655
vt 0.952166 1.099878
vt 0.047834 2.723377
vt 0.047834 -1.731766
vt -0.168298 2.731784
vt 1.282227 1.099878
vt -0.282157 1.145083
vt -0.250967 -1.731758
vt 0.048797 -2.154916
vt 0.072324 0.701483
vt 0.052908 2.326106
vt 1.250966 -1.731766
vt -0.278826 1.145517
vt -0.250966 -1.731771
vt 1.174983 2.723377
vt -0.168299 2.731773
vt 0.927677 0.661605
vt 0.976658 0.737559
vt 0.947729 2.331484
vt 1.309318 0.661605
vt 1.256641 0.680273
vt 1.250736 -2.154917
vt 1.150696 1.135510
vt 1.217132 0.392875
vt 1.155516 -2.139155
vt -0.252627 -2.146414
vt -0.238479 1.035975
vt -0.310707 0.758704
vt 0.047834 2.731773
vt 0.952166 2.731784
vt 0.047834 1.145517
vt 0.952166 -1.731758
vt 0.047834 -1.731771
vt -0.202347 0.990363
vt 1.216274 0.990363
vt -0.202347 0.009637
vt 1.207714 0.009637
vt -0.116150 3.369963
vt -0.140917 2.356670
vt -0.189152 2.356095
vt 1.242947 0.788052
vt -0.242947 0.788044
vt -0.242947 -0.207578
vt -0.140799 2.358422
vt -0.189161 2.355946
vt 0.952166 0.788101
vt 0.047834 -0.207578
vt 0.047834 0.788044
vt -0.242947 0.788101
vt 1.242947 -0.207472
vt -0.242947 -0.207586
vt 0.047834 -0.207611
vt 0.952166 -0.207472
vt 0.047834 0.788052
vt -0.124266 0.943205
vt 1.124266 0.056795
vt 1.124266 0.943205
vt 0.202712 0.983496
vt 0.246056 0.761977
vt 0.158669 0.761977
vt 0.201582 0.983496
vt 0.200907 0.983496
vt 0.201572 0.983496
vt 0.201102 0.983496
vt 0.134931 0.628853
vt 0.865069 0.371147
vt 0.134931 0.371147
vt 0.000000 0.628853
vt 1.000000 0.371147
vt 0.000000 0.371147
vt 0.865069 0.628853
vt 1.000000 0.628853
vt 1.000000 0.865069
vt 0.000000 0.134931
vt 0.000000 0.865069
vt 1.000000 0.134931
vt 0.949923 1.000000
vt 0.978091 0.000000
vt 0.942079 0.000000
vt 0.048826 1.000000
vt 0.078906 0.000000
vt 0.018899 0.000000
vt 1.246021 0.047834
vt -0.168301 0.047834
vt 0.952166 -1.731769
vt 0.952166 2.731775
vt 1.313709 0.733334
vt 1.312726 0.533023
vt 1.259498 0.716235
vt -0.314066 0.672015
vt 1.182182 2.731775
vt 1.250966 -1.731769
vt 0.951203 -2.154916
vt 0.947070 2.326092
vt 0.927677 0.696029
vt 0.952350 -2.154915
vt 1.172739 2.331487
vt -0.304599 0.760665
vt -0.242544 -2.154914
vt -0.167663 2.326099
vt 1.181331 2.331480
vt 1.306851 0.737559
vt 1.255565 0.770398
vt 1.250377 -2.154913
vt -0.167662 2.326086
vt -0.242543 -2.154914
vt -0.304599 0.760669
vt 1.257572 0.712576
vt 1.169114 -2.139157
vt 1.211992 0.613969
vt 1.159343 0.792006
vt 0.952166 1.145083
vt 1.242947 -0.207611
vt 0.952166 -0.207586
vt 1.242947 0.788013
vt 0.952166 0.788013
vt 0.952167 0.713031
vt 0.047833 0.712720
vt 0.047833 0.267850
vt 0.983727 1.000000
vt 0.927391 1.000000
vt 0.951418 0.000000
vt 0.921692 1.000000
s 0
usemtl GT_MC_Tiling_Grey_Horizontal_Tile
f 6/1/1 9/2/1 8/3/1
f 4/4/2 8/5/2 11/6/2
f 8/7/3 12/8/3 11/9/3
f 5/10/4 12/6/4 9/5/4
f 54/14/6 11/3/6 12/2/6
f 64/22/10 65/23/10 1/24/10
f 74/30/13 41/31/13 2/32/13
f 74/33/14 44/34/14 40/35/14
f 83/36/15 82/37/15 47/38/15
f 39/39/16 45/40/16 57/41/16
f 142/68/29 143/69/29 144/70/29
f 6/1/1 5/14/1 9/2/1
f 4/4/41 6/10/41 8/5/41
f 8/7/3 9/96/3 12/8/3
f 5/10/42 54/4/42 12/6/42
f 54/14/44 4/1/44 11/3/44
f 85/100/47 48/101/47 77/102/47
f 45/40/48 39/39/48 57/103/48
f 60/106/50 72/107/50 59/108/50
f 74/30/52 40/109/52 41/31/52
f 44/34/53 74/33/53 2/110/53
f 65/111/54 64/112/54 1/113/54
f 2/114/55 41/115/55 44/116/55
f 44/116/56 41/115/56 40/117/56
f 72/118/57 60/119/57 59/120/57
f 48/101/58 85/100/58 77/121/58
f 47/122/59 82/123/59 83/124/59
usemtl GT_MC_Glass_Facade_3
f 10/11/5 76/12/5 7/13/5
f 80/15/7 76/16/7 5/17/7
f 10/18/8 80/19/8 46/20/8
f 80/19/9 4/21/9 46/20/9
f 5/25/11 53/26/11 54/27/11
f 76/28/12 52/29/12 53/26/12
f 52/42/17 10/43/17 53/44/17
f 4/45/18 54/46/18 53/44/18
f 10/11/43 52/97/43 76/12/43
f 6/98/45 80/15/45 5/17/45
f 76/16/46 80/15/46 7/99/46
f 10/18/8 7/104/8 80/19/8
f 80/19/49 6/105/49 4/21/49
f 5/25/51 76/28/51 53/26/51
f 53/44/60 10/43/60 46/125/60
f 53/44/61 46/125/61 4/45/61
usemtl GT_MC_Glass_Facade_2
f 115/54/22 94/55/22 93/56/22
f 132/59/24 93/60/24 94/61/24
f 132/62/25 126/63/25 92/64/25
f 91/65/26 126/66/27 115/67/28
f 91/126/62 115/54/62 93/56/62
f 132/59/63 92/127/63 93/60/63
f 132/62/64 125/128/64 126/63/64
f 115/67/65 126/66/66 125/129/67
usemtl GT_MC_Tiling_Wide_Brick
f 92/47/19 126/48/19 93/49/19
f 91/50/20 93/49/20 126/48/20
f 110/51/21 127/52/21 109/53/21
f 127/57/23 110/51/23 109/58/23
usemtl GT_MC_Transparent_Glass
f 156/78/36 157/79/36 155/80/36
f 158/81/8 161/82/8 157/83/8
f 162/84/37 159/80/37 161/79/37
f 160/85/38 155/83/38 159/82/38
f 161/86/3 155/87/3 157/88/3
f 158/88/39 160/89/39 162/86/39
f 156/78/36 158/84/36 157/79/36
f 158/81/8 162/85/8 161/82/8
f 162/84/37 160/78/37 159/80/37
f 160/85/38 156/81/38 155/83/38
f 161/86/3 159/89/3 155/87/3
f 158/88/39 156/87/39 160/89/39
usemtl GT_MC_Light
f 146/71/30 147/72/30 145/73/30
f 146/71/31 145/73/31 147/72/31
f 149/72/32 150/74/32 151/73/32
f 151/73/33 150/75/33 149/72/33
f 153/76/34 154/72/34 152/73/34
f 153/77/35 152/73/35 154/72/35
usemtl GT_MC_Glass_Facade_4
f 140/130/68 139/131/68 141/132/68
s 1
usemtl GT_MC_Panel_1
f 175/90/40 174/91/40 176/92/40
f 175/93/40 176/94/40 174/95/40
f 163/133/40 164/134/69 165/135/37
f 164/136/69 163/133/40 165/135/37
l 15 14
l 17 18
l 23 26
l 27 29
l 35 36
l 34 36
l 43 42
l 50 51
l 69 68
l 87 3
l 96 98
l 101 99
l 104 106
l 106 103
l 117 112
l 111 116
l 134 133
l 135 134
l 136 135
l 137 138
l 166 167
l 169 168
l 179 180
l 184 185
l 188 187
l 191 190
l 13 15
l 14 16
l 13 16
l 23 25
l 25 24
l 26 24
l 27 28
l 30 31
l 32 33
l 34 35
l 66 75
l 73 86
l 55 56
l 79 78
l 97 96
l 95 98
l 95 97
l 100 99
l 103 105
l 104 105
l 120 122
l 130 129
l 89 123
l 108 114
l 136 133
l 170 171
l 177 178
l 181 182
