# Blender 5.1.0
# www.blender.org
mtllib building19.mtl
o GT_MC_Large_Building.019
v -14.050714 101.216171 -0.782205
v 3.274351 101.216164 -6.384427
v -0.865952 101.216171 -5.082623
v 10.573305 101.216171 2.168247
v -10.074014 101.216171 10.425895
v -10.088153 105.063766 10.713719
v 2.166117 105.063766 -4.389147
v -13.389183 101.216171 -0.461605
v -8.241695 101.216171 8.753669
v 1.474901 101.216171 -4.244937
v 4.235577 101.216171 -4.994761
v -10.749529 101.216164 0.029588
v 7.440145 101.216164 1.821115
v 4.037568 105.063766 -5.375691
v -14.022772 105.063766 0.239091
v -10.158222 105.063766 10.189445
v 1.821374 105.063766 -3.615438
v -8.236322 105.063766 8.314520
v -12.459639 129.355637 0.572177
v 7.556625 86.292084 1.875027
v 10.014819 -0.000001 3.009469
v -10.133200 129.385544 10.115065
v -1.973574 130.599365 8.011469
v 2.287908 129.385544 2.469018
v 9.618450 129.406128 1.624404
v 5.211987 129.369110 -5.113532
v 4.459453 129.385544 -0.597436
v 3.223291 20.490538 -8.351719
v -12.009905 83.006996 -1.713581
v 4.259001 103.536606 4.536551
v -13.652408 0.000066 0.556306
v -8.875862 0.077793 11.234255
v 5.278800 0.011963 -10.187605
v -10.988915 -0.000001 -5.514946
v -8.677658 20.495323 10.468757
v 5.546537 86.207222 7.844693
v -10.071471 6.736859 11.580284
v 0.322030 6.736859 -10.103011
v 10.550604 6.736859 4.255723
v 8.183786 6.736859 -5.549739
v 10.250864 5.782321 -1.451149
v 3.454111 5.848661 -9.486600
v -10.890855 6.736859 9.328632
v 2.073484 6.736859 13.234169
v 10.031530 6.736859 2.772633
v -13.278789 5.813498 3.390764
v -3.774277 5.782321 -9.909077
v 9.866971 5.782321 -1.346413
v 3.834365 5.627284 -8.650738
v -10.071471 10.001947 11.580284
v 0.322030 10.001947 -10.103011
v 8.183786 10.001947 -5.549739
v 10.250864 9.047409 -1.451149
v 3.359076 9.046961 -9.541849
v -10.890855 10.001947 9.328632
v 10.031530 10.001947 2.772633
v -12.173535 9.047409 7.992713
v 9.866971 9.047409 -1.346413
v 0.432604 9.251093 -10.320144
v -12.977979 13.396551 6.823123
v 11.079563 13.754308 3.393025
v -7.300140 13.394169 12.941807
v -12.627600 12.402487 7.375772
v -7.582088 12.395850 12.314021
v 10.591028 12.439623 3.378779
v -5.015186 12.361070 -10.172666
v 6.179622 12.431807 -8.103390
v -12.395232 13.338991 7.525731
v 0.436819 13.693683 -10.251812
v 8.431283 11.393980 -4.834570
v -6.023696 12.361070 -9.287383
v -12.524828 16.809107 7.584163
v 6.638395 16.942932 -7.734976
v -10.334881 16.809107 10.413079
v 10.590133 15.854562 3.387757
v -5.015186 15.854562 -10.172666
v 9.118783 15.854562 -3.741916
v 3.979438 15.712813 -9.246928
v -10.890855 16.809107 9.328632
v -7.127889 16.809107 12.335156
v 9.979556 16.809105 5.625311
v -12.173535 15.854562 7.992713
v 9.011891 15.829277 -2.955381
v 2.607273 15.692426 -9.336571
v -6.023697 15.854562 -9.287383
v 9.138951 19.116405 6.649046
v -12.985229 19.116405 5.447914
v -12.859650 19.116835 6.710010
v 9.151815 19.115980 -3.617527
v -3.277291 19.116468 -10.257904
v -7.580950 19.116909 12.425505
v 9.942931 19.117008 5.676801
v 10.064980 21.759766 4.169851
v 6.919740 21.704201 10.422724
v 10.034276 21.759769 2.981062
v -9.321225 20.416256 11.290334
v -4.005064 20.534601 -9.543558
v 6.574038 20.416256 10.138082
v 1.771642 20.692200 -9.930916
v 3.503700 19.636084 -8.914531
v -13.251085 49.369312 5.234901
v -10.059873 49.369305 10.138071
v -10.530150 26.122515 10.823542
v 7.044315 26.122522 -7.181312
v -14.118724 25.748985 0.968183
v -10.437906 26.122513 10.228746
v -13.767279 26.122517 -0.821776
v -8.276434 25.250952 8.391306
v 1.871189 24.950617 -0.655931
v -10.437906 29.427422 10.228746
v -8.276434 28.555857 8.391306
v -10.437906 32.732327 10.228746
v -8.276434 31.860765 8.391306
v 6.676108 35.489521 -6.584506
v 4.750488 35.165668 -4.672290
v -10.437906 39.342140 10.228746
v -8.276434 38.470577 8.391306
v -10.437906 42.647049 10.228746
v -8.276434 41.775486 8.391306
v -0.971205 87.021835 -4.818307
v -4.065014 87.021835 -4.479681
v -10.077506 87.021835 10.496986
v 1.755100 87.021835 -3.875952
v -13.573770 83.580414 0.773392
v -12.455614 84.146736 -0.182617
v -8.288744 80.777893 -4.920605
v 1.276001 80.368629 10.894049
v 4.217405 81.604088 -3.462300
v -14.055682 81.915100 1.867192
v -10.655360 80.107414 9.624676
v -4.197004 87.021835 -4.103574
v -9.633903 87.192726 9.451445
v -7.749921 87.021835 9.273573
v 3.709223 87.076767 -3.574067
v -8.623402 82.976303 -4.498896
v -4.035177 80.368790 -4.443224
v 1.412943 80.368790 -4.145606
v -3.604497 80.368805 11.179902
v -8.236322 53.844296 8.314520
v 6.639013 53.649185 -6.776640
v 6.588178 56.225132 -6.783666
v -10.280313 56.225124 10.470037
v 6.720508 57.170979 -7.133229
v -10.530150 57.170975 10.823540
v -8.267630 56.225124 -4.818600
v -8.236322 57.170975 8.314520
v 6.952071 57.170979 -6.586517
v -10.437906 57.170971 10.228746
v 6.720508 60.497646 -7.133229
v -14.051837 59.551804 2.067388
v -8.236322 60.497646 8.314520
v 6.720508 63.824329 -7.133229
v -14.051837 62.878468 2.067389
v -8.236322 63.824326 8.314520
v 6.588178 66.205162 -6.783666
v 6.720508 67.150993 -7.133229
v -10.530150 67.150993 10.823540
v -8.267630 66.205154 -4.818599
v -14.051837 66.205162 2.067388
v -8.236322 67.150993 8.314520
v 6.952071 67.150993 -6.586517
v -10.437906 67.150993 10.228746
v 6.720508 70.477684 -7.133229
v -14.051837 69.531845 2.067388
v -10.390179 70.467018 10.297564
v 6.588178 72.858513 -6.783666
v 6.720508 73.804367 -7.133229
v -10.530150 73.804359 10.823540
v -10.158222 72.858505 -6.547217
v -14.051837 72.858513 2.067388
v -8.236322 73.804359 8.314520
v 6.952071 73.804367 -6.586517
v -10.437906 73.804359 10.228746
v -9.729934 76.185196 10.084957
v -13.327653 76.185196 5.522999
v -10.088151 77.131035 10.713717
v -13.533354 77.131035 5.763719
v -8.276434 76.185196 8.391306
v -8.210133 77.131035 8.594378
v -8.276434 77.131035 -4.749076
v -13.357570 77.131035 4.433326
v -10.158222 77.131035 10.189445
v 3.274351 128.642685 -6.384429
v -10.073754 128.642685 10.243179
v -14.114093 128.642685 -0.696235
v 6.602320 128.642685 -7.071489
v -10.909746 130.571106 -0.331140
v 1.705668 128.642685 -4.072805
v -10.893995 128.642685 -1.249753
v -13.285637 128.642685 5.558325
v 3.971762 128.642685 -5.448771
v 6.574038 128.642685 -6.495842
v 4.750488 128.642685 -4.672290
v 1.813926 128.642685 -3.663765
v -14.050714 90.253540 -0.782205
v 0.592640 90.618721 -4.765425
v -10.557352 89.907303 10.444748
v -4.085333 90.253540 -4.339681
v -13.838633 91.194153 -0.245678
v -10.919256 91.219856 10.898372
v -9.485480 91.192581 -4.176107
v -13.389183 90.253540 -0.461605
v 1.474901 90.253540 -4.244937
v -10.154400 90.854767 10.179374
v 4.235576 90.253540 -4.994761
v -10.749529 90.253540 0.029588
v 4.037567 91.192581 -5.375691
v 1.821374 91.192581 -3.615438
v 7.572752 91.192558 1.862718
v -9.170890 91.192581 -3.932435
v -14.050714 93.641190 -0.782205
v -10.630022 93.428558 10.319202
v 4.724856 93.641182 -5.194028
v 3.486398 94.185516 -6.029424
v -14.022772 94.580215 0.239091
v -11.050438 94.500961 10.729537
v -13.389183 93.641190 -0.461605
v 8.771126 93.641190 -3.563855
v -10.189787 94.179871 10.192007
v 4.750488 93.641182 -4.672290
v 3.445578 93.837715 -5.558186
v -10.749529 93.641182 0.029588
v 4.037568 94.580215 -5.375691
v 1.821374 94.580215 -3.615438
v -14.050714 97.028831 -0.782205
v 0.592640 97.394005 -4.765425
v -10.411634 96.685883 10.017530
v -10.088154 97.967842 10.713721
v -13.859423 98.073074 -0.389021
v -13.533358 97.967850 5.763704
v -13.389183 97.028831 -0.461605
v 1.474901 97.028831 -4.244937
v -8.276434 97.028831 8.391306
v 4.577375 97.226479 -5.185475
v -10.749529 97.028824 0.029588
v 4.037568 97.967850 -5.375691
v 1.821374 97.967850 -3.615438
v -8.210133 97.967850 8.594378
v -10.158222 97.967850 10.189445
v -10.088152 109.133003 10.713719
v 10.232554 109.133011 2.014639
v 1.415352 109.133011 -4.211462
v 3.742188 109.133011 -5.647905
v -13.512776 108.524864 -0.879262
v -10.280313 108.147545 10.470038
v 10.446075 108.147545 2.208163
v 1.695920 108.147545 -4.188690
v -10.158222 109.133011 10.189445
v 10.124905 108.147545 1.787899
v 1.819864 108.147545 -3.510964
v 4.235576 108.147545 -4.994761
v -0.916095 108.147545 -4.687870
v -10.749529 108.147545 0.029588
v -10.088152 112.503220 10.713719
v 10.232554 112.503220 2.014639
v 1.415352 112.503220 -4.211462
v 3.742188 112.503220 -5.647905
v -14.022772 112.503220 0.239091
v -10.280313 111.517761 10.470038
v 10.446075 111.517761 2.208163
v 1.695920 111.517761 -4.188690
v -13.754766 111.517761 -0.922124
v -10.158222 112.503220 10.189445
v 10.124905 111.517761 1.787899
v 1.819864 111.517761 -3.510964
v 4.235576 111.517761 -4.994761
v -0.916095 111.517761 -4.687870
v -13.389183 111.517761 -0.461605
v -10.088152 115.873451 10.713719
v 10.232554 115.873459 2.014639
v 1.415352 115.873459 -4.211462
v 3.742188 115.873459 -5.647905
v -13.494918 115.354393 -0.648136
v -10.280313 114.887993 10.470038
v 10.446075 114.887993 2.208163
v 1.695920 114.887993 -4.188690
v -10.158222 115.873459 10.189445
v 10.124905 114.887993 1.787899
v 1.819864 114.887993 -3.510964
v 4.235576 114.887993 -4.994761
v -0.916095 114.887993 -4.687870
v -10.749529 114.887993 0.029588
v 10.232554 119.243675 2.014639
v 1.415352 119.243675 -4.211462
v 3.742188 119.243675 -5.647905
v -13.386922 118.835167 -0.916974
v 10.446075 118.258209 2.208163
v 1.695920 118.258209 -4.188690
v -9.426405 119.002563 10.345696
v 10.124905 118.258209 1.787899
v 1.819864 118.258209 -3.510964
v 4.235576 118.258209 -4.994761
v -0.916095 118.258209 -4.687870
v -10.749529 118.258209 0.029588
v -10.088152 122.613869 10.713719
v 10.232554 122.613876 2.014639
v 3.742188 122.613876 -5.647905
v -13.450529 122.613876 -0.704990
v -10.280313 121.628433 10.470038
v 10.446075 121.628426 2.208163
v 1.695920 121.628433 -4.188690
v -13.754765 121.628433 -0.922124
v -10.158222 122.613876 10.189445
v 10.124905 121.628433 1.787899
v 1.819864 121.628426 -3.510964
v 4.235576 121.628433 -4.994761
v -1.353167 121.628464 -4.875589
v -13.389183 121.628433 -0.461605
v -10.749529 121.628426 0.029588
v 4.181771 121.628426 4.275201
v -10.088152 125.984100 10.713719
v -11.054735 125.984100 -0.245399
v 10.232554 125.984100 2.014639
v 4.318106 125.221802 -5.134601
v -14.022772 125.984100 0.239091
v -10.280313 124.998642 10.470038
v 10.446075 124.998642 2.208163
v -13.754766 124.998642 -0.922124
v -10.158222 125.984100 10.189445
v 10.124905 124.998642 1.787899
v 1.819864 124.998642 -3.510964
v -13.389183 124.998642 -0.461605
v -10.749529 124.998642 0.029588
v -8.319448 130.571106 8.580102
v -12.833987 130.571106 7.012128
v 3.230516 130.571106 -6.086600
v 4.833614 130.571106 -4.937872
v -9.620209 130.571106 -3.903961
v -10.088155 130.571106 10.713720
v -0.739467 130.571106 -4.985840
v 6.868292 130.571106 -6.757565
v -13.622192 130.571106 -0.936450
v 1.327268 130.571106 8.153848
v -13.334107 130.571106 -0.464829
v -13.754931 130.571106 2.747307
v -10.302646 130.571106 10.099038
v 7.144495 128.707703 0.114387
v -2.898939 130.571106 8.280964
v -9.063802 130.571106 -4.074515
v 6.277081 1.538535 11.178186
v 14.148328 1.088095 -2.264761
v 2.397737 2.876046 -2.338165
v 2.001625 1.505102 -10.773901
v -11.504855 2.876048 -14.634894
v -11.419104 1.088045 -2.872107
v -14.826856 1.505102 10.773894
v -1.320376 2.876048 14.634887
v -1.406126 1.088045 2.872100
v 14.670872 0.062394 3.937366
v 14.877179 0.712023 4.363536
v 14.855742 0.704877 4.440846
v 14.866461 1.786128 4.402191
v 14.655109 0.030573 5.583527
v 14.855742 0.704877 4.531325
v 14.877179 0.712023 4.608636
v 14.866461 1.786128 4.569981
v 12.280767 -0.197185 6.156122
v 14.815386 -0.004351 5.771055
v 14.403493 0.030573 -0.333565
v 14.419259 0.062394 1.312594
v 14.625565 0.712023 0.641324
v 14.604128 0.704877 0.718635
v 14.614846 1.786128 0.679980
v 14.604128 0.704877 0.809114
v 14.625565 0.712023 0.886424
v 14.614846 1.786128 0.847769
v 13.024736 0.030654 -1.132236
v 13.775700 -0.210110 2.391950
v 14.664625 0.000000 -0.669701
v 14.401474 2.448343 8.482565
v 14.401539 0.046485 8.482565
v 14.604131 0.704878 8.253538
v 14.625567 0.712024 8.330848
v 14.614849 1.786127 8.292192
v 14.625567 0.712024 8.085749
v 14.604131 0.704878 8.163058
v 14.614849 1.786127 8.124404
v 13.297233 -0.034188 6.491926
v 13.856059 -0.013020 7.781167
v -4.406337 2.448536 -15.051470
v -4.406336 0.046485 -15.051535
v -4.803154 0.712023 -15.275582
v -4.725842 0.704877 -15.254146
v -4.764498 1.786128 -15.264864
v -4.635365 0.704877 -15.254146
v -4.558053 0.712023 -15.275582
v -4.596709 1.786128 -15.264864
v -2.646711 3.117293 -13.246129
v -5.816957 0.098313 -13.025599
v -8.677083 2.448343 -14.799863
v -9.500257 0.033666 -14.801897
v -7.854095 0.058416 -14.817661
v -8.486710 0.708450 -15.013249
v -8.448054 1.782555 -15.023968
v -8.525366 1.789700 -15.002531
v -8.318920 0.708451 -15.013249
v -8.280265 1.789700 -15.002531
v -8.357576 1.782555 -15.023968
v -9.834796 0.121791 -13.010224
v -6.366163 3.135165 -13.480058
v -0.913152 0.704877 -15.002534
v -0.835842 0.712023 -15.023971
v -0.874497 1.786128 -15.013252
v -1.232659 2.448536 -14.799859
v -1.232659 0.046485 -14.799924
v -1.080942 0.712023 -15.023971
v -1.003631 0.704877 -15.002534
v -1.042286 1.786128 -15.013252
v 0.576594 2.851582 -13.391367
v -2.609484 0.066626 -12.875773
v -8.418895 2.448536 15.051480
v -8.418895 0.046485 15.051545
v -8.022078 0.712023 15.275577
v -8.099388 0.704877 15.254141
v -8.060733 1.786127 15.264859
v -8.189865 0.704877 15.254141
v -8.267177 0.712023 15.275577
v -8.228521 1.786128 15.264858
v -6.676454 2.794391 13.175525
v -9.439408 0.059570 12.937251
v -4.696683 2.448536 14.799836
v -4.338521 0.708450 15.013242
v -4.377176 1.782555 15.023960
v -4.299865 1.789700 15.002523
v -5.519856 0.033666 14.801890
v -3.873695 0.058416 14.817654
v -4.467655 0.704878 15.002523
v -4.544965 0.712023 15.023960
v -4.506310 1.786127 15.013242
v -2.887432 2.851581 13.391354
v -6.073509 0.066626 12.875766
v -12.141107 2.448343 14.799861
v -12.964280 0.033666 14.801896
v -11.912078 0.704877 15.002531
v -11.989390 0.712023 15.023967
v -11.950734 1.786128 15.013248
v -11.318119 0.058416 14.817659
v -11.744289 0.712023 15.023967
v -11.821600 0.704877 15.002531
v -11.782945 1.786128 15.013248
v -13.401824 2.851581 13.391362
v -10.215749 0.066626 12.875771
v 4.171715 129.385544 -1.640997
v -6.706000 129.385544 4.540359
v -6.981197 132.672180 3.483327
v -7.657764 131.401672 4.173631
v -7.507171 129.449051 4.592908
v -7.927887 129.993790 3.832173
v -7.926384 130.871307 3.864695
v -7.970309 130.874207 3.702777
v -7.967295 130.868408 3.767817
v -7.941902 129.421722 2.507937
v -7.178011 129.421722 4.837928
v 4.705481 130.628998 0.154836
vn -0.5871 0.6080 0.5345
vn 0.8692 0.4281 0.2473
vn 0.3859 -0.8160 0.4304
vn -0.9900 0.0182 -0.1400
vn -0.8346 0.5496 0.0364
vn -0.8856 0.1069 -0.4520
vn -0.6040 -0.3278 -0.7264
vn 0.0760 0.4051 -0.9111
vn 0.0587 -0.8229 0.5652
vn -0.5338 0.1570 0.8309
vn -0.2300 -0.7342 0.6387
vn 0.1686 0.2461 -0.9545
vn 0.4831 0.8123 -0.3268
vn -0.5391 0.5740 0.6164
vn -0.2973 -0.3693 0.8804
vn 0.7450 0.0645 0.6639
vn -0.2690 0.3757 0.8868
vn -0.7815 -0.6239 0.0045
vn -0.0226 0.3241 0.9457
vn 0.8609 0.3197 0.3957
vn 0.9215 0.2661 0.2828
vn 0.4846 0.6058 -0.6310
vn 0.4282 -0.6573 -0.6202
vn -0.1042 -0.3985 0.9113
vn -0.9883 -0.0578 0.1412
vn 0.0031 -0.9045 0.4265
vn -0.4816 -0.2089 0.8511
vn -0.4564 0.8382 0.2985
vn -0.8981 -0.4306 0.0898
vn -0.6819 0.7153 -0.1526
vn -0.3685 -0.7411 0.5613
vn -0.2089 -0.2401 -0.9480
vn 0.9851 -0.1530 -0.0789
vn 0.1549 -0.7996 -0.5802
vn 0.4263 -0.8075 -0.4078
vn 0.6271 0.6669 -0.4024
vn 0.2053 -0.8493 -0.4863
vn -0.3069 -0.7515 0.5839
vn -0.1323 -0.5613 0.8170
vn 0.4850 -0.8060 -0.3394
vn 0.9981 -0.0140 -0.0597
vn 0.3522 0.8693 -0.3468
vn 0.8173 -0.1109 -0.5655
vn 0.3090 -0.9004 0.3062
vn 0.4608 0.7704 -0.4407
vn 0.8936 -0.1975 -0.4031
vn -0.8337 -0.5465 0.0786
vn -0.2185 0.6145 -0.7581
vn 0.8490 -0.4478 -0.2806
vn 0.7183 -0.6169 -0.3217
vn -0.0244 0.6292 -0.7769
vn 0.1860 -0.8958 -0.4036
vn -0.1687 -0.9122 0.3734
vn 0.6181 0.7663 -0.1751
vn 0.5406 0.6780 -0.4980
vn -0.1008 0.9805 0.1685
vn -0.5571 0.8210 0.1248
vn 0.4765 0.8268 0.2989
vn -0.4582 -0.5347 -0.7100
vn -0.5042 -0.3370 0.7951
vn -0.1777 -0.9834 -0.0361
vn 0.2228 0.9746 -0.0241
vn 0.5411 -0.8184 -0.1935
vn 0.0836 0.9746 0.2079
vn 0.1447 0.3332 -0.9317
vn 0.5286 0.2315 0.8167
vn -0.9167 -0.1877 -0.3526
vn 0.0592 -0.9980 -0.0240
vn 0.0165 -0.9998 -0.0067
vn 0.0453 -0.8555 -0.5159
vn 0.1250 -0.6376 0.7602
vn 0.3489 -0.2887 -0.8916
vn 0.7251 -0.3868 -0.5697
vn 0.9460 -0.1923 0.2611
vn -0.0265 -0.9477 0.3179
vn -0.4013 -0.8833 -0.2425
vn 0.1099 -0.0883 -0.9900
vn -0.5700 -0.2855 -0.7705
vn -0.7673 0.6403 0.0349
vn -0.9359 0.3050 -0.1761
vn -0.7743 -0.6247 -0.1009
vn 0.2440 -0.3216 0.9149
vn 0.0646 -0.7909 0.6086
vn -0.6756 -0.6224 -0.3952
vn -0.3115 0.5488 0.7757
vn -0.0212 0.8568 -0.5153
vn -0.9532 0.2885 -0.0905
vn 0.6210 0.3707 -0.6906
vn 0.2004 -0.9786 0.0465
vn 0.1029 -0.0142 -0.9946
vn 0.4891 -0.2652 -0.8309
vn 0.0113 -0.6570 0.7538
vn -0.5069 0.7422 0.4383
vn -0.5139 -0.0498 -0.8564
vn -0.8117 0.3318 -0.4807
vn -0.6743 -0.7360 0.0601
vn -0.6187 -0.4272 -0.6593
vn 0.5912 -0.6632 -0.4590
vn 0.7593 -0.5546 -0.3404
vn -0.1993 -0.7162 0.6689
vn 0.4800 -0.1490 0.8645
vn 0.7386 -0.6378 0.2183
vn -0.0058 -0.6650 0.7468
vn 0.0312 -0.2893 0.9567
vn 0.1867 0.7259 0.6620
vn -0.6367 -0.6338 -0.4391
vn 0.7970 -0.5713 -0.1961
vn 0.5893 -0.3179 0.7428
vn -0.0936 -0.7259 -0.6814
vn 0.1555 -0.8822 0.4445
vn 0.3505 -0.1363 -0.9266
vn -0.5761 -0.6169 0.5363
vn 0.3787 0.6915 -0.6151
vn 0.4066 0.3773 -0.8320
vn 0.7721 0.6246 -0.1174
vn 0.4066 0.3774 -0.8320
vn 0.3616 0.4237 -0.8305
vn 0.2504 -0.4873 0.8366
vn 0.0343 0.9964 0.0775
vn 0.4755 -0.7132 0.5150
vn -0.4439 -0.8955 0.0323
vn 0.6925 -0.0169 -0.7213
vn 0.7084 0.0845 0.7007
vn 0.2260 -0.9088 0.3508
vn 0.7825 0.6134 -0.1071
vn -0.7427 0.5892 0.3181
vn -0.0096 -0.9755 0.2196
vn -0.1256 -0.5818 0.8036
vn 0.0768 0.9443 -0.3200
vn -0.9728 -0.1179 -0.1993
vn 0.0405 0.9780 0.2044
vn -0.0000 1.0000 -0.0000
vn 0.0165 0.5574 0.8301
vn -0.3524 -0.8944 -0.2754
vn -0.6388 0.6269 0.4459
vn -0.7067 0.5965 0.3806
vn -0.5239 -0.2277 0.8208
vn 0.0589 -0.9677 -0.2451
vn -0.4051 -0.6273 0.6651
vn 0.4717 0.8748 -0.1107
vn 0.0990 0.9067 -0.4099
vn -0.0694 -0.5373 -0.8405
vn -0.3564 0.4286 0.8302
vn 0.8108 -0.4639 -0.3570
vn -0.9063 -0.3834 0.1777
vn -0.1329 0.9745 0.1809
vn 0.6021 -0.1160 -0.7899
vn 0.0059 -0.9999 0.0118
vn -0.2503 -0.9666 0.0550
vn 0.2029 0.8269 -0.5244
vn 0.7635 -0.2560 0.5929
vn 0.0180 -0.5422 0.8401
vn -0.1378 0.9741 0.1793
vn -0.8979 0.3870 -0.2095
vn -0.7530 -0.0961 0.6509
vn -0.1196 -0.9917 0.0480
vn 0.0379 0.5425 0.8392
vn -0.8868 -0.2082 0.4127
vn -0.7665 0.6326 -0.1110
vn 0.6515 0.4378 0.6195
vn -0.3489 0.9096 0.2256
vn 0.2418 -0.7586 0.6050
vn -0.3672 -0.1210 -0.9222
vn -0.4507 0.7863 -0.4226
vn 0.1862 0.3194 0.9292
vn -0.8345 0.1986 0.5140
vn -0.0898 -0.9715 0.2194
vn 0.9612 -0.2468 -0.1232
vn -0.0968 -0.9943 -0.0440
vn 0.0316 -0.9406 -0.3382
vn -0.0758 -0.1806 0.9806
vn 0.6995 -0.6982 0.1522
vn -0.6105 0.1210 0.7827
vn -0.9327 0.2024 -0.2985
vn 0.5220 0.8480 0.0915
vn -0.5033 -0.7327 -0.4580
vn -0.5217 0.5226 -0.6743
vn -0.2883 0.4601 -0.8398
vn -0.8250 0.0106 0.5651
vn 0.9654 -0.1577 -0.2079
vn -0.5755 0.3656 -0.7316
vn 0.2486 0.7907 -0.5595
vn -0.9195 0.3661 -0.1432
vn -0.9080 0.2890 0.3033
vn -0.2779 -0.4608 0.8429
vn 0.0290 -0.4827 0.8753
vn -0.5564 0.6590 -0.5061
vn -0.8359 -0.2623 0.4822
vn 0.1708 -0.9796 -0.1063
vn 0.5495 0.0359 -0.8347
vn 0.4214 -0.0994 0.9014
vn 0.0522 0.9501 -0.3076
vn -0.3345 0.1081 0.9362
vn -0.5714 0.3464 -0.7440
vn -0.3418 -0.1271 -0.9311
vn 0.4733 0.0306 -0.8804
vn -0.4819 0.3966 -0.7813
vn 0.6663 -0.4211 -0.6154
vn -0.6809 -0.6987 -0.2197
vn 0.0174 -0.6569 -0.7538
vn -0.5407 0.8411 0.0149
vn 0.3443 0.0009 0.9389
vn 0.7664 -0.4913 -0.4138
vn 0.4053 0.6351 0.6575
vn 0.8464 0.4441 0.2939
vn -0.1052 0.6481 -0.7543
vn -0.4734 -0.7622 0.4415
vn -0.8331 0.4517 0.3192
vn -0.0000 -1.0000 -0.0000
vn 0.6664 -0.4211 -0.6153
vn -0.6967 -0.7159 -0.0458
vn 0.3091 0.5820 -0.7522
vn -0.5411 0.8408 0.0150
vn 0.7665 -0.4913 -0.4137
vn -0.3471 0.0985 -0.9326
vn -0.7312 -0.5495 -0.4043
vn -0.8331 0.4517 0.3193
vn -0.6809 -0.6986 -0.2197
vn 0.0173 -0.6571 -0.7536
vn -0.8808 -0.0824 0.4663
vn 0.7478 0.3208 0.5813
vn 0.6663 -0.4211 -0.6153
vn -0.6926 -0.5166 -0.5035
vn 0.0052 -0.5747 -0.8183
vn 0.9443 -0.1815 0.2745
vn -0.8565 -0.2494 -0.4518
vn -0.0871 0.7064 0.7024
vn 0.5790 0.3368 -0.7425
vn -0.4787 -0.7453 0.4640
vn 0.8467 0.4513 0.2819
vn -0.1679 0.7797 0.6032
vn 0.7744 0.2693 0.5725
vn -0.3220 -0.2220 -0.9203
vn -0.5317 0.6499 0.5431
vn -0.5411 0.8408 0.0149
vn -0.1255 0.7683 0.6277
vn 0.9107 0.2428 -0.3342
vn -0.7256 -0.3022 0.6182
vn 0.3930 -0.3587 0.8467
vn -0.6796 0.1313 0.7218
vn 0.1507 0.7607 -0.6314
vn -0.2359 0.7498 0.6182
vn 0.1474 0.9486 0.2800
vn -0.6266 0.7790 -0.0226
vn -0.8417 -0.1770 0.5101
vn -0.7739 -0.5618 -0.2922
vn -0.6674 -0.2427 0.7040
vn 0.7748 0.0170 -0.6320
vn 0.1757 0.9797 0.0970
vn 0.4224 0.5114 -0.7484
vn 0.9701 -0.0000 -0.2425
vn 1.0000 -0.0000 -0.0000
vn -0.0000 -0.0000 1.0000
vn -0.0000 -0.0000 -1.0000
vn -0.0096 0.0041 -0.9999
vn -0.9992 -0.0400 0.0004
vn -0.0526 0.9986 0.0099
vn 0.3941 -0.2906 -0.8719
vn -0.0000 -0.0000 -0.0000
vn 0.0360 -0.9993 -0.0100
vn 0.0357 0.9993 -0.0099
vn -0.9598 -0.0887 0.2661
vn -0.0096 0.0041 0.9999
vn 0.5795 -0.6396 -0.5051
vn 0.1658 -0.6590 -0.7337
vn -0.7613 0.2891 0.5804
vn 0.3919 -0.0865 -0.9159
vn -0.4664 -0.4182 -0.7795
vn -0.7604 0.1126 -0.6396
vn 0.8333 0.4073 0.3738
vn -0.5088 -0.2522 -0.8231
vn -0.2536 -0.4840 -0.8375
vn -0.0702 0.8464 0.5279
vn 0.8577 -0.5141 0.0055
vn 0.3622 -0.5659 -0.7407
vn -0.5023 -0.6854 -0.5271
vn 0.1951 0.0656 -0.9786
vn -0.7948 0.0392 0.6055
vn -0.3593 -0.0579 0.9314
vn -0.6643 0.6428 -0.3815
vn -0.2976 0.8857 -0.3564
vn -0.8535 -0.5170 -0.0649
vn 0.1542 0.9868 -0.0494
vn 0.9336 0.3441 0.0998
vn 0.7685 0.6001 -0.2221
vn 0.1428 -0.0717 -0.9871
vn 0.3089 -0.9005 0.3061
vn 0.8334 -0.5389 -0.1225
vn 0.1877 0.5740 -0.7971
vn 0.5928 0.6792 0.4328
vn -0.5405 0.6667 -0.5132
vn -0.4790 0.8387 -0.2591
vn 0.6182 0.6459 0.4479
vn -0.0901 -0.6622 0.7439
vn 0.5478 -0.1829 -0.8164
vn 0.0908 -0.9954 -0.0300
vn -0.7584 0.3866 -0.5247
vn -0.1728 0.9554 -0.2393
vn 0.9769 -0.0152 0.2133
vn -0.7950 0.2371 -0.5583
vn -0.9377 -0.1447 0.3160
vn 0.8454 -0.1877 0.5002
vn 0.5739 -0.7989 0.1802
vn 0.2726 -0.7493 -0.6036
vn 0.9407 0.3210 -0.1097
vn -0.8259 -0.4855 -0.2867
vn -0.4987 0.8109 0.3061
vn 0.1858 -0.8157 -0.5478
vn 0.7293 0.6803 0.0734
vn 0.1446 0.8401 0.5228
vn -0.5611 -0.8270 0.0334
vn 0.9658 0.1929 0.1734
vn 0.0119 -0.9858 0.1677
vn 0.6917 -0.0155 -0.7220
vn -0.4503 0.7960 -0.4045
vn -0.4795 -0.8775 0.0013
vn 0.6960 -0.0235 -0.7177
vn 0.8915 -0.1100 0.4395
vn -0.0058 -0.6651 0.7468
vn 0.7393 -0.1555 0.6551
vn 0.0166 0.5574 0.8301
vn -0.0288 0.2319 -0.9723
vn -0.9292 0.3147 0.1940
vn -0.9861 -0.1339 0.0988
vn 0.6128 0.4370 0.6584
vn -0.5835 0.5814 -0.5670
vn -0.1304 -0.9105 0.3923
vn 0.3416 0.8409 -0.4199
vn 0.0121 -0.9831 -0.1828
vn 0.9058 0.3839 0.1792
vn -0.3441 0.5063 -0.7907
vn -0.0933 -0.4791 -0.8728
vn -0.3441 0.5063 -0.7908
vn -0.8353 -0.0545 0.5471
vn 0.2424 0.7265 -0.6430
vn 0.6222 0.3169 -0.7159
vn -0.5257 0.2170 0.8225
vn 0.7451 -0.0291 -0.6664
vn 0.3329 -0.9115 0.2418
vn 0.2065 -0.1473 0.9673
vn 0.6561 -0.4813 0.5814
vn -0.0775 -0.9849 0.1551
vn -0.6301 0.7180 0.2958
vn -0.1073 -0.2708 0.9566
vn 0.1888 -0.9149 0.3569
vn -0.8804 0.0059 0.4742
vn -0.8547 0.4814 -0.1944
vn 0.9810 -0.1774 0.0782
vn -0.8749 -0.0944 -0.4750
vn 0.6014 0.4379 -0.6683
vn -0.8035 0.4661 -0.3703
vn 0.8874 -0.1090 -0.4479
vn -0.3547 0.4406 0.8247
vn -0.6374 -0.5011 0.5854
vn 0.4561 0.3614 0.8132
vn 0.9722 0.1337 0.1922
vn -0.9112 -0.0477 -0.4091
vn 0.5469 0.4591 -0.7001
vn -0.8035 0.4660 -0.3704
vn 0.3111 0.3338 0.8898
vn 0.9807 -0.1813 0.0728
vn -0.8773 -0.0893 -0.4715
vn 0.5990 0.4387 -0.6699
vn 0.8873 -0.1091 -0.4481
vn -0.6373 -0.5013 0.5852
vn 0.4559 0.3615 0.8133
vn 0.8877 0.3415 0.3088
vn -0.6236 -0.4367 0.6484
vn 0.9765 0.0098 0.2151
vn 0.0375 0.4274 0.9033
vn 0.4040 0.8824 0.2412
vn -0.1150 -0.3871 0.9148
vn 0.5082 -0.8508 0.1335
vn 0.8322 0.5251 -0.1781
vn -0.9113 -0.0476 -0.4091
vn 0.9161 0.3345 0.2212
vn -0.1788 0.2127 0.9606
vn -0.4836 -0.4730 0.7365
vn 0.2070 0.2623 0.9425
vn 0.3747 0.4476 0.8119
vn 0.2145 -0.1744 -0.9610
vn 0.2695 -0.0000 0.9630
vn 0.2716 -0.0000 0.9624
vn 0.2688 -0.0000 0.9632
vn -0.0099 -0.9993 0.0357
vn 0.2661 0.0887 -0.9598
vn -0.2661 -0.0887 -0.9598
vn 0.0099 0.9993 0.0357
vn 0.0100 -0.9993 0.0360
vn -0.0100 0.9993 0.0360
vn 0.9598 -0.0887 -0.2661
vn -0.0357 0.9993 0.0099
vn -0.0360 -0.9993 0.0100
vn 0.9705 -0.1963 0.1400
vn 0.8119 0.5396 -0.2228
vn 0.2947 -0.1362 -0.9458
vn -0.6494 -0.6704 0.3590
vn 0.2416 -0.2930 -0.9251
vn -0.0879 0.8431 -0.5306
vn -0.2677 -0.9545 0.1313
vn -0.3602 -0.8904 -0.2783
vn 0.0121 0.2244 -0.9744
vn 0.3090 -0.9004 0.3061
vn -0.3679 0.9299 -0.0031
vn 0.2822 0.2398 0.9289
vn 0.6407 -0.7677 -0.0150
vn 0.3261 0.1648 -0.9308
vn 0.1673 0.7416 0.6496
vn 0.8591 0.1150 -0.4988
vn 0.6619 -0.1397 -0.7364
vn 0.3575 0.6253 0.6937
vn -0.7014 -0.6872 0.1892
vn -0.9261 -0.2600 -0.2734
vn 0.9159 -0.2064 0.3442
vn -0.2917 0.8997 0.3247
vn 0.7733 0.5866 0.2404
vn 0.0332 0.9355 -0.3518
vn 0.7633 -0.4655 0.4480
vn -0.1232 -0.3691 -0.9212
vn 0.1232 0.3691 0.9212
vn 0.8454 -0.1877 0.5001
vn -0.5028 0.8448 0.1832
vn -0.4497 0.8914 -0.0574
vn -0.1487 0.4288 -0.8911
vn 0.8330 -0.5231 0.1800
vn 0.1517 -0.1221 0.9809
vn -0.5925 -0.7977 -0.1124
vn 0.8972 0.3963 -0.1948
vn -0.2518 0.6142 0.7479
vn 0.4265 0.5237 -0.7375
vn 0.0861 -0.9668 0.2406
vn 0.2106 0.8712 -0.4435
vn 0.4800 -0.1492 0.8645
vn 0.1481 -0.3512 0.9245
vn 0.7888 0.0659 -0.6111
vn 0.2515 0.9670 -0.0416
vn 0.4723 0.8127 -0.3413
vn 0.0874 -0.0057 0.9962
vn 0.0165 0.5574 0.8300
vn 0.5415 0.3250 -0.7753
vn 0.4166 -0.7645 -0.4918
vn -0.7875 0.5940 0.1645
vn 0.3497 0.9351 -0.0571
vn -0.4011 -0.7247 0.5603
vn 0.7914 -0.6071 0.0713
vn 0.3709 0.9280 -0.0352
vn 0.4140 0.8005 -0.4333
vn 0.3157 -0.4767 0.8204
vn -0.8703 0.4680 -0.1534
vn 0.4602 -0.4656 -0.7560
vn -0.3249 -0.5155 0.7929
vn 0.8722 -0.0188 -0.4887
vn 0.3289 0.4042 -0.8535
vn 0.0329 -0.3816 0.9238
vn 0.6259 -0.6416 0.4433
vn 0.6988 0.6947 0.1703
vn 0.1505 -0.8703 0.4690
vn 0.4193 0.6961 -0.5828
vn 0.4525 0.2927 -0.8423
vn 0.7721 0.6247 -0.1169
vn 0.8738 -0.0203 -0.4859
vn 0.4271 -0.6906 0.5836
vn 0.3740 -0.5866 -0.7184
vn -0.2754 -0.9196 -0.2802
vn -0.3350 -0.5169 0.7878
vn 0.2299 -0.4321 -0.8720
vn -0.2105 0.9088 -0.3604
vn -0.1611 -0.9285 0.3346
vn 0.8138 -0.5325 0.2330
vn -0.2295 0.8528 -0.4691
vn -0.4663 -0.4474 0.7631
vn -0.2621 -0.1814 0.9478
vn 0.2551 0.3604 0.8972
vn 0.9340 -0.3430 -0.0998
vn -0.4052 -0.8595 -0.3115
vn -0.1564 -0.9466 -0.2820
vn -0.0414 0.7271 -0.6853
vn -0.2941 0.4448 -0.8460
vn 0.0831 -0.5168 0.8520
vn -0.1646 0.4475 -0.8790
vn 0.9720 -0.2036 0.1177
vn 0.4229 -0.4618 -0.7796
vn -0.7774 0.5690 0.2680
vn 0.9910 0.0602 0.1194
vn -0.9322 -0.3435 -0.1138
vn 0.5413 -0.4962 0.6788
vn 0.7692 0.4174 0.4838
vn 0.4368 0.8993 -0.0202
vn -0.9201 -0.3407 -0.1933
vn -0.2424 -0.2208 -0.9447
vn 0.6630 -0.7450 -0.0738
vn -0.7368 -0.6708 0.0845
vn 0.5913 0.5653 -0.5752
vn -0.7836 0.2999 -0.5440
vn -0.6933 -0.0051 0.7207
vn 0.6211 0.0161 -0.7836
vn -0.8808 -0.0823 0.4663
vn 0.7478 0.3209 0.5813
vn -0.8808 -0.0822 0.4664
vn 0.7477 0.3206 0.5815
vn -0.2598 -0.9625 -0.0777
vn 0.2837 0.4448 0.8495
vn -0.8818 0.0527 -0.4687
vn 0.5064 0.0845 -0.8582
vn -0.2958 0.6030 -0.7409
vn -0.8025 -0.0779 0.5915
vn 0.7815 -0.2094 -0.5878
vn -0.3155 -0.0003 -0.9489
vn 0.6524 0.3731 0.6597
vn 0.9593 0.2806 0.0327
vn 0.7153 0.0235 0.6984
vn -0.0633 -0.3670 -0.9281
vn 0.8286 0.2354 -0.5079
vn 0.5442 0.1976 0.8154
vn -0.7495 -0.6609 -0.0380
vn -0.8694 -0.3858 0.3087
vn -0.8596 0.4283 0.2787
vn 0.8865 -0.4582 -0.0654
vn -0.5310 0.7681 0.3578
vn -0.6793 0.1216 0.7237
vn -0.9031 -0.3160 -0.2908
vn 0.0429 -0.8142 -0.5790
vn 0.2820 0.9557 -0.0841
vn 0.6147 0.2811 0.7370
vn 0.1495 -0.8406 0.5206
vn 0.0464 0.5145 -0.8562
vn 0.1953 0.3373 -0.9209
vn 0.8325 -0.1054 -0.5440
vn 0.3263 -0.4724 0.8188
vn -0.4725 -0.5264 0.7069
vn -0.9839 0.1209 0.1318
vn -0.3886 -0.7958 -0.4644
vn 0.9140 -0.1503 -0.3767
vn -0.0506 -0.6705 0.7401
vn -0.9605 0.0777 0.2672
vn 0.2022 -0.7670 -0.6090
vn -0.5426 -0.1296 -0.8300
vn -0.8320 -0.3152 -0.4565
vn -0.5775 -0.5427 0.6099
vn 0.9981 0.0608 0.0135
vn -0.3700 -0.9270 0.0608
vn 0.7122 0.3799 0.5903
vn 0.6630 0.7456 0.0673
vn 0.4765 0.8268 0.2988
vn 0.7563 0.5531 0.3494
vn -0.5195 0.7314 -0.4418
vn 0.3326 -0.9175 0.2180
vn 0.1769 0.9810 -0.0795
vn 0.1036 0.7275 -0.6782
vn -0.4107 0.9104 -0.0510
vn 0.5152 0.7741 0.3680
vn -0.7624 0.0499 -0.6452
vn -0.6193 0.4767 0.6239
vn -0.2271 0.2041 0.9522
vn -0.6154 0.3552 0.7036
vn -0.3892 0.5638 -0.7285
vn 0.6516 -0.7578 -0.0336
vn -0.1055 -0.9692 -0.2227
vn 0.3849 -0.7695 0.5097
vn 0.3854 -0.7690 0.5101
vn -0.8119 -0.2875 0.5080
vn 0.6751 -0.0673 0.7347
vn 0.1061 0.9690 0.2233
vn -0.8509 -0.5140 -0.1085
vn -0.1060 -0.9690 -0.2233
vn 0.3852 -0.7691 0.5100
vn 0.3850 -0.7694 0.5097
vn 0.1055 0.9692 0.2226
vn -0.8507 -0.5142 -0.1090
vn -0.1057 -0.9691 -0.2229
vn 0.3850 -0.7693 0.5098
vn 0.3853 -0.7691 0.5100
vn 0.1059 0.9690 0.2231
vn -0.1059 -0.9690 -0.2231
vn 0.3851 -0.7692 0.5099
vn 0.3851 -0.7693 0.5098
vn 0.1057 0.9691 0.2228
vn 0.5420 -0.7079 -0.4529
vn 0.0619 0.3633 -0.9296
vn 0.1718 0.2927 0.9406
vn -0.1063 -0.9690 -0.2230
vn 0.3855 -0.7691 0.5098
vn -0.3850 0.7694 -0.5097
vn 0.1055 0.9692 0.2227
vn 0.6975 -0.6939 0.1786
vn -0.6445 0.7277 0.2348
vn 0.8918 0.4453 0.0803
vn -0.2893 -0.8010 -0.5241
vn -0.3924 0.0946 0.9149
vn 0.4141 0.8705 0.2661
vn -0.6975 -0.6972 -0.1657
vn -0.0766 0.9517 0.2974
vn 0.2527 0.1734 0.9519
vn -0.1603 -0.5403 -0.8260
vn -0.8214 0.5661 0.0695
vn 0.8067 -0.5500 0.2160
vn -0.5774 0.8010 -0.1580
vn 0.5614 -0.7819 -0.2711
vn -0.8508 -0.5141 -0.1090
vn -0.3670 -0.7554 0.5429
vn -0.0145 -0.1121 0.9936
vn 0.8696 0.0579 -0.4903
vn -0.7795 0.5477 -0.3041
vn -0.2300 -0.7343 0.6387
vn 0.4211 0.8395 -0.3433
vn -0.9082 0.2073 -0.3637
vn -0.9031 -0.3161 -0.2907
vn 0.3930 -0.3586 0.8468
vn -0.1344 0.8179 -0.5594
vn -0.4987 0.8109 0.3060
vn -0.5521 -0.8269 -0.1073
vn 0.0449 0.9981 0.0413
vn 0.8173 -0.1110 -0.5655
vn -0.7634 0.4654 -0.4480
vn -0.9359 0.3051 -0.1762
vn -0.1040 0.9927 0.0618
vn 0.8454 -0.1876 0.5001
vn 0.6784 0.6998 0.2237
vn -0.5128 0.6451 0.5665
vn -0.9138 -0.3613 -0.1856
vn 0.0492 0.8585 -0.5105
vn 0.4800 -0.1491 0.8645
vn -0.8057 0.2615 0.5315
vn -0.1611 -0.9285 0.3345
vn -0.1345 0.3131 0.9401
vn -0.2271 0.2042 0.9522
vn 0.6515 0.4378 0.6196
vn -0.8979 0.3871 -0.2096
vn -0.7625 -0.1094 0.6377
vn -0.8967 0.2981 -0.3270
vn -0.9092 0.4149 -0.0350
vn 0.9290 -0.3148 0.1944
vn -0.9463 -0.1626 0.2794
vn 0.2917 0.3428 0.8930
vn 0.4002 0.7066 0.5836
vn 0.9591 0.2793 0.0448
vn -0.6030 -0.2531 0.7565
vt -0.203213 9.216933
vt -0.368811 9.548296
vt -0.368811 9.216933
vt 0.848460 9.548296
vt 0.781994 9.216933
vt 0.781994 9.548296
vt -0.366376 9.548296
vt -0.366376 9.216933
vt 0.802371 9.216933
vt 1.000741 9.548296
vt 0.802371 9.548296
vt 0.902387 9.548296
vt 0.343162 9.216933
vt -0.209328 -0.216063
vt 0.195289 0.465399
vt 0.233664 0.123139
vt 0.195289 -0.219122
vt 0.279071 0.038910
vt 0.473407 0.732160
vt 0.414350 0.000000
vt 0.870354 0.645661
vt 1.228148 0.504870
vt 0.944355 0.970954
vt 0.996318 1.080192
vt 0.769462 0.997985
vt 0.523439 1.080192
vt 0.119005 1.080192
vt 0.611504 0.997985
vt 0.913084 1.080192
vt 0.814577 0.997985
vt 0.975628 1.080192
vt 0.428031 1.080192
vt 0.602915 0.997985
vt 0.262108 1.080192
vt 0.540781 1.080192
vt 0.664049 -0.594543
vt -0.257972 1.080192
vt 0.769462 1.251986
vt 1.304103 0.602915
vt 0.814577 1.216263
vt 0.996318 1.361387
vt 0.760763 1.279181
vt 0.523439 1.361387
vt 0.515008 1.239098
vt 0.975628 1.361387
vt 0.428031 1.361387
vt 0.760763 1.253890
vt 0.957178 1.593037
vt 0.191710 1.652673
vt 0.214075 1.570799
vt -0.076694 1.653006
vt -0.120509 1.570799
vt -0.396795 1.653006
vt 0.081555 1.328920
vt -0.123161 1.646767
vt -0.193984 1.564559
vt 0.550864 1.564559
vt 0.487751 1.646767
vt 1.059435 1.646767
vt 0.669842 1.334386
vt 1.061276 0.783399
vt 0.817828 1.865426
vt 0.895243 1.947633
vt 0.213320 1.865426
vt -0.147759 1.947633
vt -0.220627 1.865426
vt -0.396795 1.947633
vt 0.048865 1.947633
vt 0.748967 1.865426
vt 0.877572 1.947633
vt -0.390060 -0.396795
vt -0.429363 -0.296360
vt -0.568552 -0.147759
vt -0.109576 -0.554299
vt 1.363458 0.213320
vt 1.258633 0.748967
vt 1.277034 0.817828
vt 0.818310 1.251618
vt 0.703894 1.254192
vt 0.081555 1.328920
vt 1.353127 0.244353
vt 1.240461 -0.154495
vt 1.366816 0.140884
vt 1.263564 -0.062022
vt 0.026882 2.146342
vt 1.067629 2.359369
vt 0.640256 2.282052
vt 0.834185 2.146342
vt 0.221767 2.146342
vt -0.208149 2.674661
vt -0.410142 2.749722
vt 0.414047 2.727448
vt 0.346041 7.539474
vt -0.404021 7.994490
vt -0.231212 7.994490
vt 0.467345 7.741278
vt 0.161516 7.421516
vt 0.151920 7.994490
vt 0.415853 7.994490
vt -0.367894 7.994490
vt -0.337035 7.421516
vt -0.207952 7.994490
vt 0.615238 7.421516
vt 0.649121 7.994491
vt -0.310113 7.994491
vt 0.202651 7.421517
vt 0.878764 7.994490
vt 0.853408 7.421516
vt -0.209328 7.646080
vt -0.292034 7.421516
vt 0.538698 7.994491
vt 0.033458 7.994490
vt 1.000741 7.421516
vt 0.827376 7.994491
vt 0.802371 7.421516
vt -0.653758 0.103099
vt -0.208149 7.142675
vt -0.208149 -0.217030
vt -0.153483 -0.271743
vt -0.312227 -0.314529
vt -0.367894 -0.404021
vt 0.058491 6.201718
vt 1.074299 1.048289
vt 1.070094 1.107196
vt -0.366376 5.342217
vt -0.366376 5.423676
vt -0.209328 5.423676
vt -0.209328 5.710176
vt 0.466355 5.628717
vt -0.209328 5.996675
vt 0.466355 5.915216
vt -0.410141 6.283175
vt -0.209328 6.283175
vt 1.048289 6.283174
vt 1.109010 6.201718
vt -0.410141 6.856175
vt -0.367615 1.057925
vt 0.466355 6.774717
vt 0.018621 7.142675
vt -0.422686 7.061217
vt -0.422686 7.142675
vt -0.366376 7.142675
vt -0.208149 7.061217
vt -0.336923 7.061217
vt -0.205694 -0.244434
vt -0.367615 -0.371601
vt -0.368811 -0.422686
vt -0.618814 0.018621
vt -0.625027 0.122818
vt -0.147758 11.578959
vt -0.422686 11.745038
vt -0.096109 11.745038
vt 0.806048 11.745038
vt 0.599141 11.578959
vt 0.536039 11.745038
vt -0.373110 11.578959
vt 0.049108 11.578959
vt -0.360848 11.745038
vt 0.781994 11.578959
vt 0.906914 11.745038
vt 0.906914 11.578959
vt 1.068605 11.745038
vt 1.068605 11.578959
vt 0.644678 0.846609
vt 0.844885 0.975488
vt 0.650967 0.805131
vt 1.066169 1.059435
vt 0.909121 0.902387
vt 0.580649 8.353682
vt 0.564696 8.272811
vt -0.390784 8.353682
vt -0.404200 8.272811
vt 0.802371 8.272811
vt 1.000741 8.353682
vt 0.802371 8.353682
vt 0.504003 8.353682
vt -0.350392 8.272811
vt 0.538837 8.272810
vt 0.869004 0.935310
vt 0.848460 8.353682
vt 1.140520 0.340728
vt 0.580649 8.645432
vt 0.564696 8.564561
vt -0.381200 8.645432
vt -0.402792 8.564561
vt 0.497452 8.564561
vt 0.621035 8.564561
vt 0.653091 8.645432
vt 0.992865 8.564561
vt 1.000741 8.645432
vt 0.802371 8.645432
vt 0.464854 8.645432
vt -0.348661 8.564561
vt 0.538837 8.564560
vt 0.902387 8.564561
vt 1.247358 0.802635
vt 0.906914 8.564561
vt 0.906914 0.947320
vt 0.782412 0.994051
vt 0.782018 1.049874
vt 0.497452 9.813877
vt 0.583639 9.898747
vt -0.668732 9.813877
vt 0.653091 0.804316
vt 0.422286 0.910445
vt -0.425770 0.497452
vt 0.580649 8.937181
vt 0.564696 8.856311
vt 0.018623 8.937181
vt -0.390470 8.856311
vt -0.422687 8.937181
vt 0.802371 8.856311
vt 1.000741 8.937181
vt 0.802371 8.937181
vt 0.515689 8.937181
vt -0.333519 8.856311
vt 0.538837 8.856310
vt -0.366376 8.937181
vt -0.208149 8.856311
vt -0.336923 8.856311
vt 0.422285 0.910445
vt -0.205694 -0.244434
vt -0.368811 -0.422687
vt 1.049839 9.898746
vt 0.846010 9.813877
vt 0.846010 9.898746
vt -0.415655 9.813877
vt -0.368811 -0.422686
vt 0.802371 9.813877
vt 1.000741 9.898746
vt 0.802371 9.898746
vt 1.362667 0.345106
vt 1.399636 9.813877
vt 1.381248 0.326495
vt 0.640076 0.848559
vt 0.656730 0.802371
vt 1.049839 10.188996
vt 0.846010 10.104127
vt 0.846010 10.188996
vt -0.415655 10.104127
vt 0.802371 10.104127
vt 1.000741 10.188996
vt 0.802371 10.188996
vt 0.418146 10.104127
vt 0.583639 10.188996
vt -0.673170 10.104127
vt 1.399636 10.104127
vt 1.049839 10.479247
vt 0.846010 10.394378
vt 0.846010 10.479247
vt -0.415655 10.394378
vt 0.802371 10.394378
vt 1.000741 10.479247
vt 0.802371 10.479247
vt 1.399636 10.394378
vt 1.049839 10.769497
vt 0.846010 10.684628
vt 0.846010 10.769497
vt 0.802371 10.684628
vt 1.000741 10.769497
vt 0.802371 10.769497
vt -0.423479 10.929748
vt 1.362859 10.769497
vt 1.362859 10.684628
vt 1.399636 10.974877
vt 0.640076 0.848559
vt -0.448898 11.349996
vt -0.673170 11.265126
vt -0.673170 11.349996
vt -0.415655 11.265126
vt -0.643602 11.265126
vt -0.425770 11.349996
vt -0.643602 11.349996
vt 1.399636 11.265126
vt -0.643793 0.538837
vt 0.802371 11.265126
vt -0.095991 0.637422
vt 0.047776 0.863046
vt 0.008015 0.855874
vt -0.270084 0.442008
vt -0.246444 0.647310
vt -0.268531 0.678115
vt 0.080178 0.063732
vt -0.045983 -0.028008
vt -0.040262 -0.074386
vt 0.343162 11.745038
vt 0.580649 11.745038
vt 0.566829 11.578959
vt 0.846010 11.578959
vt 1.049839 11.745038
vt 1.049839 11.578959
vt 1.059435 11.578959
vt 0.902387 11.745038
vt 0.902387 11.578959
vt 0.909121 11.578959
vt 0.789277 11.745038
vt 0.789277 11.578959
vt 1.715199 0.690492
vt 1.037670 -0.463194
vt 0.717373 0.690492
vt 0.673741 1.430476
vt -0.479945 0.751684
vt -0.479945 1.749511
vt -0.778275 -0.430475
vt 0.375412 0.248317
vt 0.375412 -0.749510
vt 0.454599 0.424310
vt 0.424934 0.323979
vt 0.484327 0.323979
vt 0.808499 0.819776
vt 0.804742 0.917394
vt 0.800986 0.819776
vt 0.790941 0.819776
vt 0.787185 0.924097
vt 0.783428 0.819776
vt 0.925581 0.492925
vt 0.929337 0.590542
vt 0.921824 0.590542
vt 0.795963 0.819776
vt 0.799720 0.924097
vt 0.792207 0.924097
vt 0.787185 0.924097
vt 0.465268 0.323979
vt 0.435604 0.424310
vt 0.405876 0.323979
vt 0.454599 0.424310
vt 0.869004 0.935310
vt 0.643065 9.548296
vt 0.645799 9.216933
vt 0.422285 9.216933
vt 0.883342 9.548296
vt 1.049839 9.216933
vt 0.846010 9.216933
vt -0.209328 9.548296
vt 1.000741 9.216933
vt 0.616387 0.832242
vt 0.781994 1.049839
vt 0.668510 0.884535
vt 0.847915 0.963265
vt 0.237376 7.426577
vt 0.343162 7.989429
vt 0.540781 7.647174
vt -0.253138 0.420660
vt 1.251001 0.423953
vt 0.071309 -0.061482
vt 0.243515 4.259974
vt 0.161834 4.299882
vt 0.362052 4.299882
vt 0.756452 4.571412
vt 0.912090 4.611667
vt 0.636884 4.611667
vt 1.093515 0.500000
vt -0.078706 0.590396
vt 0.741280 0.916057
vt 0.037182 0.867112
vt 0.731545 0.849484
vt 0.636981 0.175124
vt 0.146447 0.175124
vt 0.693822 -0.009770
vt 0.781386 0.715341
vt 0.819761 -0.009770
vt 0.515050 1.037750
vt 0.464353 -0.255777
vt 0.613860 0.082327
vt 0.813421 4.471538
vt 1.059435 2.258288
vt 0.905934 4.635808
vt 1.083119 0.997985
vt 0.938126 1.080192
vt 0.178893 0.997985
vt 1.059435 0.997985
vt 0.178893 1.329373
vt 1.335655 0.611504
vt 0.913084 1.361387
vt 0.611504 1.279181
vt 1.083119 1.279181
vt 1.059435 1.279181
vt 0.602915 1.279181
vt 0.938126 1.361387
vt 0.493496 1.646767
vt 0.911655 1.581174
vt 0.081555 1.564559
vt -0.106300 1.653006
vt -0.390060 1.570799
vt -0.156226 1.570799
vt -0.593516 -0.076694
vt -0.520245 -0.123161
vt -0.141045 1.564559
vt -0.366376 1.564559
vt -0.366376 1.646767
vt -0.008533 1.564559
vt 0.880047 1.564559
vt 0.479672 1.646767
vt -0.106300 -0.570991
vt 0.996318 1.159881
vt 0.790092 1.248387
vt 1.291396 0.754358
vt 1.222055 0.896375
vt 1.363580 0.214075
vt -0.008533 1.276199
vt -0.063047 1.865426
vt -0.296360 1.947633
vt 0.860416 1.947633
vt 0.818310 1.865426
vt 0.081555 1.865426
vt 1.083119 1.865426
vt -0.008533 1.865426
vt 0.703894 1.865426
vt 0.818253 1.947633
vt 1.059435 1.865426
vt -0.008533 1.276198
vt -0.361049 2.373994
vt -0.062022 2.146342
vt -0.373111 2.258288
vt 0.244353 2.373994
vt 0.140884 2.373993
vt -0.394956 2.360151
vt 0.783936 2.146342
vt 0.343162 2.146342
vt 0.789952 2.189093
vt 0.088932 2.258288
vt -0.373111 2.146342
vt -0.219610 2.146342
vt 0.416349 2.749722
vt 0.683868 2.481015
vt -0.374160 -0.362250
vt -0.682320 0.316393
vt -0.377925 -0.410142
vt -0.404021 7.421516
vt -0.056214 7.994491
vt 0.497452 7.646080
vt 0.876442 7.646080
vt 0.534632 7.689735
vt 0.191533 7.421518
vt 1.048289 5.423676
vt 1.109010 5.342218
vt 1.048289 6.856175
vt 1.109010 6.774717
vt 1.057925 6.774717
vt -0.061926 7.061216
vt -0.207121 7.142675
vt -0.368811 7.142675
vt -0.373110 7.061217
vt 0.177584 7.061216
vt -0.371601 7.142675
vt -0.136431 7.142675
vt 0.122818 7.142675
vt -0.422686 11.578959
vt -0.448898 11.745038
vt -0.448898 11.578959
vt -0.673170 11.578959
vt 0.540781 11.578959
vt 0.539575 11.745038
vt 0.781994 11.745038
vt 0.781994 1.049839
vt 1.068605 1.109010
vt 0.090126 11.745039
vt -0.366376 11.578959
vt -0.366376 11.745038
vt -0.209328 11.745038
vt 1.000741 8.272811
vt -0.371601 8.353682
vt -0.673922 0.564696
vt -0.580472 -0.067838
vt 0.148163 0.873742
vt 0.422286 0.910445
vt 0.643065 0.847472
vt 0.653091 0.804316
vt 0.847915 0.963265
vt -0.375157 -0.377969
vt -0.655450 0.522183
vt 0.848460 8.645432
vt 0.781994 8.604998
vt 0.789277 8.564561
vt 0.909121 8.564561
vt -0.371601 8.645432
vt -0.580472 -0.067838
vt -0.389901 -0.378563
vt -0.652326 0.481167
vt -0.207121 8.937181
vt -0.368811 8.937181
vt 1.000741 8.856311
vt -0.371601 8.937181
vt -0.136431 8.937181
vt -0.580472 -0.067838
vt -0.618815 0.018623
vt 0.497452 8.856311
vt -0.673170 8.856311
vt -0.643602 8.937181
vt -0.656383 0.534427
vt 0.517694 9.838132
vt -0.371601 9.898746
vt -0.367259 9.813877
vt 1.000741 9.813877
vt 0.418146 9.813877
vt 0.656730 9.813877
vt 0.418146 0.878008
vt 0.464854 10.188996
vt -0.371601 10.188996
vt -0.367259 10.104127
vt 1.000741 10.104127
vt 0.656730 10.104127
vt 0.538837 10.104127
vt 0.521129 10.414692
vt -0.371601 10.479247
vt -0.367259 10.394378
vt 1.000741 10.394378
vt 0.418146 10.394378
vt 0.656730 10.394378
vt 0.583639 10.479248
vt 1.000741 10.684628
vt 0.418146 10.684628
vt 0.656730 10.684628
vt 0.583639 10.769497
vt 0.802371 10.974877
vt 1.000741 10.974877
vt 1.000741 11.059745
vt 0.379999 0.893356
vt 0.464854 11.349996
vt -0.371601 11.349996
vt -0.367259 11.265126
vt -0.425770 11.265126
vt 0.538837 11.265126
vt -0.204989 0.170547
vt -0.673170 11.745038
vt 1.048913 11.745038
vt 0.909121 11.745038
vt 1.029883 -0.484944
vt 1.736949 0.712242
vt 0.695623 0.712242
vt -0.501696 1.771261
vt -0.501696 0.729934
vt 0.695491 1.438317
vt 0.397162 -0.771260
vt 0.397162 0.270067
vt -0.800025 -0.438317
vt 0.804742 0.819776
vt 0.808499 0.917394
vt 0.800986 0.917394
vt 0.787185 0.819776
vt 0.790941 0.924097
vt 0.783428 0.924097
vt 0.921824 0.492925
vt 0.929337 0.492925
vt 0.925581 0.590542
vt 0.792207 0.819776
vt 0.799720 0.819776
vt 0.795963 0.924097
vt 0.787185 0.819776
vt 0.925581 0.590542
vt 0.787185 0.819777
vt 0.925581 0.590542
vt 0.795963 0.924097
vt 0.925581 0.590542
vt 0.621035 9.216933
vt -0.673170 9.216933
vt -0.643602 9.216933
vt 0.497452 9.216933
vt -0.643602 9.548296
vt 0.902387 9.216933
vt 1.399636 9.216933
vt -0.148636 -0.552321
vt -0.366376 0.997985
vt -0.366376 1.080192
vt 1.343719 0.147256
vt -0.276163 -0.427995
vt 1.083054 2.146342
vt 0.088932 1.301284
vt -0.366376 2.749721
vt -0.208755 0.914059
vt 0.853408 7.994490
vt -0.661103 0.564804
vt 0.902387 7.421516
vt -0.228254 0.876442
vt 0.151920 0.879183
vt 0.138546 7.994490
vt 0.141029 7.421516
vt 0.549168 7.421516
vt 0.673152 0.829306
vt 0.649121 0.830004
vt -0.335945 -0.370899
vt 0.600315 7.421517
vt 0.829580 7.994490
vt 0.761933 7.992886
vt -0.204760 0.906136
vt -0.362250 5.423676
vt -0.368811 5.423676
vt 0.466355 6.201717
vt -0.366376 6.283175
vt 1.107196 6.283175
vt -0.204760 6.201717
vt 0.292479 11.745038
vt -0.366868 6.569674
vt 0.466355 6.488217
vt -0.366376 6.856175
vt -0.209328 6.856175
vt -0.071047 11.745038
vt 0.570666 11.677580
vt -0.366822 -0.382199
vt -0.260996 11.745038
vt -0.197689 11.745039
vt 0.434152 11.745038
vt 1.000741 11.578959
vt 0.644678 11.578959
vt -0.673170 8.272811
vt -0.643602 8.353682
vt -0.643602 8.272811
vt 0.497452 8.272811
vt -0.260776 0.815620
vt -0.286640 0.835630
vt -0.364785 -0.395705
vt -0.352799 8.353682
vt 0.846010 8.272811
vt -0.673170 8.564561
vt -0.643602 8.645432
vt -0.643602 8.564561
vt -0.365949 -0.396614
vt -0.341649 8.514248
vt 0.902387 8.645432
vt 0.802635 8.564561
vt -0.359929 8.642138
vt 0.621035 8.856311
vt 0.902387 8.937181
vt 0.904163 8.856310
vt 0.580649 10.188996
vt -0.673400 0.578313
vt -0.643602 10.104127
vt 0.497452 10.394378
vt -0.665501 10.394378
vt 0.497452 10.684628
vt -0.662294 10.700100
vt 0.609183 10.769497
vt 0.538837 10.974877
vt -0.371601 11.059745
vt -0.367259 10.974877
vt 0.131811 10.974877
vt 0.580649 11.349996
vt 0.345106 11.265126
vt 0.908018 0.924853
vt -0.643602 11.745038
vt 0.705860 11.578959
vt -0.425770 11.745038
vt 0.804483 11.745038
vt 0.645661 3.898375
vt 0.461398 3.898375
vt 0.881453 2.228755
vt 0.411426 0.369158
vt 0.538837 9.216933
vt -0.371601 9.548296
vt 0.580649 9.548296
vt -0.422686 9.216933
vt -0.368811 -0.422686
vt -0.494960 0.645476
vt -0.230150 1.080192
vt -0.296360 1.080192
vt 0.257131 0.997985
vt 0.152277 1.080192
vt -0.296360 1.361387
vt -0.063047 1.279181
vt -0.296327 -0.411497
vt -0.257972 1.361387
vt -0.366376 1.279181
vt -0.366376 1.361387
vt 1.354876 0.262108
vt -0.220627 1.279181
vt 1.279254 0.048865
vt -0.366376 1.947633
vt -0.366376 1.865426
vt -0.390060 1.947633
vt -0.612559 0.570607
vt -0.368811 2.749721
vt 0.733196 7.421517
vt 0.942593 6.694796
vt 0.903228 7.421516
vt 0.932692 7.668190
vt 0.138546 0.853408
vt 1.107196 5.423676
vt -0.377925 -0.410141
vt -0.415655 5.342217
vt -0.204760 0.906136
vt -0.362250 6.283175
vt 1.107196 6.856175
vt -0.362250 6.856175
vt 1.109010 11.578959
vt 1.091281 11.745038
vt 0.427828 0.085534
vt 0.684539 0.119749
vt 0.157780 8.272811
vt 0.621035 8.272811
vt -0.359297 8.350063
vt 1.140760 8.353682
vt 0.902387 8.272811
vt 0.345106 9.813877
vt -0.643602 8.856311
vt 0.653091 8.937181
vt 0.868144 0.937135
vt 0.846010 8.856311
vt 0.848460 8.937181
vt -0.335946 -0.370899
vt 0.902387 9.898746
vt 0.309829 9.898746
vt -0.422686 9.898746
vt -0.366376 9.813877
vt 1.362859 9.898746
vt 0.345106 10.104127
vt 0.609183 9.898746
vt 0.902387 10.188996
vt 0.309829 10.188996
vt -0.422686 10.188996
vt -0.366376 10.104127
vt 1.362859 10.188996
vt 0.345106 10.394378
vt 0.902387 10.479247
vt 0.309829 10.479247
vt -0.422686 10.479247
vt -0.366376 10.394378
vt 1.362859 10.479247
vt 0.345106 10.684628
vt 0.609183 10.479248
vt 0.902387 10.769497
vt 0.309829 10.769497
vt 1.399636 0.309829
vt 0.345106 10.974877
vt 0.846010 10.974877
vt 0.902387 11.059745
vt 0.309829 11.059745
vt 1.362859 11.059745
vt 1.362859 10.974877
vt -0.366376 10.974877
vt 1.049839 11.059745
vt 0.640076 10.974876
vt 0.379999 10.974877
vt -0.673170 10.974877
vt 0.497452 10.974877
vt -0.643602 11.059745
vt -0.643602 10.974877
vt -0.415655 10.974877
vt 0.580649 11.059745
vt 0.309829 11.349996
vt 0.902387 11.312593
vt -0.422686 11.349996
vt -0.366376 11.265126
vt 1.362859 11.349996
vt 0.497452 11.349996
vt -0.152820 11.745038
vt 0.439273 0.362234
vt 0.420018 0.362234
vt 0.581880 0.000000
vt 0.818757 0.765887
vt -0.441307 0.524614
vt 0.969456 -0.898060
vt 1.078093 1.096164
vt 1.334472 0.134620
vt -0.106678 2.146342
vt -0.609602 0.033458
vt -0.068152 2.146342
vt 1.034508 1.380254
vt -0.434701 0.536375
vt 0.829580 7.421516
vt 1.068604 5.423676
vt 1.059435 5.342218
vt -0.367259 5.342217
vt -0.050757 8.645432
vt 0.540781 11.059745
vt -0.422686 11.059745
vt -0.666711 0.557521
vt 0.397527 0.679586
vt 0.512402 2.146487
vt 0.557386 2.146487
vt 1.140760 9.216933
vt 0.464854 9.548296
vt 0.564696 9.216933
vt 0.262108 1.361387
vt -0.230150 1.361387
vt -0.109576 1.947633
vt -0.410141 5.423676
vt -0.204760 5.342217
vt 1.068604 6.283175
vt 1.059435 6.201718
vt 1.068604 6.856175
vt 1.059435 6.774717
vt 0.902387 7.142675
vt 0.800231 5.010635
vt 0.537547 8.315031
vt -0.069881 8.353682
vt 0.902387 9.813877
vt 1.362859 9.813877
vt 0.902387 10.104127
vt 1.362859 10.104127
vt 0.609183 10.188996
vt 0.902387 10.394378
vt 1.362859 10.394378
vt 0.902387 10.684628
vt 0.902387 10.974877
vt 0.860142 0.131811
vt 1.362859 11.265126
vt 0.038310 9.285794
vt 0.691008 0.000000
vt 0.392959 0.522416
vt 0.876400 11.642935
vt 0.586270 4.041338
vt 0.175944 0.460673
vt -0.173316 0.622875
vt -0.038435 3.898375
vt 1.258490 0.500000
vt 1.091649 0.497285
s 1
usemtl GT_MC_Tiling_X_Dark_Concrete
f 9/1/1 6/2/2 5/3/3
f 14/4/4 2/5/5 7/6/6
f 16/7/7 9/1/1 5/8/3
f 10/9/8 14/10/9 17/11/10
f 14/12/11 13/13/12 18/14/13
f 40/24/22 42/25/23 38/26/24
f 39/27/25 41/28/26 40/29/22
f 49/30/27 40/31/22 38/32/24
f 48/33/28 45/34/29 39/35/30
f 48/33/31 44/36/32 37/37/33
f 42/38/23 48/39/34 49/40/35
f 52/41/36 54/42/37 51/43/38
f 59/44/39 52/45/36 51/46/38
f 54/47/37 58/39/40 59/44/41
f 67/48/42 61/49/43 65/50/44
f 60/51/45 63/52/46 62/53/47
f 66/54/48 68/55/49 63/56/46
f 70/57/50 61/58/43 69/59/51
f 67/60/52 70/61/50 66/54/53
f 77/62/54 73/63/55 75/64/56
f 72/65/57 82/66/58 74/67/59
f 81/68/60 75/64/56 73/63/55
f 83/69/61 81/68/60 73/70/55
f 74/71/62 79/72/63 72/73/57
f 74/71/64 80/74/65 79/72/66
f 75/75/67 83/76/61 77/77/68
f 78/78/69 84/79/70 76/80/71
f 78/78/69 83/76/61 84/79/70
f 95/81/72 94/82/73 93/83/74
f 86/84/75 92/85/76 94/86/77
f 99/87/78 100/88/79 90/89/80
f 108/90/81 103/91/82 105/92/83
f 129/93/84 122/94/85 132/95/86
f 124/96/87 129/93/84 132/95/86
f 136/97/88 121/98/89 120/99/90
f 122/100/85 130/101/91 133/102/92
f 137/103/93 120/99/90 123/104/94
f 132/105/86 138/106/95 130/101/91
f 121/107/96 136/108/97 135/109/98
f 130/110/91 125/111/99 124/112/87
f 128/113/100 134/114/101 137/115/102
f 130/110/91 124/112/87 132/105/86
f 175/116/103 180/117/104 178/118/105
f 133/119/106 132/120/86 122/121/85
f 159/122/107 161/123/108 156/124/109
f 142/125/110 148/126/111 146/127/112
f 151/128/113 149/124/114 150/129/115
f 154/130/113 152/124/116 153/131/115
f 157/132/117 160/133/118 161/123/119
f 161/134/120 155/135/121 160/14/122
f 168/136/123 169/137/124 170/138/125
f 177/139/126 174/140/127 176/141/128
f 182/142/129 178/143/130 174/144/127
f 179/145/131 182/146/129 176/147/132
f 177/148/126 182/146/129 181/149/133
f 190/150/134 329/151/135 325/152/136
f 328/153/137 189/154/138 187/155/139
f 184/156/140 190/157/134 336/158/141
f 183/159/142 327/160/143 191/161/144
f 191/161/145 331/162/146 186/163/147
f 188/164/148 191/165/149 194/166/150
f 191/165/145 192/167/151 193/168/152
f 199/169/153 195/170/154 200/171/155
f 197/172/156 200/171/155 195/170/154
f 203/173/157 207/174/158 208/175/159
f 199/176/153 197/177/156 202/178/160
f 205/179/161 207/180/162 209/181/163
f 215/182/164 211/183/165 216/184/166
f 212/185/167 216/184/166 211/183/165
f 222/186/168 221/187/169 224/188/170
f 221/189/169 223/190/171 224/191/170
f 215/192/164 212/193/167 217/194/172
f 220/195/173 218/196/174 213/197/175
f 213/198/176 221/199/169 214/200/177
f 253/201/178 242/202/179 244/203/180
f 224/204/181 214/205/177 222/206/168
f 229/207/182 225/208/183 230/209/184
f 230/209/184 227/210/185 228/211/186
f 227/210/185 230/209/184 225/208/183
f 232/212/187 236/213/188 237/214/189
f 229/215/182 227/216/190 231/217/191
f 239/218/192 233/219/193 227/220/190
f 237/204/194 226/221/195 235/206/196
f 238/222/197 239/146/192 228/223/132
f 243/224/198 247/225/199 242/226/200
f 245/227/201 240/228/202 248/146/203
f 250/229/204 243/230/198 242/231/200
f 249/232/205 246/233/206 241/234/207
f 247/235/199 251/179/208 250/236/209
f 257/237/210 261/238/211 256/239/212
f 259/240/213 254/228/202 263/146/214
f 265/241/204 257/242/210 256/243/212
f 267/244/215 256/245/212 262/246/216
f 264/232/205 260/247/206 255/234/207
f 261/235/211 266/179/217 265/236/209
f 272/248/210 276/249/218 271/250/219
f 274/251/201 269/228/202 277/146/203
f 277/146/203 278/232/220 270/234/221
f 279/252/204 272/253/210 271/254/219
f 278/232/205 275/255/206 270/234/207
f 276/235/218 280/179/208 279/236/209
f 285/256/222 288/257/223 284/258/224
f 291/259/204 285/260/222 284/261/224
f 289/262/225 283/263/226 290/264/227
f 288/235/223 292/179/217 291/236/209
f 300/265/228 296/234/229 304/232/230
f 301/266/231 306/179/208 305/236/209
f 312/267/232 318/268/233 315/269/234
f 316/270/235 311/228/202 319/146/214
f 322/271/236 312/272/232 315/273/234
f 320/232/237 317/274/206 313/234/238
f 322/275/239 318/268/233 321/276/240
f 335/286/242 332/287/244 185/288/246
f 188/289/247 326/290/248 183/291/142
f 192/292/151 327/293/249 193/294/152
f 193/295/152 326/296/250 191/297/145
f 341/298/251 340/299/251 342/300/252
f 343/301/253 345/302/253 344/303/253
f 346/304/254 348/305/254 347/306/254
f 2/5/5 14/4/4 11/327/264
f 7/328/265 10/329/266 3/330/267
f 7/331/268 2/332/269 10/333/270
f 16/7/271 18/334/13 9/1/272
f 10/9/8 11/335/264 14/10/9
f 10/336/8 2/337/5 11/327/264
f 7/338/6 17/204/10 14/339/4
f 31/340/18 19/341/17 29/342/273
f 33/365/275 28/366/277 26/367/21
f 40/29/22 41/28/26 42/368/23
f 39/35/25 40/369/22 48/33/278
f 48/39/34 41/28/26 39/27/25
f 47/370/279 49/30/27 38/32/24
f 49/371/27 48/33/278 40/369/22
f 42/38/23 49/40/35 47/372/279
f 42/38/23 41/373/26 48/39/34
f 52/374/36 53/375/280 54/376/37
f 59/377/39 58/378/281 52/379/36
f 54/47/37 53/373/282 58/39/40
f 69/380/51 67/381/42 66/382/283
f 62/383/47 63/384/46 64/385/284
f 66/382/48 60/386/45 68/387/49
f 64/388/284 63/389/46 68/390/49
f 71/391/285 70/392/50 69/393/51
f 60/386/45 62/394/286 68/387/49
f 67/395/42 69/396/51 61/397/43
f 67/398/52 65/399/287 70/61/50
f 66/54/53 70/61/50 71/400/288
f 82/401/58 72/73/57 79/402/63
f 73/403/55 78/404/289 76/405/290
f 73/63/55 77/62/54 78/406/289
f 81/68/291 75/75/292 80/74/65
f 85/407/293 84/408/294 73/409/55
f 84/410/294 83/69/61 73/70/55
f 85/407/293 82/66/295 76/80/71
f 76/80/71 84/79/70 85/411/293
f 78/78/69 77/77/68 83/76/61
f 94/412/296 86/413/297 98/414/298
f 86/413/75 94/412/73 95/415/72
f 93/416/74 94/417/77 92/85/76
f 89/418/299 92/419/300 95/415/301
f 92/419/76 86/413/75 95/415/72
f 90/89/80 100/420/79 97/421/302
f 96/414/303 91/422/304 88/423/305
f 107/424/306 109/425/307 106/426/308
f 106/426/309 105/427/310 103/428/82
f 137/103/93 136/97/88 120/99/90
f 129/93/84 130/429/91 122/94/85
f 132/105/86 133/430/106 138/106/95
f 130/110/91 129/93/84 125/111/99
f 129/431/84 135/432/311 125/433/99
f 138/434/95 133/102/92 130/101/91
f 147/435/312 141/436/313 146/14/314
f 172/437/315 166/438/316 171/14/317
f 169/439/124 167/124/318 170/138/125
f 177/139/126 175/440/319 174/140/127
f 174/144/127 179/441/320 176/442/128
f 174/443/127 175/444/319 182/445/129
f 182/142/129 179/446/131 178/143/130
f 181/447/321 182/445/129 175/444/319
f 177/148/126 176/147/132 182/146/129
f 190/150/134 184/448/140 329/151/135
f 187/449/322 189/450/323 185/451/324
f 190/150/134 325/152/136 185/288/246
f 190/157/134 185/452/246 334/453/243
f 183/159/142 326/454/250 327/160/143
f 191/161/145 327/160/249 331/162/146
f 188/164/247 183/455/142 191/165/144
f 191/165/145 186/456/147 192/167/151
f 185/288/246 325/152/136 335/286/242
f 190/157/134 335/457/242 336/158/141
f 184/458/140 336/459/141 324/460/245
f 203/173/325 205/461/326 207/174/327
f 199/176/153 204/462/328 197/177/156
f 195/463/154 202/275/329 197/464/156
f 198/465/330 196/466/331 203/336/332
f 196/467/333 208/468/159 207/469/334
f 200/470/155 204/146/328 199/471/153
f 223/472/335 213/197/336 214/473/177
f 221/474/169 220/475/337 223/472/171
f 215/192/164 219/476/338 212/193/167
f 211/463/165 217/275/339 212/477/167
f 213/198/176 220/168/340 221/199/169
f 214/200/177 224/204/181 223/339/335
f 216/478/166 219/146/338 215/479/164
f 227/220/185 238/480/341 228/481/186
f 232/212/342 234/482/343 236/213/344
f 229/215/182 239/483/192 227/216/190
f 239/218/192 238/484/197 233/219/193
f 225/463/183 231/275/345 227/485/185
f 230/486/184 228/223/132 239/146/192
f 226/467/195 237/204/194 236/339/346
f 235/487/347 225/488/183 229/489/182
f 230/486/184 239/146/192 229/490/182
f 244/491/348 248/492/349 245/493/350
f 250/229/204 251/494/351 243/230/198
f 252/495/352 250/496/353 242/202/354
f 247/235/199 250/236/209 252/497/355
f 258/498/356 263/499/357 259/500/358
f 265/241/204 266/501/359 257/242/210
f 267/244/215 265/502/353 256/245/212
f 259/500/358 268/503/360 258/498/356
f 261/235/211 265/236/209 267/497/215
f 273/504/361 277/505/362 274/506/363
f 279/252/204 280/507/351 272/253/210
f 281/508/364 279/509/353 271/510/365
f 276/235/218 279/236/209 281/497/366
f 291/259/204 292/511/359 285/260/222
f 293/512/367 291/513/353 284/514/368
f 288/235/223 291/236/209 293/497/369
f 305/515/370 306/516/351 297/517/371
f 301/266/372 305/236/209 307/518/373
f 315/519/374 319/520/375 316/521/358
f 322/271/376 323/522/377 312/272/378
f 316/521/358 322/523/379 315/519/374
f 185/451/324 332/525/381 187/449/322
f 190/157/134 334/453/243 335/457/242
f 192/292/151 331/526/146 327/293/249
f 193/295/152 327/527/143 326/296/250
f 340/528/251 341/529/251 342/530/252
f 344/531/253 345/532/253 343/533/253
f 347/534/254 348/535/254 346/536/254
f 10/555/8 17/204/10 7/328/6
f 1/556/394 8/557/395 12/558/396
f 1/556/397 15/559/398 8/557/399
f 11/560/400 4/561/401 13/13/402
f 65/50/403 62/383/404 64/562/405
f 37/37/406 46/563/407 43/564/408
f 39/565/30 45/34/29 37/37/409
f 45/34/29 48/33/28 37/37/409
f 37/37/410 43/564/411 39/565/412
f 94/86/413 96/566/303 98/414/414
f 66/54/415 71/391/416 68/55/417
f 100/88/418 95/81/419 89/567/420
f 95/81/72 93/416/74 92/85/76
f 97/568/421 99/87/78 90/89/80
f 107/424/306 108/90/422 105/92/423
f 108/90/424 106/569/308 109/425/307
f 135/109/425 126/570/426 121/107/427
f 136/108/97 131/571/428 135/109/98
f 124/572/87 126/573/429 135/574/430
f 121/575/431 131/576/428 136/577/97
f 137/578/432 134/579/433 123/580/434
f 179/441/435 174/581/127 178/118/130
f 179/441/436 178/118/437 180/117/438
f 178/118/105 181/447/439 175/116/103
f 138/106/440 133/430/441 127/582/442
f 127/582/443 123/583/434 134/584/433
f 147/435/312 145/585/444 148/586/111
f 146/127/314 143/124/445 147/123/312
f 147/123/446 144/587/447 146/127/448
f 144/587/449 142/125/110 146/127/112
f 157/132/450 159/588/107 162/589/451
f 160/133/122 156/124/109 161/123/108
f 157/132/117 162/589/452 160/133/118
f 155/135/121 156/590/109 160/14/122
f 157/132/453 158/591/454 161/123/120
f 338/592/455 184/458/456 324/460/457
f 165/593/458 163/124/459 164/594/460
f 173/595/461 171/596/462 168/136/463
f 171/596/317 167/124/318 172/123/315
f 168/136/463 171/596/462 172/123/464
f 170/138/125 173/595/465 168/136/123
f 333/597/466 338/592/467 337/598/468
f 329/151/469 184/599/470 324/600/471
f 189/154/138 328/601/137 330/602/472
f 191/603/473 326/290/248 188/604/247
f 328/601/474 191/603/475 188/604/476
f 195/605/154 199/606/153 202/607/160
f 206/608/477 210/609/478 201/610/479
f 197/611/156 209/181/480 200/612/155
f 203/613/332 196/467/333 207/180/334
f 211/614/481 222/186/482 224/188/483
f 211/614/165 215/615/164 217/616/172
f 212/617/167 220/195/484 216/618/166
f 223/619/485 220/195/486 213/197/487
f 218/620/488 212/617/167 219/621/338
f 214/205/177 221/199/169 222/206/168
f 235/206/489 231/275/345 225/488/183
f 235/206/490 225/488/491 237/204/492
f 226/221/195 232/622/187 235/206/196
f 233/219/493 238/484/494 236/623/495
f 236/623/344 234/624/343 233/219/496
f 248/146/203 249/232/497 241/234/498
f 263/146/214 264/232/499 255/234/500
f 258/625/501 262/626/502 268/275/503
f 268/627/504 267/244/215 262/246/216
f 282/628/505 271/510/506 273/629/507
f 294/630/508 293/497/509 286/631/510
f 284/632/224 288/235/223 293/497/369
f 308/633/511 303/634/512 299/635/513
f 296/234/514 310/636/515 304/232/516
f 319/146/214 320/232/517 313/234/518
f 315/637/234 318/626/233 322/275/239
f 320/638/519 321/276/520 314/639/521
f 334/640/243 189/641/323 187/642/380
f 339/643/241 187/642/139 189/641/138
f 16/146/527 6/2/2 9/1/1
f 1/463/397 8/648/399 16/649/528
f 15/650/398 5/651/529 16/146/530
f 5/651/531 6/652/2 16/146/527
f 42/38/23 46/653/407 37/654/406
f 43/655/408 46/656/407 38/26/24
f 39/27/532 37/657/533 48/39/534
f 55/658/535 57/659/536 51/43/38
f 58/39/537 53/373/538 50/660/539
f 50/661/540 57/662/536 55/663/535
f 53/375/538 58/378/537 56/664/541
f 57/665/536 54/47/37 59/44/41
f 52/379/36 58/378/281 53/375/280
f 71/391/285 69/380/51 66/382/283
f 66/382/48 63/52/46 60/386/45
f 64/388/284 68/387/49 62/394/286
f 75/64/292 81/666/542 79/667/543
f 82/668/58 79/667/63 74/669/59
f 82/401/295 73/403/55 76/405/290
f 80/74/65 74/71/64 81/68/291
f 81/68/60 83/76/61 75/75/67
f 85/407/293 73/409/55 82/66/295
f 82/66/544 72/65/57 76/80/545
f 106/426/546 107/670/547 105/427/548
f 103/671/82 108/118/81 106/426/309
f 108/118/424 109/425/307 105/92/423
f 106/426/549 108/118/550 105/92/551
f 127/672/443 134/673/101 128/674/100
f 126/675/552 125/433/99 135/109/311
f 135/109/98 131/676/428 121/107/431
f 141/436/313 143/677/445 146/14/314
f 146/14/553 148/426/111 144/678/449
f 147/123/312 143/124/445 142/679/110
f 158/680/454 157/678/453 162/681/451
f 166/438/316 167/682/318 171/14/317
f 169/137/124 168/678/123 173/683/465
f 169/439/124 172/123/315 167/124/318
f 177/148/126 181/149/133 175/440/319
f 192/167/151 186/684/147 331/685/146
f 338/686/467 333/687/466 192/167/554
f 198/688/555 210/609/478 203/689/556
f 204/690/328 209/691/480 205/692/557
f 249/693/558 251/179/559 243/639/560
f 229/489/182 231/694/191 235/487/347
f 235/487/196 232/622/187 237/695/189
f 234/696/343 232/697/342 233/118/496
f 232/697/187 226/467/195 236/698/346
f 233/118/496 232/697/342 236/698/561
f 238/480/562 227/699/190 233/118/193
f 251/179/208 247/225/199 243/639/198
f 243/700/560 241/701/563 249/693/558
f 240/702/202 245/703/564 241/704/498
f 264/705/565 266/179/566 257/639/567
f 242/706/200 247/235/199 252/497/355
f 266/179/217 261/238/211 257/639/210
f 257/707/567 255/708/568 264/705/565
f 254/709/202 259/710/569 255/711/500
f 268/275/504 262/626/216 261/235/211
f 278/712/570 280/179/571 272/639/572
f 280/179/208 276/249/218 272/639/210
f 272/713/572 270/714/573 278/712/570
f 269/715/202 274/716/564 270/717/221
f 290/718/574 292/179/575 285/639/576
f 271/719/219 276/235/218 281/497/366
f 292/179/217 288/257/223 285/639/222
f 285/720/576 283/721/577 290/718/574
f 283/721/578 287/722/579 290/718/580
f 304/723/581 306/179/582 297/639/583
f 306/179/208 301/724/231 297/639/371
f 297/725/583 296/726/584 304/723/581
f 296/727/514 304/728/516 299/729/585
f 305/515/370 297/730/371 301/731/231
f 307/732/586 302/733/587 309/734/588
f 302/733/589 298/735/590 309/734/591
f 298/735/590 308/736/592 309/734/591
f 295/228/593 303/146/594 299/737/595
f 298/738/590 302/626/589 308/275/596
f 309/206/597 308/275/596 302/626/589
f 313/739/598 320/638/519 314/740/521
f 311/741/202 316/742/599 313/743/518
f 322/275/239 321/236/240 312/744/232
f 339/745/241 188/164/600 328/279/137
f 14/12/604 11/560/400 13/13/402
f 13/13/12 9/1/272 18/14/13
f 18/14/13 16/146/605 14/12/11
f 159/122/107 157/132/450 161/123/108
f 253/201/178 252/495/606 242/202/179
f 277/146/203 269/715/202 278/232/220
f 318/268/233 312/750/232 321/276/240
f 321/276/520 313/739/598 314/751/521
f 321/276/520 314/751/607 322/275/608
f 107/424/306 104/752/609 109/425/610
f 10/555/611 3/330/612 12/558/396
f 3/330/612 1/556/394 12/558/396
f 65/50/403 61/753/613 62/383/404
f 94/86/413 91/754/304 96/566/303
f 100/88/418 99/87/614 95/81/419
f 90/89/615 87/755/616 97/568/617
f 87/755/616 88/756/618 96/566/619
f 97/568/617 87/755/616 96/566/619
f 97/568/421 100/420/620 99/87/78
f 107/424/306 106/569/621 108/90/422
f 105/92/423 109/757/307 107/424/306
f 135/574/430 129/93/84 124/572/87
f 124/572/87 125/758/99 126/573/429
f 134/584/622 138/106/440 127/582/442
f 127/582/443 128/674/100 137/759/102
f 127/582/443 137/759/102 123/583/434
f 143/760/445 141/761/313 148/586/111
f 141/761/313 147/435/312 148/586/111
f 145/585/444 144/678/449 148/586/111
f 148/586/111 142/762/110 143/760/445
f 338/592/455 333/597/623 184/458/456
f 337/598/624 331/526/625 192/167/626
f 337/598/468 192/167/554 333/597/466
f 328/601/137 188/604/600 330/602/472
f 330/602/472 339/745/241 189/154/138
f 202/607/627 206/608/477 201/610/479
f 201/610/479 195/605/628 202/607/627
f 197/611/156 205/179/557 209/181/480
f 211/614/481 217/616/629 222/186/482
f 212/617/167 218/196/488 220/195/484
f 216/763/166 220/168/484 219/621/338
f 220/168/484 218/620/488 219/621/338
f 248/146/203 240/702/202 249/232/497
f 263/146/214 254/709/202 264/232/499
f 282/628/505 281/508/630 271/510/506
f 294/630/508 284/632/631 293/497/509
f 308/633/511 298/764/632 303/634/512
f 303/146/594 295/765/593 310/636/515
f 295/765/593 304/232/516 310/636/515
f 319/146/214 311/741/202 320/232/517
f 320/638/519 313/739/598 321/276/520
f 334/640/243 185/766/324 189/641/323
f 16/146/605 9/1/272 14/4/11
f 9/1/272 13/770/12 14/4/11
f 8/648/399 15/771/398 16/649/528
f 16/649/528 5/651/529 1/463/397
f 15/650/398 1/772/397 5/651/529
f 42/38/23 47/372/279 46/653/407
f 47/370/279 38/26/24 46/656/407
f 38/26/24 42/25/23 43/655/408
f 42/25/23 37/660/406 43/655/408
f 57/659/536 59/44/39 51/43/38
f 51/43/38 54/42/37 55/658/535
f 54/42/37 50/660/540 55/658/535
f 50/660/539 56/773/541 58/39/537
f 53/373/538 55/72/636 50/660/539
f 56/664/541 50/661/539 55/663/636
f 56/664/541 55/663/636 53/375/538
f 57/665/536 50/774/540 54/47/37
f 61/58/43 70/61/50 65/399/287
f 79/667/543 80/775/65 75/64/292
f 81/666/542 74/669/637 79/667/543
f 142/679/110 144/776/449 145/777/444
f 142/679/110 145/777/444 147/123/312
f 156/778/109 155/779/121 159/588/107
f 155/779/121 161/134/120 162/681/451
f 159/588/107 155/779/121 162/681/451
f 161/134/120 158/680/454 162/681/451
f 167/780/318 166/781/316 170/138/125
f 166/781/316 172/437/315 173/683/465
f 170/138/125 166/781/316 173/683/465
f 172/437/315 169/137/124 173/683/465
f 181/149/439 178/143/105 180/782/104
f 181/149/439 180/782/104 175/440/103
f 192/167/554 337/783/468 338/686/467
f 203/689/157 208/468/159 196/784/333
f 198/688/555 201/610/479 210/609/478
f 205/692/557 197/611/156 204/690/328
f 204/690/328 200/785/155 209/691/480
f 249/693/558 241/701/563 251/179/559
f 243/700/560 251/786/559 241/701/563
f 245/703/564 248/146/203 241/704/498
f 241/704/498 249/787/497 240/702/202
f 264/705/565 255/708/568 266/179/566
f 257/707/567 266/788/566 255/708/568
f 259/710/569 263/146/214 255/711/500
f 255/711/500 264/789/499 254/709/202
f 262/626/216 256/790/212 261/235/211
f 261/235/211 267/497/215 268/275/504
f 278/712/570 270/714/573 280/179/571
f 272/713/572 280/791/571 270/714/573
f 274/716/564 277/146/203 270/717/221
f 270/717/221 278/792/220 269/715/202
f 290/718/574 283/721/577 292/179/575
f 285/720/576 292/793/575 283/721/577
f 304/723/581 296/726/584 306/179/582
f 297/725/583 306/794/582 296/726/584
f 303/146/594 310/795/515 299/729/585
f 310/795/515 296/727/514 299/729/585
f 304/728/516 295/765/593 299/729/585
f 316/742/599 319/146/214 313/743/518
f 313/743/518 320/796/517 311/741/202
f 339/745/241 330/602/472 188/164/600
usemtl GT_MC_Facade_1
f 22/15/14 32/16/15 35/17/16
f 32/18/15 19/19/17 31/20/18
f 390/307/255 392/308/255 391/309/255
f 426/323/263 421/324/263 425/325/263
f 437/308/263 432/326/263 433/309/263
f 31/343/18 21/344/274 32/345/15
f 32/346/15 22/347/14 19/348/17
f 33/349/275 26/350/21 25/351/20
f 21/352/274 31/353/18 33/354/275
f 31/353/18 34/355/276 33/354/275
f 28/356/277 33/357/275 34/358/276
f 31/359/18 29/360/273 34/361/276
f 25/362/20 21/363/274 33/364/275
f 27/644/19 24/645/522 30/646/523
f 27/644/524 454/647/525 24/645/526
f 24/645/522 23/767/633 30/646/523
f 30/646/523 36/768/634 20/769/635
f 20/769/635 25/22/20 30/646/523
f 25/22/20 27/644/19 30/646/523
usemtl GT_MC_Tiling_X_Dark_Dirty_Concrete_Blocks
f 27/21/19 25/22/20 26/23/21
f 187/277/139 339/278/241 328/279/137
f 335/280/242 334/281/243 332/282/244
f 324/283/245 336/284/141 329/285/135
f 325/524/136 336/284/141 335/280/242
f 325/524/136 329/285/135 336/284/141
f 187/277/380 332/282/244 334/281/243
f 28/749/277 34/361/276 21/363/274
f 36/797/634 30/798/523 23/799/633
f 23/799/633 24/645/522 36/797/634
f 24/645/522 27/21/19 36/797/634
f 36/797/634 27/21/19 26/800/21
f 36/797/634 26/800/21 28/749/277
f 34/361/276 29/801/273 35/802/16
f 29/801/273 19/803/17 22/804/14
f 35/802/16 29/801/273 22/804/14
f 21/363/274 25/805/20 20/806/635
f 21/363/274 20/806/635 36/797/634
f 35/802/16 32/345/15 34/361/276
f 21/363/274 36/797/634 28/749/277
f 34/361/276 32/345/15 21/363/274
usemtl GT_MC_Tiling_Grey_Concrete
f 368/746/601 369/747/602 367/748/603
usemtl GT_MC_Tiling_Dirty_Metal
f 394/310/256 393/311/257 395/312/258
f 395/313/258 393/314/257 394/315/256
f 396/316/259 398/317/259 397/318/259
f 396/319/259 397/320/259 398/321/259
f 423/310/260 422/311/261 424/312/262
f 424/313/262 422/322/261 423/315/260
f 352/537/259 351/538/259 350/539/259
f 352/540/259 350/541/259 351/542/259
f 355/543/382 354/544/383 356/545/384
f 354/546/383 355/547/382 356/548/384
f 363/537/385 362/538/386 361/539/259
f 363/540/385 361/541/259 362/542/386
f 365/543/387 364/544/388 366/545/389
f 364/546/388 365/547/387 366/548/389
f 373/539/387 372/538/388 374/537/389
f 372/542/388 373/541/387 374/549/389
f 377/550/385 376/544/386 375/543/390
f 377/548/385 375/547/390 376/546/386
f 384/537/259 383/538/259 382/539/259
f 384/551/259 382/541/259 383/542/259
f 386/543/259 385/544/259 387/552/259
f 385/546/259 386/547/259 387/553/259
f 402/539/259 401/538/261 403/537/259
f 401/542/261 402/541/259 403/540/259
f 408/545/259 407/544/259 406/543/259
f 408/548/259 406/547/259 407/546/259
f 415/537/259 414/538/259 413/539/259
f 415/540/259 413/541/259 414/542/259
f 417/543/259 416/544/259 418/554/259
f 416/546/259 417/547/259 418/548/259
f 428/543/391 427/544/392 429/545/393
f 427/546/392 428/547/391 429/548/393
f 435/539/259 434/538/259 436/537/259
f 434/542/259 435/541/259 436/540/259
f 440/545/259 439/544/259 438/543/259
f 440/548/259 438/547/259 439/546/259
l 101 102
l 289 286
l 388 389
l 111 110
l 113 112
l 115 114
l 117 116
l 119 118
l 139 140
l 349 353
l 359 360
l 370 371
l 380 381
l 400 399
l 405 404
l 409 410
l 411 412
l 420 419
l 431 430
l 441 442
l 444 443
l 448 449
l 446 447
l 450 451
l 453 452
l 358 357
l 378 379
