# Blender 5.1.0
# www.blender.org
mtllib building01.mtl
o GT_MC_Large_Building.001
v -25.863701 61.735374 -29.605740
v 27.326466 64.265831 -31.191172
v -27.454014 64.152954 -31.357775
v 27.665918 64.101761 2.231156
v 19.641558 65.004707 2.197107
v -27.497108 65.087326 2.222603
v -19.652243 64.351753 2.225652
v 14.903066 58.562054 31.340418
v 20.221279 55.912025 32.436253
v 15.069672 59.215820 31.411230
v 12.182653 64.876137 32.729935
v 20.087435 65.102295 32.625923
v -25.171446 9.612599 -29.255142
v -27.706188 10.528204 2.232138
v 9.740486 12.515983 32.623550
v -25.139662 12.599622 -28.945436
v 19.847155 17.064934 2.301492
v 17.901688 14.445935 30.244911
v -25.199371 16.196642 -28.905867
v 27.765163 20.673740 2.292747
v -10.138805 12.369774 32.634773
v -25.106276 19.873634 -28.961988
v 25.981995 21.580687 -28.729475
v 19.862595 24.313545 2.285552
v 17.360928 20.739479 29.084265
v 10.029906 20.760443 32.759239
v 25.396606 25.042826 -28.969151
v -25.106438 23.539457 -28.984808
v 27.742729 27.893322 2.411242
v 10.254421 28.287848 32.464581
v -10.271871 20.663637 32.720638
v 24.793745 27.949984 -28.209898
v -25.102106 27.176386 -28.997822
v 19.847153 31.609034 2.301492
v 25.278233 32.535610 -29.235733
v -25.939335 30.482941 -28.120949
v 27.741867 33.458179 2.326869
v 25.293777 35.997108 -29.098440
v -25.927492 34.241993 -27.833197
v 27.747681 38.782738 2.306803
v 19.858973 38.876362 2.282727
v 17.171339 35.269516 29.277721
v 25.280457 39.551632 -28.797905
v -25.121965 38.221825 -28.730162
v 25.354971 43.179310 -28.333939
v -25.079245 41.667198 -29.090347
v 27.703098 46.130665 2.321263
v 19.900972 45.989250 2.257050
v 9.865403 39.623672 32.609119
v -9.720404 39.539032 32.737297
v -17.336843 42.560688 29.092274
v -24.520775 46.066971 -28.502131
v 26.008308 46.963509 -28.047876
v -27.483614 47.948948 2.218916
v 9.974881 44.693935 32.585663
v -18.350519 45.199974 29.119446
v -24.632669 49.720139 -28.234488
v 25.742941 50.614887 -28.444504
v 27.784369 52.819397 2.306890
v 19.850540 52.563385 2.298393
v 9.882139 50.569038 32.601139
v -18.347109 48.831699 29.123848
v 25.771135 53.564980 -29.036802
v -27.562571 53.654778 2.198815
v 28.505932 3.829843 3.190352
v 21.323532 4.169931 3.291983
v 20.693556 0.000014 2.891572
v 24.970474 0.342814 -31.549833
v 28.362804 4.189100 -27.225477
v 18.685814 1.370437 11.166221
v 7.832086 35.716385 32.764416
v 15.318077 3.484246 34.404987
v 16.593496 3.484246 33.129574
v 21.968967 4.899674 27.754105
v 20.693550 4.899674 29.029524
v 21.968967 3.484246 27.754105
v 20.693550 3.484246 29.029524
v 19.870216 -0.315586 31.525763
v 19.086149 7.758597 31.591726
v 15.318077 4.899669 34.404987
v -19.179346 0.957199 23.052797
v -19.763292 1.314639 10.641111
v -28.505854 3.831181 3.217242
v -21.420940 4.322767 3.401113
v -20.693613 3.484241 2.891564
v -20.693611 0.000005 2.891565
v -7.486700 0.336103 24.796862
v -7.822099 3.590243 32.940815
v -28.362837 4.189088 -27.224524
v -24.823460 0.725263 -31.613106
v -15.318150 3.484236 34.404984
v -16.593567 3.484236 33.129566
v -21.969034 4.899660 27.754099
v -21.969034 3.484236 27.754099
v -20.021389 0.966636 30.881310
v -16.593567 4.899665 33.129566
v -15.318150 4.899665 34.404984
v 18.448652 52.379711 29.401674
v -20.148203 55.339966 32.537304
v -9.890857 49.814835 32.563457
v 18.342684 48.833721 29.125931
v -10.051909 44.309158 33.129570
v -18.449812 52.377300 29.402534
v 18.344070 41.567379 29.122316
v 18.350077 45.199657 29.119883
v 17.989466 32.559864 30.133408
v -7.789493 35.615818 32.921417
v -17.946638 36.200481 30.117222
v 18.292076 26.953484 29.319454
v 19.864836 29.753834 32.307507
v -10.050980 27.948305 32.725616
v 18.357697 23.369236 29.141615
v 18.287966 18.097359 29.169127
v 18.126593 10.962101 30.457331
v 18.089964 37.930481 30.074472
v -18.238735 39.793484 29.046774
v -17.812370 32.570484 30.278261
v -17.812374 28.934460 30.278263
v -17.812374 25.298437 30.278265
v -17.807243 21.673651 30.302305
v -17.812370 18.026382 30.278267
v -17.812368 14.390356 30.278265
v -18.528513 10.636564 30.586765
v 27.683403 12.412324 2.269308
v 19.791235 10.554180 2.203645
v -19.865421 52.450542 2.315280
v -19.839645 17.052252 2.257429
v -19.752909 10.597425 2.227729
v -19.859865 46.067390 2.326739
v -19.777861 38.924686 2.245279
v -19.819469 31.590029 2.256918
v -19.839663 24.324303 2.256837
v -27.609018 39.842609 2.264604
v -27.712954 31.518909 2.282683
v -27.711628 24.221163 2.280453
v -27.781065 17.058569 2.285907
v 26.199108 15.085887 -29.149040
v 26.270489 18.584826 -29.575003
v 26.410469 10.715953 -28.107370
v 22.809513 10.126802 -31.092190
v -26.770971 47.908112 -30.707661
v -26.783400 44.245949 -30.848824
v -26.591295 53.701832 -26.237183
v -25.028158 52.730850 -30.963137
v 27.016954 29.718002 -30.754896
v 25.774014 61.978512 -29.797514
v -20.058638 59.748714 32.960526
v -11.412264 62.867107 32.829502
v 8.813100 77.438347 32.418518
v 27.388571 76.769562 -31.296671
v -27.368113 76.984665 2.208646
v -20.044012 76.684189 2.047244
v -20.018894 76.626472 32.503384
v 7.755391 76.382462 24.376194
v -27.479593 76.422310 -31.397247
v 27.656878 76.629761 2.133164
v 19.825762 76.686562 2.044767
v 20.056108 76.780533 32.392509
v -8.905396 76.875031 32.701687
v 7.537475 3.674166 32.863873
v 7.162077 0.500899 23.600050
v -7.706690 76.348885 23.939075
v 15.318077 3.484246 34.404987
v 14.950438 3.843156 35.002148
v 15.069738 4.899669 34.981384
v 15.318077 4.899669 34.404987
v 21.968967 4.899674 27.754105
v 22.545361 4.191960 27.505768
v 21.968967 3.484246 27.754105
v -14.685964 4.191951 34.981377
v -15.318150 3.484236 34.404984
v -15.318150 4.899665 34.404984
v -22.545427 4.899660 27.121912
v -21.969034 4.899660 27.754099
v -21.969034 3.484236 27.754099
v -22.545427 3.484236 27.121912
v 17.479555 3.403638 11.465139
v 17.479464 3.403639 15.136376
v 17.479464 3.403639 18.552496
v 17.479555 3.403638 22.223715
v 17.479555 0.000014 22.223715
v -17.479525 3.403630 15.136371
v -17.479616 3.403629 11.465134
v -17.479620 3.403631 22.223709
v -17.479527 3.403631 18.552490
v -17.479622 0.000005 22.223707
v 9.640403 7.702492 -28.767073
v 23.090910 5.572684 -28.767208
v 22.590719 6.617429 -34.728123
v 9.507080 61.194344 -34.052357
v -9.640439 61.776676 -28.767075
v -9.640441 7.702482 -28.767069
v -23.092741 6.105550 -28.767241
v -22.635454 6.098942 -34.609550
v -9.573773 61.349651 -34.604145
v 9.598129 7.723221 -34.820126
v -9.555573 7.702210 -34.968838
v 27.976034 3.810675 -2.276983
v 27.144201 59.149185 -1.374026
v 25.480539 3.810675 -4.985861
v -2.198289 76.651604 21.033794
v -1.502263 76.646004 22.903416
v -1.610993 0.471908 22.304440
v 6.670534 0.471955 27.744942
v 7.715291 51.258644 27.914318
v 8.760042 0.471955 28.083679
v -6.670603 0.471950 27.744938
v -7.715353 38.561810 27.970768
v -8.760112 76.651611 27.744947
v 25.480541 3.810675 -7.474844
v 27.144203 40.703056 -7.160787
v 28.807865 3.810675 -6.846726
v -19.837194 31.479937 9.551216
v -19.097790 59.149185 12.260091
v -19.097788 3.810667 6.842336
v -19.652342 22.256802 4.667413
v -17.988678 59.149185 4.353352
v -21.316002 59.149185 4.981472
v 27.821640 55.918621 -2.339698
v 27.821640 53.853043 -2.667464
v 27.735241 55.011375 -18.494818
v 27.821640 52.281761 -2.339697
v 27.821638 50.216171 -2.667464
v 27.735241 51.374512 -18.494873
v 27.821636 48.644886 -2.339698
v 27.821636 46.579304 -2.667465
v 27.735239 47.737644 -18.494886
v 27.821634 45.008018 -2.339699
v 27.821634 42.942436 -2.667466
v 27.735235 44.100769 -18.494829
v 27.821634 41.371147 -2.339699
v 27.821634 39.305565 -2.667469
v 27.735235 40.463902 -18.494860
v 27.821634 37.734283 -2.339700
v 27.821636 35.668701 -2.667466
v 27.735235 36.827042 -18.494856
v 27.821636 34.097420 -2.339700
v 27.821634 32.031830 -2.667469
v 27.735235 33.190166 -18.494917
v 27.821634 30.460546 -2.339701
v 27.821638 28.394964 -2.667465
v 27.735235 29.553301 -18.494900
v 27.821636 26.823679 -2.339698
v 27.821640 24.758101 -2.667466
v 27.735233 25.916439 -18.494867
v 27.821634 23.186815 -2.339699
v 27.821636 21.121231 -2.667467
v 27.735233 22.279572 -18.494925
v 27.821636 19.549946 -2.339700
v 27.821636 17.484365 -2.667466
v 27.735239 18.642693 -18.494854
v 27.821634 15.913074 -2.339700
v 27.821636 13.847491 -2.667467
v 27.735235 15.005833 -18.494833
v 27.821634 12.276205 -2.339700
v 27.821634 10.210621 -2.667468
v 27.735235 11.368961 -18.494886
v 19.743561 53.526917 0.797465
v 20.100456 55.439457 1.090818
v 23.926325 54.194820 1.002083
v 19.743561 49.890045 0.797465
v 20.100456 51.802586 1.090818
v 23.926325 50.557949 1.002081
v 19.743561 46.253181 0.513085
v 20.097536 48.217747 0.991919
v 24.120455 47.090206 1.016613
v 19.743561 42.616310 0.513085
v 20.097536 44.580879 0.991919
v 24.120457 43.453335 1.016613
v 19.743559 38.979443 0.513084
v 20.091877 40.995697 1.054957
v 24.171837 39.854691 1.180716
v 19.743555 35.342579 0.513084
v 20.091873 37.358829 1.054958
v 24.171837 36.217823 1.180716
v 19.962322 31.706253 0.513082
v 20.112768 33.708897 1.041157
v 24.175087 32.579147 1.172156
v 19.743555 28.069021 0.797462
v 20.096214 30.010212 1.090963
v 23.969900 28.664911 1.093338
v 19.743555 24.431974 0.513084
v 20.091873 26.448223 1.054956
v 24.171829 25.307224 1.180714
v 19.743555 20.795107 0.513083
v 20.091875 22.811363 1.054956
v 24.171825 21.670357 1.180714
v 19.996862 17.483347 0.853934
v 19.840790 19.549940 0.086532
v 24.479055 18.181559 0.772578
v 19.996861 13.846475 0.853935
v 19.840788 15.913073 0.086532
v 24.479061 14.544689 0.772579
v 19.996862 10.209604 0.853936
v 19.840786 12.276206 0.086531
v 24.479053 10.907823 0.772579
v -27.821730 55.918621 -2.339698
v -27.735329 55.011375 -18.494841
v -27.821730 53.853043 -2.667464
v -27.821730 52.281761 -2.339697
v -27.735329 51.374508 -18.494900
v -27.821728 50.216171 -2.667464
v -27.821726 48.644886 -2.339698
v -27.735329 47.737640 -18.494905
v -27.821726 46.579304 -2.667467
v -27.821724 45.008018 -2.339699
v -27.735323 44.100773 -18.494846
v -27.821724 42.942432 -2.667466
v -27.821724 41.371151 -2.339699
v -27.735323 40.463905 -18.494844
v -27.821724 39.305565 -2.667468
v -27.821724 37.734283 -2.339700
v -27.735323 36.827042 -18.494873
v -27.821724 35.668701 -2.667466
v -27.821724 34.097420 -2.339699
v -27.735323 33.190166 -18.494955
v -27.821720 32.031830 -2.667469
v -27.821720 30.460546 -2.339700
v -27.735323 29.553305 -18.494888
v -27.821724 28.394964 -2.667464
v -27.821720 26.823679 -2.339699
v -27.735323 25.916430 -18.494816
v -27.821728 24.758101 -2.667466
v -27.821724 23.186815 -2.339699
v -27.735323 22.279573 -18.494816
v -27.821724 21.121231 -2.667467
v -27.821724 19.549948 -2.339700
v -27.735327 18.642700 -18.494892
v -27.821724 17.484365 -2.667466
v -27.821724 15.913073 -2.339700
v -27.735323 15.005833 -18.494848
v -27.821724 13.847491 -2.667467
v -27.821724 12.276205 -2.339700
v -27.735323 11.368965 -18.494867
v -27.821724 10.210622 -2.667469
v -19.743650 53.526917 0.797465
v -20.100544 55.439457 1.090819
v -23.926411 54.194820 1.002083
v -19.743650 49.890045 0.797465
v -20.100544 51.802586 1.090818
v -23.926411 50.557949 1.002081
v -19.743650 46.253181 0.513085
v -20.097626 48.217747 0.991920
v -24.120543 47.090206 1.016614
v -19.743650 42.616310 0.513085
v -20.097626 44.580879 0.991919
v -24.120541 43.453335 1.016612
v -19.743650 38.979443 0.513084
v -20.091967 40.995697 1.054958
v -24.171921 39.854694 1.180717
v -19.743643 35.342579 0.513084
v -20.097620 37.307144 0.991920
v -24.120541 36.179596 1.016614
v -19.743643 31.705706 0.513083
v -20.097620 33.670273 0.991918
v -24.120543 32.542732 1.016611
v -19.743643 28.068840 0.513083
v -20.097620 30.033405 0.991917
v -24.120541 28.905865 1.016611
v -19.743643 24.431974 0.513084
v -20.097620 26.396538 0.991917
v -24.120531 25.268999 1.016610
v -19.743643 20.795107 0.513083
v -20.097618 22.759676 0.991918
v -24.120533 21.632132 1.016611
v -19.996950 17.483345 0.853934
v -19.840879 19.549940 0.086532
v -24.479145 18.181559 0.772578
v -19.996944 13.846474 0.853934
v -19.840878 15.913072 0.086532
v -24.479145 14.544687 0.772579
v -19.996950 10.209604 0.853936
v -19.840872 12.276206 0.086531
v -24.479141 10.907823 0.772579
v 20.072086 59.149185 25.360195
v 19.517536 22.256800 20.979612
v 18.962980 59.149185 16.599012
v -25.745140 76.198715 -28.292429
v -25.781197 76.198708 -28.229977
v -25.658432 76.221230 -28.294336
v -25.704393 76.180695 -28.133665
v -25.824539 76.140160 -28.249832
vn 0.6402 0.1664 -0.7499
vn -0.6760 -0.0038 -0.7369
vn -0.6344 0.0273 -0.7725
vn -0.6876 -0.0004 -0.7261
vn 0.6696 -0.1226 -0.7326
vn -0.6920 0.0475 -0.7203
vn 0.4234 0.0534 0.9044
vn -0.0148 0.0414 0.9990
vn 0.6796 -0.0022 0.7336
vn 0.9982 0.0540 -0.0274
vn 0.8009 0.1991 -0.5647
vn 0.6570 0.0755 -0.7501
vn -0.6738 0.0042 -0.7389
vn 0.7341 0.1202 0.6684
vn 0.6727 0.0698 -0.7367
vn 0.6692 0.0406 -0.7420
vn -0.6471 -0.0586 -0.7602
vn -0.0091 0.0832 0.9965
vn -0.6792 -0.0065 0.7339
vn 0.0034 -0.0039 1.0000
vn -0.5350 -0.2977 -0.7907
vn 0.7020 -0.0895 -0.7065
vn -0.7418 0.3707 -0.5588
vn -0.0022 -0.0064 1.0000
vn 0.6769 -0.0111 0.7360
vn 0.7458 -0.0469 -0.6645
vn -0.6331 0.0677 -0.7711
vn -0.6944 0.0040 -0.7196
vn 0.8034 -0.0068 0.5955
vn 0.6813 0.0063 -0.7320
vn -0.6606 0.1090 -0.7428
vn 0.5901 -0.5286 -0.6102
vn -0.6797 0.0009 0.7335
vn 0.0031 0.0003 1.0000
vn -0.5619 -0.4707 -0.6802
vn -0.0096 -0.0012 1.0000
vn -0.7443 0.0088 -0.6677
vn 0.6909 -0.1388 -0.7095
vn 0.6786 0.0119 0.7344
vn 0.6104 0.3827 -0.6935
vn -0.7400 0.0287 -0.6719
vn 0.7861 -0.3962 0.4745
vn 0.6875 -0.1071 -0.7182
vn -0.6808 0.0022 0.7324
vn 0.0031 0.0008 1.0000
vn 0.7226 0.1727 -0.6693
vn -0.0033 0.0006 1.0000
vn 0.6785 -0.0103 0.7345
vn 0.8190 -0.0048 0.5738
vn -0.6791 0.0005 0.7341
vn -0.0020 -0.0002 1.0000
vn -0.0069 0.0015 1.0000
vn 0.6817 0.0007 0.7317
vn 0.8334 0.0307 0.5519
vn -0.6846 -0.0130 0.7288
vn -0.0035 0.0031 1.0000
vn 0.6988 -0.0068 0.7153
vn 0.2244 0.5852 -0.7792
vn -0.6240 0.2532 -0.7393
vn 0.8171 -0.0303 0.5756
vn -0.0136 0.0040 0.9999
vn -0.7018 -0.0052 0.7123
vn -0.2791 0.8012 0.5293
vn -0.0000 1.0000 -0.0000
vn -0.1460 0.9640 0.2223
vn -0.0000 -0.0000 -0.0000
vn 0.5880 -0.7638 0.2661
vn -0.0273 -0.9993 -0.0273
vn 0.9945 -0.0001 -0.1047
vn -0.6554 -0.4286 0.6218
vn 0.5659 -0.6290 0.5331
vn 0.4773 -0.2070 0.8540
vn 0.4271 -0.9029 0.0480
vn 0.9301 -0.3062 0.2027
vn 0.9510 -0.3009 -0.0713
vn -0.0045 0.0086 1.0000
vn 0.5807 0.5746 0.5767
vn 0.2934 0.9065 0.3035
vn 0.9654 0.2571 0.0437
vn 0.7645 0.1925 0.6152
vn 0.8891 0.1931 0.4149
vn 0.9466 -0.1635 -0.2780
vn 0.9996 0.0267 -0.0044
vn 0.8351 -0.2104 -0.5082
vn -0.1037 -0.9490 0.2976
vn -0.3653 0.2999 0.8813
vn -0.0204 -0.9996 -0.0204
vn -0.0290 0.9992 -0.0290
vn 0.1929 0.9809 -0.0246
vn 0.7298 0.0380 0.6827
vn 0.2803 -0.8886 0.3632
vn -0.5549 -0.8311 0.0373
vn 0.1431 0.9793 -0.1431
vn 0.1246 0.9898 0.0686
vn -0.3114 -0.4460 0.8391
vn -0.9596 0.0227 0.2803
vn -0.0081 0.9994 -0.0350
vn -0.2438 -0.8106 0.5324
vn 0.6319 -0.4152 0.6544
vn -0.4138 -0.3009 0.8592
vn -0.0164 0.0738 0.9971
vn 0.0417 -0.0000 0.9991
vn -0.1174 -0.9929 -0.0177
vn -0.5567 0.5992 0.5753
vn 0.0007 0.0038 1.0000
vn -0.2795 0.9077 0.3129
vn -0.7850 0.2295 0.5754
vn -0.9688 0.2433 0.0466
vn -0.9856 0.1543 0.0690
vn 0.6745 -0.3142 -0.6680
vn -0.5784 0.5719 -0.5818
vn 0.5748 0.5768 -0.5805
vn -0.9990 0.0442 -0.0042
vn -0.9562 -0.1176 -0.2681
vn -0.4127 -0.5607 -0.7178
vn 0.5152 0.6192 0.5925
vn 0.1765 -0.3618 0.9154
vn 0.6092 0.0800 0.7890
vn -0.2068 -0.6839 0.6997
vn 0.7071 -0.0000 0.7071
vn 0.0118 -0.9999 -0.0118
vn 0.0253 0.9994 -0.0231
vn 0.5078 0.8615 0.0007
vn -0.9968 0.0244 -0.0764
vn -0.9970 -0.0141 -0.0758
vn -0.9988 0.0052 -0.0489
vn -0.9996 0.0153 -0.0229
vn -0.9955 0.0829 -0.0468
vn -0.7181 -0.3091 0.6235
vn -0.6935 0.1316 0.7083
vn -1.0000 -0.0036 -0.0068
vn -0.3559 -0.4647 0.8108
vn -0.4346 0.0652 0.8982
vn -0.0042 0.0739 0.9973
vn 0.9999 0.0023 -0.0117
vn 0.9999 0.0086 -0.0147
vn 0.7096 -0.2543 0.6571
vn 0.5866 0.5859 0.5591
vn -0.6605 -0.3245 -0.6770
vn 0.6051 -0.4406 -0.6631
vn -0.6698 -0.3886 -0.6328
vn -0.9998 -0.0077 -0.0196
vn -0.9990 -0.0063 -0.0437
vn -0.5875 0.5849 0.5592
vn 0.9978 -0.0071 -0.0664
vn 0.9994 -0.0151 -0.0317
vn -0.0115 0.0038 0.9999
vn -0.0034 0.0072 1.0000
vn -0.3379 0.8842 0.3225
vn -0.2692 -0.9055 0.3280
vn 0.3077 0.8900 0.3365
vn 0.8941 -0.0602 0.4439
vn 0.8705 -0.0251 0.4916
vn 0.8516 -0.0000 0.5243
vn 0.9251 0.0003 0.3798
vn 0.3957 -0.0000 0.9184
vn -0.7390 -0.0000 0.6737
vn -0.8260 -0.0487 -0.5616
vn -0.8595 -0.0432 0.5094
vn -0.0394 0.3240 0.9453
vn 0.8530 -0.1472 0.5007
vn 0.7722 0.6239 -0.1200
vn -0.5686 0.5591 -0.6034
vn -0.7548 0.6535 -0.0564
vn 0.3335 0.3098 0.8904
vn -0.3518 0.1778 -0.9190
vn 0.3339 0.3062 -0.8915
vn 0.8002 0.0482 -0.5977
vn 1.0000 -0.0000 -0.0000
vn -0.7880 0.6157 -0.0000
vn -0.7994 0.6008 -0.0000
vn -0.0000 -0.0000 1.0000
vn -0.0000 -0.0019 -1.0000
vn -0.0000 -0.0017 -1.0000
vn -0.0000 -0.0016 -1.0000
vn -0.0000 0.1483 -0.9889
vn -0.0000 0.1560 -0.9878
vn -0.0000 0.1564 -0.9877
vn 0.9994 0.0059 -0.0351
vn -0.0000 0.1544 -0.9880
vn 0.9989 0.0068 -0.0468
vn -0.9999 0.0020 -0.0117
vn -0.0000 0.1843 -0.9829
vn -0.9999 0.0020 -0.0156
vn -0.0000 -0.0073 -1.0000
vn -0.0000 -0.1081 0.9941
vn -0.0000 -0.1104 0.9939
vn -0.0000 -0.1153 0.9933
vn -0.0000 -0.0693 -0.9976
vn -0.0000 -0.1036 -0.9946
vn 0.3523 -0.0055 0.9359
vn 0.4437 -0.0052 0.8961
vn 0.5250 -0.0049 0.8511
vn -0.0000 -0.3714 0.9285
vn 0.9999 -0.0059 0.0156
vn 0.9997 -0.0098 0.0234
vn -0.0000 -0.4472 0.8944
vn -0.0000 -0.3511 0.9363
vn -0.0000 -0.0000 -1.0000
vn 0.4119 -0.9045 -0.1104
vn -0.4119 0.9045 0.1104
vn 0.2495 -0.3981 0.8828
vn 0.8318 -0.1479 0.5349
vn -0.9963 0.0089 -0.0852
vn -0.9962 0.0049 -0.0864
vn -0.7733 0.0891 0.6278
vn 0.1943 0.6500 0.7347
vn 0.1037 0.3052 0.9466
vn 0.8425 0.1474 0.5180
vn -0.7701 0.0415 0.6366
vn -0.8504 0.1640 0.4999
vn 0.9971 -0.0031 -0.0759
vn 0.9983 0.0010 -0.0583
vn -0.7845 -0.0052 0.6202
vn -0.1885 0.2741 0.9431
vn -0.3976 -0.0709 0.9148
vn 0.7897 -0.4297 0.4378
vn 0.5242 -0.1519 0.8379
vn 0.0457 -0.2247 0.9734
vn -0.7903 -0.4730 0.3894
vn -0.8173 -0.0321 0.5754
vn -0.7862 -0.0002 0.6180
vn 0.8151 0.0003 0.5793
vn -0.1869 0.6662 0.7220
vn -0.8332 -0.1433 0.5342
vn -0.5144 -0.5913 0.6211
vn 0.9976 -0.0121 -0.0686
vn -0.7846 0.0031 0.6200
vn -0.4144 0.0417 0.9091
vn -0.7861 -0.0003 0.6181
vn 0.9973 -0.0032 -0.0738
vn -0.2549 0.2937 0.9213
vn 0.7594 -0.1426 0.6347
vn 0.6827 -0.0015 0.7307
vn -0.9975 0.0027 -0.0707
vn -0.9063 -0.4105 -0.1010
vn -0.3602 0.0869 0.9288
vn 0.6294 0.5364 0.5622
vn -0.7692 0.0077 0.6389
vn 0.9971 -0.0067 -0.0764
vn 0.7688 0.2797 0.5751
vn 0.9716 0.2318 0.0475
vn -0.0052 0.0086 0.9999
vn -0.7908 -0.0477 0.6102
vn -0.2327 0.8205 0.5222
vn -0.2280 -0.5080 0.8306
vn 0.7071 -0.0000 -0.7071
vn 0.0163 0.0452 0.9988
vn 0.0095 -0.0970 0.9952
vn 0.0174 0.0051 0.9998
vn 0.0067 -0.1392 0.9902
vn -0.5075 0.6550 0.5598
vn 0.3865 -0.9142 0.1222
vn 0.5983 -0.0000 0.8013
vn 0.6493 -0.0743 0.7569
vn 0.0478 -0.7655 -0.6416
vn 0.4383 -0.8977 0.0455
vn -0.4159 -0.9053 0.0861
vn -0.4389 -0.8979 0.0337
vn 0.4648 -0.0336 0.8848
vn -0.0378 0.0425 0.9984
vn -0.8439 -0.5268 0.1015
vn -0.5233 -0.8504 -0.0549
vn -0.0540 -0.3150 0.9475
vn -0.5011 0.0988 0.8597
vn -0.9929 -0.0621 0.1018
vn -0.0004 -0.0004 1.0000
vn -0.9654 0.2575 0.0413
vn -0.9989 -0.0000 -0.0474
vn 0.8300 0.5577 0.0055
vn 0.8931 0.4498 0.0094
vn -0.7071 -0.0000 0.7071
vn -0.8488 -0.0000 0.5287
vn 0.9142 -0.0955 0.3939
vn -0.6737 -0.0000 0.7390
vn -0.9999 -0.0002 -0.0135
vn 0.2101 0.0749 0.9748
vn -0.1829 -0.8536 -0.4878
vn -0.1543 -0.7715 -0.6172
vn -0.1990 -0.8955 -0.3980
vn 0.7071 0.7071 -0.0000
vn 0.8321 0.5547 -0.0000
vn 0.4880 0.3904 0.7807
vn -0.9615 -0.2747 -0.0000
vn -0.9749 -0.2228 -0.0000
vn 0.0880 -0.7044 0.7044
vn 0.0697 -0.4461 0.8923
vn 0.0748 -0.5983 0.7978
vn -0.3478 -0.7321 0.5857
vn -0.4472 -0.8944 -0.0000
vn -0.4614 -0.7382 0.4921
vn 0.5571 -0.3714 0.7428
vn 0.4244 -0.0000 0.9055
vn 0.4991 -0.2102 0.8407
vn -0.0000 0.0018 -1.0000
vn -0.0000 0.0017 -1.0000
vn -0.9943 0.0165 -0.1049
vn -0.9911 0.0203 -0.1316
vn 0.9995 0.0059 -0.0312
vn 0.9997 0.0039 -0.0234
vn 0.9998 0.0034 -0.0195
vn -0.9955 0.0156 -0.0933
vn -0.0000 0.1644 -0.9864
vn -0.9930 0.0184 -0.1164
vn -0.0000 0.0054 1.0000
vn -0.0000 0.0053 1.0000
vn -0.0000 0.0057 1.0000
vn -0.0000 0.0147 -0.9999
vn -0.0000 0.0096 -1.0000
vn -0.0000 0.0125 -0.9999
vn -0.0000 0.6306 -0.7761
vn -0.0000 0.6207 -0.7840
vn -0.0000 0.6839 -0.7295
vn 0.9995 0.0137 0.0273
vn -0.0000 0.4819 0.8762
vn 0.9991 0.0176 0.0390
vn -0.3593 0.0018 0.9332
vn -0.0000 0.0017 1.0000
vn -0.3007 0.0018 0.9537
vn -0.0000 0.0015 -1.0000
vn -0.4451 0.0011 -0.8955
vn -0.2960 0.0012 -0.9552
vn -0.3579 -0.0010 -0.9338
vn -0.0000 -0.0010 -1.0000
vn -0.3000 -0.0009 -0.9539
vn -1.0000 -0.0000 -0.0000
vn -0.7593 -0.6508 -0.0000
vn -0.8000 -0.6000 -0.0000
vn -0.7809 -0.6247 -0.0000
vn 0.6728 -0.1794 -0.7177
vn 0.5270 -0.1054 -0.8433
vn 0.4460 -0.0743 -0.8920
vn -0.9445 -0.3285 -0.0000
vn -0.9536 -0.3011 -0.0000
vn -0.8944 -0.4472 -0.0000
vn -0.9240 -0.3824 -0.0000
vn -0.9216 -0.3881 -0.0000
vn 0.6585 0.7526 -0.0000
vn 0.7474 0.6644 -0.0000
vt 1.312779 1.417699
vt -0.308848 1.421003
vt -0.308564 1.421346
vt -0.302544 1.425870
vt 1.323171 1.418636
vt -0.301934 1.425699
vt 0.688971 0.028459
vt 1.048935 0.062986
vt 0.688971 0.116351
vt 1.309502 0.116373
vt -0.022828 0.062981
vt 1.309349 0.028437
vt 1.317575 1.430796
vt -0.301656 1.425704
vt 0.834445 0.028437
vt 0.834387 0.116373
vt -0.422377 0.076989
vt 1.308593 1.419237
vt 1.307096 1.424351
vt -0.307999 1.416716
vt -0.048935 0.028459
vt 0.311029 0.116351
vt -0.048936 0.116351
vt 1.309502 0.174122
vt -0.022828 0.086187
vt 1.309349 0.086186
vt -0.302296 1.490662
vt 1.318735 1.412630
vt -0.290757 1.403807
vt 0.688971 0.604366
vt 1.048936 0.647547
vt 0.688971 0.692258
vt 1.334792 1.404865
vt -0.284495 1.410089
vt -0.339618 1.467537
vt 0.834445 0.604344
vt 0.834387 0.692280
vt -0.422383 0.653719
vt 1.303195 1.391332
vt 1.309058 1.413725
vt -0.337551 1.469604
vt 1.297145 1.397401
vt -0.048935 0.604366
vt 0.311029 0.692258
vt -0.048936 0.692258
vt -0.315586 1.419892
vt 0.688971 0.246112
vt 1.048936 0.201707
vt 1.048936 0.289598
vt -0.328773 1.407990
vt 1.342818 1.464339
vt 0.688971 0.325863
vt 1.048936 0.368817
vt 0.688971 0.413754
vt 1.308226 1.426047
vt -0.294507 1.401378
vt -0.335902 1.398438
vt 0.834445 0.259434
vt 0.834387 0.347370
vt -0.422373 0.307456
vt 1.326405 1.416024
vt -0.048935 0.325863
vt 0.311029 0.413754
vt -0.048936 0.413754
vt 1.319707 1.425134
vt 0.688971 0.451127
vt 1.048936 0.539018
vt 0.688971 0.539018
vt 0.834445 0.451105
vt 0.834387 0.539040
vt -0.422378 0.499793
vt -0.048935 0.451127
vt 0.311029 0.539018
vt -0.048936 0.539018
vt 0.688971 0.490453
vt 1.048936 0.578344
vt 0.688971 0.578344
vt 0.834445 0.490431
vt 0.834387 0.578367
vt -0.422383 0.539804
vt -0.048935 0.533592
vt 0.311029 0.490453
vt 0.311029 0.578344
vt 0.688971 0.605951
vt 1.048936 0.693843
vt 0.688971 0.693843
vt 1.250364 1.515423
vt -0.313140 1.417725
vt 0.834445 0.605929
vt 0.834387 0.693865
vt -0.422386 0.655608
vt -0.048935 0.649123
vt 0.311029 0.605951
vt 0.311029 0.693843
vt 0.989931 -0.637273
vt 0.998004 -0.618534
vt 1.214230 -0.402308
vt 1.172765 -0.443773
vt 1.192771 0.385987
vt 0.897858 0.661912
vt 1.399115 0.500000
vt 1.399115 0.688792
vt -0.057687 0.596135
vt 0.370319 0.688792
vt -1.045957 0.688792
vt 1.172765 2.834486
vt 1.418498 2.913003
vt 1.172765 2.980676
vt 0.405992 0.659292
vt -0.443773 0.787530
vt -0.443773 0.659292
vt 2.008097 0.688792
vt 0.370319 0.671919
vt 2.008097 0.500000
vt 0.738715 -0.577069
vt 1.039469 -0.577069
vt 1.172765 0.613276
vt 1.172765 0.659292
vt 1.101649 0.756500
vt 1.125844 0.154521
vt 0.261286 -0.300766
vt -0.125843 0.154522
vt -0.039469 -0.577069
vt 0.001996 -0.618534
vt -0.172764 0.405993
vt -0.214229 -0.402308
vt -0.399115 0.500000
vt 0.102142 0.653614
vt -0.399115 0.688792
vt -0.621275 0.688792
vt -1.030829 0.671320
vt -0.621275 0.500000
vt -0.048800 0.587045
vt -0.722626 0.580206
vt -1.045957 0.565239
vt -0.418497 2.980676
vt -0.172764 2.834486
vt -0.172764 2.980676
vt -0.443773 0.787530
vt 0.405993 0.659292
vt -0.443773 0.659292
vt 1.418498 2.834486
vt -0.418496 2.885674
vt 1.418498 2.980676
vt 0.370319 0.671320
vt 0.243391 2.963289
vt 0.179985 1.768378
vt 0.261286 1.727051
vt -0.232968 -0.381755
vt 1.365956 1.377766
vt 1.388660 2.172788
vt 0.405993 2.147840
vt 0.405993 2.206051
vt 1.388660 1.936368
vt 0.405993 1.911421
vt 0.405993 1.969631
vt 0.405993 0.787530
vt 1.388660 0.659292
vt -0.443773 2.273656
vt -0.577069 2.379703
vt 0.405993 2.384674
vt 1.262486 0.787531
vt -0.307835 0.543765
vt -0.354085 0.787530
vt 1.303194 1.391332
vt 0.405992 0.787531
vt 1.388659 0.659293
vt 1.388659 0.787531
vt -0.418497 0.787530
vt -0.172764 0.659292
vt -0.172764 0.787530
vt 1.172765 0.787530
vt 1.418498 0.659292
vt 1.418498 0.787531
vt 0.405992 2.474319
vt -0.577069 2.514611
vt -0.577069 2.444674
vt 0.405992 2.834486
vt -0.577069 2.980676
vt -0.577069 2.834486
vt 1.418498 2.716047
vt -0.418496 2.704548
vt -0.418496 2.774486
vt 1.332532 2.384674
vt -0.262484 2.266051
vt -0.343889 2.384674
vt 0.405993 2.726734
vt 1.544671 2.774486
vt 1.544671 2.704548
vt 0.405993 2.514611
vt 1.388660 2.501781
vt 0.405993 2.444673
vt -0.577069 2.974458
vt 0.405993 2.980676
vt 0.405993 2.834486
vt 0.405992 2.279605
vt 1.388659 2.266051
vt 1.388659 2.384674
vt 1.544671 2.716047
vt 0.405992 2.774486
vt 0.405992 2.704549
vt -0.418497 2.276187
vt -0.172764 2.266051
vt -0.172764 2.384674
vt 1.172765 2.730479
vt 1.418498 2.704549
vt 1.418498 2.774486
vt -0.553253 0.438340
vt 0.965879 -0.739591
vt 1.553253 0.438340
vt 0.812654 -1.279822
vt 0.187346 2.279822
vt 0.187346 -1.279822
vt -0.618534 0.659292
vt -0.637273 0.613276
vt -0.618534 0.613276
vt 1.214230 0.613276
vt 1.232969 0.636284
vt 1.214230 0.659292
vt -0.381755 0.613275
vt -0.402308 0.659292
vt -0.381755 0.659292
vt -0.714246 2.386402
vt -0.750295 2.085732
vt -0.022363 2.085731
vt 1.750295 2.085732
vt 1.022363 2.361921
vt -0.022363 2.397820
vt -0.022363 2.085732
vt 1.022363 0.917356
vt -0.022363 0.917356
vt -0.750295 0.830827
vt -0.022005 0.918600
vt 1.021697 0.919667
vt 1.712871 0.857959
vt 0.080320 -1.648124
vt 0.919680 0.762692
vt 0.080320 0.762692
vt 0.601449 3.704978
vt 0.797155 0.706479
vt 0.650375 0.706479
vt 0.138557 0.525572
vt 0.025338 4.653342
vt 0.081948 2.589459
vt 2.060946 0.706479
vt 1.970801 3.704978
vt 1.880656 0.706479
vt -0.137312 3.704978
vt 0.156247 0.706479
vt 0.009468 2.205729
vt -0.474709 3.704978
vt -0.564854 0.706479
vt -0.654999 3.704978
vt 0.576065 2.317959
vt 1.277383 2.281003
vt 0.592725 2.255457
vt 0.576065 2.199721
vt 1.277383 2.162766
vt 0.592724 2.137220
vt 0.576065 2.081484
vt 1.277383 2.044529
vt 0.592725 2.018983
vt 0.576065 1.963246
vt 1.277383 1.926291
vt 0.592725 1.900745
vt 0.576065 1.845009
vt 1.277383 1.808053
vt 0.592725 1.782508
vt 0.576065 1.726771
vt 1.277383 1.689816
vt 0.592725 1.664270
vt 0.576065 1.608534
vt 1.277383 1.571579
vt 0.592725 1.546033
vt 0.576065 1.490297
vt 1.277383 1.453341
vt 0.592795 1.427725
vt 0.576065 1.372059
vt 1.277383 1.335104
vt 0.592725 1.309558
vt 0.576065 1.253822
vt 1.277383 1.216867
vt 0.592725 1.191321
vt 0.576065 1.135584
vt 1.277383 1.098629
vt 0.592725 1.073083
vt 0.576065 1.017347
vt 1.277383 0.980391
vt 0.592725 0.954845
vt 0.576065 0.899109
vt 1.277383 0.862154
vt 0.592795 0.836537
vt -0.145041 0.497186
vt -0.297294 0.476914
vt -0.145655 0.470993
vt -0.145041 0.497186
vt -0.145655 0.470993
vt -0.145041 0.497186
vt -0.145655 0.470993
vt 0.797155 3.704978
vt 0.650375 0.706479
vt 0.503595 3.704978
vt 0.213742 0.739794
vt 0.207911 0.745983
vt 0.215699 0.748069
vt 1.373815 0.967481
vt -0.114202 0.957752
vt 1.235775 0.882454
vt 1.235775 0.882454
vt -0.114202 0.960861
vt 1.373815 0.967481
vt 1.584162 0.883537
vt -0.585176 0.882501
vt -0.722826 0.968553
vt 1.723794 0.968553
vt 1.553941 3.665337
vt 1.963497 3.641122
vt 1.963497 3.741122
vt 1.976526 3.689373
vt 0.437653 3.741122
vt 0.437653 3.641122
vt 1.088370 -0.455597
vt 0.826795 -0.561253
vt 1.088444 -0.455327
vt 1.144375 0.434393
vt -0.402070 0.422419
vt -0.398707 0.425783
vt 0.834416 0.028437
vt -0.422380 0.077396
vt 0.834453 0.116373
vt -0.022828 0.028437
vt -0.022828 0.116373
vt 1.309418 0.068455
vt 0.826795 -0.568363
vt 0.826795 -0.555352
vt 1.087911 -0.455608
vt -0.072686 -0.467147
vt 0.173206 -0.566952
vt -0.085631 -0.455205
vt -0.142800 0.435963
vt 1.395353 0.429138
vt 0.311029 0.028459
vt 1.598045 0.257048
vt 1.597385 0.166797
vt -0.597825 0.226965
vt 0.688971 0.131866
vt 1.048936 0.086209
vt 1.048936 0.174100
vt -0.022828 0.174122
vt 0.141822 0.135491
vt 0.501136 0.083143
vt 0.501136 0.177165
vt 1.092801 -0.456238
vt 0.826795 -0.568329
vt 1.088438 -0.455326
vt 1.145516 0.433221
vt 0.173206 -0.564033
vt -0.092829 -0.456256
vt -0.088490 -0.455330
vt -0.149041 0.429697
vt -0.398572 0.425918
vt 1.695064 0.175280
vt 1.708140 0.085029
vt -0.597825 0.145196
vt 0.834416 0.604344
vt -0.422379 0.653144
vt 0.834453 0.692280
vt -0.022828 0.604344
vt -0.022828 0.692280
vt 1.309418 0.644298
vt 1.088150 -0.455261
vt 0.826795 -0.563695
vt 1.147623 0.431115
vt -0.088123 -0.455256
vt -0.151240 0.427500
vt 0.173206 -0.577069
vt 1.402219 0.422271
vt -0.398853 0.425637
vt -0.071797 -0.468463
vt 0.173206 -0.565103
vt -0.071797 -0.468463
vt -0.148524 0.430226
vt 1.398923 0.425568
vt 0.311029 0.604366
vt 1.087990 -0.455243
vt 0.826795 -0.564925
vt 1.075157 -0.469364
vt -0.398572 0.425918
vt 1.309423 0.244384
vt -0.022828 0.289620
vt -0.022828 0.201685
vt 0.141822 0.250989
vt 0.501136 0.198642
vt 0.501136 0.292664
vt 1.106009 -0.510529
vt 0.826795 -0.561146
vt 1.398607 0.425883
vt -0.402070 0.422419
vt 0.834416 0.000552
vt -0.422380 0.049510
vt 0.834453 0.088487
vt -0.022828 0.066958
vt -0.022828 0.154893
vt 1.309418 0.106911
vt 1.398923 0.425568
vt -0.398853 0.425637
vt -0.365392 1.366162
vt 0.826795 -0.568369
vt 1.072840 -0.468492
vt 1.055627 -0.448712
vt 1.142801 0.435963
vt -0.071797 -0.468463
vt 0.173206 -0.565103
vt -0.148524 0.430226
vt 1.402219 0.422271
vt 0.311029 0.325863
vt 0.826795 -0.565103
vt 1.121497 -0.495041
vt 1.075027 -0.472356
vt 1.146183 0.432581
vt 0.688971 0.362863
vt 1.048936 0.317205
vt 1.048936 0.405097
vt 1.309423 0.360135
vt -0.022828 0.405119
vt -0.022828 0.317183
vt 0.141823 0.366488
vt 0.501136 0.314140
vt 0.501136 0.408162
vt 1.056458 -0.449478
vt 1.072009 -0.469694
vt 1.146183 0.432581
vt -0.071797 -0.468463
vt -0.071797 -0.468463
vt -0.148524 0.430226
vt 0.834416 0.451105
vt -0.422378 0.499821
vt 0.834453 0.539040
vt 1.048936 0.451127
vt -0.022828 0.451105
vt -0.022828 0.539040
vt 1.309398 0.479335
vt 1.309425 0.494879
vt -0.022828 0.539040
vt -0.022828 0.451105
vt -0.055627 -0.448712
vt -0.145343 0.433419
vt 1.398923 0.425568
vt 0.311029 0.451126
vt 1.151241 0.427500
vt -0.056458 -0.449478
vt 0.834445 0.490431
vt -0.422386 0.540103
vt 1.048936 0.490453
vt 1.309417 0.530074
vt -0.022828 0.578367
vt -0.022828 0.490431
vt 1.398923 0.425568
vt -0.072043 -0.468580
vt 1.395353 0.429138
vt 1.056458 -0.449478
vt 0.834445 0.869463
vt -0.422385 0.919106
vt 0.834387 0.957398
vt 1.048936 0.605951
vt 1.309441 0.658979
vt -0.022828 0.693865
vt -0.022828 0.605929
vt 1.105394 -0.511144
vt 1.151241 0.427500
vt -0.106016 -0.510521
vt 1.146183 0.432581
vt 0.984970 -0.637273
vt 1.232969 -0.394235
vt 1.621275 0.688792
vt 1.621275 0.500000
vt 2.030829 0.671919
vt 0.828302 2.159669
vt 1.172765 2.444674
vt 1.172765 2.514611
vt 0.863501 2.612333
vt 0.802477 2.980676
vt 1.172765 2.834486
vt 1.172765 2.980676
vt 0.790301 1.678996
vt 0.738715 0.659292
vt 0.826795 1.166757
vt 0.823924 1.769890
vt 0.826795 0.904059
vt 0.826795 1.940526
vt 0.826795 1.428112
vt 1.039469 1.704106
vt 1.039469 1.585896
vt -1.048496 0.500000
vt 0.370319 0.500000
vt 0.405992 0.787530
vt 1.303318 0.521691
vt 1.418498 0.787531
vt 1.418498 0.636284
vt -0.498526 1.712270
vt -0.577069 1.727051
vt -0.520825 2.971114
vt 0.998004 0.659292
vt 0.998004 0.613276
vt 1.039469 0.613276
vt 1.125408 0.500000
vt -0.340491 1.466665
vt 1.303318 1.503840
vt 1.172765 0.405992
vt 1.418498 0.405992
vt -0.172764 0.405993
vt 1.125725 -0.492112
vt 0.738715 -0.300766
vt 0.261286 -0.577069
vt -0.095145 -0.521392
vt -0.115563 -0.249774
vt -0.418497 0.405993
vt 0.261286 -0.578651
vt 0.022549 -0.637273
vt -0.172765 -0.443773
vt -0.194842 0.383915
vt -0.433394 0.391096
vt -0.039469 2.279172
vt 0.173206 2.147570
vt -0.166332 2.412131
vt 0.136499 2.544611
vt -0.172765 2.644548
vt -0.172765 2.574611
vt 0.173206 1.940526
vt 0.261286 0.659292
vt 0.231863 1.687495
vt 0.173206 1.172027
vt -0.121497 0.787530
vt -0.039469 0.659292
vt 0.173206 0.902324
vt -0.039469 1.704106
vt 0.173206 1.408643
vt -0.418497 2.834486
vt 0.405993 0.787530
vt 0.345789 0.636284
vt -0.418496 0.636284
vt 0.001996 0.613275
vt 0.001996 0.659292
vt -0.121967 0.547094
vt -0.214229 0.659292
vt -0.214229 0.613275
vt -0.039469 0.613275
vt -0.085795 -0.478280
vt 1.388660 0.787530
vt 0.405992 2.266051
vt 0.405992 2.384674
vt -0.466178 2.291481
vt 0.405993 2.266051
vt 1.055627 -0.448712
vt 1.142801 0.435963
vt 1.402219 0.422271
vt 0.405992 0.659292
vt -0.418496 2.266051
vt -0.418497 2.206051
vt -0.418497 2.147840
vt -0.172764 2.175884
vt -0.418497 1.969631
vt -0.418497 1.911421
vt -0.172764 1.938124
vt -0.418497 0.659292
vt 1.172765 0.659292
vt 0.405992 2.980676
vt 1.356719 2.266051
vt 0.405993 2.834486
vt 0.405993 2.980676
vt 1.544671 2.885674
vt 0.405993 2.276187
vt 1.388660 2.384674
vt 1.388660 2.266051
vt -0.577069 2.574611
vt -0.577069 2.644548
vt 0.405993 2.606880
vt 1.544671 2.834486
vt 1.544671 2.980676
vt 0.405992 2.913003
vt -0.418497 2.514611
vt -0.418497 2.444673
vt -0.172764 2.499331
vt 1.418498 2.279605
vt 1.172765 2.384674
vt 1.172765 2.266051
vt 1.962807 0.438340
vt 1.962807 2.200096
vt -0.962807 2.200096
vt -0.962807 0.438340
vt -0.553253 -1.200096
vt 0.034121 -0.739591
vt 0.000908 -1.166883
vt 0.999092 -1.166883
vt 1.553253 -1.200096
vt 0.429237 0.917732
vt 0.510506 2.754142
vt 0.749681 2.754142
vt 0.749681 -0.807579
vt 0.417102 -0.667993
vt 0.420976 0.917732
vt 0.417102 -0.673855
vt 0.812654 2.279822
vt -0.637273 0.659292
vt 0.022549 0.636284
vt -0.402308 0.613275
vt 2.085732 0.917356
vt 2.422452 0.917356
vt 2.361921 3.812578
vt 1.714245 2.386402
vt 1.022363 2.422452
vt 1.022363 2.085732
vt 2.085731 0.917356
vt 2.397820 3.812160
vt 2.085732 3.847348
vt -0.022363 2.422452
vt 1.710240 2.390408
vt 1.750295 0.801953
vt 1.022363 3.847348
vt -0.022363 3.847348
vt -0.714246 0.830322
vt 0.919680 -1.648124
vt 1.880656 0.706479
vt -0.681561 0.525572
vt -0.750410 4.653342
vt -0.612712 4.653342
vt 0.380888 4.653342
vt 0.425402 4.653342
vt 0.412711 0.525572
vt 0.918052 4.653342
vt 0.974662 0.525572
vt 0.861443 0.525572
vt 1.145041 2.317959
vt 1.289076 2.268160
vt 1.137139 2.240149
vt 1.160846 2.302611
vt 1.160846 2.240149
vt 1.291096 2.269242
vt 1.145041 2.199721
vt 1.289076 2.149922
vt 1.137139 2.121912
vt 1.160846 2.184373
vt 1.160846 2.121912
vt 1.291096 2.151005
vt 1.160846 2.066136
vt 1.160846 2.003674
vt 1.291096 2.032767
vt 1.291420 2.040643
vt 1.137139 2.003674
vt 1.145041 2.081484
vt 1.160846 1.947898
vt 1.160846 1.885437
vt 1.291096 1.914530
vt 1.291420 1.922405
vt 1.137139 1.885437
vt 1.145041 1.963246
vt 1.160846 1.829661
vt 1.160846 1.767199
vt 1.288652 1.790236
vt 1.293524 1.812062
vt 1.137139 1.767199
vt 1.145041 1.845009
vt 1.160846 1.711424
vt 1.160846 1.648962
vt 1.288652 1.671999
vt 1.293524 1.693824
vt 1.137139 1.648962
vt 1.145041 1.726771
vt 1.160846 1.593186
vt 1.160846 1.530724
vt 1.288652 1.553761
vt 1.293524 1.575587
vt 1.137139 1.530724
vt 1.145041 1.608534
vt 1.145041 1.490296
vt 1.289076 1.440497
vt 1.137139 1.412487
vt 1.160846 1.474949
vt 1.160846 1.412487
vt 1.288652 1.435524
vt 1.160846 1.356711
vt 1.160846 1.294250
vt 1.288652 1.317287
vt 1.293524 1.339112
vt 1.137139 1.294250
vt 1.145041 1.372059
vt 1.160846 1.238474
vt 1.160846 1.176012
vt 1.288652 1.199049
vt 1.293524 1.220874
vt 1.137139 1.176012
vt 1.145041 1.253822
vt 1.145041 0.497186
vt 1.145655 0.470993
vt 1.297294 0.476914
vt 1.292289 1.091848
vt 1.137139 1.057775
vt 1.145041 1.135584
vt 1.145041 0.497186
vt 1.145655 0.470993
vt 1.292289 0.973610
vt 1.137139 0.939537
vt 1.145041 1.017347
vt 1.145655 0.470993
vt 1.292289 0.855373
vt 1.137139 0.821299
vt 1.145041 0.899109
vt 1.277383 2.281003
vt 0.592725 2.255458
vt 0.592725 2.137220
vt 1.277383 2.044529
vt 0.592725 2.018983
vt 1.277383 1.926291
vt 0.592795 1.900675
vt 1.277383 1.808054
vt 0.592725 1.782508
vt 0.576065 1.726772
vt 1.277383 1.571579
vt 0.592725 1.546033
vt 1.277383 1.453341
vt 0.592724 1.427795
vt 1.277383 1.335104
vt 1.277383 1.216867
vt 0.592725 1.191320
vt 1.277383 1.098629
vt 0.592725 1.073083
vt 1.277383 0.980391
vt 0.592725 0.954845
vt 0.576065 0.899109
vt 1.277383 0.862154
vt -0.137139 2.240149
vt -0.289076 2.268160
vt -0.145041 2.317959
vt -0.160846 2.240149
vt -0.160846 2.302611
vt -0.291096 2.269242
vt -0.137139 2.121912
vt -0.289076 2.149922
vt -0.145041 2.199721
vt -0.160846 2.121912
vt -0.160846 2.184373
vt -0.291096 2.151005
vt -0.160846 2.003674
vt -0.160846 2.066136
vt -0.291096 2.032767
vt -0.145041 2.081484
vt -0.137139 2.003674
vt -0.291420 2.040643
vt -0.160846 1.885437
vt -0.160846 1.947898
vt -0.291096 1.914530
vt -0.145041 1.963246
vt -0.137139 1.885437
vt -0.291420 1.922405
vt -0.160846 1.767199
vt -0.160846 1.829661
vt -0.288652 1.790236
vt -0.145041 1.845009
vt -0.137139 1.767199
vt -0.293524 1.812062
vt -0.160846 1.648962
vt -0.160846 1.711424
vt -0.291096 1.678055
vt -0.145041 1.726771
vt -0.137139 1.648962
vt -0.291420 1.685930
vt -0.160846 1.530724
vt -0.160846 1.593186
vt -0.291096 1.559818
vt -0.145041 1.608534
vt -0.137139 1.530724
vt -0.291420 1.567693
vt -0.160846 1.412487
vt -0.160846 1.474949
vt -0.291096 1.441580
vt -0.145041 1.490296
vt -0.137139 1.412487
vt -0.291420 1.449455
vt -0.160846 1.294250
vt -0.160846 1.356711
vt -0.291096 1.323343
vt -0.145041 1.372059
vt -0.137139 1.294250
vt -0.291420 1.331218
vt -0.160846 1.176012
vt -0.160846 1.238474
vt -0.291096 1.205105
vt -0.145041 1.253822
vt -0.137139 1.176012
vt -0.291420 1.212981
vt -0.145041 1.135584
vt -0.137139 1.057775
vt -0.292289 1.091848
vt -0.145041 1.017347
vt -0.137139 0.939537
vt -0.292289 0.973610
vt -0.145041 0.899109
vt -0.137138 0.821299
vt -0.292289 0.855373
s 1
usemtl GT_MC_Tiling_X_Dark_Concrete
f 27/1/1 28/2/2 33/3/3
f 19/4/4 137/5/5 16/6/6
f 138/13/12 19/4/4 22/14/13
f 43/18/15 38/19/16 44/20/17
f 144/27/21 58/28/22 57/29/23
f 53/33/26 52/34/27 141/35/28
f 53/39/26 45/40/30 142/41/31
f 32/42/32 27/1/1 33/3/3
f 43/18/15 44/20/17 46/46/35
f 36/50/37 145/51/38 33/3/3
f 35/55/40 36/56/37 39/57/41
f 63/61/43 58/28/22 144/27/21
f 39/57/41 38/19/16 35/55/40
f 23/65/46 22/14/13 28/2/2
f 45/40/30 43/18/15 46/46/35
f 45/40/30 46/46/35 142/41/31
f 58/28/22 53/33/26 141/35/28
f 27/1/1 23/65/46 28/2/2
f 38/19/16 39/56/41 44/20/17
f 140/87/58 13/88/59 16/6/6
f 36/50/37 35/55/40 145/51/38
f 165/95/63 166/96/64 80/96/65
f 72/96/66 166/96/66 163/96/66
f 169/97/67 77/98/68 66/99/69
f 5/106/76 156/107/77 157/108/78
f 66/109/79 79/110/80 75/111/81
f 167/97/66 76/97/66 169/97/66
f 163/96/85 160/115/86 73/116/87
f 66/99/69 75/98/88 167/97/89
f 77/117/90 75/118/81 79/119/80
f 70/120/73 87/121/91 82/122/92
f 96/123/93 97/124/64 172/124/94
f 91/124/66 172/124/66 97/124/66
f 85/125/95 94/126/96 175/126/97
f 151/136/104 7/137/105 152/138/106
f 123/139/107 84/140/108 95/141/109
f 174/126/66 94/126/66 93/126/66
f 2/142/110 155/143/111 150/144/112
f 159/146/116 50/147/117 107/148/118
f 171/124/119 91/124/120 92/123/121
f 173/149/122 174/126/64 93/126/123
f 139/150/11 140/87/58 16/6/6
f 144/151/21 54/152/124 64/153/125
f 142/154/31 133/155/126 54/156/127
f 14/157/128 89/158/114 83/140/113
f 99/159/129 147/160/130 7/161/131
f 140/162/58 90/163/115 13/164/59
f 23/165/46 138/13/12 22/14/13
f 124/166/10 69/167/82 139/168/11
f 14/169/18 84/170/132 128/171/133
f 125/172/7 65/173/134 124/174/8
f 5/175/135 12/176/136 9/177/137
f 5/178/135 158/179/138 12/180/136
f 2/181/110 3/182/139 155/183/111
f 146/184/140 144/185/21 1/186/141
f 6/187/142 155/188/111 3/189/139
f 6/190/142 1/191/141 64/192/143
f 153/193/144 152/194/106 7/195/131
f 59/196/145 63/197/43 146/198/140
f 2/199/110 156/200/77 4/201/146
f 64/202/147 126/203/62 7/204/105
f 5/205/76 4/206/148 156/207/77
f 166/214/152 164/215/153 163/216/154
f 169/217/67 168/218/155 167/219/156
f 176/220/157 174/221/157 173/222/157
f 219/254/172 221/255/172 220/256/172
f 222/257/173 224/258/174 223/259/175
f 225/260/176 227/261/177 226/262/178
f 228/263/179 230/264/180 229/265/181
f 231/266/182 233/267/183 232/268/184
f 234/269/185 236/270/185 235/271/185
f 237/272/186 239/273/187 238/274/188
f 240/275/66 242/276/189 241/277/190
f 243/278/191 245/279/192 244/280/193
f 246/281/194 248/282/195 247/283/196
f 249/284/66 251/285/66 250/286/66
f 252/287/197 254/288/198 253/289/198
f 255/290/199 257/291/199 256/292/199
f 367/293/66 368/294/66 366/295/66
f 370/296/66 371/294/66 369/297/66
f 373/298/66 374/294/66 372/299/66
f 109/322/42 30/323/202 112/324/203
f 109/322/42 112/324/203 24/325/25
f 28/2/2 135/326/204 33/3/3
f 16/6/6 136/327/205 19/4/4
f 26/334/207 15/335/208 113/336/209
f 19/4/4 136/326/205 22/14/13
f 108/337/210 50/338/117 116/339/211
f 108/337/210 116/339/211 130/340/50
f 40/341/212 38/19/16 43/18/15
f 98/353/217 61/354/218 101/355/60
f 98/353/217 101/355/60 60/356/57
f 100/357/219 103/358/220 62/359/221
f 62/359/221 103/358/220 126/360/62
f 57/29/23 54/361/124 144/27/21
f 101/355/60 61/354/218 105/371/223
f 61/354/218 55/372/224 105/371/223
f 101/355/60 105/371/223 48/373/53
f 100/357/219 62/359/221 56/374/225
f 56/374/225 62/359/221 129/375/55
f 52/34/27 54/361/124 141/35/28
f 102/376/226 100/357/219 56/374/225
f 47/377/227 45/40/30 53/39/26
f 142/41/31 54/378/124 52/34/27
f 142/41/31 52/34/27 53/39/26
f 119/379/228 111/380/229 118/381/230
f 119/379/228 118/381/230 132/382/33
f 29/383/231 27/1/1 32/42/32
f 104/385/54 49/386/232 115/387/233
f 104/385/54 115/387/233 41/325/48
f 44/20/17 133/388/126 46/46/35
f 110/395/234 30/396/202 109/322/42
f 110/395/234 109/322/42 34/373/39
f 145/51/38 29/397/231 32/42/32
f 33/3/3 134/398/235 36/50/37
f 145/51/38 32/42/32 33/3/3
f 36/56/37 134/398/235 39/57/41
f 59/405/145 58/28/22 63/61/43
f 144/27/21 64/406/143 143/407/236
f 71/408/237 106/409/238 42/410/49
f 42/410/49 106/409/238 34/411/39
f 117/412/239 107/413/118 108/337/210
f 117/412/239 108/337/210 131/414/44
f 37/415/240 35/55/40 38/19/16
f 15/417/208 79/418/80 114/419/241
f 114/419/241 79/418/80 125/420/242
f 112/324/203 26/334/207 25/430/29
f 112/324/203 25/430/29 24/373/25
f 22/14/13 135/326/204 28/2/2
f 15/335/208 18/431/14 113/336/209
f 113/336/209 18/431/14 17/432/9
f 122/433/206 21/413/215 121/434/214
f 122/433/206 121/434/214 127/435/19
f 116/339/211 50/338/117 51/446/244
f 116/339/211 51/446/244 130/447/50
f 40/448/212 43/18/15 45/40/30
f 105/371/223 55/372/224 104/385/54
f 55/372/224 49/386/232 104/385/54
f 105/371/223 104/385/54 48/450/53
f 51/451/244 50/338/117 102/376/226
f 102/376/226 56/374/225 51/451/244
f 51/451/244 56/374/225 129/375/55
f 46/46/35 133/388/126 142/41/31
f 47/458/227 53/33/26 58/28/22
f 141/35/28 54/378/124 57/29/23
f 141/35/28 57/29/23 58/28/22
f 112/324/203 30/323/202 26/334/207
f 120/459/222 31/380/216 119/379/228
f 120/459/222 119/379/228 132/382/33
f 20/460/213 23/65/46 27/1/1
f 115/387/233 71/408/237 42/461/49
f 115/387/233 42/461/49 41/373/48
f 39/56/41 133/398/126 44/20/17
f 13/88/59 14/326/128 16/6/6
f 9/469/137 61/354/218 98/353/217
f 9/469/137 98/353/217 60/470/57
f 100/357/219 99/471/129 103/358/220
f 103/358/220 99/471/129 126/375/62
f 30/417/202 110/395/234 106/409/238
f 106/409/238 110/395/234 34/472/39
f 118/381/230 111/380/229 117/412/239
f 118/381/230 117/412/239 131/414/44
f 29/383/231 145/51/38 35/55/40
f 79/116/245 160/115/86 80/96/65
f 160/115/86 164/473/246 165/95/63
f 80/96/65 160/115/86 165/95/63
f 72/96/66 80/96/66 166/96/66
f 66/99/69 168/474/155 169/97/67
f 169/97/67 76/97/247 77/98/68
f 61/478/218 9/479/137 12/480/250
f 61/478/218 12/480/250 11/481/251
f 61/478/218 11/481/251 149/482/252
f 11/481/251 12/483/250 158/484/138
f 11/481/251 158/484/138 149/482/252
f 71/485/237 160/486/70 26/487/207
f 61/478/218 149/482/252 49/488/232
f 160/486/70 79/119/80 15/489/208
f 160/486/70 15/489/208 26/487/207
f 55/490/224 61/478/218 49/488/232
f 71/485/237 26/487/207 30/491/202
f 115/492/233 49/488/232 71/485/237
f 30/491/202 106/493/238 71/485/237
f 66/109/79 125/496/242 79/110/80
f 167/97/66 74/97/66 76/97/66
f 68/497/84 140/162/58 139/498/11
f 68/497/84 139/498/11 69/499/82
f 71/500/237 49/501/232 149/502/252
f 73/116/87 72/96/64 163/96/85
f 163/96/85 164/473/246 160/115/86
f 168/474/155 66/99/69 167/97/89
f 75/98/88 74/97/64 167/97/89
f 79/119/80 80/503/254 72/504/255
f 79/119/80 72/504/255 73/505/72
f 76/217/120 74/219/120 75/118/81
f 79/119/80 73/505/72 77/117/90
f 73/505/72 78/506/71 77/117/90
f 77/117/90 76/217/120 75/118/81
f 90/507/115 68/508/256 67/509/253
f 68/508/256 65/510/257 67/509/253
f 67/509/253 70/120/73 86/511/258
f 90/507/115 67/509/253 86/511/258
f 70/120/73 78/512/71 161/513/150
f 78/512/71 160/115/70 161/513/150
f 87/121/91 88/514/99 95/515/98
f 87/121/91 95/515/98 81/516/103
f 70/120/73 161/513/150 87/121/91
f 86/511/258 83/517/259 90/507/115
f 82/122/92 86/511/258 70/120/73
f 87/121/91 81/516/103 82/122/92
f 88/518/260 96/123/93 172/124/94
f 170/519/261 88/518/260 172/124/94
f 91/124/66 171/124/66 172/124/66
f 85/125/95 95/520/262 94/126/96
f 84/521/132 83/522/101 85/125/95
f 176/149/263 84/521/132 175/126/97
f 84/521/132 85/125/95 175/126/97
f 99/523/129 100/524/219 147/525/130
f 148/526/264 147/525/130 100/524/219
f 153/527/144 147/528/130 159/146/116
f 147/528/130 148/526/264 159/146/116
f 100/524/219 102/529/226 50/147/117
f 148/526/264 100/524/219 159/146/116
f 88/530/99 107/531/118 31/532/216
f 159/146/116 100/524/219 50/147/117
f 123/533/107 96/534/265 21/535/215
f 96/534/265 88/530/99 21/535/215
f 50/147/117 108/536/210 107/531/118
f 21/535/215 88/530/99 31/532/216
f 31/532/216 107/531/118 111/537/229
f 151/136/104 6/538/267 7/137/105
f 123/139/107 128/539/268 84/140/108
f 174/126/66 175/126/66 94/126/66
f 176/220/263 173/222/269 84/540/132
f 89/541/114 13/164/59 90/163/115
f 92/123/121 88/518/260 171/124/119
f 88/518/260 170/519/261 171/124/119
f 84/521/270 173/149/122 93/126/123
f 95/520/271 84/521/270 93/126/123
f 91/542/272 97/543/272 96/534/265
f 95/544/262 93/545/273 94/546/96
f 96/534/265 123/533/107 95/544/98
f 92/547/100 91/542/272 96/534/265
f 92/547/100 96/534/265 95/544/98
f 15/417/208 114/419/241 18/431/14
f 18/431/14 114/419/241 125/420/242
f 123/548/107 21/413/215 122/433/206
f 123/548/107 122/433/206 128/435/268
f 14/157/128 13/549/59 89/158/114
f 60/550/57 5/551/135 9/552/137
f 7/161/131 126/553/62 99/159/129
f 140/162/58 68/497/256 90/163/115
f 26/334/207 113/336/209 25/554/29
f 25/554/29 113/336/209 17/555/9
f 121/434/214 31/380/216 120/459/222
f 121/434/214 120/459/222 127/435/19
f 20/556/213 138/13/12 23/165/46
f 124/166/10 65/557/83 69/167/82
f 144/185/21 143/558/236 1/186/141
f 64/559/147 54/560/61 126/561/62
f 54/562/61 133/563/51 129/564/55
f 14/169/18 83/565/101 84/170/132
f 125/172/7 66/566/248 65/173/134
f 5/178/135 157/567/78 158/179/138
f 146/184/140 63/568/43 144/185/21
f 6/569/142 151/570/104 155/571/111
f 64/572/143 1/573/141 143/574/236
f 147/575/130 153/576/144 7/577/131
f 2/578/110 150/579/112 156/580/77
f 6/581/267 64/582/147 7/583/105
f 59/584/56 5/585/76 60/586/57
f 166/214/152 165/604/274 164/215/153
f 170/605/261 172/543/275 171/542/119
f 176/220/157 175/606/157 174/221/157
f 221/255/172 219/254/172 220/256/172
f 224/258/174 222/257/173 223/259/175
f 227/261/177 225/260/176 226/262/178
f 230/264/180 228/263/179 229/265/181
f 233/267/183 231/266/182 232/268/184
f 236/270/185 234/269/185 235/271/185
f 239/273/187 237/272/186 238/274/188
f 242/276/189 240/275/66 241/277/190
f 245/279/192 243/278/191 244/280/193
f 248/282/195 246/281/194 247/283/196
f 251/285/66 249/284/66 250/286/66
f 254/288/198 252/287/197 253/289/198
f 257/291/199 255/290/199 256/292/199
f 259/633/66 260/634/66 258/635/66
f 259/636/66 258/637/66 260/638/66
f 262/639/66 263/640/66 261/641/66
f 262/642/66 261/643/66 263/644/66
f 265/645/278 264/646/279 266/647/280
f 266/648/280 264/649/279 265/650/278
f 268/651/64 267/652/64 269/653/64
f 269/654/64 267/655/64 268/656/64
f 271/657/64 270/658/66 272/659/64
f 272/660/64 270/661/66 271/662/64
f 274/663/281 273/664/282 275/665/283
f 275/666/283 273/667/282 274/668/281
f 277/669/64 276/670/64 278/671/64
f 278/672/64 276/673/64 277/674/64
f 280/675/66 281/676/66 279/677/66
f 280/678/66 279/679/66 281/680/66
f 283/681/284 282/682/285 284/683/284
f 284/684/284 282/685/285 283/686/284
f 286/687/66 285/688/66 287/689/66
f 287/690/66 285/691/66 286/692/66
f 289/693/286 288/694/287 290/695/288
f 290/696/288 288/697/287 289/698/286
f 292/699/289 291/700/290 293/695/291
f 293/701/291 291/702/290 292/703/289
f 295/693/292 294/704/293 296/695/294
f 296/705/294 294/706/293 295/707/292
f 297/254/66 298/708/66 299/709/66
f 298/708/66 297/254/66 299/709/66
f 300/257/295 301/258/296 302/710/295
f 301/258/296 300/257/295 302/710/295
f 303/260/297 304/711/180 305/712/298
f 304/711/180 303/260/297 305/712/298
f 306/263/299 307/713/300 308/714/301
f 307/713/300 306/263/299 308/714/301
f 309/266/302 310/715/303 311/716/304
f 310/715/303 309/266/302 311/716/304
f 312/717/305 313/270/306 314/271/307
f 313/270/306 312/717/305 314/271/307
f 315/272/308 316/718/309 317/719/310
f 316/718/309 315/272/308 317/719/310
f 318/275/311 319/720/312 320/721/313
f 319/720/312 318/275/311 320/721/313
f 321/278/314 322/722/315 323/280/316
f 322/722/315 321/278/314 323/280/316
f 324/281/317 325/723/318 326/724/319
f 325/723/318 324/281/317 326/724/319
f 327/284/66 328/725/66 329/726/66
f 328/725/66 327/284/66 329/726/66
f 330/287/320 331/727/321 332/728/322
f 331/727/321 330/287/320 332/728/322
f 333/729/323 334/730/324 335/292/325
f 334/730/324 333/729/323 335/292/325
f 336/731/66 338/732/66 337/733/66
f 336/734/66 337/735/66 338/736/66
f 339/737/66 341/738/66 340/739/66
f 339/740/66 340/741/66 341/742/66
f 342/743/326 343/744/326 344/745/326
f 343/746/326 342/747/326 344/748/326
f 345/749/327 346/750/328 347/751/329
f 346/752/328 345/753/327 347/754/329
f 348/755/330 349/756/331 350/757/332
f 349/758/331 348/759/330 350/760/332
f 351/761/333 352/762/66 353/763/334
f 352/764/66 351/765/333 353/766/334
f 354/767/335 355/768/336 356/769/337
f 355/770/336 354/771/335 356/772/337
f 357/773/338 358/774/339 359/775/282
f 358/776/339 357/777/338 359/778/282
f 360/779/326 361/780/326 362/781/326
f 361/782/326 360/783/326 362/784/326
f 363/785/326 364/786/326 365/787/326
f 364/788/326 363/789/326 365/790/326
f 367/791/66 366/792/66 368/793/66
f 370/794/66 369/795/66 371/796/66
f 373/797/66 372/798/66 374/799/66
usemtl GT_MC_Glass_Facade_2
f 125/7/7 124/8/8 17/9/9
f 137/10/5 124/11/10 139/12/11
f 125/15/7 17/16/9 18/17/14
f 14/21/18 127/22/19 136/23/20
f 138/24/12 124/25/10 137/26/5
f 17/30/9 20/31/24 24/32/25
f 17/36/9 24/37/25 25/38/29
f 136/43/20 132/44/33 135/45/34
f 24/47/25 20/48/24 29/49/36
f 24/52/25 29/53/36 34/54/39
f 24/58/25 34/59/39 109/60/42
f 135/62/34 131/63/44 134/64/45
f 34/66/39 40/67/47 41/68/48
f 34/69/39 41/70/48 42/71/49
f 134/72/45 130/73/50 133/74/51
f 41/75/48 47/76/52 48/77/53
f 41/78/48 48/79/53 104/80/54
f 133/81/51 130/82/50 129/83/55
f 48/84/53 59/85/56 60/86/57
f 48/89/53 60/90/57 101/91/60
f 54/92/61 129/93/55 126/94/62
f 161/211/150 162/212/151 87/213/91
f 128/328/133 122/329/206 127/330/19
f 14/331/128 136/332/205 16/333/6
f 14/21/18 128/342/133 127/22/19
f 137/343/5 139/344/11 16/345/6
f 17/346/9 124/347/8 20/348/24
f 138/24/12 20/349/213 124/25/10
f 121/350/214 21/351/215 31/352/216
f 138/362/12 137/363/5 19/364/4
f 127/365/19 120/366/222 132/367/33
f 136/368/205 135/369/204 22/370/13
f 136/43/20 127/384/19 132/44/33
f 27/389/1 29/390/231 20/391/213
f 119/392/228 31/393/216 111/394/229
f 132/399/33 118/400/230 131/401/44
f 135/402/204 134/403/235 33/404/3
f 135/62/34 132/416/33 131/63/44
f 34/421/39 29/422/36 37/423/243
f 35/424/40 37/425/240 29/426/231
f 117/427/239 111/428/229 107/429/118
f 131/436/44 108/437/210 130/438/50
f 34/66/39 37/439/243 40/67/47
f 134/440/235 133/441/126 39/442/41
f 38/443/16 40/444/212 37/445/240
f 134/72/45 131/449/44 130/73/50
f 130/452/50 51/453/244 129/79/55
f 41/75/48 40/454/47 47/76/52
f 45/455/30 47/456/227 40/457/212
f 129/462/55 62/463/221 126/464/62
f 48/84/53 47/465/52 59/85/56
f 58/466/22 59/467/145 47/468/227
f 71/596/237 149/597/252 154/598/149
f 154/598/149 161/599/150 71/596/237
f 71/596/237 161/599/150 160/600/70
f 87/599/91 162/598/151 107/601/118
f 162/598/151 159/597/116 107/601/118
f 87/599/91 107/601/118 88/602/99
f 161/211/150 154/603/149 162/212/151
usemtl GT_MC_Tiling_Grey_Horizontal_Tile
f 160/100/70 78/101/71 73/102/72
f 70/103/73 66/104/74 77/105/75
f 69/112/82 65/113/83 68/114/84
f 95/127/98 88/128/99 92/129/100
f 85/130/95 83/131/101 86/132/102
f 82/133/92 81/134/103 95/135/98
f 83/145/113 89/112/114 90/114/115
f 152/208/106 154/209/149 157/210/78
f 194/223/158 193/224/159 192/225/160
f 188/226/161 193/224/159 194/223/158
f 190/227/162 195/228/163 191/229/164
f 187/230/165 192/231/160 193/232/159
f 197/233/166 196/234/167 189/235/168
f 199/239/66 200/240/66 198/241/66
f 207/242/66 209/243/66 208/244/66
f 212/245/169 211/246/169 210/247/169
f 214/248/66 215/249/66 213/250/66
f 217/251/170 216/252/171 218/253/170
f 377/300/66 376/301/66 375/302/66
f 375/302/66 376/301/66 377/300/66
f 5/316/76 59/317/56 4/318/148
f 146/319/140 4/320/146 59/321/145
f 66/475/248 67/476/249 65/477/134
f 77/105/75 78/494/71 70/103/73
f 67/495/253 66/104/74 70/103/73
f 85/104/266 86/495/258 82/133/92
f 85/104/266 82/133/92 95/135/98
f 156/587/77 150/588/112 157/210/78
f 150/588/112 155/589/111 157/210/78
f 155/589/111 151/590/104 152/208/106
f 152/208/106 153/591/144 162/592/151
f 153/591/144 159/593/116 162/592/151
f 154/209/149 149/594/252 158/595/138
f 152/208/106 162/592/151 154/209/149
f 154/209/149 158/595/138 157/210/78
f 155/589/111 152/208/106 157/210/78
f 187/607/165 196/608/167 190/609/162
f 189/610/168 196/611/167 187/612/165
f 187/612/165 188/226/161 189/610/168
f 197/608/166 192/613/276 195/614/163
f 192/613/276 191/615/164 195/614/163
f 192/225/160 197/616/166 194/223/158
f 194/223/158 189/617/168 188/226/161
f 193/232/159 188/618/161 187/230/165
f 187/230/165 190/619/162 191/620/277
f 187/230/165 191/620/277 192/231/160
f 189/235/168 194/621/158 197/233/166
f 199/246/66 198/245/66 200/623/66
f 203/624/66 202/625/64 201/626/64
f 201/627/64 202/628/64 203/629/66
f 205/630/66 206/631/66 204/632/66
f 205/630/66 204/632/66 206/631/66
f 207/242/66 208/244/66 209/243/66
f 211/246/169 212/245/169 210/247/169
f 214/248/66 213/250/66 215/249/66
f 216/252/171 217/251/170 218/253/170
s 0
usemtl GT_MC_Tiling_Dirty_Metal
f 381/303/200 382/304/200 380/305/200
f 381/303/201 380/305/201 382/304/201
s 1
usemtl GT_MC_Facade_1B
f 2/306/110 4/307/146 146/308/140
f 1/309/141 6/310/142 3/311/139
f 146/312/140 1/313/141 3/314/139
f 3/314/139 2/315/110 146/312/140
usemtl GT_MC_Glass_Facade_5
f 196/236/167 195/237/163 190/238/162
f 196/236/167 197/622/166 195/237/163
l 10 8
l 186 184
l 177 178
l 180 181
l 179 180
l 182 183
l 185 184
l 378 379
