# Blender 5.1.0
# www.blender.org
mtllib building21.mtl
o GT_MC_Large_Building.021
v -6.753435 20.149216 5.503562
v 3.105586 87.559395 -17.235065
v -6.351150 86.145966 -17.142872
v 3.449802 20.100416 5.571612
v 3.548268 20.220943 -17.634485
v 3.202384 86.749092 5.145858
v 0.162895 0.092245 5.801682
v -6.332126 87.679733 5.337035
v -1.647528 105.034447 10.898595
v -10.683450 10.754144 6.425351
v 6.098179 10.762412 3.871409
v 0.212904 10.776042 18.635221
v -3.767334 0.003196 0.468665
v -9.613769 0.039537 16.246586
v 8.466141 0.058422 9.736670
v -4.224573 111.079887 17.431934
v -1.657422 107.249435 1.338380
v -0.202645 104.421265 17.769476
v -9.867200 110.901619 6.596534
v 7.120667 104.649384 7.488819
v 6.053919 15.787273 6.584605
v -6.092068 15.796646 16.463291
v -0.391130 15.299283 17.744431
v 6.587379 14.499881 9.450520
v -4.971751 15.770998 2.043789
v 4.126516 14.247389 15.443076
v -0.877872 14.593673 1.434614
v -9.871405 13.141561 8.737103
v -9.438718 14.714464 12.280544
v -6.271297 13.149673 2.590746
v 5.966403 14.460265 12.686028
v -8.982665 15.797566 5.771879
v 2.886744 14.782181 2.665476
v 5.157609 13.151054 4.883208
v -4.817828 13.137697 17.302382
v -9.823882 19.118134 8.446954
v -6.092068 20.717363 16.463291
v -0.391130 20.219999 17.744431
v -9.438718 19.635183 12.280544
v 4.393374 20.545166 15.211683
v 6.651851 18.121651 10.246272
v 5.043541 20.595192 4.770805
v -7.829737 19.402056 4.271020
v 0.723200 19.843172 1.604999
v -4.817828 18.058357 17.302382
v -4.786177 19.429604 1.958955
v 6.053919 25.628700 6.584605
v -6.092068 25.638065 16.463291
v -0.391126 25.140690 17.744431
v 6.587380 24.341320 9.450520
v -4.971751 25.612415 2.043789
v 4.126505 24.088854 15.443084
v -0.877872 24.435114 1.434614
v -9.871405 22.983004 8.737103
v -9.438718 24.555906 12.280544
v -6.271297 22.991089 2.590746
v 5.966402 24.301670 12.686020
v -8.982665 25.639011 5.771879
v 2.886753 24.623634 2.665481
v 5.157609 22.992506 4.883208
v -4.817828 22.979080 17.302382
v -6.092068 30.558804 16.463291
v -0.392337 30.017620 17.744036
v -4.971751 30.533155 2.043789
v 6.419752 29.823158 11.119824
v -0.877872 29.355831 1.434614
v -9.871405 27.903719 8.737103
v -9.438718 29.476624 12.280544
v -6.271297 27.911833 2.590746
v 4.735535 30.540751 14.993891
v 6.314624 29.095526 7.275820
v -8.982665 30.559723 5.771879
v 2.886744 29.544340 2.665476
v 5.157609 27.913214 4.883208
v -4.817828 27.899857 17.302382
v 6.053919 35.470150 6.584605
v -6.095754 35.475666 16.461296
v -0.392119 34.982510 17.744614
v 6.587379 34.182758 9.450521
v -4.971751 35.453876 2.043789
v 4.126516 33.930267 15.443076
v -4.822139 32.824188 17.300753
v -0.877872 34.276550 1.434614
v -9.871446 32.826042 8.736925
v -9.442839 34.401070 12.268305
v -6.271297 32.832554 2.590746
v 5.966403 34.143143 12.686028
v -8.982665 35.480442 5.771879
v 2.886744 34.465057 2.665476
v 5.157609 32.833935 4.883208
v -9.823882 38.801022 8.446954
v -6.092068 40.400249 16.463291
v -0.391130 39.902885 17.744431
v -9.438718 39.318069 12.280544
v 4.393362 40.228054 15.211692
v 6.651850 37.804592 10.246272
v 5.043546 40.278080 4.770817
v -7.829739 39.084942 4.271023
v 0.723193 39.526073 1.604998
v -4.817828 37.741184 17.302382
v -4.786174 39.112484 1.958956
v -6.092068 45.320969 16.463291
v -0.392337 44.779785 17.744036
v -4.971751 45.295322 2.043789
v 6.419752 44.585323 11.119824
v -0.877872 44.117996 1.434614
v -9.871405 42.665882 8.737103
v -9.438718 44.238789 12.280544
v -6.271297 42.673996 2.590746
v 4.735535 45.302914 14.993891
v 6.314624 43.857689 7.275820
v -8.982665 45.321888 5.771879
v 2.886744 44.306503 2.665476
v 5.157609 42.675377 4.883208
v -4.817828 42.662022 17.302382
v 6.053919 50.232311 6.584605
v -6.092068 50.241684 16.463291
v -0.391130 49.744324 17.744431
v 6.587379 48.944927 9.450521
v -4.971751 50.216034 2.043789
v 4.126493 48.692482 15.443092
v -0.877872 49.038719 1.434614
v -9.871405 47.586617 8.737103
v -9.438718 49.159512 12.280544
v -6.271297 47.594673 2.590746
v 5.966401 48.905235 12.686013
v -8.982665 50.242603 5.771879
v 2.886738 49.227211 2.665476
v 5.157609 47.596127 4.883208
v -4.817828 47.582634 17.302382
v 6.053919 55.153042 6.584605
v -6.092068 55.162415 16.463291
v -0.391130 54.665051 17.744431
v 6.587379 53.865650 9.450521
v -4.971751 55.136768 2.043789
v 4.126493 53.613205 15.443092
v -0.877872 53.959442 1.434614
v -9.871405 52.507332 8.737103
v -9.438718 54.080235 12.280544
v -6.271297 52.515388 2.590746
v 5.966401 53.825958 12.686013
v -8.982665 55.163334 5.771879
v 2.886738 54.147934 2.665476
v 5.157609 52.516842 4.883208
v -4.817828 52.503349 17.302382
v -6.092068 60.083130 16.463291
v -0.392337 59.541946 17.744036
v -4.971751 60.057484 2.043789
v 6.419755 59.347530 11.119753
v -0.877872 58.880157 1.434614
v -9.871405 57.428047 8.737103
v -9.438718 59.000950 12.280544
v -6.271297 57.436104 2.590746
v 4.735505 60.065071 14.993905
v 6.314624 58.619854 7.275820
v -8.982665 60.084049 5.771879
v 2.886738 59.068649 2.665476
v 5.157609 57.437557 4.883208
v -4.817828 57.424065 17.302382
v -9.823714 63.407032 8.446184
v -6.095754 64.999992 16.461296
v -0.392119 64.506836 17.744614
v -4.822139 62.348515 17.300753
v -9.442839 63.925396 12.268305
v 4.393386 64.831650 15.211675
v 6.651851 62.408085 10.246273
v 5.043537 64.881676 4.770793
v -7.829736 63.688541 4.271017
v 0.723208 64.129646 1.605000
v -4.786180 63.716095 1.958954
v -5.133938 68.457344 17.119383
v -0.393308 69.383980 17.744213
v -4.971751 69.898926 2.043789
v 6.419752 69.188927 11.119824
v -0.877872 68.721603 1.434614
v -9.871446 67.271088 8.736925
v -9.442839 68.846115 12.268305
v -6.271297 67.277603 2.590746
v 4.735535 69.906517 14.993891
v 6.314624 68.461296 7.275820
v -8.982665 69.925491 5.771879
v 2.886744 68.910110 2.665476
v 5.157609 67.278984 4.883208
v -5.133938 73.378067 17.119383
v -0.393308 74.304703 17.744213
v -4.971751 74.819649 2.043789
v 6.419752 74.109650 11.119824
v -0.877872 73.642326 1.434614
v -9.871446 72.191811 8.736925
v -9.442839 73.766838 12.268305
v -6.271297 72.198326 2.590746
v 4.735535 74.827240 14.993891
v 6.314624 73.382019 7.275820
v -8.982665 74.846214 5.771879
v 2.886744 73.830833 2.665476
v 5.157609 72.199707 4.883208
v -9.823714 78.169205 8.446184
v -6.095754 79.762169 16.461296
v -0.392119 79.269012 17.744614
v -4.822139 77.110680 17.300753
v -9.442839 78.687569 12.268305
v 4.393386 79.593826 15.211675
v 6.651851 77.170242 10.246273
v 5.043537 79.643852 4.770792
v -7.829736 78.450714 4.271017
v 0.723208 78.891815 1.605000
v -4.786180 78.478264 1.958954
v -9.823714 83.089928 8.446184
v -5.133938 83.219513 17.119383
v -0.392119 84.189728 17.744614
v -9.442839 83.608284 12.268305
v 4.393386 84.514542 15.211675
v 6.651851 82.090981 10.246273
v 5.043537 84.564568 4.770793
v -7.829736 83.371437 4.271017
v 0.723208 83.812538 1.605000
v -4.786180 83.398987 1.958954
v -9.823714 88.010643 8.446184
v -6.095754 89.603600 16.461296
v -0.392119 89.110443 17.744614
v -4.822140 86.952011 17.300753
v -9.442839 88.529007 12.268305
v 4.393337 89.435265 15.211710
v 6.651850 87.011909 10.246271
v 5.043556 89.485283 4.770841
v -7.829742 88.292152 4.271029
v 0.723179 88.733315 1.604997
v -4.786168 88.319679 1.958957
v -6.092068 94.528183 16.463291
v -0.392337 93.987000 17.744036
v -4.971751 94.502533 2.043789
v 6.419758 93.792633 11.119680
v -0.877872 93.325211 1.434614
v -9.871405 91.873100 8.737103
v -9.438718 93.445999 12.280544
v -6.271297 91.881096 2.590746
v 4.735475 94.510117 14.993920
v 6.314624 93.064903 7.275820
v -8.982665 94.529099 5.771879
v 2.886732 93.513687 2.665476
v 5.157609 91.882622 4.883208
v -4.817829 91.868996 17.302382
v -9.823714 97.852081 8.446184
v -5.133938 97.981667 17.119383
v -0.392119 98.951881 17.744614
v -9.442839 98.370438 12.268305
v 4.393386 99.276695 15.211675
v 6.651851 96.853134 10.246273
v 5.043537 99.326721 4.770793
v -7.829736 98.133591 4.271017
v 0.723208 98.574692 1.605000
v -4.786180 98.161140 1.958954
v -9.823714 102.772797 8.446184
v -5.133938 102.902382 17.119383
v -0.392119 103.872597 17.744614
v -9.442839 103.291153 12.268305
v 4.393386 104.197411 15.211675
v 6.651851 101.773849 10.246273
v 5.043537 104.247437 4.770793
v -7.829736 103.054306 4.271017
v 0.723208 103.495407 1.605000
v -4.786180 103.081856 1.958954
v 2.426689 20.141800 4.473935
v 3.282609 84.346237 4.398491
v 4.138530 20.141800 4.323047
v -5.650198 20.141800 4.473935
v -7.362039 20.141800 4.323047
v -6.506118 84.346237 4.398491
v 1.586093 2.759059 -6.039621
v 1.444747 0.070702 -5.985379
v 1.740671 2.501576 -10.276630
v 1.574147 0.046770 -10.216815
v 1.733582 2.485615 -1.736713
v 1.574199 0.048160 -1.789447
v -6.807244 20.216314 -17.622896
v 3.695638 88.608795 1.924446
v 3.378401 29.536264 3.111600
v 3.061164 88.608795 4.298753
v -6.601820 29.536276 3.111600
v -6.919027 88.608795 1.924447
v -6.284613 88.608795 4.298753
v -1.610459 110.868500 10.812940
v -1.610455 110.868507 16.606251
v -1.610458 110.868507 8.303995
v -1.610452 110.868507 2.510683
v -7.917928 111.041702 13.979288
v -7.905605 111.020912 13.957946
v -7.926570 111.041405 13.921779
v -7.854742 111.023285 13.942327
v -7.906674 111.005165 13.996037
v 2.890105 57.648037 4.777439
vn -0.6103 0.5390 -0.5806
vn 0.6010 0.5642 0.5661
vn 0.5290 0.6359 -0.5619
vn -0.0053 0.0089 0.9999
vn 0.7202 -0.0511 0.6919
vn 0.9916 -0.1238 -0.0366
vn -0.0020 0.0072 -1.0000
vn -0.7248 -0.0538 -0.6869
vn -0.5396 0.6293 0.5593
vn -0.7245 -0.0538 -0.6871
vn -0.9912 -0.1255 0.0412
vn -0.0452 0.7442 0.6665
vn -0.9344 0.0861 -0.3456
vn 0.2007 0.0189 0.9795
vn 0.1683 0.1400 -0.9757
vn 0.5214 0.3112 0.7946
vn -0.2039 -0.5423 -0.8151
vn -0.6188 -0.5312 0.5787
vn 0.8521 0.5123 -0.1070
vn 0.7736 0.1064 -0.6246
vn 0.8254 -0.5543 0.1069
vn 0.6875 -0.6060 -0.4002
vn -0.7352 -0.3804 -0.5611
vn -0.9645 0.1727 -0.1997
vn -0.9537 0.3003 -0.0169
vn -0.4153 0.0868 0.9055
vn -0.5951 -0.0317 0.8031
vn -0.7508 -0.1574 0.6415
vn -0.1786 -0.1154 -0.9771
vn -0.6936 0.1994 -0.6922
vn -0.4613 -0.0466 -0.8860
vn 0.7575 0.5224 -0.3914
vn -0.4153 0.0867 0.9055
vn -0.9537 0.3003 -0.0168
vn -0.4136 0.0878 0.9062
vn -0.5955 -0.0321 0.8027
vn 0.7706 0.3386 -0.5400
vn -0.7349 -0.3807 -0.5612
vn -0.9645 0.1720 -0.2005
vn -0.9539 0.2995 -0.0178
vn -0.4156 0.0870 0.9054
vn -0.5960 -0.0323 0.8023
vn -0.7515 -0.1582 0.6405
vn -0.6935 0.1994 -0.6923
vn -0.7350 -0.3807 -0.5611
vn -0.0000 -0.0000 -0.0000
vn 0.3161 0.9483 -0.0279
vn -0.0000 -1.0000 -0.0000
vn -0.0054 0.9998 0.0201
vn 0.2582 -0.0000 -0.9661
vn 0.0054 0.9998 -0.0201
vn 0.2617 0.9650 0.0191
vn 0.0112 0.9997 -0.0201
vn 0.1329 0.0001 -0.9911
vn -0.1103 -0.9045 -0.4119
vn 0.1103 0.9045 0.4119
vn 0.1148 -0.8118 0.5725
vn -0.6813 0.6864 -0.2542
vn -0.1972 0.2079 0.9581
vn 0.7812 0.6222 0.0516
vn -0.1955 0.2087 0.9582
vn -0.1975 0.2084 0.9579
vn -0.1972 0.2078 0.9581
vn 0.7811 0.6222 0.0516
vt 0.242915 1.131425
vt 0.757085 -0.131425
vt 0.757085 1.131425
vt 0.757085 2.987567
vt 0.242915 -0.936775
vt 0.757085 -0.936775
vt 1.131425 2.987567
vt -0.131425 -0.936775
vt 1.131425 -0.936775
vt 0.242915 2.987567
vt 0.242915 -0.936775
vt -0.131425 2.987567
vt 0.382870 3.562500
vt 0.568722 -2.143359
vt 0.491396 -2.143359
vt 0.970221 3.537961
vt 0.029779 3.767097
vt 0.029779 3.381203
vt 0.541664 3.381203
vt 0.614735 0.808873
vt 0.853553 0.191127
vt 0.454786 0.191127
vt 0.832497 3.381203
vt 0.313591 -2.143359
vt 0.507589 3.535851
vt 0.584751 -2.143359
vt 0.213346 0.808873
vt 0.486564 0.191127
vt 0.634072 0.808873
vt 0.389704 0.191127
vt 0.331732 -1.717926
vt 0.495912 -1.787450
vt 0.250806 -1.783123
vt 0.290403 -1.717926
vt 0.454832 -1.855488
vt 0.663853 -1.765162
vt 0.672509 -1.855488
vt 0.752162 -1.717926
vt 0.457060 -1.780390
vt 0.740098 -1.855488
vt 0.687721 -1.717926
vt 0.209533 -1.717926
vt 0.236462 -1.855488
vt 0.672509 -1.855488
vt 0.663853 -1.765162
vt 0.495912 -1.787450
vt 0.250806 -1.783123
vt 0.672509 -1.855488
vt 0.752162 -1.717926
vt 0.457060 -1.780390
vt 0.209533 -1.717926
vt 0.672509 -1.855488
vt 0.387760 -1.782466
vt 0.250806 -1.783123
vt 0.454829 -1.855488
vt 0.663710 -1.765324
vt 0.672810 -1.855488
vt 0.752176 -1.717926
vt 0.672509 -1.855488
vt 0.663853 -1.765162
vt 0.495912 -1.787450
vt 0.250806 -1.783123
vt 0.663853 -1.765162
vt 0.250806 -1.783124
vt 0.387760 -1.782466
vt 0.250806 -1.783124
vt 0.663709 -1.765324
vt 0.663710 -1.765324
vt 0.457060 -1.780390
vt 0.250806 -1.783123
vt 0.250806 -1.783123
vt 0.752176 -1.717926
vt 0.672810 -1.855488
vt 0.663709 -1.765324
vt 0.740098 -1.855488
vt 0.250807 -1.783124
vt 0.783764 5.390196
vt 0.833388 1.667774
vt 0.734139 1.667774
vt 0.166612 1.667774
vt 0.216236 5.390196
vt 0.265861 1.667774
vt 0.319597 0.500000
vt 0.250769 5.637329
vt 0.388426 5.637329
vt 0.319597 0.500000
vt 0.213742 0.739794
vt 0.207911 0.745983
vt 0.215699 0.748069
vt 0.242915 -0.131425
vt 0.808797 0.930740
vt 0.191203 0.930740
vt 0.602890 0.500000
vt 1.531090 0.930740
vt 0.164815 0.930740
vt 0.164815 0.500000
vt 0.242915 2.987567
vt 0.396273 0.921512
vt 0.883811 0.489972
vt 0.235277 0.283486
vt 0.583055 3.381203
vt 0.198889 -2.143359
vt 0.765094 3.236136
vt 0.584122 0.808873
vt 0.808862 0.191127
vt 0.236630 0.808873
vt 0.209533 3.236136
vt 0.605867 0.038240
vt 0.921944 0.667410
vt 0.527132 0.997348
vt 0.364365 0.059663
vt 0.483103 0.997007
vt 0.107879 0.718103
vt 0.433025 -1.743737
vt 0.203099 -1.855488
vt 0.218247 -1.723102
vt 0.799106 -1.726471
vt 0.538414 -1.855487
vt 0.433025 -1.743737
vt 0.433025 -1.743738
vt 0.431943 -1.745481
vt 0.433038 -1.743719
vt 0.218247 -1.723102
vt 0.799106 -1.726471
vt 0.538414 -1.855487
vt 0.433025 -1.743737
vt 0.431943 -1.745481
vt 0.433025 -1.743737
vt 0.433025 -1.743737
vt 0.431943 -1.745481
vt 0.218247 -1.723102
vt 0.799106 -1.726470
vt 0.538414 -1.855487
vt 0.218247 -1.723102
vt 0.538414 -1.855488
vt 0.433038 -1.743719
vt 0.218247 -1.723103
vt 0.799106 -1.726471
vt 0.538414 -1.855487
vt 0.433038 -1.743719
vt 0.431943 -1.745481
vt 0.218247 -1.723102
s 1
usemtl GT_MC_Glass_Facade
f 6/4/2 1/5/4 4/6/5
f 2/7/3 4/8/5 5/9/6
f 3/10/1 5/6/7 275/11/8
f 8/12/9 275/9/10 1/8/11
f 6/4/2 8/97/9 1/5/4
f 2/7/3 6/12/2 4/8/5
f 3/10/1 2/4/3 5/6/7
f 8/12/9 3/7/1 275/9/10
usemtl GT_MC_Tiling_Concrete_Blocks
f 3/1/1 6/2/2 2/3/3
f 264/77/46 265/78/47 263/79/46
f 267/80/46 268/81/46 266/82/48
f 3/1/1 8/90/9 6/2/2
f 4/91/5 1/92/4 7/93/57
f 5/94/6 4/95/5 7/96/57
f 263/79/46 265/78/47 264/77/46
f 268/81/46 267/80/46 266/82/48
s 0
usemtl GT_MC_Tiling_Dirty_Metal
f 289/87/55 290/88/55 288/89/55
f 289/87/56 288/89/56 290/88/56
s 1
usemtl GT_MC_Glass_Facade_3
f 16/13/12 10/14/13 12/15/14
f 16/13/12 12/15/14 18/19/16
f 13/98/17 15/99/21 14/100/18
f 20/101/19 12/102/14 11/26/20
f 16/13/12 19/103/58 10/14/13
f 19/107/58 17/25/15 10/24/13
usemtl GT_MC_Tiling_Grey_Concrete_Slab
f 17/16/15 16/17/12 18/18/16
f 10/20/13 13/21/17 14/22/18
f 18/19/16 12/15/14 20/23/19
f 10/24/13 17/25/15 11/26/20
f 12/27/14 15/28/21 11/29/20
f 13/30/17 11/29/20 15/28/21
f 21/31/22 24/32/22 33/33/22
f 32/34/23 28/35/24 29/36/25
f 35/37/26 22/38/27 29/36/28
f 27/39/29 30/40/30 25/41/31
f 25/42/31 28/35/24 32/34/23
f 24/32/32 34/43/32 33/33/32
f 45/44/33 37/38/27 39/45/28
f 47/31/22 50/46/22 59/47/22
f 58/34/23 54/35/24 55/36/34
f 61/48/33 48/49/27 55/36/28
f 53/50/29 56/40/30 51/41/31
f 51/51/31 54/35/24 58/34/23
f 50/46/32 60/43/32 59/47/32
f 72/34/23 67/35/24 68/45/25
f 75/52/35 62/38/36 68/45/28
f 66/50/29 69/40/30 64/41/31
f 64/51/31 67/35/24 72/34/23
f 71/53/37 74/43/37 73/54/37
f 76/31/22 79/32/22 89/54/22
f 88/34/38 84/55/39 85/56/40
f 82/57/41 77/58/42 85/56/43
f 83/50/29 86/40/44 80/41/31
f 80/42/31 84/55/39 88/34/38
f 79/32/32 90/43/32 89/54/32
f 100/59/33 92/38/27 94/60/28
f 112/34/23 107/35/24 108/36/25
f 115/37/35 102/38/36 108/36/28
f 106/50/29 109/40/30 104/41/31
f 104/42/31 107/35/24 112/34/23
f 111/53/37 114/43/37 113/54/37
f 116/31/22 119/61/22 128/62/22
f 127/34/23 123/35/24 124/63/25
f 130/59/33 117/38/27 124/63/28
f 122/39/29 125/40/30 120/41/31
f 120/51/31 123/35/24 127/34/23
f 119/61/32 129/43/32 128/62/32
f 131/31/22 134/32/22 143/64/22
f 142/34/23 138/35/24 139/60/25
f 145/59/33 132/38/27 139/60/28
f 137/50/29 140/40/30 135/41/31
f 135/51/31 138/35/24 142/34/23
f 134/32/32 144/43/32 143/64/32
f 156/34/23 151/35/24 152/60/25
f 159/59/35 146/38/36 152/60/28
f 150/50/29 153/40/30 148/41/31
f 148/42/31 151/35/24 156/34/23
f 155/65/37 158/43/37 157/66/37
f 163/57/41 161/58/42 164/67/43
f 181/34/38 176/55/39 177/68/40
f 175/69/29 178/40/44 173/41/31
f 173/42/31 176/55/39 181/34/38
f 180/65/37 183/43/37 182/70/37
f 194/34/45 189/55/39 190/68/40
f 188/69/29 191/40/44 186/41/31
f 186/42/31 189/55/39 194/34/45
f 193/65/37 196/43/37 195/71/37
f 200/57/41 198/72/42 201/67/43
f 221/73/41 219/58/42 222/74/43
f 239/34/23 234/35/24 235/45/34
f 242/48/35 229/38/36 235/45/28
f 233/69/29 236/75/30 231/41/31
f 231/51/31 234/35/24 239/34/23
f 238/65/37 241/43/37 240/76/37
f 277/83/49 278/84/50 276/85/51
f 277/83/49 276/85/51 278/84/50
f 281/84/52 279/86/53 280/85/54
f 280/85/54 279/86/53 281/84/52
f 12/104/14 14/22/18 15/105/21
f 11/26/20 17/25/15 20/101/19
f 10/106/13 11/29/20 13/30/17
f 12/104/14 10/20/13 14/22/18
f 18/108/16 20/109/19 17/110/15
f 16/111/12 17/112/15 19/113/58
f 35/37/26 23/114/59 22/38/27
f 25/42/31 30/115/30 28/35/24
f 42/116/60 40/117/60 41/118/60
f 45/44/33 38/119/59 37/38/27
f 61/48/33 49/120/59 48/49/27
f 51/51/31 56/115/30 54/35/24
f 75/52/35 63/121/61 62/38/36
f 64/51/31 69/115/30 67/35/24
f 82/57/41 78/122/62 77/58/42
f 80/42/31 86/115/44 84/55/39
f 97/123/60 95/124/60 96/125/60
f 100/59/33 93/126/63 92/38/27
f 115/37/35 103/127/61 102/38/36
f 104/42/31 109/115/30 107/35/24
f 130/59/33 118/128/63 117/38/27
f 120/51/31 125/115/30 123/35/24
f 145/59/33 133/129/63 132/38/27
f 135/51/31 140/115/30 138/35/24
f 159/59/35 147/130/61 146/38/36
f 148/42/31 153/115/30 151/35/24
f 167/131/60 165/132/60 166/133/60
f 163/57/41 162/122/62 161/58/42
f 173/42/31 178/115/44 176/55/39
f 186/42/31 191/115/44 189/55/39
f 204/134/60 202/117/60 203/135/60
f 200/57/41 199/136/62 198/72/42
f 214/131/60 212/132/60 213/133/60
f 225/137/64 223/138/64 224/139/64
f 221/73/41 220/140/62 219/58/42
f 242/48/35 230/141/61 229/38/36
f 231/51/31 236/115/30 234/35/24
f 249/142/60 247/132/60 248/133/60
f 259/142/60 257/132/60 258/133/60
l 24 31
l 26 23
l 33 27
l 31 26
l 40 38
l 36 39
l 46 43
l 44 42
l 46 44
l 50 57
l 52 49
l 59 53
l 57 52
l 71 65
l 70 63
l 73 66
l 65 70
l 79 87
l 81 78
l 89 83
l 87 81
l 95 93
l 91 94
l 101 98
l 99 97
l 101 99
l 111 105
l 110 103
l 113 106
l 105 110
l 119 126
l 121 118
l 128 122
l 126 121
l 134 141
l 136 133
l 143 137
l 141 136
l 155 149
l 154 147
l 157 150
l 149 154
l 165 162
l 160 164
l 170 168
l 169 167
l 170 169
l 171 177
l 180 174
l 179 172
l 172 171
l 182 175
l 174 179
l 184 190
l 193 187
l 192 185
l 185 184
l 195 188
l 187 192
l 202 199
l 197 201
l 207 205
l 206 204
l 207 206
l 209 211
l 212 210
l 210 209
l 208 211
l 217 215
l 216 214
l 217 216
l 223 220
l 218 222
l 228 226
l 227 225
l 228 227
l 238 232
l 237 230
l 240 233
l 232 237
l 244 246
l 247 245
l 245 244
l 243 246
l 252 250
l 251 249
l 252 251
l 254 256
l 257 255
l 255 254
l 253 256
l 262 260
l 261 259
l 262 261
l 270 269
l 282 283
l 43 36
l 98 91
l 168 160
l 205 197
l 215 208
l 226 218
l 250 243
l 260 253
l 272 271
l 273 274
l 284 285
l 287 286
