# Blender 5.1.0
# www.blender.org
mtllib building03.mtl
o GT_MC_Large_Building.003
v -30.000000 0.000028 24.540894
v -30.000000 30.000038 24.540894
v -30.000000 30.000038 -15.459122
v -28.995279 30.000038 11.824585
v -29.748819 0.000028 -2.742859
v 30.000000 30.000038 24.540857
v 30.000000 0.000028 24.540854
v 30.000000 30.000038 -15.459167
v 28.995239 30.000038 11.824585
v 28.492859 0.000028 11.824585
v 30.000000 0.000028 11.824585
v 29.497620 30.000038 -2.742859
v -30.000000 0.000028 -15.459107
v -30.000000 0.000028 11.824585
v -28.492920 0.000028 11.824585
v 30.000000 0.000028 -15.459193
v 30.000000 0.000028 -2.742859
v 28.492859 0.000028 -2.742859
v -30.000000 30.000038 24.540894
v -30.000000 60.000046 24.540894
v -30.000000 60.000046 -15.459129
v -28.995279 60.000046 11.824585
v -29.497641 60.000046 -2.742859
v -30.000000 30.000038 -2.742859
v 30.000000 60.000046 24.540857
v 30.000000 30.000038 24.540854
v 30.000000 60.000046 -15.459167
v 28.995239 60.000046 11.824585
v 28.492859 30.000038 11.824585
v 30.000000 30.000038 11.824585
v 29.497620 60.000046 -2.742859
v -30.000000 30.000038 -15.459107
v -30.000000 30.000038 11.824585
v -28.492920 30.000038 -2.742859
v -28.492920 30.000038 11.824585
v 30.000000 30.000038 -15.459183
v 30.000000 30.000038 -2.742859
v 28.492859 30.000038 -2.742859
v -30.000000 60.000046 24.540920
v -30.000000 90.000053 24.540894
v -30.000000 90.000053 -15.459106
v -30.000000 90.000053 11.824585
v -28.492920 90.000053 11.824585
v -29.497641 60.000046 11.824585
v -29.665092 60.000046 -2.742859
v 30.000000 90.000053 24.540857
v 30.000000 60.000046 24.540833
v 30.000000 90.000053 -15.459183
v 28.995239 90.000053 11.824585
v 28.492859 60.000046 11.824585
v 30.000000 60.000046 11.824585
v 29.497620 90.000053 -2.742859
v -28.827827 90.000053 -2.742859
v -30.000000 60.000046 -15.459128
v 30.000000 60.000046 -15.459167
v 30.000000 60.000046 -2.742859
v 28.492859 60.000046 -2.742859
v -30.000000 90.000053 24.540894
v -28.660374 120.000053 11.824585
v -29.832546 120.000053 -2.742859
v -28.660374 90.000053 -2.742859
v -30.000000 120.000053 24.540918
v 30.000000 90.000053 24.540854
v 30.000000 120.000053 24.540833
v 30.000000 120.000053 -15.459183
v 29.665079 120.000053 11.824585
v 28.827780 90.000053 11.824585
v 29.832541 120.000053 -2.742859
v -30.000000 120.000053 -15.459107
v -29.832546 90.000053 11.824585
v -30.000000 90.000053 -15.459135
v 30.000000 90.000053 -15.459167
v 28.660318 90.000053 -2.742859
v -30.000000 120.000053 24.540894
v -30.000000 150.000061 -15.459106
v -28.660374 150.000061 11.824585
v -28.827827 150.000061 -2.742859
v -29.665092 120.000053 -2.742859
v -30.000000 150.000061 24.540918
v 30.000000 120.000053 24.540854
v 30.000000 150.000061 24.540833
v 30.000000 150.000061 -15.459183
v 29.665079 150.000061 11.824585
v 28.827780 120.000053 11.824585
v 30.000000 150.000061 -2.742859
v 28.492859 150.000061 -2.742859
v 28.995239 120.000053 -2.742859
v -29.832546 120.000053 11.824585
v -30.000000 120.000053 -15.459128
v 30.000000 120.000053 -15.459167
v -30.000000 180.000061 -15.459106
v -28.995279 180.000061 11.824585
v -29.497641 180.000061 -2.742859
v -30.000000 150.000061 -2.742859
v -28.492920 150.000061 -2.742859
v -30.000000 180.000061 24.540918
v 30.000000 150.000061 24.540833
v 30.000000 180.000061 24.540833
v 30.000000 180.000061 -15.459183
v 28.995239 180.000061 11.824585
v 28.492859 150.000061 11.824585
v 30.000000 150.000061 11.824585
v 29.497620 180.000061 -2.742859
v -30.000000 150.000061 -15.459107
v -30.000000 150.000061 11.824585
v -28.492920 150.000061 11.824585
v -30.000000 150.000061 24.540913
v 30.000000 150.000061 -15.459188
v 30.000000 150.000061 -2.742859
v 28.492859 150.000061 -2.742859
v -30.000000 180.000061 24.540894
v -30.000000 210.000061 -15.459122
v -28.995279 210.000061 11.824585
v -29.497641 210.000061 -2.742859
v -30.000000 180.000061 -2.742859
v -28.492920 180.000061 -2.742859
v -30.000000 210.000061 24.540918
v 30.000000 180.000061 24.540855
v 30.000000 210.000061 -15.459167
v 28.995239 210.000061 11.824585
v 28.492859 180.000061 11.824585
v 30.000000 180.000061 11.824585
v 28.827780 210.000061 -2.742859
v 29.665079 180.000061 -2.742859
v -30.000000 180.000061 -15.459107
v -30.000000 180.000061 11.824585
v -28.492920 180.000061 11.824585
v 30.000000 180.000061 -15.459188
v 30.000000 210.000061 24.540833
v -30.000000 209.921921 24.540918
v -28.817932 222.766159 -14.277039
v -28.085072 222.766159 12.711182
v -28.995279 209.921921 11.824585
v -30.000000 222.766159 -2.742859
v -30.000000 222.766159 -15.459167
v -30.000000 222.766159 11.824585
v -28.359894 222.766159 -3.629456
v -28.817932 217.438889 -14.277039
v -28.315552 217.438889 13.006714
v -27.813171 217.438889 -3.924988
v -30.000000 222.766159 24.540894
v -28.744101 209.921921 -2.742859
v -28.817932 222.766159 23.358765
v -28.817932 217.438889 23.358765
v -30.000000 209.921921 -15.459167
v 30.000000 209.921921 24.540833
v 29.662249 222.766159 24.409506
v 30.000000 209.921921 -15.459167
v 29.763575 222.766159 -15.121416
v 28.085033 222.766159 12.711183
v 28.492859 209.921921 11.824585
v 28.416845 222.766159 -3.249485
v 28.995239 209.921921 -2.742859
v 30.000000 222.766159 -2.742859
v 30.000000 222.766144 11.824585
v 28.817871 217.438889 -14.277039
v 28.817871 217.438889 23.358765
v 28.315512 217.438889 13.006715
v 27.813110 217.438889 -3.924987
v 30.000000 209.921921 11.824585
v -30.856567 209.336884 25.604919
v -30.856567 209.631866 -16.523193
v -26.388245 209.926834 -1.176880
v -26.388245 208.746902 -1.176880
v -30.856567 209.336884 -1.176880
v -26.388245 209.926834 10.258606
v -26.388245 208.746902 10.258606
v -30.856567 209.336884 10.258606
v 0.000000 208.746902 -16.523193
v 0.000000 209.926834 25.604919
v 30.856506 209.041901 25.604919
v 30.856506 209.336884 -16.523193
v 26.388245 209.926834 -1.176880
v 26.388245 208.746902 -1.176880
v 30.856506 209.336884 -1.176880
v 26.388245 209.926834 10.258606
v 26.388245 208.746902 10.258606
v 30.856506 209.336884 10.258606
v -30.000031 209.460571 24.540863
v -30.059631 0.000028 24.719666
v -29.940430 0.000028 24.362061
v 29.940369 209.460571 24.719666
v 29.999969 0.000028 24.540863
v 30.059570 209.460571 24.362061
v -30.178833 0.000028 -15.399536
v -30.000031 209.460571 -15.459137
v -29.821228 0.000028 -15.518738
v 29.999969 209.460571 -15.459137
v 30.178772 0.000028 -15.399536
v 29.821167 0.000028 -15.518738
v -30.334595 210.163010 24.674732
v -30.669189 210.998215 -16.128296
v -30.166830 210.998215 11.155457
v -29.832232 210.163010 -2.408290
v -29.664469 210.998215 -2.073697
v -29.329874 210.163010 11.490021
v -30.669189 210.998215 25.210022
v 30.669128 210.998215 25.210022
v 30.669128 210.162994 -16.128296
v 29.832193 210.163010 11.490021
v 29.832193 210.998215 -2.408295
v 29.664408 210.163010 -2.073730
v 29.664408 210.998215 11.155457
v -30.000000 210.998215 24.540894
v -30.334595 210.163010 -15.937099
v -30.000000 210.998215 -15.459122
v -29.497641 210.998215 11.824585
v -28.995279 210.998215 -2.742859
v 30.334564 210.163010 25.018826
v 30.000000 210.998215 24.540848
v 30.334564 210.998215 -15.937117
v 30.000000 210.163010 -15.459183
v 28.995239 210.163010 -2.742859
v 28.995239 210.998215 11.824585
v -30.669189 214.450653 25.210022
v -30.669189 215.285889 -16.128296
v -29.832235 215.285889 11.490021
v -29.832232 214.450653 -2.408290
v -29.664469 215.285889 -2.073697
v -29.664469 214.450653 11.155457
v 30.669128 214.450653 25.210022
v 30.669128 215.285889 -16.128296
v 30.334564 215.285889 24.674683
v 30.334564 214.450653 -15.593005
v 30.166769 214.450653 11.155457
v 30.166769 215.285889 -2.073730
v 30.334564 214.450653 -2.408295
v 28.827454 214.450653 -2.408295
v 29.748306 215.285889 11.423108
v -30.334595 215.285889 25.018843
v -30.000000 214.450653 24.540909
v -30.334593 214.450653 -15.937099
v -30.000000 215.285889 -15.459122
v -28.995279 215.285889 -2.742859
v -28.995279 214.450653 11.824585
v 30.000000 214.450653 24.540833
v 30.000000 215.285889 -15.459167
v 29.095715 214.659454 11.824585
v 29.497620 215.285889 -2.742859
v -28.744101 30.000038 -2.742859
v 29.400061 222.806763 -15.111240
vn -0.9980 0.0334 0.0528
vn -0.7302 0.0139 -0.6830
vn -0.9990 0.0031 0.0454
vn 0.9996 -0.0287 -0.0074
vn 0.9997 -0.0216 0.0099
vn 0.9988 -0.0335 0.0344
vn 0.9998 0.0085 -0.0202
vn 0.7274 0.0181 0.6860
vn 0.7071 -0.0000 0.7071
vn 0.7174 0.0089 -0.6966
vn 0.9973 0.0167 0.0713
vn 0.7073 0.0030 0.7069
vn -0.0000 -0.0000 1.0000
vn -0.9989 0.0249 0.0399
vn -0.0000 -0.0000 -1.0000
vn 0.7071 -0.0000 -0.7071
vn -0.9980 0.0249 -0.0587
vn -0.9998 0.0085 -0.0202
vn -1.0000 -0.0000 -0.0000
vn -0.9997 -0.0216 0.0099
vn -0.9996 -0.0287 -0.0074
vn -0.9988 -0.0335 0.0344
vn -0.7209 -0.0000 -0.6930
vn 0.9999 0.0125 0.0101
vn 0.9981 0.0043 0.0613
vn 0.7108 0.0119 0.7033
vn -0.9981 0.0043 0.0613
vn -0.7106 0.0089 -0.7035
vn -0.7108 0.0119 0.7033
vn -0.7106 -0.0089 0.7035
vn -0.9981 -0.0043 -0.0613
vn -0.7209 -0.0000 0.6930
vn -0.9993 0.0299 0.0206
vn -0.9994 0.0295 0.0197
vn -0.9986 0.0175 0.0490
vn -0.7108 -0.0119 -0.7033
vn -0.7221 0.0150 -0.6917
vn -0.9993 -0.0112 0.0354
vn -0.9993 0.0112 -0.0354
vn -0.9980 -0.0244 0.0584
vn 0.9996 -0.0215 -0.0191
vn 0.9981 -0.0350 0.0499
vn 0.9994 -0.0245 0.0241
vn 0.9997 -0.0000 -0.0263
vn 0.9970 -0.0207 -0.0751
vn -0.7351 -0.0214 -0.6776
vn 0.9963 -0.0290 0.0814
vn -0.7351 0.0214 0.6776
vn -0.9980 0.0244 -0.0584
vn -0.7117 -0.0000 0.7024
vn -0.9994 0.0319 0.0107
vn -0.9981 0.0350 -0.0499
vn -0.9989 0.0175 0.0433
vn 0.9985 -0.0119 -0.0534
vn 0.9989 0.0167 0.0434
vn 0.7295 -0.0110 0.6839
vn 0.9979 -0.0175 -0.0616
vn 0.9980 -0.0249 0.0587
vn 0.9998 -0.0085 0.0202
vn 0.9963 -0.0334 0.0787
vn -0.9994 0.0245 -0.0241
vn 0.9980 0.0249 -0.0587
vn 1.0000 -0.0000 -0.0000
vn 0.7106 0.0089 -0.7035
vn -0.7274 0.0181 0.6860
vn -0.7071 -0.0000 0.7071
vn -0.9999 0.0125 0.0101
vn 0.7295 0.0110 -0.6839
vn 0.9982 0.0279 0.0532
vn 0.9990 0.0016 0.0450
vn 0.7221 0.0150 -0.6917
vn 0.0686 0.8207 0.5672
vn -0.5918 0.5696 0.5704
vn -0.7338 0.0010 0.6794
vn 0.9966 -0.0015 0.0825
vn 0.6581 0.7521 -0.0352
vn 0.9776 0.1968 -0.0743
vn -0.0000 1.0000 -0.0000
vn -0.4429 0.5483 0.7094
vn 0.2782 0.8110 0.5146
vn 0.2509 0.8022 -0.5419
vn 0.3002 0.9106 -0.2840
vn 0.7164 0.6964 -0.0422
vn 0.9991 -0.0000 -0.0430
vn 0.7163 0.6970 0.0336
vn -0.9988 0.0484 0.0024
vn -0.7222 -0.0331 -0.6909
vn -0.9780 -0.0956 0.1852
vn -0.9895 -0.0367 -0.1395
vn -0.4765 0.5416 -0.6925
vn 0.5925 0.5748 -0.5644
vn -0.5578 0.6562 0.5082
vn 0.9990 0.0372 0.0267
vn 0.9983 0.0463 0.0344
vn -0.9587 0.2718 -0.0837
vn -0.6528 0.7566 -0.0370
vn -0.7137 0.6068 -0.3499
vn 0.5018 0.5552 0.6633
vn 0.9947 0.1011 -0.0190
vn -0.1961 0.7656 0.6127
vn -0.7214 0.2315 0.6527
vn -0.7075 0.7048 0.0510
vn -0.9761 0.2041 0.0742
vn 0.0008 0.0091 1.0000
vn 0.9990 -0.0307 0.0310
vn 0.9842 -0.0770 0.1596
vn -0.3128 0.6017 -0.7350
vn -0.0428 0.0050 -0.9991
vn 0.9998 0.0133 0.0132
vn 0.9998 0.0131 0.0135
vn 0.9997 0.0263 -0.0000
vn 0.0167 0.1808 -0.9834
vn 0.0008 0.0354 -0.9994
vn -0.5758 0.5771 -0.5791
vn -0.0000 0.0263 -0.9997
vn 0.0007 0.7087 0.7055
vn -0.6798 -0.0034 0.7334
vn 0.6877 -0.0231 0.7257
vn -0.0194 0.9586 0.2840
vn -0.0412 0.9991 0.0093
vn -0.0350 -0.9591 -0.2810
vn -0.8429 -0.0000 -0.5381
vn -0.8429 -0.0102 0.5380
vn -0.0007 -0.7087 -0.7055
vn -0.0438 -0.9989 -0.0191
vn 0.0438 0.9989 0.0191
vn 0.0350 0.9591 0.2810
vn 0.8429 0.0102 -0.5380
vn 0.0194 -0.9586 -0.2840
vn 0.8429 -0.0000 0.5381
vn 0.0412 -0.9991 -0.0093
vn -0.0003 1.0000 0.0009
vn -0.0003 -1.0000 0.0009
vn 0.3162 -0.0000 -0.9487
vn -0.0009 -1.0000 0.0003
vn 0.9487 -0.0000 -0.3162
vn 0.0009 -1.0000 -0.0003
vn -0.0009 1.0000 -0.0003
vn 0.0009 1.0000 0.0003
vn 0.9487 -0.0000 0.3162
vn 0.6313 -0.7752 0.0216
vn 0.6313 0.7752 -0.0216
vn 0.4596 -0.8881 -0.0023
vn 0.4597 0.8881 0.0023
vn 0.9388 0.3425 0.0364
vn 0.3237 0.7887 0.5226
vn -0.0047 -0.5377 0.8431
vn 0.2901 -0.8937 0.3422
vn -0.0000 -0.2231 0.9748
vn 0.9388 -0.3425 -0.0364
vn -0.0030 0.2189 -0.9757
vn 0.0030 -0.2189 -0.9757
vn 0.0031 -0.2220 -0.9750
vn 0.4782 -0.8781 0.0132
vn -0.9868 0.1550 0.0474
vn -0.4569 -0.8890 0.0313
vn -0.9388 -0.3425 0.0364
vn -0.7046 -0.7086 -0.0374
vn -0.2614 -0.9533 0.1510
vn -0.9350 -0.3531 -0.0334
vn -0.4857 -0.7772 0.4001
vn 0.4857 0.7772 0.4001
vn -0.7147 -0.6978 0.0481
vn -0.7147 0.6978 -0.0481
vn -0.6366 -0.5667 -0.5230
vn 0.7087 -0.7043 -0.0417
vn 0.6115 -0.3580 -0.7056
vn 0.9850 0.1624 0.0588
vn -0.0000 -1.0000 -0.0000
vn 0.5704 -0.8213 0.0116
vn 0.1691 0.9851 -0.0322
vn 0.8844 0.4618 -0.0668
vn 0.7273 -0.1442 0.6710
vn 0.2614 -0.9534 -0.1509
vn 0.9350 -0.3531 0.0334
vn -0.2901 0.8937 0.3422
vn 0.0047 0.5377 0.8431
vn 0.2627 0.9504 0.1666
vn 0.0047 -0.5377 -0.8431
vn -0.2901 -0.8937 -0.3422
vn -0.0000 -0.2231 -0.9748
vn -0.6313 -0.7752 -0.0216
vn -0.6313 0.7752 0.0216
vn -0.4596 -0.8881 0.0023
vn -0.4596 0.8881 -0.0023
vn -0.9388 0.3425 -0.0364
vn -0.6115 -0.3580 0.7056
vn 0.6366 -0.5667 0.5230
vn -0.5094 -0.6969 -0.5048
vn -0.6918 0.7216 0.0247
vn 0.7147 -0.6978 -0.0481
vn 0.7147 0.6978 0.0481
vn 0.6366 0.5667 -0.5230
vn -0.0137 0.9999 0.0002
vn -0.1818 -0.9833 0.0109
vn -0.0034 -1.0000 -0.0000
vn -0.2097 -0.9778 0.0046
vn -0.9987 -0.0167 -0.0492
vn 0.7108 -0.0119 -0.7033
vn 0.9963 0.0334 -0.0787
vn -0.9952 -0.0000 0.0983
vn -0.9963 0.0334 -0.0787
vn 0.9992 -0.0000 0.0395
vn -0.9994 0.0335 0.0115
vn -0.7388 -0.0000 -0.6739
vn 0.9983 -0.0279 -0.0516
vn 0.9999 -0.0000 0.0132
vn -0.7117 -0.0000 -0.7024
vn 0.7209 -0.0000 -0.6930
vn -0.9992 -0.0000 0.0395
vn 0.9989 -0.0167 -0.0434
vn 0.7388 -0.0000 -0.6739
vn -0.9973 0.0719 -0.0172
vn 0.9996 -0.0000 0.0268
vn -0.6999 0.7134 0.0340
vn -0.0000 0.0102 0.9999
vn -0.6877 0.0231 -0.7257
vn 0.6798 0.0034 -0.7334
vn -0.0031 0.2220 -0.9750
vn -0.3237 -0.7888 0.5226
vn 0.5262 -0.8502 0.0163
vn 0.5640 -0.7701 0.2981
vn -0.0000 -0.8740 -0.4860
vn 0.9350 0.3531 -0.0334
vn -0.0000 0.2231 0.9748
vn -0.7789 0.6272 0.0055
vn -0.8029 0.5961 0.0064
vn -0.6217 0.3605 -0.6954
vt 3.428232 -0.010196
vt 3.969042 -0.010196
vt 3.471156 0.220584
vt -0.049660 1.164636
vt 0.448226 0.466035
vt 0.482566 1.164636
vt 2.445267 0.466034
vt 2.010651 1.164636
vt 2.010651 0.466034
vt 0.934352 1.164636
vt 0.499736 0.466035
vt 3.462571 1.164636
vt 2.985031 0.466034
vt 3.419647 0.466034
vt 2.985031 1.164636
vt 1.959691 0.466034
vt 0.481697 1.164636
vt 0.047081 0.466034
vt 0.481697 0.466034
vt -0.040028 0.466034
vt 3.971156 0.310030
vt 4.469043 1.008632
vt 3.936817 1.008632
vt 0.450340 1.008632
vt 0.948226 0.310031
vt 0.982566 1.008632
vt 2.945267 0.310030
vt 2.510651 1.008632
vt 2.510651 0.310030
vt 3.485031 1.008632
vt 1.434352 1.008632
vt 1.434352 0.310030
vt 0.999736 0.310030
vt 3.485031 0.310030
vt 3.919647 0.310030
vt 0.981697 1.008632
vt 0.547081 0.310030
vt 0.981697 0.310030
vt 0.459972 0.310030
vt 0.481697 0.606051
vt 0.029911 0.307861
vt 0.481697 0.307860
vt 3.431093 0.307860
vt 3.969042 0.606051
vt 3.471156 0.606051
vt 0.047081 0.606052
vt -0.004429 0.606052
vt -0.049660 0.872418
vt 0.448226 0.173817
vt 0.482566 0.872418
vt 2.445267 0.173816
vt 2.010651 0.872418
vt 2.010651 0.173816
vt 2.985031 0.173816
vt 0.934352 0.872418
vt 0.934352 0.173816
vt 0.499736 0.173817
vt 0.985312 0.173816
vt 3.459710 0.872418
vt 3.419647 0.173816
vt -0.040028 0.872418
vt 2.971156 0.310030
vt 3.469043 1.008632
vt 2.925370 1.008632
vt -0.549660 1.008632
vt -0.051774 0.310031
vt -0.005987 1.008632
vt 1.956714 1.008632
vt 1.510651 1.008632
vt 1.510651 0.310030
vt 1.459691 0.310030
vt 0.434352 1.008632
vt 0.434352 0.310030
vt 0.934352 -0.005148
vt 0.499736 0.307317
vt 0.453949 -0.005147
vt 3.419647 0.307317
vt 2.985030 -0.005148
vt 3.465433 -0.005148
vt -0.018303 1.008632
vt -0.452919 0.310030
vt -0.018303 0.310030
vt -0.540028 1.008632
vt -0.540028 0.310030
vt 3.431093 0.134990
vt 3.969042 0.433181
vt 3.471156 0.433181
vt -0.049659 0.134991
vt 0.465396 0.134991
vt 0.448226 0.433182
vt 2.456714 1.015144
vt 2.010651 1.015144
vt 2.010651 0.302268
vt 2.985031 0.302268
vt 0.934352 1.015144
vt 0.934352 0.302269
vt 0.934352 0.134991
vt 0.499736 0.433182
vt 3.459710 1.015143
vt 3.419647 0.302268
vt 0.481697 1.015144
vt 0.047081 0.302269
vt 0.481697 0.302269
vt -0.040028 1.015143
vt -0.040028 0.302268
vt 3.471156 0.743487
vt 3.969043 1.442090
vt 3.436817 1.442089
vt -0.049660 1.442090
vt 0.448226 0.743488
vt 0.482566 1.442090
vt 2.445267 0.743488
vt 2.010651 1.442089
vt 2.010651 0.743488
vt 0.934352 0.743488
vt 0.499736 0.743488
vt -0.040028 1.442089
vt -0.040028 0.743487
vt 2.985031 0.743487
vt 3.419647 0.743487
vt 2.985031 1.442089
vt 0.481697 1.442090
vt 0.047081 0.743488
vt 0.481697 0.743488
vt -0.549659 -0.003684
vt -0.011711 -0.003684
vt -0.051774 0.294507
vt 0.959673 1.008632
vt 0.459972 1.008632
vt 1.485312 0.310030
vt 6.166294 0.164419
vt 3.115707 0.164419
vt 4.640999 0.006632
vt 8.356351 -0.002882
vt 6.671288 0.486114
vt 6.618886 -0.002881
vt 0.111640 -0.033589
vt 0.320544 -0.054999
vt 0.306579 -0.023684
vt 0.601117 -0.021733
vt 0.814702 -0.054999
vt 0.793291 -0.033588
vt 5.628838 0.486114
vt 5.628838 -0.002880
vt 9.360140 -0.002883
vt 8.363804 0.486112
vt 2.363981 0.006632
vt 3.104636 0.164419
vt 2.363981 0.164418
vt 5.757478 0.608168
vt 5.333581 0.283459
vt 5.799343 0.283459
vt 6.177365 0.006632
vt 6.253990 0.164419
vt 6.177364 0.164418
vt 0.474134 0.608168
vt 0.016746 0.283459
vt 0.474134 0.283459
vt 0.123357 0.163061
vt 0.116387 0.019431
vt 0.916055 0.541609
vt 6.293321 0.283459
vt 5.790970 0.283459
vt 5.807715 0.608168
vt -0.704059 0.486119
vt -2.389123 -0.002876
vt -0.638501 -0.002876
vt 0.320545 1.031709
vt 0.095430 1.026510
vt 0.312799 1.001281
vt 0.338391 0.486118
vt 0.338390 -0.002877
vt -2.396576 0.486119
vt -3.392911 -0.002877
vt 7.558130 0.164418
vt 7.634757 0.006632
vt 7.634755 0.164418
vt 0.050239 0.283459
vt 0.909085 0.163061
vt 0.902115 0.397980
vt -3.392912 0.486118
vt -8.683359 -0.002881
vt 0.470954 -0.025676
vt 0.469019 -0.027612
vt 0.476990 -0.019641
vt 5.333582 0.608168
vt 0.988375 0.357502
vt 0.994102 0.000172
vt 0.996965 0.714832
vt 0.798519 0.663087
vt 0.666091 0.663088
vt 0.488375 0.357502
vt 0.117795 0.715176
vt 0.112068 0.766920
vt 0.106342 0.715176
vt 0.105998 0.715176
vt 0.100272 0.766920
vt 0.094545 0.715176
vt 0.070608 0.715176
vt 0.059155 0.847603
vt 0.059155 0.715176
vt 0.488032 0.357502
vt 0.177888 0.051916
vt 0.310315 0.051916
vt 0.666091 0.051916
vt 0.798519 0.051916
vt 0.076678 0.766920
vt 0.070952 0.715176
vt 0.082405 0.715176
vt 0.088475 0.766920
vt 0.082748 0.715176
vt 0.094201 0.715176
vt 0.047358 0.715176
vt 0.058812 0.847603
vt 0.047358 0.847603
vt 0.310315 0.663088
vt 0.177888 0.663088
vt 0.024036 2.659022
vt 0.027502 -1.659023
vt 0.030967 2.659022
vt -0.012075 2.659022
vt -0.008609 -1.659023
vt -0.005144 2.659022
vt 0.005835 -1.659023
vt 0.002369 2.659022
vt 0.009301 2.659022
vt 0.004680 -1.659023
vt 0.500301 0.288063
vt -0.017673 0.316772
vt -0.017673 0.288063
vt 0.517568 0.316772
vt 0.971914 0.288063
vt 0.971915 0.316771
vt -0.038465 0.316945
vt 2.048811 0.287889
vt 2.048811 0.316945
vt 2.508661 0.287889
vt 2.526137 0.316945
vt 3.034212 0.288063
vt 3.034212 0.316771
vt 4.023798 0.288063
vt 3.505825 0.316771
vt 3.488558 0.288063
vt 0.006015 0.317348
vt 0.478607 0.287487
vt 0.478607 0.317348
vt 0.977612 0.288142
vt 0.977612 0.316692
vt 3.028514 0.316692
vt -0.006507 0.316692
vt 0.508605 0.288143
vt -0.006507 0.288143
vt 0.525777 0.316692
vt 2.041165 0.316692
vt 2.510173 0.316692
vt 3.497521 0.316692
vt 4.012633 0.288142
vt 3.480349 0.288142
vt -0.009736 0.288142
vt -0.009736 0.316692
vt 0.464506 0.288142
vt 0.012671 0.316692
vt 0.464506 0.316692
vt 0.201397 0.453193
vt 0.212300 0.011174
vt 0.223204 0.475000
vt 0.267898 0.022077
vt 0.256995 0.464097
vt 0.246092 0.000270
vt 0.357288 0.458287
vt 0.335481 0.022077
vt 0.357288 0.000270
vt 0.424330 0.458287
vt 0.402523 0.022077
vt 0.424330 0.000270
vt 0.179049 0.453193
vt 0.200856 0.000270
vt 0.200856 0.475000
vt 0.334941 0.458287
vt 0.313134 0.022077
vt 0.334941 0.000270
vt 0.357829 0.000270
vt 0.379635 0.436480
vt 0.357828 0.458287
vt 0.483034 0.288063
vt 0.517569 0.316772
vt -0.038703 0.316947
vt 2.048875 0.287887
vt 2.048875 0.316947
vt 2.508790 0.287887
vt 2.516346 0.316947
vt 2.506799 0.295008
vt 2.475829 0.316692
vt 0.246092 0.475000
vt 0.290246 0.458287
vt 0.268439 0.022077
vt 0.290246 0.000270
vt 0.424871 0.458287
vt 0.446678 0.022077
vt 0.446678 0.436480
vt 0.245551 0.022077
vt 0.234647 0.464097
vt 0.223744 0.000270
vt 0.189953 0.011174
vt 0.401983 0.458287
vt 0.380176 0.022077
vt 0.401983 0.000270
vt -0.004429 0.466035
vt 0.012741 1.164636
vt 3.969042 0.466034
vt 3.969043 1.164636
vt 2.479607 1.164636
vt 2.496776 0.466034
vt -0.049660 0.466035
vt 0.499736 -0.010196
vt 0.934352 -0.010196
vt -0.040028 1.164636
vt 0.495571 0.310031
vt 0.512741 1.008632
vt 4.469042 0.310030
vt 2.979607 1.008632
vt 2.996776 0.310030
vt 0.450340 0.310030
vt 1.959691 0.321590
vt 0.934352 0.307317
vt 2.985031 0.307316
vt 3.969042 0.307860
vt 2.479607 0.872418
vt 2.496776 0.173816
vt -0.049660 0.173817
vt 2.985031 0.872418
vt 3.969042 -0.005148
vt 3.969042 0.307317
vt 2.485330 -0.005148
vt 2.445267 0.307317
vt 2.010651 -0.005148
vt -0.549660 0.310030
vt 2.485031 1.008632
vt 2.985031 0.307317
vt -0.498706 1.008632
vt 3.969042 0.134990
vt 2.485330 0.134991
vt 2.445267 0.433181
vt 2.010651 0.134990
vt -0.049660 1.015144
vt -0.049660 0.302269
vt 0.448226 1.015144
vt 0.499736 1.015144
vt 2.985031 1.015143
vt 0.001294 1.015144
vt -0.004429 0.743488
vt 0.012741 1.442090
vt 3.969042 0.743488
vt 2.479607 1.442089
vt 2.496776 0.743488
vt -0.049660 0.743488
vt 0.934352 1.442090
vt 2.010651 0.319016
vt 2.010651 0.290469
vt 2.445267 0.304742
vt 2.287356 0.164419
vt 0.090230 -0.054999
vt 0.810454 1.027461
vt 0.584387 -0.054999
vt 9.360140 0.486112
vt 3.104636 0.006632
vt 0.050239 0.608168
vt 0.116387 0.541609
vt 0.130327 0.397980
vt 7.558130 0.006631
vt 6.911595 0.164419
vt 0.584388 1.031709
vt 0.601117 0.998443
vt -2.873580 0.164418
vt -2.873580 0.006632
vt -2.132926 0.164419
vt 0.000000 0.283459
vt 0.000000 0.608168
vt 0.916055 0.019431
vt -8.683361 0.486114
vt 0.115528 0.006631
vt 1.640821 0.164418
vt -1.409765 0.164419
vt 0.976235 0.714832
vt 0.798519 0.714832
vt 0.666091 0.714832
vt 0.488375 0.714832
vt 0.070608 0.847603
vt 0.310315 0.000172
vt 0.488032 0.000172
vt 0.000172 0.714832
vt 0.000172 0.000172
vt 0.177888 0.000172
vt 0.976235 0.000172
vt 0.488375 0.000172
vt 0.666091 0.000172
vt 0.798519 0.000172
vt 0.058812 0.715176
vt 0.976578 0.357502
vt 0.985168 0.000172
vt 0.982305 0.714832
vt 0.488032 0.714832
vt 0.310315 0.714832
vt 0.177888 0.714832
vt 0.030968 -1.659023
vt 0.024036 -1.659023
vt 0.027501 2.659022
vt -0.005144 -1.659023
vt -0.012075 -1.659023
vt -0.008610 2.659022
vt -0.026520 2.659022
vt -0.019588 2.659023
vt -0.023054 -1.659022
vt -0.024209 -1.659022
vt 4.023798 0.316771
vt -0.038465 0.287889
vt -0.011946 0.287487
vt 2.041165 0.288142
vt 3.028514 0.288142
vt 4.012632 0.316692
vt -0.004501 0.288143
vt 0.133814 0.000270
vt 0.133814 0.999730
vt 0.112007 0.977923
vt 0.335481 0.436480
vt 0.178509 0.000270
vt 0.178509 0.999729
vt 0.156702 0.977922
vt 0.402523 0.436480
vt 0.134355 0.999729
vt 0.134355 0.000270
vt 0.156162 0.022077
vt 0.179049 0.022077
vt 0.313134 0.436480
vt 0.066772 0.000270
vt 0.044965 0.999729
vt 0.044965 0.022077
vt 0.379635 0.022077
vt 0.534836 0.288063
vt -0.038703 0.287887
vt -0.006507 0.299562
vt 0.491433 0.288143
vt 0.542949 0.288143
vt 0.067313 0.999729
vt 0.089120 0.000270
vt 0.089119 0.977922
vt 0.212300 0.464097
vt 0.201397 0.022077
vt 0.223204 0.000270
vt 0.267898 0.453193
vt 0.268439 0.436480
vt 0.000270 0.999730
vt 0.022077 0.000270
vt 0.022077 0.977923
vt 0.424871 0.000270
vt 0.022618 0.999729
vt 0.022618 0.000270
vt 0.044425 0.022077
vt 0.380176 0.436480
s 1
usemtl GT_MC_Facade_1B
f 9/4/4 18/5/5 12/6/6
f 17/11/12 12/6/11 18/5/13
f 34/21/20 22/22/21 23/23/22
f 28/24/4 38/25/5 31/26/6
f 37/33/26 31/26/25 38/25/13
f 23/23/27 24/35/29 34/21/13
f 45/43/33 43/44/34 53/45/35
f 44/41/31 42/46/36 43/47/15
f 49/48/4 57/49/5 52/50/6
f 56/57/26 52/50/25 57/49/13
f 61/62/38 59/63/39 60/64/40
f 66/65/41 73/66/42 68/67/43
f 78/85/51 76/86/52 77/87/53
f 84/88/54 87/89/55 86/90/56
f 95/106/20 92/107/21 93/108/22
f 100/109/4 110/110/5 103/111/6
f 109/116/26 103/111/25 110/110/13
f 93/108/27 94/120/29 95/106/13
f 116/21/20 113/22/21 114/23/22
f 121/125/68 124/126/69 123/127/70
f 114/23/27 115/35/29 116/21/13
f 134/150/79 145/151/87 142/152/88
f 141/156/73 133/157/89 130/158/74
f 151/162/93 153/163/94 152/164/95
f 148/151/105 154/150/98 153/163/106
f 153/163/106 154/150/98 152/164/100
f 160/178/109 147/156/110 146/158/111
f 145/151/87 149/186/113 148/151/115
f 15/308/2 14/18/15 4/309/198
f 240/12/3 15/310/2 4/311/198
f 9/312/4 11/7/15 10/313/199
f 9/4/4 10/314/199 18/5/5
f 35/318/36 33/37/15 22/319/21
f 34/21/20 35/320/36 22/22/21
f 28/321/4 30/27/15 29/322/199
f 28/24/4 29/323/199 38/25/5
f 45/43/33 44/327/204 43/44/34
f 49/328/4 51/51/15 50/329/199
f 49/48/4 50/330/199 57/49/5
f 61/79/38 70/332/49 59/333/39
f 66/65/41 67/337/206 73/66/42
f 78/85/51 88/341/61 76/86/52
f 83/345/57 84/346/54 86/347/56
f 87/89/55 85/98/13 86/90/56
f 106/351/36 105/123/15 92/352/21
f 95/106/20 106/353/36 92/107/21
f 100/354/4 102/112/15 101/355/199
f 100/109/4 101/356/199 110/110/5
f 127/318/36 126/37/15 113/319/21
f 116/21/20 127/320/36 113/22/21
f 120/321/211 122/27/15 121/322/68
f 120/24/211 121/323/68 123/128/70
f 134/150/79 135/186/114 145/151/87
f 141/156/73 136/367/90 133/157/89
f 148/151/105 149/186/99 154/150/98
f 146/377/216 147/378/72 130/377/74
usemtl GT_MC_Facade_1
f 11/7/7 6/8/8 7/9/9
f 8/10/10 12/6/11 17/11/12
f 240/12/3 13/13/14 5/14/1
f 3/15/15 16/16/16 13/13/15
f 2/17/17 14/18/18 1/19/19
f 6/8/8 1/20/13 7/9/9
f 30/27/7 25/28/8 26/29/9
f 21/30/23 27/31/15 36/32/15
f 36/32/24 31/26/25 37/33/26
f 23/23/27 32/34/28 24/35/29
f 20/36/17 33/37/18 19/38/19
f 25/28/8 19/39/13 26/29/9
f 40/40/30 44/41/31 39/42/32
f 51/51/7 46/52/8 47/53/9
f 54/54/37 48/55/15 55/56/15
f 55/56/24 52/50/25 56/57/26
f 47/53/9 46/52/8 39/58/32
f 53/59/35 54/54/37 45/60/33
f 46/52/8 40/61/30 39/58/32
f 66/68/41 64/69/44 63/70/45
f 71/71/46 65/72/15 72/73/15
f 72/74/47 68/75/43 73/76/42
f 60/77/40 71/78/46 61/79/38
f 62/80/48 70/81/49 58/82/50
f 62/83/48 58/84/50 63/70/13
f 83/91/57 81/92/44 80/93/45
f 89/94/37 82/95/15 90/96/15
f 90/97/58 85/98/59 87/89/60
f 77/99/53 89/94/37 78/100/51
f 79/101/48 88/102/61 74/103/50
f 79/104/48 74/105/50 80/93/13
f 102/112/7 98/113/62 97/114/63
f 108/115/64 103/111/25 109/116/26
f 97/114/13 96/117/65 107/118/66
f 93/108/27 104/119/67 94/120/29
f 91/121/15 108/115/64 104/119/15
f 96/122/65 105/123/18 107/124/66
f 128/32/71 123/128/70 124/33/69
f 129/28/8 117/129/65 118/130/9
f 114/23/27 125/34/67 115/35/29
f 112/30/15 128/32/71 125/34/15
f 117/36/65 126/37/18 111/38/66
f 117/129/65 111/39/66 118/130/9
f 201/231/144 199/232/145 211/233/146
f 197/234/147 209/235/148 198/236/149
f 198/236/150 200/237/143 203/238/142
f 211/233/151 205/239/152 192/240/153
f 192/240/157 194/243/156 195/242/155
f 193/244/158 191/245/159 197/246/160
f 212/247/161 211/248/146 206/249/162
f 212/247/161 201/253/144 211/248/146
f 200/237/143 210/254/165 214/255/163
f 194/258/156 206/249/162 208/256/166
f 191/259/159 204/260/167 210/254/165
f 191/261/159 207/262/168 204/263/167
f 226/286/173 224/232/174 222/233/175
f 230/287/176 221/288/177 223/289/178
f 223/289/178 225/290/172 229/291/171
f 222/233/179 232/239/180 216/240/181
f 216/240/157 218/243/184 219/242/183
f 217/244/185 215/245/186 230/246/176
f 224/247/174 237/248/187 233/249/188
f 224/247/174 239/253/189 237/248/187
f 238/292/190 223/254/178 229/293/171
f 218/258/184 233/249/188 234/256/191
f 231/259/193 230/260/176 223/254/178
f 231/261/193 217/262/185 230/263/176
f 11/7/7 9/312/200 6/8/8
f 16/16/16 3/15/15 8/10/10
f 17/315/12 16/316/16 8/96/10
f 240/12/3 3/15/201 13/13/14
f 2/17/17 4/309/202 14/18/18
f 6/8/8 2/317/13 1/20/13
f 30/27/7 28/321/200 25/28/8
f 36/32/24 27/31/203 31/26/25
f 23/23/27 21/30/23 32/34/28
f 20/36/17 22/319/202 33/37/18
f 21/324/23 36/325/15 32/326/28
f 25/28/8 20/129/13 19/39/13
f 40/40/30 42/46/36 44/41/31
f 51/51/7 49/328/200 46/52/8
f 55/56/24 48/55/203 52/50/25
f 53/59/35 41/331/205 54/54/37
f 41/331/205 48/55/15 54/54/37
f 67/334/206 66/335/41 63/336/45
f 72/73/47 65/72/207 68/67/43
f 63/70/13 64/69/13 62/83/48
f 69/338/208 65/72/15 71/71/46
f 60/77/40 69/339/208 71/78/46
f 62/80/48 59/340/39 70/81/49
f 84/342/54 83/343/57 80/344/45
f 90/96/58 82/95/63 85/348/59
f 80/93/13 81/92/13 79/104/48
f 77/99/53 75/349/205 89/94/37
f 75/349/205 82/95/15 89/94/37
f 79/101/48 76/350/52 88/102/61
f 102/112/7 100/354/200 98/113/62
f 108/115/64 99/357/209 103/111/25
f 97/114/13 98/113/13 96/117/65
f 93/108/27 91/121/210 104/119/67
f 91/121/15 99/357/209 108/115/64
f 96/122/65 92/352/202 105/123/18
f 122/27/7 120/321/200 129/28/8
f 128/32/71 112/30/15 119/31/212
f 128/32/71 119/31/212 123/128/70
f 114/23/27 112/30/210 125/34/67
f 117/36/65 113/319/202 126/37/18
f 129/358/8 118/359/9 122/360/7
f 211/233/151 199/232/219 205/239/152
f 201/231/144 202/228/141 199/232/145
f 198/236/150 209/235/148 200/237/143
f 192/240/157 205/239/220 194/243/156
f 197/234/147 191/416/159 209/235/148
f 193/244/158 196/417/154 191/245/159
f 212/247/161 213/251/164 201/253/144
f 209/418/148 191/259/159 210/254/165
f 200/237/143 209/418/148 210/254/165
f 205/419/220 212/247/161 206/249/162
f 194/258/156 205/419/220 206/249/162
f 191/261/159 196/421/154 207/262/168
f 222/233/179 224/232/174 232/239/180
f 226/286/173 227/439/222 224/232/174
f 223/289/178 221/288/224 225/290/172
f 216/240/157 232/239/180 218/243/184
f 230/287/176 215/440/225 221/288/177
f 217/244/185 220/417/182 215/245/186
f 224/247/174 227/443/222 239/253/189
f 236/418/228 231/259/193 223/254/178
f 238/292/190 236/418/228 223/254/178
f 232/419/180 224/247/174 233/249/188
f 218/258/184 232/419/180 233/249/188
f 231/261/193 235/421/192 217/262/185
usemtl GT_MC_Tiling_Dirty_Metal
f 170/187/116 161/188/117 171/189/118
f 163/190/119 166/191/120 170/192/116
f 167/193/121 168/194/122 166/195/15
f 163/196/119 165/197/123 164/198/13
f 164/199/19 166/200/19 163/201/19
f 169/202/124 167/203/121 164/204/125
f 170/192/116 176/205/126 173/206/127
f 178/207/128 177/208/129 176/209/15
f 175/210/130 173/211/127 174/212/13
f 176/213/63 174/214/63 173/215/63
f 169/202/124 174/216/131 177/217/129
f 181/218/132 179/219/133 180/220/134
f 180/221/134 179/222/133 181/223/132
f 186/224/135 185/225/136 187/226/137
f 189/225/138 188/227/139 190/226/140
f 170/192/116 162/384/217 163/190/119
f 162/384/217 165/385/123 163/190/119
f 166/191/120 168/386/122 161/387/117
f 166/191/120 161/387/117 170/192/116
f 164/199/19 167/388/19 166/200/19
f 165/389/123 162/390/217 164/204/125
f 162/390/217 169/202/124 164/204/125
f 169/202/124 171/391/118 167/203/121
f 171/391/118 161/392/117 167/203/121
f 161/392/117 168/393/122 167/203/121
f 172/394/218 162/384/217 173/206/127
f 162/384/217 170/192/116 173/206/127
f 170/192/116 171/395/118 176/205/126
f 171/395/118 178/396/128 176/205/126
f 173/206/127 175/397/130 172/394/218
f 176/213/63 177/398/63 174/214/63
f 169/399/124 162/400/217 172/401/218
f 169/202/124 172/402/218 174/216/131
f 172/402/218 175/403/130 174/216/131
f 171/391/118 169/202/124 177/217/129
f 177/217/129 178/404/128 171/391/118
f 182/405/134 184/406/133 183/407/132
f 184/408/133 182/409/134 183/410/132
f 187/411/137 185/412/136 186/413/135
f 188/414/139 189/412/138 190/411/140
usemtl GT_MC_Tiling_X_Concrete
f 147/131/72 141/132/73 130/133/74
f 132/134/75 140/135/76 137/136/77
f 131/137/78 134/138/79 137/139/80
f 132/140/81 141/141/73 143/142/82
f 137/136/77 138/143/83 131/144/84
f 143/145/82 139/146/85 132/134/75
f 142/147/86 132/148/75 137/149/77
f 133/153/89 136/154/90 132/155/81
f 139/159/85 144/160/91 156/161/92
f 159/165/96 150/166/97 152/167/95
f 154/168/98 149/169/99 152/170/100
f 156/171/92 152/167/95 149/172/101
f 158/173/102 147/174/103 150/166/97
f 156/171/92 149/172/101 131/144/104
f 155/175/107 151/176/108 150/177/97
f 144/160/91 158/179/102 159/180/96
f 157/181/112 143/182/82 147/174/72
f 149/183/113 135/184/114 131/185/78
f 202/228/141 203/229/142 200/230/143
f 196/241/154 195/242/155 194/243/156
f 214/250/163 213/251/164 200/252/143
f 208/256/166 196/257/154 194/258/156
f 202/264/141 200/265/143 213/266/169
f 203/267/142 201/268/144 214/269/78
f 202/270/141 212/271/161 199/272/169
f 203/273/142 210/274/78 198/275/78
f 195/276/78 207/277/78 208/278/78
f 195/279/78 206/280/162 192/281/78
f 197/282/78 207/283/78 193/284/78
f 228/285/170 229/229/171 225/230/172
f 220/241/182 219/242/183 218/243/184
f 234/256/191 235/257/192 218/258/184
f 229/267/171 239/294/194 238/269/190
f 222/295/78 239/296/194 226/297/78
f 225/298/195 236/299/196 238/300/197
f 220/301/182 218/302/184 235/303/169
f 219/276/183 217/304/185 234/278/78
f 219/279/183 233/280/78 216/281/78
f 220/305/182 231/306/169 215/307/169
f 142/147/88 137/149/80 134/361/79
f 132/134/75 139/146/85 140/135/76
f 131/137/78 135/362/114 134/138/79
f 143/142/82 141/141/73 147/363/72
f 132/140/81 136/364/90 141/141/73
f 137/136/77 140/135/76 138/143/83
f 143/145/82 144/365/91 139/146/85
f 131/144/104 138/143/13 156/171/92
f 142/147/86 133/366/213 132/148/75
f 156/161/92 138/368/83 140/369/76
f 156/161/92 140/369/76 139/159/85
f 160/370/109 155/175/214 147/371/110
f 159/165/96 158/173/102 150/166/97
f 147/363/103 155/372/107 150/373/97
f 156/171/92 159/165/96 152/167/95
f 158/173/102 157/181/215 147/174/103
f 150/374/97 151/375/93 152/376/95
f 155/175/107 160/370/15 151/176/108
f 156/161/92 144/160/91 159/180/96
f 144/160/91 157/379/215 158/179/102
f 157/181/112 144/380/91 143/182/82
f 145/381/87 135/382/114 149/383/113
f 202/228/141 201/231/144 203/229/142
f 196/241/154 193/415/158 195/242/155
f 214/250/163 201/253/144 213/251/164
f 208/256/166 207/420/168 196/257/154
f 205/422/220 199/423/169 212/424/161
f 202/270/141 213/425/169 212/271/161
f 197/426/78 198/427/78 210/428/78
f 203/273/142 214/429/78 210/274/78
f 211/430/146 192/431/78 206/432/162
f 195/276/78 193/433/78 207/277/78
f 195/279/78 208/434/78 206/280/162
f 197/435/78 210/436/78 204/437/78
f 197/282/78 204/438/78 207/283/78
f 228/285/170 226/286/221 229/229/171
f 226/286/173 228/285/223 227/439/222
f 220/241/182 217/415/185 219/242/183
f 238/441/197 239/253/226 228/442/227
f 227/443/222 228/442/223 239/253/189
f 234/256/191 217/420/185 235/257/192
f 222/444/78 233/445/78 237/446/78
f 228/447/227 225/448/195 238/449/197
f 229/267/171 226/450/78 239/294/194
f 222/295/78 237/451/78 239/296/194
f 221/452/169 231/453/169 236/454/196
f 225/298/195 221/455/169 236/299/196
f 222/430/78 216/431/78 233/432/78
f 219/279/183 234/434/78 233/280/78
f 221/456/169 215/457/169 231/458/169
f 220/305/182 235/459/169 231/306/169
usemtl GT_MC_Tiling_Light_Metal_Cladding
f 5/1/1 15/2/2 240/3/3
