# Blender 5.1.0
# www.blender.org
mtllib building.mtl
o GT_MC_Large_Building
v -11.861305 10.318960 -18.261629
v -12.184938 10.318960 18.225203
v 10.792617 10.318960 -14.163178
v 10.792617 10.318960 14.163178
v 7.389565 10.318960 -18.074356
v 7.584321 10.318960 17.896179
v -15.418204 0.000000 16.819084
v 9.302161 0.000000 17.564287
v -15.188079 0.000000 -16.822054
v 9.506015 0.000000 -17.119677
v 11.868526 10.940512 -14.985493
v 7.552914 10.774764 -19.301111
v 11.792913 10.857637 15.290720
v 7.149018 10.857637 19.391373
v -12.902413 84.468872 -17.979921
v -12.603365 10.857637 -19.391371
v -17.403339 10.857637 -15.056486
v -11.854069 84.493980 18.184704
v -12.603365 10.857638 19.391371
v -17.247255 10.857637 15.290719
v 7.842176 87.857315 -17.512178
v 10.390116 87.857315 -14.065400
v 10.426159 87.857315 14.115924
v 6.972675 84.533623 -18.084297
v -16.036137 84.501152 14.666131
v -16.061155 84.514069 -14.323611
v 10.567771 84.449669 -14.620732
v 6.985126 84.533623 18.072090
v 10.572168 84.449669 14.627394
v -16.170084 87.857315 -13.189031
v -13.936543 87.857315 -17.308144
v -15.932972 87.857315 13.766340
v -12.860698 87.857315 17.806368
v 7.825059 87.857315 17.537178
v 9.118015 86.405716 -16.349361
v 9.118015 86.405716 16.349361
v -14.768722 86.405716 16.332239
v -14.371118 86.405716 -16.550602
v 10.981841 0.000000 -6.083472
v 10.981841 0.000000 6.083472
v 10.981841 84.079651 6.083472
v 10.981841 84.079651 -6.083472
v 10.981841 84.242889 6.083472
v 10.981841 84.242889 -6.083472
v 10.594772 84.242889 -6.083472
v 10.594772 84.242889 6.083472
v 12.151907 84.745071 6.083472
v 12.151907 84.745071 -6.083472
v 10.641135 87.131516 5.757451
v 16.252781 87.476997 5.829900
v 16.436237 84.242889 6.083472
v 16.436237 84.242889 -6.083472
v 16.049171 84.242889 -6.083472
v 16.049171 84.242889 6.083472
v 16.436237 84.079651 -6.083472
v 10.633815 11.396316 -14.753490
v -16.233999 11.396316 14.199989
v 6.848168 11.396316 18.177965
v 6.825392 11.396316 -18.176203
v 11.142433 10.857638 6.239038
v 11.142433 10.857638 -6.239038
v 16.524181 10.857638 6.239038
v 16.653509 10.857637 -6.261261
v 16.436237 0.000000 6.083472
v 16.436237 0.000000 -6.083472
v -12.191801 6.479892 -18.198536
v -12.191801 6.479892 18.198536
v -16.319195 5.402536 -13.586351
v 10.864851 6.479892 -13.586358
v 10.864851 6.479892 13.586358
v -12.191801 5.402536 -18.198536
v -15.023056 6.479892 -16.119995
v -12.191801 5.402536 18.198536
v -15.023056 6.479892 16.119995
v 9.568715 5.402536 -16.119993
v 9.568715 5.402536 16.119993
v -16.373972 6.479892 13.430505
v -16.319195 6.479892 -13.586351
v 6.737460 6.479892 -18.198536
v 6.737460 6.479892 18.198536
v -15.023056 5.402536 -16.119995
v 10.864851 5.402536 -13.586358
v -15.023056 5.402536 16.119995
v 10.864851 5.402536 13.586358
v 9.568715 6.479892 16.119993
v 9.568715 6.479892 -16.119993
v 6.737460 5.402536 -18.198536
v 6.737460 5.402536 18.198536
v 11.868526 6.024087 -14.985493
v 7.552914 5.858340 -19.301111
v 11.792913 5.941214 15.290720
v 7.149018 5.941214 19.391373
v -12.603365 5.941214 -19.391371
v -17.403339 5.941214 -15.056486
v -12.603365 5.941214 19.391371
v -17.247255 5.941214 15.290719
v 11.000036 5.941214 6.101481
v 11.000036 5.941214 -6.101481
v 16.445402 6.018168 6.101481
v 16.463329 5.892243 -6.101481
v -16.132650 11.396316 -15.120257
v -16.141211 10.318960 -14.693747
v 10.641135 86.950066 -5.634081
v 16.095531 87.116585 -5.733945
v 16.242704 84.493980 0.000000
v -16.169493 10.318960 14.651911
v -16.373972 5.402536 13.430505
v -11.655073 11.396316 -18.280088
v 10.633815 11.396316 14.753490
v -12.848903 11.396316 18.016756
vn 1.0000 -0.0000 -0.0000
vn -1.0000 -0.0000 -0.0000
vn -0.0000 1.0000 -0.0000
vn -0.3103 0.0009 0.9506
vn 0.2857 0.6106 0.7386
vn -0.3551 0.6005 0.7164
vn 0.3502 -0.5904 0.7272
vn 0.5279 -0.6123 0.5886
vn 0.7746 -0.5945 0.2158
vn -0.5582 -0.6318 -0.5378
vn -0.6955 -0.6453 -0.3160
vn -0.2283 -0.6335 -0.7393
vn -0.3537 -0.0000 -0.9354
vn 0.1257 0.8965 -0.4248
vn 0.3910 -0.0406 -0.9195
vn -0.9324 -0.0169 -0.3611
vn -0.7536 0.6126 0.2384
vn -0.6890 0.6071 -0.3959
vn 0.9176 -0.0043 0.3976
vn 0.2964 -0.0111 0.9550
vn 0.3747 -0.8670 -0.3284
vn 0.9338 0.0474 -0.3547
vn 0.4971 -0.6214 -0.6056
vn 0.3210 -0.6495 -0.6892
vn 0.7804 -0.5728 -0.2507
vn 0.3792 -0.0397 -0.9245
vn 0.9340 0.0455 -0.3545
vn 0.2794 0.5926 -0.7555
vn 0.6993 0.6348 -0.3287
vn 0.9990 -0.0014 -0.0457
vn -0.3767 -0.0008 -0.9263
vn -0.9014 0.0097 0.4328
vn -0.2409 -0.6149 0.7509
vn 0.2966 -0.8976 -0.3262
vn -0.9173 -0.0000 -0.3981
vn -0.1467 0.9150 -0.3758
vn -0.7291 -0.6243 0.2805
vn -0.5739 -0.6089 0.5476
vn -0.4689 0.8601 -0.2011
vn 0.3161 0.0558 -0.9471
vn -0.3640 0.0557 -0.9297
vn -0.9067 0.0229 0.4211
vn -0.2998 -0.0110 0.9539
vn 0.3618 0.0114 0.9322
vn -0.4418 0.8364 0.3243
vn 0.9153 0.0107 0.4026
vn 0.4802 0.8289 0.2870
vn -0.4597 0.8715 -0.1711
vn -0.9447 0.0077 -0.3277
vn 0.4402 0.8564 -0.2699
vn 0.9143 0.0538 -0.4014
vn 0.3022 0.9234 0.2365
vn -0.5565 0.6588 -0.5062
vn 0.1829 0.9583 0.2196
vn 0.6270 0.5608 -0.5408
vn -0.2848 0.9074 0.3090
vn 0.9988 0.0005 0.0483
vn 0.7228 0.6908 0.0179
vn 0.2964 -0.8969 0.3283
vn 0.9989 -0.0014 0.0462
vn 0.6761 0.3301 -0.6587
vn 0.1787 0.9594 -0.2181
vn 0.4943 0.7016 0.5133
vn 0.2771 0.9355 -0.2191
vn 0.7248 0.6084 0.3231
vn 0.6739 0.3734 0.6375
vn 0.9992 0.0387 -0.0005
vn 0.5755 -0.5832 0.5732
vn -0.0000 -0.0061 1.0000
vn 0.3087 0.1681 0.9362
vn -0.5640 0.6307 0.5330
vn -0.0000 0.0011 1.0000
vn -0.0001 0.0021 1.0000
vn -0.0000 -0.0000 1.0000
vn 0.9988 0.0006 -0.0488
vn 0.7229 0.6907 -0.0183
vn 0.5738 -0.5855 -0.5726
vn -0.0033 -0.0067 -1.0000
vn 0.2792 0.2184 -0.9351
vn -0.0000 -0.0000 -1.0000
vn -0.0000 0.0011 -1.0000
vn 0.0776 -0.9401 -0.3319
vn -0.3495 -0.0000 0.9370
vn 0.1436 0.9156 0.3756
vn -0.1436 0.9156 0.3756
vn 0.9164 -0.0000 0.4003
vn 0.1436 -0.9156 0.3756
vn 0.3635 -0.8200 0.4422
vn 0.9953 -0.0004 0.0973
vn 0.5037 -0.8636 -0.0223
vn -0.9045 -0.0000 0.4265
vn -0.3632 0.8207 0.4410
vn 0.3495 -0.0000 0.9370
vn 0.4095 0.9123 -0.0034
vn -0.1467 -0.9150 -0.3758
vn -0.4617 -0.8862 0.0393
vn -0.3632 -0.8207 0.4410
vn -0.1436 -0.9156 0.3756
vn 0.4937 0.8696 0.0060
vn 0.3635 0.8200 0.4422
vn 0.9963 -0.0000 -0.0860
vn 0.7040 -0.0074 0.7102
vn 0.7099 -0.0103 -0.7042
vn 0.7181 0.0019 -0.6959
vn 0.7234 0.6904 -0.0055
vn 0.7234 0.6904 0.0055
vn -0.2040 0.6185 -0.7588
vn 0.4992 -0.1015 -0.8605
vn 0.8305 0.1437 -0.5381
vn 0.0651 0.9969 -0.0432
vn -0.3948 0.7773 -0.4899
vn 0.4992 -0.1256 0.8573
vn 0.8306 0.1436 0.5380
vn 0.0651 0.9969 0.0432
vn -0.4617 0.8862 0.0393
vn -0.3940 0.9180 -0.0458
vn -0.3948 -0.7773 -0.4899
vn -0.3940 -0.9180 -0.0458
vn 0.4004 0.7650 -0.5044
vn 0.4937 -0.8696 0.0060
vt 0.912175 0.736670
vt 1.139431 0.736670
vt 0.927234 0.736670
vt -0.094274 -0.482839
vt 0.885705 -0.418892
vt -0.111764 -0.405040
vt -0.144289 0.728274
vt -0.073169 0.500000
vt -0.106985 0.728274
vt -0.260280 -0.184998
vt -0.327183 0.125576
vt -0.205534 0.125576
vt -0.094274 1.482839
vt 0.880557 1.421144
vt 0.908359 1.477394
vt -0.325444 1.262643
vt -0.279659 -0.223667
vt -0.252812 1.258516
vt 1.124284 -0.264561
vt 0.908359 -0.477394
vt 1.027387 1.324766
vt 0.922413 1.466432
vt 1.135246 1.250507
vt 1.073169 0.500000
vt 1.144289 0.728274
vt 1.106985 0.728274
vt 1.078641 1.221747
vt 0.884826 1.419487
vt 1.124284 1.264561
vt 1.064852 1.247355
vt 1.117562 0.827467
vt -0.110010 -0.477394
vt 0.919699 -0.401577
vt 0.892623 -0.482839
vt -0.325934 -0.264561
vt -0.081249 -0.420790
vt 0.736670 0.500000
vt 1.004606 0.728274
vt 0.736670 0.728274
vt -0.082208 1.421144
vt -0.067330 0.728274
vt -0.030167 0.500000
vt -0.030026 0.728274
vt 0.046021 3.981419
vt 0.773277 3.803259
vt 0.070312 3.803259
vt -0.150846 0.944748
vt -0.100670 0.936206
vt -0.051993 0.944749
vt -0.066508 1.427272
vt -0.328654 1.256191
vt -0.110010 1.477394
vt 0.908125 1.404046
vt 0.855762 0.879704
vt 0.083286 0.888246
vt -0.026367 0.879704
vt 0.287630 0.879481
vt 0.169023 0.888045
vt 0.169023 0.879481
vt 0.811583 0.500000
vt 0.045961 0.728274
vt 0.717489 0.728274
vt 1.170053 0.888685
vt 1.225493 0.880191
vt -0.201397 0.880191
vt 0.830977 0.888045
vt 0.780671 0.879481
vt 0.830977 0.879481
vt 1.311769 0.888685
vt 1.361658 0.880191
vt 1.059416 1.063292
vt 1.012597 0.902267
vt 0.940268 1.063292
vt 0.741803 0.994490
vt 0.280520 0.902183
vt 0.268077 1.063375
vt -0.074915 0.902267
vt -0.013131 1.063292
vt -0.120367 1.063292
vt -0.235074 1.062876
vt -0.233528 0.902683
vt 1.228742 1.062876
vt 0.263330 3.981419
vt -0.042474 3.981419
vt -0.006648 3.803259
vt 0.403765 0.944760
vt 0.718713 0.936195
vt 0.718713 0.944760
vt -0.004606 0.728274
vt 0.263330 0.500000
vt 0.263330 0.728274
vt 0.896306 0.292924
vt 1.108503 0.695877
vt 0.896306 0.695877
vt -0.068310 0.902267
vt -0.013131 1.063292
vt 1.042921 3.981418
vt 0.736670 3.981419
vt 1.058811 3.803259
vt 1.117562 0.172533
vt 1.064852 -0.247355
vt 0.811998 0.889169
vt 0.188002 0.889075
vt 0.500000 0.881406
vt 0.927234 0.500000
vt 1.139431 0.500000
vt 0.927234 0.728274
vt 0.513326 0.881406
vt 0.793062 0.889075
vt 0.513326 0.889778
vt 1.012597 0.902267
vt 0.513326 0.936291
vt 0.793062 0.944664
vt 0.513326 0.944664
vt 1.085499 0.188002
vt 1.385085 0.188002
vt 1.365234 0.188002
vt 0.639265 2.055261
vt 0.243527 -1.237452
vt 0.639265 -1.237452
vt 0.756473 -1.237452
vt 0.360735 2.055261
vt 0.360735 -1.237452
vt 0.281287 0.936195
vt 0.596235 0.944760
vt 0.281287 0.944760
vt 0.793062 0.889169
vt -0.014998 0.125576
vt 1.014998 -0.184998
vt 1.090651 0.125576
vt 0.880557 -0.421144
vt -0.082208 -0.421144
vt 1.117312 -0.281072
vt 1.027387 -0.324766
vt 1.107356 0.817043
vt 1.090209 1.195297
vt -0.318963 -0.281072
vt -0.229037 -0.324766
vt -0.293284 -0.187053
vt 1.090209 -0.195297
vt 1.107356 0.182957
vt 0.084011 0.122480
vt 0.084011 -0.181902
vt 0.084011 0.122480
vt 1.373139 0.811998
vt 1.093404 0.188001
vt 1.093404 0.811998
vt 1.061884 0.500000
vt -0.062260 0.728274
vt 1.064047 0.728274
vt 0.500000 0.944664
vt 0.811998 0.936291
vt 0.811998 0.944664
vt 1.375160 0.500000
vt 1.365234 0.811998
vt 1.385085 0.811998
vt 1.165358 0.188002
vt 0.721411 0.902225
vt 0.245320 0.983421
vt 0.733848 1.063334
vt 0.188002 0.936291
vt 0.188002 0.944664
vt -0.268383 -0.241217
vt -0.164141 2.001589
vt 1.177760 -1.223877
vt -0.152440 -1.223877
vt 0.931457 1.751681
vt 0.086032 1.944324
vt 0.941166 -0.792896
vt 0.086087 -1.196616
vt 0.937459 1.944627
vt 0.940368 -1.233356
vt 1.051338 -1.233356
vt 1.051338 2.051243
vt 0.927234 1.005214
vt 1.139431 1.005214
vt 0.927234 3.771020
vt 1.139431 3.771020
vt -0.265758 -1.223877
vt 1.124372 0.736670
vt 1.078641 -0.221747
vt 0.955432 -0.340385
vt -0.205981 -0.309258
vt 0.718803 0.957073
vt 0.788737 0.931318
vt 0.509001 0.931318
vt 0.811998 0.931318
vt 0.811998 0.957073
vt 0.500000 0.944196
vt -0.202408 1.317018
vt 0.972408 1.327846
vt 0.072354 0.728274
vt 0.801781 0.500000
vt -0.229037 1.324766
vt -0.057301 1.431937
vt -0.088797 3.803258
vt -0.128988 3.981418
vt -0.030146 3.981419
vt -0.106985 3.803259
vt -0.144289 3.981419
vt 0.715447 3.803259
vt 0.792306 3.981419
vt 0.036265 3.981419
vt 0.708754 0.940127
vt 0.286512 0.957362
vt 0.286512 0.931029
vt 0.029783 3.803259
vt 0.970218 3.981419
vt 0.718713 0.879481
vt 0.718713 0.888045
vt 0.403765 0.879481
vt 1.018244 3.981419
vt 1.121807 3.981419
vt 1.064424 3.803259
vt 0.596235 0.879481
vt 0.281287 0.888045
vt 0.281287 0.879481
vt 0.790825 3.981419
vt -0.267567 1.243574
vt -0.070417 0.888246
vt -0.150846 0.879704
vt -0.029901 0.500000
vt 0.713488 0.931029
vt 0.713488 0.957362
vt 0.291201 0.940108
vt 1.144289 3.981419
vt 1.105350 0.188002
vt 1.061453 -0.246838
vt 1.061453 1.246838
vt 1.085499 0.811998
vt 1.105350 0.811998
vt -0.036093 -0.095735
vt 0.820829 -0.101816
vt 1.108503 0.292924
vt 0.188002 0.957073
vt 0.188002 0.931318
vt 1.247441 0.902683
vt 0.793062 0.936291
vt 0.219841 2.055261
vt 0.780159 2.055261
vt 0.759800 0.122480
vt 1.132772 -0.181902
vt 1.132772 0.122480
vt -0.293284 -0.187053
vt -0.291860 1.195297
vt 1.373139 0.188002
vt 1.128859 0.944724
vt 0.500000 0.936231
vt -0.128859 0.944724
vt -0.056513 0.500000
vt 0.500000 0.936291
vt 0.820829 1.101816
vt -0.026947 1.108384
vt 0.038193 1.984976
vt 0.036702 -1.152877
vt 1.158737 2.041945
vt 1.265758 1.805230
vt -0.027121 -1.233356
s 1
usemtl GT_MC_Glass_Facade_3
f 41/118/57 109/119/65 60/120/60
f 56/121/29 42/122/75 61/123/30
f 25/164/42 101/165/18 57/166/17
f 28/167/44 18/168/43 58/169/5
f 108/170/107 24/171/40 59/172/28
f 56/173/29 59/172/28 24/171/40
f 58/169/5 29/174/46 28/167/44
f 25/164/42 57/166/17 110/179/6
f 41/118/57 29/239/46 109/119/65
f 56/121/29 27/240/51 42/122/75
f 108/170/107 15/254/41 24/171/40
f 58/169/5 18/168/43 110/255/6
f 27/174/51 56/173/29 24/171/40
f 58/169/5 109/173/65 29/174/46
f 101/165/18 26/256/49 15/257/41
f 101/258/18 15/254/41 108/170/107
usemtl GT_MC_Tiling_Dark_Metal_Cladding
f 19/4/4 58/5/5 110/6/6
f 93/13/13 79/14/14 90/15/15
f 17/16/16 57/17/17 101/18/18
f 13/19/19 58/5/5 14/20/20
f 75/21/21 90/22/15 89/23/22
f 3/27/25 12/22/26 11/23/27
f 59/28/28 11/29/27 12/15/26
f 56/30/29 61/31/30 11/29/27
f 17/16/16 101/18/18 16/13/31
f 19/32/4 6/33/7 14/34/20
f 20/35/32 2/36/33 19/32/4
f 94/16/35 66/40/36 93/13/13
f 16/13/31 59/28/28 12/15/26
f 25/47/42 110/48/6 18/49/43
f 1/50/12 17/51/16 16/52/31
f 5/53/24 16/52/31 12/22/26
f 28/54/44 33/55/45 18/56/43
f 29/57/46 34/58/47 28/59/44
f 30/63/48 26/64/49 25/65/42
f 21/66/50 27/67/51 24/68/40
f 31/69/39 15/70/41 26/64/49
f 23/71/52 36/72/53 34/73/47
f 49/74/54 36/75/53 23/76/52
f 34/73/47 37/77/55 33/78/45
f 33/78/45 37/77/55 32/79/56
f 32/80/56 37/81/55 30/82/48
f 29/86/46 41/87/57 43/88/58
f 38/95/63 31/96/39 30/79/48
f 60/100/60 109/101/65 13/19/19
f 38/95/63 21/73/50 31/96/39
f 104/102/61 50/103/66 105/104/67
f 47/108/70 50/109/66 49/110/54
f 35/111/71 22/71/64 21/73/50
f 41/112/72 51/113/73 43/114/74
f 46/115/1 51/116/2 54/117/3
f 42/124/75 27/125/51 44/126/76
f 61/31/30 3/27/25 11/23/27
f 104/127/61 48/108/79 103/110/62
f 52/113/80 42/112/81 44/114/80
f 87/14/82 93/52/13 90/22/15
f 95/4/83 80/131/84 67/132/85
f 91/133/86 88/131/87 76/134/88
f 98/135/89 82/136/90 89/23/22
f 96/137/91 67/132/85 74/138/92
f 91/19/86 80/131/84 92/20/93
f 69/136/94 98/135/89 89/29/22
f 79/14/14 89/29/22 90/15/15
f 71/40/95 94/51/35 93/52/13
f 95/32/83 88/131/87 92/34/93
f 96/35/91 107/139/96 83/138/97
f 96/35/91 73/132/98 95/32/83
f 91/19/86 70/140/99 85/134/100
f 97/141/101 70/140/99 91/19/86
f 65/145/77 40/146/59 39/147/34
f 105/151/67 55/152/104 52/153/105
f 105/154/67 48/155/79 104/156/61
f 94/51/35 107/139/96 96/35/91
f 47/157/70 105/154/67 50/116/66
f 35/158/71 103/159/62 22/160/64
f 62/161/102 105/151/67 51/162/106
f 17/51/16 106/163/37 20/35/32
f 19/4/4 14/20/20 58/5/5
f 13/133/19 14/34/20 6/33/7
f 13/133/19 6/33/7 4/181/9
f 20/137/32 19/4/4 110/6/6
f 93/13/13 66/40/36 79/14/14
f 17/16/16 20/137/32 57/17/17
f 13/19/19 109/101/65 58/5/5
f 90/22/15 75/21/21 87/14/82
f 8/182/8 7/183/38 40/146/59
f 3/27/25 5/53/24 12/22/26
f 59/28/28 56/30/29 11/29/27
f 48/184/108 53/185/80 45/186/109
f 53/187/110 48/188/79 105/189/67
f 19/32/4 2/36/33 6/33/7
f 20/35/32 106/163/37 2/36/33
f 40/146/59 7/183/38 39/147/34
f 39/147/34 7/183/38 9/190/10
f 9/190/10 10/191/23 39/147/34
f 52/156/105 53/155/110 105/154/67
f 20/137/32 110/6/6 57/17/17
f 94/16/35 72/194/111 66/40/36
f 16/13/31 108/195/107 59/28/28
f 27/204/51 48/205/108 45/206/109
f 47/209/112 49/210/54 29/211/46
f 27/215/51 103/216/62 48/217/108
f 1/50/12 102/219/11 17/51/16
f 5/53/24 1/50/12 16/52/31
f 18/56/43 33/220/45 25/221/42
f 46/223/113 47/224/112 29/225/46
f 43/227/58 46/115/113 29/228/46
f 27/229/51 45/230/109 44/231/76
f 34/73/47 36/72/53 37/77/55
f 60/100/60 13/133/19 4/181/9
f 46/186/113 54/185/74 47/184/112
f 105/154/67 54/117/114 51/116/106
f 38/95/63 35/111/71 21/73/50
f 105/189/67 47/235/70 54/236/114
f 37/81/55 38/237/63 30/82/48
f 41/112/72 62/238/102 51/113/73
f 46/115/1 43/227/3 51/116/2
f 52/113/80 55/238/104 42/112/81
f 87/14/82 71/40/95 93/52/13
f 95/4/83 92/20/93 80/131/84
f 91/133/86 92/34/93 88/131/87
f 94/16/35 77/244/115 78/245/116
f 96/137/91 95/4/83 67/132/85
f 94/16/35 96/137/91 77/244/115
f 91/19/86 85/134/100 80/131/84
f 82/136/90 75/21/21 89/23/22
f 94/51/35 81/194/117 68/245/118
f 96/137/91 74/138/92 77/244/115
f 79/14/14 86/21/119 89/29/22
f 71/40/95 81/194/117 94/51/35
f 95/32/83 73/132/98 88/131/87
f 96/35/91 83/138/97 73/132/98
f 91/133/86 76/134/88 84/140/120
f 78/245/116 72/194/111 94/16/35
f 89/29/22 86/21/119 69/136/94
f 97/141/101 91/133/86 84/140/120
f 68/245/118 107/139/96 94/51/35
f 65/145/77 64/246/68 40/146/59
f 26/247/49 101/248/18 25/249/42
f 105/151/67 63/251/103 55/152/104
f 62/161/102 63/251/103 105/151/67
f 101/18/18 108/195/107 16/13/31
f 17/51/16 102/219/11 106/163/37
usemtl GT_MC_Tiling_Wide_Brick
f 45/1/1 52/2/2 44/3/3
f 6/7/7 8/8/8 4/9/9
f 10/24/23 5/25/24 3/26/25
f 39/37/34 3/38/25 61/39/30
f 106/41/37 7/42/38 2/43/33
f 31/44/39 24/45/40 15/46/41
f 10/60/23 1/61/12 5/62/24
f 49/83/54 23/84/52 29/85/46
f 4/89/9 40/90/59 60/91/60
f 49/92/54 104/93/61 103/94/62
f 22/97/64 103/98/62 27/99/51
f 40/105/59 64/106/68 60/107/69
f 65/106/77 39/105/34 61/107/78
f 9/148/10 106/149/37 102/150/11
f 60/175/69 62/176/102 41/177/72
f 55/178/104 61/175/78 42/177/81
f 45/1/1 53/180/3 52/2/2
f 39/37/34 10/24/23 3/38/25
f 2/192/33 7/42/38 8/193/8
f 25/196/42 33/197/45 32/198/56
f 29/199/46 23/84/52 34/200/47
f 28/201/44 34/202/47 33/203/45
f 25/207/42 32/198/56 30/208/48
f 30/212/48 31/213/39 26/214/49
f 31/44/39 21/218/50 24/45/40
f 10/60/23 9/222/10 1/61/12
f 21/226/50 22/97/64 27/99/51
f 49/92/54 103/94/62 37/232/55
f 37/232/55 36/233/53 49/92/54
f 4/89/9 8/8/8 40/90/59
f 49/92/54 50/234/66 104/93/61
f 9/148/10 7/250/38 106/149/37
f 35/252/71 38/253/63 103/94/62
f 37/232/55 103/94/62 38/253/63
f 55/178/104 63/176/103 61/175/78
usemtl GT_MC_Facade_1B
f 9/10/10 102/11/11 1/12/12
f 2/128/33 8/129/8 6/130/7
f 62/142/102 65/143/77 63/144/103
f 60/241/69 64/242/68 62/243/102
f 63/243/103 65/242/77 61/241/78
f 62/142/102 64/143/68 65/143/77
l 97 99
l 99 100
l 100 98
