# Blender 5.1.0
# www.blender.org
mtllib building22.mtl
o GT_MC_Large_Building.022
v -23.531500 6.309775 18.553656
v 13.575811 6.309775 -18.553656
v 13.786804 35.577477 -18.855074
v -23.531500 6.309775 -18.553656
v 13.575811 6.309775 18.553656
v -24.586462 0.000000 19.608618
v -24.586462 39.217236 19.608618
v -24.586462 0.000000 -19.608618
v -24.586462 39.217236 -19.608618
v -20.974167 246.142136 0.000000
v 14.630774 0.000000 19.608618
v 14.630774 39.217236 19.608618
v 14.630774 0.000000 -19.608618
v 14.630774 39.217236 -19.608618
v -4.977844 249.596146 18.156179
v -23.134024 249.596146 0.000000
v -4.977844 249.596146 -18.156179
v 13.178335 249.596146 0.000000
v -4.977844 246.142136 -15.996323
v -4.977844 246.142136 15.996323
v 11.018478 246.142136 0.000000
v -24.586462 39.217236 19.608618
v -24.586462 39.217236 -19.608618
v -4.977844 249.596146 18.156179
v -23.134024 249.596146 0.000000
v -4.977844 249.596146 -18.156179
v 14.630774 39.217236 19.608618
v 14.630774 39.217236 -19.608618
v 13.178335 249.596146 0.000000
v 14.127076 39.675575 -19.521723
v -22.733326 249.130463 0.289039
v -24.471657 39.675385 19.104921
v -5.266884 249.130463 -17.755482
v -4.688806 249.130463 17.755482
v 13.145494 244.650467 0.000001
v 14.206391 46.746834 -19.184237
v 14.127076 39.675385 19.493813
v -4.977844 244.650467 -18.123339
v -24.082766 39.675385 -19.493813
v -5.286569 249.132431 17.775167
v -24.162081 46.746834 19.184238
v -24.499567 39.675575 -19.104921
v -23.101183 244.650467 -0.000001
v -22.753012 249.132431 -0.308725
v -24.162081 46.746841 -19.184235
v 14.206393 46.746834 19.184235
v 12.797322 249.132431 0.308725
v 14.515968 39.675385 -19.104921
v 14.543878 39.675575 19.104921
v 12.777637 249.130463 -0.289038
v -4.669119 249.132431 -17.775167
v -24.082766 39.675575 19.521723
v -4.977844 244.650467 18.123339
v 14.103292 6.379515 -19.081137
v 14.103292 6.379515 19.081137
v -23.832918 35.577477 -18.764648
v -24.058981 6.379515 19.081137
v 13.877229 35.577477 18.764648
v -24.058981 6.379515 -19.081137
v -23.742493 35.577477 18.855074
v -23.531500 6.309775 18.553656
v -23.531500 6.309775 -18.553656
v 13.575811 6.309775 -18.553656
v 13.575811 6.309775 18.553656
v -23.710459 6.309775 18.732615
v -23.889418 7.357291 18.911573
v 13.933729 6.309775 -18.911573
v 13.754770 7.357291 -18.732615
v -23.889418 6.833533 -18.911573
v 13.933729 7.357291 18.911573
v 13.754770 6.309775 18.732615
v -23.531500 7.357291 18.553656
v 13.575811 6.309775 -18.553656
v -23.531500 7.357291 -18.553656
v -23.531500 6.309775 -18.553656
v 13.575811 7.357291 18.553656
v -23.889418 8.661293 18.911573
v -23.710459 9.708809 18.732615
v 13.933729 8.661293 -18.911573
v 13.754770 9.708809 -18.732615
v -23.710459 9.708809 -18.732615
v -23.889418 8.661293 -18.911573
v 13.754770 9.708809 18.732615
v 13.933729 8.661293 18.911573
v -23.531500 8.661293 18.553656
v 13.575811 8.661293 -18.553656
v -23.531500 8.661293 -18.553656
v 13.575811 8.661293 18.553656
v -23.889418 11.012811 18.911573
v -23.710459 12.060328 18.732615
v 13.933729 11.012811 -18.911573
v 13.754770 12.060328 -18.732615
v -23.710459 12.060328 -18.732615
v -23.889418 11.012811 -18.911573
v 13.754770 12.060328 18.732615
v 13.933729 11.012811 18.911573
v -23.531500 11.012811 18.553656
v 13.575811 11.012811 -18.553656
v -23.531500 11.012811 -18.553656
v 13.575811 11.012811 18.553656
v -23.889418 13.364328 18.911573
v -23.710459 14.411844 18.732615
v 13.933729 13.364328 -18.911573
v 13.754770 14.411844 -18.732615
v -23.710459 14.411844 -18.732615
v -23.889418 13.364328 -18.911573
v 13.754770 14.411844 18.732615
v 13.933729 13.364328 18.911573
v -23.531500 13.364328 18.553656
v 13.575811 13.364328 -18.553656
v -23.531500 13.364328 -18.553656
v 13.575811 13.364328 18.553656
v -23.710459 15.715846 18.732615
v -23.889418 16.763361 18.911573
v 13.933729 15.715846 -18.911573
v 13.754770 16.763363 -18.732615
v -23.889418 16.239605 -18.911573
v 13.933729 16.763361 18.911573
v 13.754770 15.715846 18.732615
v -23.531500 16.763361 18.553656
v 13.575811 15.715846 -18.553656
v -23.531500 16.763361 -18.553656
v -23.531500 15.715846 -18.553656
v 13.575811 16.763361 18.553656
v -23.889418 18.067364 18.911573
v -23.710459 19.114880 18.732615
v 13.933729 18.067364 -18.911573
v 13.754770 19.114880 -18.732615
v -23.710459 19.114880 -18.732615
v -23.889418 18.067364 -18.911573
v 13.754770 19.114880 18.732615
v 13.933729 18.067364 18.911573
v -23.531500 18.067364 18.553656
v 13.575811 18.067364 -18.553656
v -23.531500 18.067364 -18.553656
v 13.575811 18.067364 18.553656
v -23.889418 20.418880 18.911573
v -23.710459 21.466396 18.732615
v 13.933729 20.942638 -18.911573
v -23.889418 21.466396 -18.911573
v -23.710459 20.418880 -18.732615
v 13.754770 21.466396 18.732615
v 13.933729 20.418880 18.911573
v -23.531500 20.418880 18.553656
v 13.575811 20.418880 -18.553656
v 13.575811 21.466396 -18.553656
v -23.531500 21.466396 -18.553656
v 13.575811 20.418880 18.553656
v -23.710459 22.770399 18.732615
v -23.889418 23.817913 18.911573
v 13.933729 22.770399 -18.911573
v 13.754770 23.817913 -18.732615
v -23.889418 23.294155 -18.911573
v 13.754770 23.817913 18.732615
v 13.933729 22.770399 18.911573
v -23.531500 23.817913 18.553656
v 13.575811 22.770399 -18.553656
v -23.531500 23.817913 -18.553656
v -23.531500 22.770399 -18.553656
v 13.575811 22.770399 18.553656
v -23.889418 25.121916 18.911573
v -23.710459 26.169432 18.732615
v 13.933729 25.121916 -18.911573
v 13.754770 26.169432 -18.732615
v -23.710459 26.169432 -18.732615
v -23.889418 25.121916 -18.911573
v 13.754770 26.169432 18.732615
v 13.933729 25.121916 18.911573
v -23.531500 25.121916 18.553656
v 13.575811 25.121916 -18.553656
v -23.531500 25.121916 -18.553656
v 13.575811 25.121916 18.553656
v -23.889418 27.473433 18.911573
v -23.710459 28.520950 18.732615
v 13.933729 27.473433 -18.911573
v 13.754770 28.520950 -18.732615
v -23.710459 28.520950 -18.732615
v -23.889418 27.473433 -18.911573
v 13.754770 28.520950 18.732615
v 13.933729 27.473433 18.911573
v -23.531500 27.473433 18.553656
v 13.575811 27.473433 -18.553656
v -23.531500 27.473433 -18.553656
v 13.575811 27.473433 18.553656
v -23.889418 30.348709 18.911573
v 13.933729 29.824951 -18.911573
v 13.754770 30.872465 -18.732615
v -23.710459 30.872465 -18.732615
v -23.889418 29.824951 -18.911573
v 13.933729 30.872465 18.911573
v 13.754770 29.824951 18.732615
v -23.531500 29.824951 18.553656
v -23.531500 30.872465 18.553656
v 13.575811 29.824951 -18.553656
v -23.531500 29.824951 -18.553656
v 13.575811 30.872465 18.553656
v -23.889418 32.176468 18.911573
v -23.710459 33.223984 18.732615
v 13.754770 32.176468 -18.732615
v 13.933729 33.223984 -18.911573
v -23.710459 33.223984 -18.732615
v -23.889418 32.176468 -18.911573
v 13.933729 32.700226 18.911573
v -23.531500 32.176468 18.553656
v 13.575811 33.223984 -18.553656
v -23.531500 32.176468 -18.553656
v 13.575811 33.223984 18.553656
v 13.575811 32.176468 18.553656
v -20.974167 251.176697 0.000000
v -4.977844 251.176697 -15.996323
v 13.178335 251.176697 0.000000
v -4.977844 251.176697 -18.156179
v -23.134024 251.176697 0.000000
v 11.018478 251.176697 0.000000
v -4.977844 251.176697 18.156179
v -4.977844 251.176697 15.996323
vn 0.9861 0.1155 0.1191
vn 0.9952 0.0696 -0.0690
vn 0.9919 0.0890 -0.0901
vn 0.6404 -0.0154 -0.7679
vn 0.7049 0.0793 -0.7049
vn 0.7541 0.0059 -0.6567
vn -0.0000 -0.0062 -1.0000
vn -0.0690 0.0696 -0.9952
vn 0.0908 0.0901 -0.9918
vn -0.3535 -0.9239 -0.1464
vn 0.7071 -0.0000 -0.7071
vn 0.1464 -0.9239 0.3535
vn -0.0000 0.5116 -0.8592
vn -0.0000 0.0824 -0.9966
vn 0.8592 0.5116 -0.0000
vn 0.9966 0.0824 -0.0000
vn 0.6171 -0.0425 -0.7857
vn 0.7680 -0.0147 -0.6403
vn -0.7541 0.0059 0.6567
vn -0.6404 -0.0154 0.7679
vn -0.7049 0.0793 0.7049
vn 0.0901 0.0889 0.9919
vn -0.0000 -0.0062 1.0000
vn -0.0000 -0.0066 1.0000
vn -0.0000 -0.0000 1.0000
vn -0.8660 -0.0000 0.5000
vn -0.1464 -0.9239 -0.3535
vn 0.0976 0.9904 0.0976
vn 0.5000 0.7071 0.5000
vn 0.7071 -0.0000 0.7071
vn 0.0022 -0.2247 0.9744
vn 0.0005 -0.1138 0.9935
vn 0.0024 -0.1244 0.9922
vn -0.6403 -0.0147 -0.7680
vn -0.7049 0.0793 -0.7049
vn -0.7049 0.0795 -0.7049
vn -0.6567 0.0059 -0.7541
vn -0.7679 -0.0154 -0.6404
vn 0.6403 -0.0147 0.7680
vn 0.7049 0.0793 0.7049
vn 0.7049 0.0795 0.7049
vn -0.0000 1.0000 -0.0000
vn 0.3535 -0.9239 -0.1464
vn 0.7679 -0.0154 0.6404
vn 0.6567 0.0059 0.7541
vn 0.9744 -0.2247 -0.0022
vn 0.9935 -0.1138 -0.0005
vn 0.9922 -0.1244 -0.0024
vn 1.0000 -0.0062 -0.0000
vn 1.0000 -0.0066 -0.0000
vn -0.0000 0.5116 0.8592
vn -0.0000 0.0824 0.9966
vn -0.8592 0.5116 -0.0000
vn -0.9966 0.0824 -0.0000
vn -0.0000 -1.0000 -0.0000
vn -0.5000 -0.0000 0.8660
vn 1.0000 -0.0000 -0.0000
vn -0.9861 0.1155 -0.1191
vn -1.0000 -0.0062 -0.0000
vn -0.9918 0.0901 -0.0908
vn -0.6172 -0.0425 0.7857
vn 0.1311 0.9914 -0.0000
vn -0.1311 0.9914 -0.0000
vn -0.9744 -0.2247 0.0022
vn -0.9935 -0.1138 0.0005
vn -0.9922 -0.1244 0.0024
vn -0.1191 0.1155 0.9861
vn 0.0690 0.0696 0.9952
vn -0.7680 -0.0147 0.6403
vn -1.0000 -0.0085 0.0014
vn -0.9999 -0.0103 -0.0000
vn 0.1464 -0.9239 -0.3535
vn -0.7071 -0.0000 -0.7071
vn -0.9919 0.0889 0.0901
vn -1.0000 -0.0066 -0.0000
vn 0.9918 0.0901 0.0908
vn -0.9952 0.0696 0.0690
vn 0.0014 -0.0085 1.0000
vn -0.0000 -0.0103 0.9999
vn 0.7049 0.0795 -0.7049
vn -0.0908 0.0901 0.9918
vn -0.0901 0.0889 -0.9919
vn -0.0000 -0.0066 -1.0000
vn 0.1191 0.1155 -0.9861
vn -0.7049 0.0795 0.7049
vn -0.7857 -0.0425 -0.6172
vn -0.0000 0.9914 0.1311
vn -0.0976 0.9904 -0.0976
vn -0.5000 0.7071 -0.5000
vn -0.0000 0.9914 -0.1311
vn 0.7857 -0.0425 0.6172
vn 1.0000 -0.0085 -0.0014
vn 0.9999 -0.0103 -0.0000
vn -0.0014 -0.0085 -1.0000
vn -0.0005 -0.1138 -0.9935
vn -0.0000 -0.0103 -0.9999
vn -0.0022 -0.2247 -0.9744
vn -0.0024 -0.1244 -0.9922
vn -0.0000 -0.8493 0.5279
vn -0.0000 -0.1684 0.9857
vn 0.9867 0.1626 -0.0045
vn 0.9867 -0.1626 0.0045
vn 0.9856 -0.1692 0.0047
vn -0.5023 0.6906 -0.5203
vn 0.0023 0.1728 -0.9850
vn 0.0023 0.1688 -0.9856
vn 1.0000 -0.0031 0.0047
vn 0.9863 -0.1651 0.0001
vn 1.0000 -0.0000 0.0048
vn -0.0000 -0.1684 -0.9857
vn -0.3611 0.9325 0.0017
vn -0.3611 -0.9325 -0.0017
vn -0.9847 -0.1742 0.0047
vn 0.0001 0.1651 0.9863
vn 0.0047 0.0031 1.0000
vn -0.0000 0.1684 0.9857
vn -0.0001 -1.0000 -0.0088
vn -0.0088 1.0000 -0.0001
vn -0.5056 0.6964 -0.5094
vn -0.5094 -0.6964 -0.5056
vn -0.5203 -0.6906 -0.5023
vn -0.9847 0.1742 -0.0047
vn -0.9857 0.1684 -0.0000
vn -0.5279 0.8493 -0.0000
vn -0.0000 0.8493 0.5279
vn 0.9857 0.1684 -0.0000
vn 0.5279 0.8493 -0.0000
vn -0.0000 0.1684 -0.9857
vn -0.0000 0.8493 -0.5279
vn -0.9867 0.1626 0.0045
vn -0.9867 -0.1626 -0.0045
vn -0.9856 -0.1692 -0.0047
vn 0.5203 0.6906 -0.5023
vn 0.9850 0.1728 0.0023
vn 0.9856 0.1688 0.0023
vn 0.3611 0.9325 -0.0017
vn 0.3611 -0.9325 0.0017
vn 0.9847 -0.1742 -0.0047
vn -0.9863 0.1651 0.0001
vn -1.0000 0.0031 0.0047
vn -0.0047 -0.0031 1.0000
vn -0.0001 -0.1651 0.9863
vn -0.0048 -0.0000 1.0000
vn 0.0088 -1.0000 -0.0001
vn 0.5056 -0.6964 -0.5094
vn 0.5023 -0.6906 -0.5203
vn 0.9847 0.1742 0.0047
vn 0.0001 1.0000 -0.0088
vn 0.5094 0.6964 -0.5056
vn 0.0045 0.1626 0.9867
vn -0.0045 -0.1626 0.9867
vn -0.0047 -0.1692 0.9856
vn -0.0017 0.9325 -0.3611
vn 0.0017 -0.9325 -0.3611
vn -0.0047 -0.1742 -0.9847
vn 0.0047 0.1742 -0.9847
vn -0.5203 0.6906 0.5023
vn -0.9850 0.1728 -0.0023
vn -0.9856 0.1688 -0.0023
vn 0.9863 0.1651 -0.0001
vn 1.0000 0.0031 -0.0047
vn 0.0047 -0.0031 -1.0000
vn 0.0001 -0.1651 -0.9863
vn 0.0048 -0.0000 -1.0000
vn -0.0001 1.0000 0.0088
vn -0.5094 0.6964 0.5056
vn -0.0088 -1.0000 0.0001
vn -0.5056 -0.6964 0.5094
vn -0.5023 -0.6906 0.5203
vn 0.5023 0.6906 0.5203
vn -0.0023 0.1728 0.9850
vn -0.0023 0.1688 0.9856
vn -0.0045 0.1626 -0.9867
vn 0.0045 -0.1626 -0.9867
vn 0.0047 -0.1692 -0.9856
vn -0.0001 0.1651 -0.9863
vn -0.0047 0.0031 -1.0000
vn -1.0000 -0.0031 -0.0047
vn -0.9863 -0.1651 -0.0001
vn -1.0000 -0.0000 -0.0048
vn 0.0017 0.9325 0.3611
vn -0.0017 -0.9325 0.3611
vn 0.0047 -0.1742 0.9847
vn 0.0001 -1.0000 0.0088
vn 0.5094 -0.6964 0.5056
vn 0.5203 -0.6906 0.5023
vn -0.0047 0.1742 0.9847
vn 0.0088 1.0000 0.0001
vn 0.5056 0.6964 0.5094
vn -0.4264 0.9045 -0.0000
vn 0.0328 0.9989 0.0328
vn 0.4264 0.9045 -0.0000
vn -1.0000 -0.0000 -0.0000
vn -0.0000 -0.0000 -1.0000
vn -0.0328 0.9989 -0.0328
vn -0.9972 -0.0000 0.0747
vn 0.9972 -0.0000 -0.0747
vn -0.0000 -0.2027 0.9792
vn 0.9792 -0.2027 -0.0000
vn -0.7071 -0.0000 0.7071
vn -0.9792 -0.2027 -0.0000
vn -0.0000 -0.2027 -0.9792
vn -0.9850 -0.1728 0.0023
vn -0.9856 -0.1688 0.0023
vn 0.9856 0.1692 -0.0047
vn 0.9857 -0.1684 -0.0000
vn 0.0048 -0.0000 1.0000
vn -0.9856 0.1692 0.0047
vn -0.0023 -0.1728 -0.9850
vn -0.0023 -0.1688 -0.9856
vn -1.0000 -0.0000 0.0048
vn 0.0047 0.1692 0.9856
vn 0.0023 -0.1728 0.9850
vn 0.0023 -0.1688 0.9856
vn 1.0000 -0.0000 -0.0048
vn 0.9850 -0.1728 -0.0023
vn 0.9856 -0.1688 -0.0023
vn -0.0047 0.1692 -0.9856
vn -0.0048 -0.0000 -1.0000
vn -0.9857 -0.1684 -0.0000
vt 1.184816 1.184816
vt -0.167225 1.200844
vt -0.184816 1.184816
vt 1.319463 11.187104
vt 1.384527 1.762827
vt 0.506126 11.187104
vt 0.500000 10.979140
vt 1.389634 1.434351
vt -0.389634 1.434351
vt 1.134091 0.500000
vt 0.500000 -0.134091
vt -0.574222 -1.031908
vt 1.574222 -1.231306
vt -0.574222 -1.231306
vt 1.574222 -1.031908
vt 1.134091 8.532143
vt 0.510782 8.515947
vt 0.500000 8.532143
vt 1.169995 1.447781
vt 1.122847 8.516154
vt 0.493874 11.187104
vt -0.319462 11.187104
vt -0.384527 1.762827
vt 0.500000 8.359436
vt 1.574222 0.917138
vt -0.058660 8.411514
vt 0.500000 8.411514
vt 1.573170 1.636423
vt -0.573170 1.437221
vt 1.573170 1.437221
vt -0.134091 8.532143
vt -0.169995 1.447781
vt 0.500000 1.134091
vt -0.574222 0.717740
vt 1.574222 0.717740
vt 1.573170 -0.310714
vt -0.573170 -0.509916
vt 1.573170 -0.509916
vt -0.573170 -0.310714
vt -0.573170 1.636423
vt -0.574222 0.917138
vt -0.169995 1.447781
vt -0.122847 8.516154
vt 1.573170 -0.164585
vt -0.573170 -0.164585
vt -0.574222 -0.885637
vt 1.574222 -0.885637
vt 0.489218 8.515947
vt -0.134091 0.500000
vt 1.167225 1.200844
vt 1.136831 -2.916247
vt 0.500000 3.916247
vt -0.136831 -2.916247
vt 1.573169 -0.164585
vt 0.500000 12.171443
vt 0.500000 12.442355
vt 1.546628 0.942279
vt -0.122847 8.516154
vt -0.574222 -0.885637
vt 1.058660 0.500000
vt -0.058660 0.500000
vt 0.500000 -0.058660
vt -0.546628 0.942279
vt -0.169995 1.447781
vt 1.058660 8.411514
vt 1.574222 -0.885637
vt 1.122847 8.516154
vt -0.573170 -0.107255
vt -0.574222 -0.828250
vt -0.574222 -0.856943
vt 1.574222 -0.828250
vt 1.573170 -0.107255
vt 1.573170 -0.107255
vt 1.573170 -0.135920
vt -0.574222 -0.856943
vt 1.573170 -0.135920
vt 1.574222 -0.856943
vt -0.574222 -0.828250
vt -0.574222 -0.856943
vt 1.573170 -0.135920
vt -0.573170 -0.135920
vt 1.573169 -0.135920
vt -0.574222 -0.856943
vt 1.033211 0.500000
vt 0.500000 1.105206
vt 0.500000 1.033211
vt -0.033211 0.500000
vt -0.105206 0.500000
vt 0.500000 -0.105206
vt -0.105206 0.473658
vt 0.500000 0.526343
vt 0.500000 0.473658
vt -0.105206 0.526343
vt 1.033211 0.526343
vt 1.033211 0.473658
vt 1.105206 0.526343
vt 1.105206 0.473658
vt -0.033211 0.526343
vt -0.033211 0.473658
vt 0.489906 8.515879
vt 0.500000 1.058660
vt 0.510094 8.515879
vt 1.105206 0.500000
vt 0.500000 -0.033211
s 1
usemtl GT_MC_Tiling_Dark_Concrete_Slab
f 28/1/1 49/2/2 27/3/3
f 18/10/10 24/11/11 29/10/12
f 59/12/13 13/13/14 8/14/14
f 54/15/15 11/14/16 13/13/16
f 29/16/17 51/17/6 26/18/18
f 29/16/17 36/19/5 50/20/4
f 22/3/22 53/24/23 24/18/24
f 12/13/25 28/25/26 27/13/27
f 10/26/28 19/27/29 210/18/30
f 12/28/31 60/29/32 58/30/33
f 25/31/34 45/32/35 23/3/36
f 29/16/39 46/19/40 27/1/41
f 7/14/42 27/13/27 22/14/43
f 17/33/42 29/10/12 26/33/43
f 14/25/46 58/34/47 3/35/48
f 27/3/3 35/24/49 29/18/50
f 55/36/51 6/37/52 11/38/52
f 57/39/53 8/38/54 6/37/54
f 11/38/55 8/40/55 13/28/55
f 14/25/56 23/41/57 28/25/26
f 22/3/58 43/24/59 32/2/60
f 25/31/61 41/42/21 31/43/20
f 7/40/64 56/30/65 60/29/66
f 27/1/67 52/2/68 22/3/22
f 25/31/61 40/48/19 24/18/69
f 15/11/72 25/49/73 24/11/11
f 23/1/74 43/24/59 25/18/75
f 28/1/1 35/24/49 48/50/76
f 26/16/18 36/19/5 28/1/80
f 27/1/67 53/24/23 37/50/81
f 28/25/82 38/55/7 26/56/83
f 23/41/84 30/57/8 28/25/82
f 24/31/69 41/42/21 22/3/85
f 26/18/86 44/58/37 25/31/34
f 26/16/86 45/19/35 33/20/38
f 21/60/88 10/61/28 20/62/89
f 23/41/84 38/55/7 39/63/9
f 24/31/91 46/64/40 34/43/44
f 21/65/88 20/27/89 216/18/73
f 16/49/42 26/33/43 25/49/73
f 9/41/42 22/14/43 23/41/57
f 24/18/91 47/67/45 29/16/39
f 9/41/97 3/35/95 56/34/98
f 22/3/58 42/50/77 23/1/74
f 214/84/190 212/85/42 210/86/191
f 209/87/192 213/88/42 215/89/42
f 16/90/193 212/91/194 17/92/194
f 15/92/25 213/93/193 16/90/193
f 216/91/195 214/94/190 21/95/196
f 17/92/194 211/96/57 18/97/57
f 18/97/57 215/91/25 15/92/25
f 210/91/191 209/98/192 10/99/197
f 28/1/1 48/50/76 49/2/2
f 18/10/10 15/11/72 24/11/11
f 59/12/13 54/15/13 13/13/14
f 54/15/15 55/12/15 11/14/16
f 29/16/17 50/20/4 51/17/6
f 29/16/17 28/1/80 36/19/5
f 22/3/22 52/2/68 53/24/23
f 12/13/25 14/25/56 28/25/26
f 12/28/31 7/40/198 60/29/32
f 25/31/34 44/58/37 45/32/35
f 29/16/39 47/67/45 46/19/40
f 7/14/42 12/13/25 27/13/27
f 17/33/42 18/10/10 29/10/12
f 14/25/46 12/41/199 58/34/47
f 27/3/3 49/2/2 35/24/49
f 55/36/51 57/39/51 6/37/52
f 57/39/53 59/36/53 8/38/54
f 11/38/55 6/37/55 8/40/55
f 14/25/56 9/41/42 23/41/57
f 22/3/58 25/18/75 43/24/59
f 25/31/61 22/3/85 41/42/21
f 210/18/200 19/27/200 21/65/196
f 7/40/64 9/28/201 56/30/65
f 27/1/67 37/50/81 52/2/68
f 25/31/61 31/43/20 40/48/19
f 15/11/72 16/49/42 25/49/73
f 23/1/74 42/50/77 43/24/59
f 28/1/1 29/18/50 35/24/49
f 26/16/18 51/67/6 36/19/5
f 216/18/11 20/27/11 10/26/197
f 27/1/67 24/18/24 53/24/23
f 28/25/82 30/57/8 38/55/7
f 23/41/84 39/63/9 30/57/8
f 24/31/69 40/58/19 41/42/21
f 26/18/86 33/100/38 44/58/37
f 26/16/86 23/1/36 45/19/35
f 21/60/88 19/101/29 10/61/28
f 23/41/84 26/56/83 38/55/7
f 24/31/91 27/3/41 46/64/40
f 16/49/42 17/33/42 26/33/43
f 10/99/197 209/98/192 216/91/11
f 9/41/42 7/14/42 22/14/43
f 24/18/91 34/102/44 47/67/45
f 9/41/97 14/25/202 3/35/95
f 22/3/58 32/2/60 42/50/77
f 21/95/196 214/94/190 210/91/200
f 214/84/190 211/103/42 212/85/42
f 211/103/42 214/84/190 216/104/195
f 209/87/192 210/86/191 212/85/42
f 215/89/42 211/103/42 216/104/195
f 209/87/192 212/85/42 213/88/42
f 215/89/42 216/104/195 209/87/192
f 16/90/193 213/93/193 212/91/194
f 15/92/25 215/91/25 213/93/193
f 17/92/194 212/91/194 211/96/57
f 18/97/57 211/96/57 215/91/25
usemtl GT_MC_Glass_Facade_2
f 62/44/62 57/39/53 61/45/62
f 64/46/63 54/15/15 63/47/63
f 1/45/70 56/30/65 4/44/71
f 48/51/76 35/52/49 49/53/2
f 42/8/77 32/9/60 43/7/59
f 5/54/78 60/29/32 1/45/79
f 63/47/87 59/12/13 62/59/87
f 61/45/90 55/36/51 64/54/90
f 2/66/92 58/34/47 5/46/93
f 4/59/94 3/35/95 2/66/96
f 5/54/42 61/45/57 64/54/25
f 4/59/42 63/47/57 62/59/25
f 2/66/42 64/46/25 63/47/57
f 1/45/42 62/44/25 61/45/57
f 62/44/62 59/36/53 57/39/53
f 64/46/63 55/12/15 54/15/15
f 1/45/70 60/29/66 56/30/65
f 5/54/78 58/30/33 60/29/32
f 63/47/87 54/15/13 59/12/13
f 61/45/90 57/39/51 55/36/51
f 2/66/92 3/35/48 58/34/47
f 4/59/94 56/34/98 3/35/95
f 5/54/42 1/45/42 61/45/57
f 4/59/42 2/66/42 63/47/57
f 2/66/42 5/46/42 64/46/25
f 1/45/42 4/44/42 62/44/25
usemtl GT_MC_Tiling_Grey_Concrete_Slab
f 71/54/99 66/68/100 65/45/99
f 67/66/101 70/69/102 71/46/103
f 69/70/104 68/71/105 67/66/106
f 74/72/107 65/45/108 75/44/109
f 72/68/110 71/54/99 65/45/99
f 76/69/111 73/66/112 71/46/113
f 68/71/114 75/59/115 73/66/116
f 71/46/113 73/66/112 67/66/117
f 70/73/42 72/68/42 66/68/118
f 66/68/118 74/72/119 69/74/104
f 67/66/117 75/59/120 69/70/121
f 68/71/122 76/69/111 70/69/42
f 77/45/123 81/72/124 82/44/123
f 84/54/116 78/68/125 77/45/116
f 79/66/126 83/69/127 84/46/126
f 82/59/128 80/71/129 79/66/128
f 81/72/124 85/45/126 87/44/126
f 78/68/125 88/54/128 85/45/128
f 83/69/127 86/66/123 88/46/123
f 80/71/129 87/59/116 86/66/116
f 84/46/55 86/66/55 79/66/55
f 82/44/55 85/45/55 77/45/55
f 77/45/55 88/54/55 84/54/55
f 79/66/55 87/59/55 82/59/55
f 89/45/123 93/72/124 94/44/123
f 96/54/116 90/68/125 89/45/116
f 91/66/126 95/69/127 96/46/126
f 94/59/128 92/71/129 91/66/128
f 93/72/124 97/45/126 99/44/126
f 90/68/125 100/54/128 97/45/128
f 95/69/127 98/66/123 100/46/123
f 92/71/129 99/59/116 98/66/116
f 96/46/55 98/66/55 91/66/55
f 94/44/55 97/45/55 89/45/55
f 89/45/55 100/54/55 96/54/55
f 91/66/55 99/59/55 94/59/55
f 101/45/123 105/72/124 106/44/123
f 108/54/116 102/68/125 101/45/116
f 103/66/126 107/69/127 108/46/126
f 106/59/128 104/71/129 103/66/128
f 105/72/124 109/45/126 111/44/126
f 102/68/125 112/54/128 109/45/128
f 107/69/127 110/66/123 112/46/123
f 104/71/129 111/59/116 110/66/116
f 108/46/55 110/66/55 103/66/55
f 106/44/55 109/45/55 101/45/55
f 101/45/55 112/54/55 108/54/55
f 103/66/55 111/59/55 106/59/55
f 119/54/99 114/68/100 113/45/99
f 115/66/101 118/69/102 119/46/103
f 117/75/104 116/71/105 115/66/106
f 122/72/107 113/45/108 123/44/109
f 120/68/110 119/54/99 113/45/99
f 124/69/111 121/66/112 119/46/113
f 116/71/114 123/59/115 121/66/116
f 119/46/113 121/66/112 115/66/117
f 118/73/42 120/68/42 114/68/118
f 114/68/118 122/72/119 117/76/104
f 115/66/117 123/59/120 117/75/121
f 116/71/122 124/69/111 118/69/42
f 125/45/123 129/72/124 130/44/123
f 132/54/116 126/68/125 125/45/116
f 127/66/126 131/69/127 132/46/126
f 130/59/128 128/71/129 127/66/128
f 129/72/124 133/45/126 135/44/126
f 126/68/125 136/54/128 133/45/128
f 131/69/127 134/66/123 136/46/123
f 128/71/129 135/59/116 134/66/116
f 132/46/55 134/66/55 127/66/55
f 130/44/55 133/45/55 125/45/55
f 125/45/55 136/54/55 132/54/55
f 127/66/55 135/59/55 130/59/55
f 137/45/130 140/72/131 141/44/132
f 143/54/116 138/68/125 137/45/116
f 139/77/133 142/69/134 143/46/135
f 147/72/136 144/45/137 141/44/138
f 138/68/125 148/54/128 144/45/128
f 142/69/139 145/66/140 148/46/123
f 146/71/141 141/59/142 145/66/143
f 143/46/144 145/66/145 139/77/146
f 141/44/138 144/45/137 137/45/55
f 137/45/55 148/54/55 143/54/144
f 138/68/147 147/72/136 140/72/148
f 140/78/148 146/71/149 139/77/133
f 155/54/150 150/68/151 149/45/152
f 151/66/126 154/69/127 155/46/126
f 153/79/104 152/71/105 151/66/106
f 158/72/107 149/45/108 159/44/109
f 156/68/153 160/54/154 149/45/155
f 154/69/127 157/66/123 160/46/123
f 152/71/114 159/59/115 157/66/116
f 155/46/55 157/66/55 151/66/117
f 154/73/156 156/68/153 150/68/118
f 149/45/155 160/54/154 155/54/55
f 150/68/118 158/72/119 153/80/104
f 151/66/117 159/59/120 153/79/121
f 161/45/123 165/72/124 166/44/123
f 168/54/116 162/68/125 161/45/116
f 163/66/126 167/69/127 168/46/126
f 166/59/128 164/71/129 163/66/128
f 165/72/124 169/45/126 171/44/126
f 162/68/125 172/54/128 169/45/128
f 167/69/127 170/66/123 172/46/123
f 164/71/129 171/59/116 170/66/116
f 168/46/55 170/66/55 163/66/55
f 166/44/55 169/45/55 161/45/55
f 161/45/55 172/54/55 168/54/55
f 163/66/55 171/59/55 166/59/55
f 173/45/123 177/72/124 178/44/123
f 180/54/116 174/68/125 173/45/116
f 175/66/126 179/69/127 180/46/126
f 178/59/128 176/71/129 175/66/128
f 177/72/124 181/45/126 183/44/126
f 174/68/125 184/54/128 181/45/128
f 179/69/127 182/66/123 184/46/123
f 176/71/129 183/59/116 182/66/116
f 180/46/55 182/66/55 175/66/55
f 178/44/55 181/45/55 173/45/55
f 173/45/55 184/54/55 180/54/55
f 175/66/55 183/59/55 178/59/55
f 185/81/157 188/72/158 189/44/159
f 186/66/101 190/69/102 191/46/103
f 189/59/128 187/71/129 186/66/128
f 188/72/160 192/45/161 195/44/126
f 193/68/162 191/54/163 192/45/164
f 196/69/111 194/66/112 191/46/113
f 187/71/129 195/59/116 194/66/116
f 191/46/113 194/66/112 186/66/55
f 190/73/165 193/68/166 185/81/157
f 189/44/167 192/45/168 185/81/169
f 186/66/55 195/59/55 189/59/167
f 187/71/122 196/69/111 190/69/165
f 197/45/123 201/72/124 202/44/123
f 203/82/170 198/68/171 197/45/172
f 202/59/173 200/71/174 199/66/175
f 201/72/124 204/45/126 206/44/126
f 198/68/176 208/54/177 204/45/128
f 207/69/178 199/66/179 208/46/180
f 205/71/181 206/59/182 199/66/183
f 202/44/55 204/45/55 197/45/184
f 197/45/184 208/54/185 203/82/186
f 199/66/183 206/59/182 202/59/55
f 201/78/187 205/71/181 200/71/188
f 200/71/188 207/69/189 203/83/170
f 65/45/203 66/68/204 69/74/121
f 71/54/99 70/73/100 66/68/100
f 67/66/101 68/71/205 70/69/102
f 74/72/107 72/68/206 65/45/108
f 72/68/110 76/73/110 71/54/99
f 76/69/111 68/71/122 73/66/112
f 68/71/114 74/78/207 75/59/115
f 70/73/42 76/73/111 72/68/42
f 69/74/121 75/44/120 65/45/203
f 66/68/118 72/68/42 74/72/119
f 67/66/117 73/66/112 75/59/120
f 69/70/104 74/78/119 68/71/105
f 77/45/123 78/68/124 81/72/124
f 84/54/116 83/73/125 78/68/125
f 79/66/126 80/71/127 83/69/127
f 82/59/128 81/78/129 80/71/129
f 81/72/124 78/68/124 85/45/126
f 78/68/125 83/73/125 88/54/128
f 83/69/127 80/71/127 86/66/123
f 80/71/129 81/78/129 87/59/116
f 84/46/55 88/46/55 86/66/55
f 82/44/55 87/44/55 85/45/55
f 77/45/55 85/45/55 88/54/55
f 79/66/55 86/66/55 87/59/55
f 89/45/123 90/68/124 93/72/124
f 96/54/116 95/73/125 90/68/125
f 91/66/126 92/71/127 95/69/127
f 94/59/128 93/78/129 92/71/129
f 93/72/124 90/68/124 97/45/126
f 90/68/125 95/73/125 100/54/128
f 95/69/127 92/71/127 98/66/123
f 92/71/129 93/78/129 99/59/116
f 96/46/55 100/46/55 98/66/55
f 94/44/55 99/44/55 97/45/55
f 89/45/55 97/45/55 100/54/55
f 91/66/55 98/66/55 99/59/55
f 101/45/123 102/68/124 105/72/124
f 108/54/116 107/73/125 102/68/125
f 103/66/126 104/71/127 107/69/127
f 106/59/128 105/78/129 104/71/129
f 105/72/124 102/68/124 109/45/126
f 102/68/125 107/73/125 112/54/128
f 107/69/127 104/71/127 110/66/123
f 104/71/129 105/78/129 111/59/116
f 108/46/55 112/46/55 110/66/55
f 106/44/55 111/44/55 109/45/55
f 101/45/55 109/45/55 112/54/55
f 103/66/55 110/66/55 111/59/55
f 113/45/203 114/68/204 117/76/121
f 119/54/99 118/73/100 114/68/100
f 115/66/101 116/71/205 118/69/102
f 122/72/107 120/68/206 113/45/108
f 120/68/110 124/73/110 119/54/99
f 124/69/111 116/71/122 121/66/112
f 116/71/114 122/78/207 123/59/115
f 118/73/42 124/73/111 120/68/42
f 117/76/121 123/44/120 113/45/203
f 114/68/118 120/68/42 122/72/119
f 115/66/117 121/66/112 123/59/120
f 117/75/104 122/78/119 116/71/105
f 125/45/123 126/68/124 129/72/124
f 132/54/116 131/73/125 126/68/125
f 127/66/126 128/71/127 131/69/127
f 130/59/128 129/78/129 128/71/129
f 129/72/124 126/68/124 133/45/126
f 126/68/125 131/73/125 136/54/128
f 131/69/127 128/71/127 134/66/123
f 128/71/129 129/78/129 135/59/116
f 132/46/55 136/46/55 134/66/55
f 130/44/55 135/44/55 133/45/55
f 125/45/55 133/45/55 136/54/55
f 127/66/55 134/66/55 135/59/55
f 137/45/130 138/68/208 140/72/131
f 143/54/116 142/73/125 138/68/125
f 141/59/209 140/78/210 139/77/146
f 147/72/136 138/68/147 144/45/137
f 138/68/125 142/73/125 148/54/128
f 142/69/139 146/71/211 145/66/140
f 146/71/141 147/78/100 141/59/142
f 143/46/144 148/46/55 145/66/145
f 137/45/55 144/45/137 148/54/55
f 139/77/146 145/66/145 141/59/209
f 140/78/148 147/78/136 146/71/149
f 139/77/133 146/71/149 142/69/134
f 149/45/203 150/68/204 153/80/121
f 155/54/150 154/73/212 150/68/151
f 151/66/126 152/71/127 154/69/127
f 158/72/107 156/68/206 149/45/108
f 156/68/153 154/73/156 160/54/154
f 154/69/127 152/71/127 157/66/123
f 152/71/114 158/78/207 159/59/115
f 155/46/55 160/46/154 157/66/55
f 153/80/121 159/44/120 149/45/203
f 150/68/118 156/68/153 158/72/119
f 151/66/117 157/66/55 159/59/120
f 153/79/104 158/78/119 152/71/105
f 161/45/123 162/68/124 165/72/124
f 168/54/116 167/73/125 162/68/125
f 163/66/126 164/71/127 167/69/127
f 166/59/128 165/78/129 164/71/129
f 165/72/124 162/68/124 169/45/126
f 162/68/125 167/73/125 172/54/128
f 167/69/127 164/71/127 170/66/123
f 164/71/129 165/78/129 171/59/116
f 168/46/55 172/46/55 170/66/55
f 166/44/55 171/44/55 169/45/55
f 161/45/55 169/45/55 172/54/55
f 163/66/55 170/66/55 171/59/55
f 173/45/123 174/68/124 177/72/124
f 180/54/116 179/73/125 174/68/125
f 175/66/126 176/71/127 179/69/127
f 178/59/128 177/78/129 176/71/129
f 177/72/124 174/68/124 181/45/126
f 174/68/125 179/73/125 184/54/128
f 179/69/127 176/71/127 182/66/123
f 176/71/129 177/78/129 183/59/116
f 180/46/55 184/46/55 182/66/55
f 178/44/55 183/44/55 181/45/55
f 173/45/55 181/45/55 184/54/55
f 175/66/55 182/66/55 183/59/55
f 191/54/213 190/73/214 185/81/169
f 186/66/101 187/71/205 190/69/102
f 189/59/128 188/78/129 187/71/129
f 188/72/160 193/68/215 192/45/161
f 193/68/162 196/73/110 191/54/163
f 196/69/111 187/71/122 194/66/112
f 187/71/129 188/78/129 195/59/116
f 190/73/165 196/73/111 193/68/166
f 189/44/167 195/44/55 192/45/168
f 185/81/169 192/45/168 191/54/213
f 185/81/157 193/68/166 188/72/158
f 186/66/55 194/66/112 195/59/55
f 197/45/123 198/68/124 201/72/124
f 199/66/216 200/71/217 203/83/186
f 202/59/173 201/78/218 200/71/174
f 201/72/124 198/68/124 204/45/126
f 198/68/176 207/73/219 208/54/177
f 207/69/178 205/71/220 199/66/179
f 205/71/181 201/78/187 206/59/182
f 203/83/186 208/46/185 199/66/216
f 203/82/170 207/73/189 198/68/171
f 202/44/55 206/44/182 204/45/55
f 197/45/184 204/45/55 208/54/185
f 200/71/188 205/71/181 207/69/189
usemtl GT_MC_Glass_Facade_3
f 50/4/4 36/5/5 51/6/6
f 38/7/7 30/8/8 39/9/9
f 40/21/19 31/22/20 41/23/21
f 44/6/37 33/4/38 45/5/35
f 34/22/44 46/23/40 47/21/45
f 52/9/68 37/8/81 53/7/23
