# Blender 5.1.0
# www.blender.org
mtllib building05.mtl
o GT_MC_Large_Building.005
v -11.648942 4.834873 13.847402
v -11.600231 4.831061 -12.075794
v -11.524154 14.469816 -10.357182
v 12.605896 13.151356 -11.963899
v -10.376583 19.567255 -11.977652
v 12.769106 19.516022 -11.951012
v 14.141712 4.813924 -5.696354
v 13.882612 7.676786 -6.848534
v 14.061625 9.937929 -6.743167
v 13.931571 11.987756 -6.843361
v 13.990207 14.679578 -6.782106
v 14.049487 17.332035 -6.820002
v 14.116867 19.585129 -6.752704
v 13.878615 21.512724 -6.802225
v 14.092772 24.386312 -6.719613
v -5.698386 5.096364 13.901886
v -4.963760 12.660276 12.390571
v -4.616379 14.752680 12.712733
v -4.623652 21.576580 12.803331
v -4.512266 23.511166 12.823367
v -11.975266 28.285809 14.103535
v -5.685870 28.285809 12.867107
v 14.210854 26.910812 -5.714189
v 13.288454 28.285809 -6.107220
v 13.288454 28.285809 -11.160186
v -10.738839 28.285809 -11.160186
v -5.572565 26.835564 13.888017
v -5.666931 4.800854 12.912838
v 13.334186 4.800855 -11.205915
v -11.739871 28.164288 -12.103971
v -10.784569 4.800854 12.912838
v 13.334186 4.800855 -6.088275
v -10.784569 4.800855 -11.205915
v 13.074432 24.018913 -5.019716
v 13.273232 22.036791 -4.966479
v 13.127871 16.937244 -4.953206
v -4.507340 16.469582 12.807040
v 13.239749 14.912034 -4.952694
v -4.554293 12.158827 12.839835
v 13.304192 8.302258 -4.960246
v 13.107933 12.241534 -5.085983
v 12.935648 7.141987 -5.222689
v -4.632298 7.101176 12.934488
v 13.859753 24.202929 -10.978955
v 14.113904 21.169678 -11.035931
v 13.929026 19.251423 -11.030088
v 13.922500 17.192467 -10.931241
v 14.033957 14.149223 -11.097024
v 13.897487 12.327131 -10.981106
v 14.077934 8.574722 -11.092753
v -10.126480 9.720480 -11.955159
v 14.194384 4.820899 -12.016020
v -11.556652 10.025734 11.874764
v -11.634317 26.785330 13.840999
v 14.341932 28.140270 -12.197309
v 14.524881 28.285809 -5.595075
v -5.173725 28.285809 14.103535
v -10.738839 28.285809 12.867107
v -11.646773 28.092112 -12.043870
v -11.529372 34.343472 -10.464433
v 14.203631 28.060896 -12.076999
v 12.957708 32.399902 -11.942398
v 12.563786 38.973919 -11.974860
v -10.219331 40.810112 -11.952787
v 12.665532 44.223026 -11.966371
v -10.420810 45.543045 -11.964167
v 14.138079 28.079731 -5.696773
v 13.883355 30.932873 -6.858483
v 13.894516 33.214619 -6.806857
v 13.889822 35.565742 -6.787174
v 14.129203 38.146236 -6.775091
v 13.928463 40.183796 -6.747090
v 13.943913 42.384018 -6.834403
v 13.877317 44.983395 -6.845210
v -5.684723 28.260252 13.907611
v -4.963760 35.919926 12.390571
v -4.963760 38.259445 12.390571
v -4.506120 39.727898 12.802178
v -4.621568 44.835911 12.801974
v -4.514196 46.754036 12.828813
v -5.685869 51.545452 12.867107
v 14.359208 51.440838 -5.755958
v 13.288454 51.545452 -6.107220
v 13.288454 51.545452 -11.160186
v -5.563302 50.005978 13.887218
v -5.173724 51.545452 14.103535
v -5.666931 28.060507 12.912838
v 13.334185 28.060507 -11.205915
v -11.727452 51.332970 -12.150292
v -10.784569 28.060507 -11.205915
v -10.738839 51.545452 12.867107
v 13.334185 28.060507 -6.088274
v -10.784569 28.060507 12.912838
v 13.108209 47.145287 -5.039715
v 13.273352 45.296551 -4.966623
v 13.136065 40.208328 -4.956931
v 13.136926 37.920822 -5.046950
v -4.543084 35.419582 12.829821
v 13.304192 31.561909 -4.960246
v 13.095696 35.536301 -5.064502
v 12.948459 30.420116 -5.210987
v -4.627946 30.361284 12.930746
v -4.412179 37.991497 12.942170
v 13.840793 47.400967 -6.823649
v 14.125307 47.507587 -11.222602
v 14.096228 45.283405 -11.031547
v 14.029508 42.093098 -11.003638
v 14.127621 39.755497 -11.035573
v 13.930119 37.781487 -11.023806
v 14.109824 35.773922 -11.052306
v 14.112793 33.435799 -11.078435
v 14.088724 31.228971 -11.035758
v -10.281905 33.463234 -11.957627
v -11.568353 37.000942 12.617148
v -11.657186 51.408653 13.891814
v -10.738839 51.545452 -11.160186
v 14.328763 51.355812 -12.158694
v -11.642686 28.108807 13.870966
v -11.631548 51.352200 13.836230
v -11.611551 51.341145 -12.068031
v -11.524666 64.822334 -10.645207
v 14.169364 51.344860 -12.032907
v 12.920420 55.541508 -11.978749
v 12.805595 58.640076 -11.919609
v -10.412223 57.659702 -11.940760
v -10.343116 67.057404 -11.924864
v 12.778982 66.676498 -11.941094
v 14.193134 51.332470 -5.717305
v 13.885989 54.174381 -6.846724
v 13.995739 56.279152 -6.789675
v 13.896317 58.897400 -6.798805
v 13.962357 61.055157 -6.808051
v 13.890060 63.303429 -6.803837
v 13.913882 65.839348 -6.766923
v 14.095756 67.682747 -6.771329
v -5.650708 51.530510 13.923404
v -4.562897 59.005360 12.821959
v -4.963760 61.519093 12.390571
v -4.483387 63.196846 12.903296
v -4.639983 65.644386 12.654253
v -4.791970 70.873627 12.519839
v -5.685869 74.805107 12.867107
v 13.288454 74.805107 -6.107220
v 13.288454 74.805107 -11.160186
v -10.738839 74.805107 -11.160186
v -5.347949 73.577873 13.852240
v -5.173724 74.805107 14.103535
v -5.666931 51.320152 12.912838
v 13.334185 51.320152 -11.205915
v -11.975266 74.805107 -12.396612
v -10.784569 51.320152 -11.205915
v 13.334185 51.320152 -6.088274
v -10.784569 51.320152 12.912838
v 13.309949 70.900352 -4.999244
v -4.555370 70.245163 12.836809
v 14.144396 73.147614 -5.719520
v 13.112517 65.355301 -4.864590
v 13.143364 63.464035 -5.057766
v 13.147521 61.183151 -5.056099
v 13.105797 58.803188 -5.069354
v 13.055756 53.872353 -5.097991
v -4.635872 53.769386 12.970667
v -4.410080 61.255928 12.949024
v -4.405517 56.142014 12.760912
v 13.107512 56.373619 -5.068386
v 14.144102 73.170959 -12.078055
v 13.913219 68.089775 -11.014901
v 14.077553 66.219643 -11.062093
v 14.127628 63.014973 -11.035993
v 14.059079 60.803154 -11.131359
v 14.072316 57.305347 -11.337962
v 14.100228 54.502808 -11.036878
v -11.640016 73.242744 -12.042874
v -11.598588 65.580795 12.317416
v -11.539213 74.549217 13.900526
v 14.524881 74.805107 -12.396612
v 14.524881 74.805107 -5.595075
v -10.738839 74.805107 12.867107
v -11.652634 97.836540 13.871229
v -11.611007 74.592468 -12.072227
v -11.519855 83.290497 -10.273957
v 14.161108 74.656189 -12.028485
v -10.438006 77.981056 -11.978144
v 12.386771 85.586624 -11.952098
v 14.033112 79.640984 -6.813197
v 14.087234 81.574944 -6.757722
v 13.874233 84.491096 -6.861030
v 13.960807 86.677666 -6.780303
v 13.898983 88.893723 -6.839441
v -5.597431 74.809441 13.875878
v -4.636088 77.380608 12.711165
v -4.608827 83.562515 12.836884
v -4.963760 89.457794 12.390572
v -4.654085 91.410439 12.733300
v -5.685870 98.064758 12.867107
v 13.288454 98.064758 -6.107220
v 13.288454 98.064758 -11.160186
v -10.738839 98.064758 -11.160186
v -5.666931 74.579811 12.912838
v 13.334185 74.579819 -11.205915
v -11.975266 98.064758 -12.396612
v -10.784569 74.579819 -11.205915
v -10.784569 74.579811 12.912838
v 13.334185 74.579819 -6.088274
v 13.364958 94.027946 -5.014467
v -4.658497 93.894127 12.692022
v 14.209410 96.533737 -5.755343
v 13.329152 91.679512 -4.985425
v 13.076439 89.038712 -5.058851
v 13.217705 87.107040 -4.967758
v -4.503359 88.940483 12.757767
v 13.102159 84.225113 -5.087122
v 13.250042 77.777626 -4.936170
v 13.193892 82.427490 -4.965480
v -4.527888 79.235733 12.846471
v 13.140943 79.620636 -5.071668
v 14.172906 96.363678 -12.043055
v 13.647565 94.144112 -6.842944
v 14.089105 94.149277 -11.043792
v 14.136779 93.050064 -6.708842
v 13.975521 89.278305 -10.973982
v 14.115024 86.984940 -11.019121
v 14.084006 84.789368 -11.008419
v 13.913694 81.991760 -11.041816
v 14.087149 80.113960 -11.031288
v 12.940482 77.183304 -11.927802
v -9.984754 87.014877 -11.949984
v -11.635370 96.276154 -12.014167
v -11.581808 86.521530 12.373742
v 14.524881 98.064758 -12.396612
v 14.524881 98.064758 -5.595075
v -5.464603 97.857628 14.002522
v -10.738839 98.064758 12.867107
v 14.160379 74.596321 -5.724463
v -11.628301 74.608368 13.825031
v -11.579907 97.892502 -12.023857
v -11.558101 114.335869 -10.666994
v 14.186637 97.888420 -12.043674
v 12.802535 107.181183 -11.957862
v 12.685473 111.974464 -11.954257
v 14.168983 97.851234 -5.719484
v 13.880393 100.735893 -6.839625
v 14.062447 102.972595 -6.752492
v 13.939715 105.126038 -6.837707
v 13.909641 107.646072 -6.786624
v 13.937556 109.813934 -6.847868
v 13.893292 112.357544 -6.815094
v 14.041329 114.218933 -6.800009
v 14.101338 117.413597 -6.758140
v -5.587880 98.124588 13.894248
v -4.654504 100.710350 12.681389
v -4.963760 110.377914 12.390571
v -6.544197 121.324417 8.951309
v 9.097934 121.324409 -5.042500
v 9.097934 121.324409 -6.969665
v -6.548318 121.324409 -6.969665
v 14.294826 120.394440 -5.665485
v -5.666931 97.839455 12.912838
v 13.334185 97.839462 -11.205915
v -11.699025 120.633949 -12.092521
v -10.784569 97.839455 -11.205915
v 13.334185 97.839462 -6.088274
v -10.784569 97.839462 12.912838
v 13.129819 118.889244 -5.075689
v 13.272570 115.056366 -4.918289
v -4.480102 114.330826 12.874232
v 13.128494 114.209801 -5.068532
v 13.273487 112.718040 -4.940593
v 13.063641 109.963570 -5.011372
v -4.502086 112.082077 12.852247
v -4.500958 109.857773 12.761643
v 13.192512 108.027740 -4.963361
v -4.580770 104.192085 12.870695
v 13.238129 101.687965 -4.956336
v 13.105957 105.146675 -5.088943
v 13.633196 117.409447 -10.972413
v 14.141376 115.914001 -11.233026
v 14.113065 112.581352 -11.084456
v 13.960149 110.071381 -10.975441
v 14.095404 108.046448 -11.034235
v 14.037161 104.851036 -11.083578
v 14.039955 101.327049 -10.940701
v -10.244188 107.640015 -11.959226
v -10.290852 112.518967 -11.951366
v -11.573213 102.370132 12.417945
v -11.565250 114.870354 12.301013
v -11.554969 120.202644 13.888014
v 14.317782 120.955765 -12.167485
v -5.583148 119.988647 13.982454
v -11.659342 97.950691 13.851842
v -11.352057 124.213280 -11.466795
v -11.045449 124.213280 13.480325
v 13.595063 124.213280 -11.773403
v 13.901672 124.213280 -6.286827
v -5.125258 124.213280 13.173716
v -10.784569 0.000000 12.912838
v -5.666931 0.000000 12.912838
v -10.784569 0.000000 -11.205915
v 13.334186 0.000000 -11.205915
v -10.738839 121.324409 -11.160186
v 13.288454 121.324409 -11.160186
v 13.288454 121.324409 -6.107220
v -5.685870 121.324409 12.867107
v -10.738839 121.324409 12.867107
v -6.191852 126.701935 -6.613199
v -5.202395 126.492165 8.574117
v -6.543397 127.130333 8.556126
v 9.019320 126.439156 -6.345473
v -11.607402 4.301206 10.257116
v -11.607402 4.754114 5.223157
v -10.450371 4.754114 11.046275
v -10.450372 4.754114 5.223157
v -11.607402 4.754114 -3.532653
v -10.450371 4.754114 -9.355770
v -10.450372 4.754114 -3.532653
v -11.607402 4.301206 -8.566611
v 7.418054 4.754114 0.991534
v 10.717474 4.754114 -3.944176
v 6.599909 4.754114 0.173389
v -2.890805 4.754114 11.300392
v 1.226761 4.754114 7.182827
v -3.708950 4.754114 10.482247
v 0.408616 4.754114 6.364682
v 13.937403 124.246704 -11.627040
v 13.559368 124.240334 -11.613126
v 13.748386 124.690269 -11.620084
v -11.009687 124.239914 -11.627040
v -11.198705 124.690269 -11.620084
v -11.387721 124.247368 -11.613127
v -5.306317 124.247368 13.320073
v -5.684351 124.239914 13.333987
v -5.495334 124.690269 13.327030
v -11.387721 124.237633 13.333987
v -11.198705 124.690269 13.327030
v -11.009687 124.252022 13.320073
v 9.112206 126.570885 -5.836639
v 9.127860 125.769302 -6.463365
v 9.098592 125.851082 -5.486311
v -10.464183 120.170944 -4.358171
v -10.464183 112.081299 -6.102649
v -10.464183 120.170944 -6.102649
v -10.464184 120.170944 -7.847127
v -10.464183 112.081299 -7.847127
v -10.464184 120.170944 -9.591606
v -10.464184 112.081299 -9.591606
v 1.226739 120.170944 -11.103491
v -0.500249 120.170944 -13.588549
v -0.500249 120.170944 -11.103491
v -2.227235 120.170944 -13.588550
v -2.227236 120.170944 -11.103489
v -3.954223 120.170944 -13.588550
v -3.954223 120.170944 -11.103489
v -5.681209 120.170944 -13.588549
v -5.681209 120.170944 -11.103489
v -7.408197 120.170944 -13.588550
v -7.408196 120.170944 -11.103488
v -9.135185 120.170944 -13.588547
v -9.135184 120.170944 -11.103488
v 1.226739 120.170944 -13.588550
v 2.953726 120.170944 -13.588550
v 2.953726 120.170944 -11.103491
v 4.680713 120.170944 -13.588550
v 4.680713 120.170944 -11.103491
v 6.407701 120.170944 -13.588550
v 6.407701 120.170944 -11.103493
v 8.134687 120.170944 -13.588552
v 8.134687 120.170944 -11.103493
v 9.861675 120.170944 -13.588552
v 9.861675 120.170944 -11.103492
v 11.588663 120.170944 -13.588552
v 11.588663 120.170944 -11.103492
v 10.986305 120.170944 -4.305363
v -1.910470 120.170944 12.105809
v -5.616753 4.800854 0.976051
v -5.616753 26.562309 0.976051
v -12.609068 26.562309 0.976048
v -5.616749 26.562309 -12.699581
v -12.609064 26.562309 -12.699586
v -5.617617 5.073744 -12.733893
v -12.663260 5.073833 0.975688
v -12.617903 5.167148 -12.720570
vn -0.5807 -0.5728 0.5785
vn 0.3533 -0.1192 0.9279
vn -0.6961 -0.1451 0.7031
vn -0.5803 -0.5640 -0.5875
vn -0.9998 0.0044 -0.0201
vn -0.9994 -0.0042 0.0353
vn -0.5940 0.5452 -0.5916
vn 0.5902 -0.5641 -0.5774
vn 0.0375 0.0061 -0.9993
vn -0.0350 -0.0014 -0.9994
vn 0.0425 -0.0047 -0.9991
vn -0.0919 -0.0033 -0.9958
vn 0.6160 0.5152 -0.5959
vn 0.7274 -0.5938 0.3439
vn 0.9988 0.0396 -0.0304
vn 0.9923 -0.0021 -0.1239
vn 0.9909 0.0344 0.1299
vn 0.9728 -0.0236 0.2306
vn 0.9925 0.0029 -0.1221
vn 0.9810 0.0157 -0.1933
vn 0.9834 -0.0243 -0.1801
vn 0.9977 -0.0095 -0.0664
vn 0.9929 0.0058 0.1191
vn 0.9995 0.0125 0.0299
vn 0.9756 -0.0025 0.2195
vn 0.9484 0.0490 -0.3134
vn 0.9906 -0.0479 -0.1285
vn 0.9695 0.0044 0.2449
vn 0.9982 -0.0594 0.0040
vn 0.4494 -0.1243 0.8847
vn 0.7055 -0.0636 0.7058
vn 0.6955 -0.0171 0.7183
vn 0.3061 -0.5319 0.7896
vn 0.7836 0.1985 0.5888
vn 0.8514 -0.0597 0.5212
vn 0.8492 0.4578 -0.2630
vn 0.6878 -0.2107 0.6946
vn 0.8069 0.0135 0.5905
vn 0.6522 0.0047 0.7580
vn 0.5263 -0.0518 0.8487
vn 0.7480 -0.0005 0.6637
vn 0.5843 0.0169 0.8114
vn 0.6802 -0.0308 0.7324
vn -0.0053 -0.1501 0.9887
vn 0.4539 0.7648 0.4572
vn -0.0033 1.0000 -0.0023
vn -0.7362 0.6768 -0.0078
vn 0.6766 -0.1481 0.7213
vn 0.7838 0.5369 0.3120
vn 0.4750 -0.0260 0.8796
vn 0.9902 -0.1346 -0.0362
vn 0.0513 0.9954 -0.0810
vn -0.0597 0.9961 -0.0649
vn -0.0000 1.0000 -0.0000
vn 0.0141 -0.9999 0.0048
vn -0.0006 -0.9989 0.0465
vn -0.0190 -0.9997 -0.0169
vn 0.1607 -0.9449 0.2851
vn -0.5823 -0.5686 0.5810
vn 0.3528 -0.1031 0.9300
vn -0.5942 0.5467 0.5899
vn -0.9993 0.0014 0.0386
vn -0.5993 0.5244 -0.6048
vn -0.0731 0.0010 -0.9973
vn 0.0291 0.0044 -0.9996
vn -0.0424 -0.0022 -0.9991
vn 0.0497 -0.0022 -0.9988
vn -0.0626 -0.0052 -0.9980
vn 0.0756 -0.0077 -0.9971
vn 0.6151 0.5173 -0.5950
vn 0.5781 -0.8159 -0.0072
vn 0.9968 0.0091 0.0792
vn 0.9974 0.0346 -0.0632
vn 0.9975 -0.0020 0.0713
vn 0.9972 0.0005 -0.0754
vn 0.9674 0.0657 -0.2448
vn 0.9473 -0.0444 -0.3171
vn 0.9192 -0.0341 0.3923
vn 0.9588 0.0382 0.2816
vn 0.9908 0.0088 -0.1351
vn 0.9936 -0.0197 0.1108
vn 0.9674 0.0209 0.2525
vn 0.9934 -0.0021 -0.1148
vn 0.9717 0.0141 -0.2358
vn 0.9969 -0.0165 0.0763
vn 0.9888 -0.0071 0.1488
vn 0.9775 -0.0166 -0.2103
vn 0.4527 -0.1245 0.8829
vn 0.7058 -0.0625 0.7056
vn 0.6980 -0.0138 0.7160
vn 0.3043 -0.5652 0.7668
vn 0.7857 0.2007 0.5851
vn 0.6955 0.1591 0.7007
vn 0.8381 0.4846 -0.2506
vn 0.6729 -0.3335 0.6603
vn 0.4919 -0.0306 0.8701
vn 0.9002 -0.0640 0.4308
vn 0.6621 0.6693 -0.3370
vn 0.6640 -0.3668 0.6516
vn 0.6349 -0.0165 0.7724
vn 0.7482 -0.0014 0.6635
vn 0.5503 0.0236 0.8346
vn 0.6770 -0.0364 0.7351
vn 0.7669 0.5661 0.3023
vn 0.3405 0.5431 0.7675
vn 0.5865 -0.5649 -0.5804
vn -0.5493 0.6187 -0.5617
vn 0.6848 0.0779 -0.7245
vn -0.6982 0.0879 -0.7104
vn -0.1051 0.9887 -0.1065
vn -0.0072 0.9999 0.0097
vn -0.5849 -0.5631 -0.5838
vn 0.5896 0.0083 0.8076
vn 0.6107 0.1177 0.7831
vn 0.0802 0.9916 -0.1011
vn 0.0848 0.9957 0.0380
vn -0.0757 0.9950 0.0650
vn 0.0182 -0.9997 0.0135
vn -0.0177 -0.9990 0.0407
vn -0.0193 -0.9997 -0.0177
vn 0.0002 -1.0000 -0.0002
vn -0.5800 -0.5738 0.5782
vn 0.3916 -0.1494 0.9079
vn -0.6042 0.5143 0.6086
vn -0.5791 -0.5668 -0.5860
vn -1.0000 0.0034 0.0072
vn -0.9995 -0.0026 0.0322
vn -0.9937 -0.1116 0.0105
vn 0.5932 -0.5620 -0.5764
vn 0.0480 0.0064 -0.9988
vn 0.0108 0.0175 -0.9998
vn -0.0460 0.0034 -0.9989
vn 0.0449 -0.0047 -0.9990
vn -0.0425 -0.0075 -0.9991
vn 0.0045 -0.1262 -0.9920
vn -0.0062 -0.1114 -0.9938
vn 0.9892 0.0012 -0.1466
vn 0.9991 0.0116 0.0416
vn 0.9925 -0.0013 0.1225
vn 0.9999 0.0096 -0.0118
vn 0.9783 -0.0114 -0.2069
vn 0.9365 -0.0318 0.3492
vn 0.9992 0.0158 0.0380
vn 0.9951 0.0045 -0.0986
vn 0.9987 -0.0047 0.0500
vn 0.9916 0.0341 0.1247
vn 0.9975 -0.0196 -0.0674
vn 0.9717 0.0322 0.2340
vn 0.9821 -0.0696 0.1748
vn 0.9918 -0.1274 -0.0121
vn 0.9904 -0.1379 0.0131
vn 0.3026 -0.5618 0.7699
vn 0.6037 0.0294 0.7967
vn 0.7027 -0.0119 0.7114
vn 0.6167 -0.0058 0.7871
vn 0.7082 0.0010 0.7060
vn 0.5891 -0.0096 0.8080
vn 0.9230 0.0120 0.3846
vn 0.6250 0.0008 0.7806
vn 0.5922 0.2476 0.7668
vn 0.8815 -0.0446 0.4700
vn 0.6534 0.6834 -0.3257
vn 0.6659 -0.3655 0.6504
vn 0.6315 -0.0168 0.7752
vn 0.8915 0.0532 0.4500
vn 0.7582 -0.0403 0.6508
vn 0.7665 0.1328 0.6284
vn 0.8886 0.2170 0.4040
vn 0.6837 -0.0108 0.7297
vn 0.3205 0.5375 0.7800
vn 0.6307 0.4682 -0.6189
vn -0.1701 0.9807 0.0968
vn 0.6900 -0.1249 0.7130
vn 0.7791 0.5397 0.3190
vn -0.6289 0.4646 -0.6234
vn 0.6401 0.0970 0.7622
vn 0.0129 -0.9999 0.0088
vn 0.5807 -0.8135 -0.0312
vn -0.0063 -0.9993 0.0361
vn -0.0131 -0.9998 -0.0119
vn 0.0148 -0.9998 -0.0148
vn -0.5791 -0.5760 0.5770
vn 0.3225 0.5555 0.7664
vn -0.6061 0.5277 0.5951
vn -0.5789 -0.5671 -0.5859
vn -0.9997 0.0001 0.0248
vn -0.9951 -0.0990 0.0076
vn 0.5893 -0.5475 -0.5942
vn 0.0384 0.0083 -0.9992
vn -0.0431 0.0087 -0.9990
vn -0.0223 -0.0030 -0.9997
vn 0.0253 -0.0001 -0.9997
vn -0.0026 -0.1121 -0.9937
vn 0.7267 -0.6156 0.3049
vn 0.9947 -0.0030 -0.1026
vn 0.9523 -0.0142 0.3047
vn 0.9751 0.0496 0.2163
vn 0.9827 -0.0108 -0.1850
vn 0.9908 -0.0256 0.1326
vn 0.9982 0.0108 0.0588
vn 0.9947 -0.0026 -0.1029
vn 0.9725 0.0225 0.2319
vn 0.9854 0.0002 -0.1700
vn 0.9980 0.0611 0.0177
vn 0.9434 0.1487 -0.2965
vn 0.9988 0.0062 0.0483
vn 0.3202 -0.5479 0.7728
vn 0.7539 0.0723 0.6530
vn 0.7738 -0.0369 0.6324
vn 0.5732 -0.0053 0.8194
vn 0.6987 -0.0190 0.7152
vn 0.8148 0.0463 0.5779
vn 0.7242 0.0008 0.6896
vn 0.6518 0.0075 0.7584
vn 0.6685 0.2397 0.7040
vn 0.7903 -0.0557 0.6101
vn 0.8091 0.4663 -0.3576
vn 0.6857 -0.2207 0.6936
vn 0.8074 -0.0704 0.5858
vn 0.6839 -0.0086 0.7295
vn 0.7810 -0.0193 0.6242
vn 0.6234 0.4714 -0.6238
vn 0.9829 -0.1731 -0.0630
vn 0.9902 -0.1355 0.0341
vn -0.1200 0.9866 0.1105
vn 0.6908 -0.1206 0.7129
vn 0.7733 0.5429 0.3276
vn -0.6221 0.4736 -0.6235
vn 0.0022 -0.1136 -0.9935
vn 0.4791 -0.0160 0.8776
vn 0.0748 0.9838 0.1628
vn -0.0024 -0.9993 0.0372
vn -0.0082 -0.9999 -0.0069
vn 0.0406 -0.9980 -0.0489
vn -0.7089 0.0760 0.7012
vn 0.3256 -0.5268 0.7852
vn 0.0979 0.1402 0.9853
vn -0.5835 -0.5629 -0.5854
vn -0.9996 0.0053 -0.0279
vn -0.9994 -0.0083 0.0346
vn -1.0000 0.0014 -0.0035
vn -0.9993 0.0367 0.0096
vn 0.5942 -0.5555 -0.5816
vn 0.0162 0.0033 -0.9999
vn -0.0326 0.0023 -0.9995
vn 0.0395 -0.0057 -0.9992
vn -0.0487 -0.0081 -0.9988
vn -0.0013 0.0725 -0.9974
vn -0.0095 0.0446 -0.9990
vn 0.7349 -0.6096 0.2972
vn 0.9983 0.0130 0.0569
vn 0.9890 -0.0049 -0.1479
vn 0.9951 0.0234 0.0956
vn 0.9868 -0.0081 0.1618
vn 0.9989 0.0251 -0.0384
vn 0.9778 -0.0094 -0.2093
vn 0.9520 0.0496 -0.3021
vn 0.9932 -0.0080 0.1165
vn 0.9926 -0.0079 -0.1209
vn 0.9838 -0.0460 -0.1730
vn 0.9788 0.0008 -0.2047
vn 0.9888 0.0610 0.1363
vn 0.9929 -0.0663 0.0984
vn 0.9955 -0.0003 -0.0943
vn 0.7297 0.0454 0.6822
vn 0.7622 -0.0047 0.6473
vn 0.7101 -0.0115 0.7041
vn 0.8509 0.0380 0.5240
vn 0.8417 0.2027 0.5006
vn 0.9440 -0.0102 0.3298
vn 0.8098 0.4858 -0.3289
vn 0.6706 -0.3389 0.6599
vn 0.8069 -0.0723 0.5862
vn 0.6906 0.2022 0.6944
vn 0.5079 -0.0229 0.8611
vn 0.9991 -0.0008 -0.0427
vn -0.6999 0.2012 -0.6854
vn 0.2234 0.9589 0.1748
vn -0.7032 0.1055 -0.7032
vn 0.9990 0.0224 0.0387
vn 0.2305 0.9651 0.1246
vn 0.6614 0.0225 0.7497
vn 0.2195 0.9293 0.2969
vn 0.6526 -0.1861 0.7345
vn -0.9833 0.1780 0.0375
vn 0.4350 0.8947 -0.1021
vn -0.9944 0.1055 -0.0000
vn -0.5384 0.8427 -0.0079
vn 0.0147 -0.9999 0.0021
vn -0.0506 -0.9957 0.0773
vn -0.5915 -0.5538 0.5860
vn -0.0335 -0.9989 -0.0322
vn 0.0285 -0.9992 -0.0294
vn 0.1366 -0.9548 0.2641
vn 0.0140 0.8369 -0.5471
vn 0.9799 0.1994 -0.0112
vn -0.6320 0.7740 0.0397
vn 0.9944 0.1055 -0.0000
vn -0.0889 0.8905 0.4461
vn 0.0112 0.1994 0.9799
vn -0.0355 0.8426 -0.5374
vn -0.0000 0.1055 0.9944
vn -0.0363 0.1749 -0.9839
vn 0.1062 0.9869 0.1213
vn -0.0000 0.1055 -0.9944
vn -0.0000 -0.0000 1.0000
vn 0.9240 -0.0000 0.3823
vn 0.5774 -0.5776 -0.5770
vn 0.7071 -0.0000 -0.7071
vn -0.5773 -0.5773 -0.5774
vn -0.7071 -0.0000 -0.7071
vn -1.0000 -0.0000 -0.0000
vn 0.7093 0.6280 -0.3202
vn 0.9999 0.0154 -0.0000
vn 0.7088 0.1398 0.6914
vn 0.4518 0.5138 0.7293
vn 0.6621 -0.1179 0.7401
vn -0.0563 0.9984 0.0112
vn -0.3370 0.9391 0.0670
vn -0.3370 0.9391 -0.0670
vn -0.0563 0.9984 -0.0112
vn 0.0477 0.9984 0.0319
vn 0.2853 0.9393 0.1907
vn 0.0368 -0.0000 0.9993
vn -0.0368 -0.0000 -0.9993
vn -0.0001 -0.0000 1.0000
vn -1.0000 0.0025 -0.0033
vn -0.0019 0.0010 -1.0000
vn 1.0000 -0.0000 -0.0001
vn -0.0387 -0.9991 -0.0199
vn -0.0134 -0.9999 -0.0069
vn 0.6784 0.0125 0.7346
vn -0.0000 -0.1723 0.9850
vn 0.0115 -0.9999 -0.0125
vn -0.9995 0.0001 -0.0302
vn 0.6626 0.0135 0.7489
vn 0.1189 -0.9731 0.1975
vn 0.1174 -0.9726 0.2006
vn -0.9998 -0.0013 -0.0197
vn 0.9823 0.0680 -0.1744
vn 0.4944 0.0308 0.8687
vn 0.0167 -0.9998 0.0120
vn 0.1236 -0.9672 0.2217
vn 0.9545 0.1044 0.2794
vn 0.6236 -0.0004 0.7818
vn 0.9058 -0.0000 0.4238
vn 0.5740 -0.0458 0.8176
vn 0.8554 -0.1907 0.4816
vn 0.6925 0.1648 0.7023
vn 0.4474 0.0004 0.8943
vn -0.0000 -1.0000 -0.0000
vn -0.9870 0.0429 0.1550
vn -0.4420 0.7321 0.5184
vn -0.4111 0.9079 0.0817
vn -0.4111 0.9079 -0.0817
vn 0.9995 -0.0042 0.0303
vn -1.0000 0.0004 -0.0000
vn -0.0000 0.0016 -1.0000
vn 1.0000 -0.0000 -0.0000
vt -0.051845 0.706813
vt 0.208892 1.650180
vt -0.032572 1.637952
vt 0.749512 9.156679
vt 2.049527 9.191952
vt 0.749512 9.240850
vt -0.650008 3.044535
vt 0.650008 3.125929
vt -0.650008 3.128706
vt -0.650008 5.897678
vt 0.650008 5.920907
vt -0.650008 5.981849
vt -0.650008 3.285606
vt 0.650008 3.358024
vt -0.650008 3.369777
vt -0.650008 3.490338
vt 0.650008 3.561664
vt -0.650008 3.574509
vt 1.279222 13.476339
vt 1.519817 13.560511
vt 1.279222 13.560511
vt -0.120298 11.871448
vt 0.120298 11.898458
vt -0.120298 11.955619
vt -0.120298 11.991368
vt 0.120298 12.075539
vt -0.120298 12.075539
vt -0.120298 12.049768
vt 0.120298 12.133940
vt -0.120298 12.133940
vt 1.279222 13.649671
vt 1.519817 13.565500
vt 1.519817 13.649671
vt -0.120298 11.420654
vt 0.120297 11.336484
vt 0.120298 11.420655
vt -0.120298 12.223101
vt 0.120298 12.138929
vt 0.120298 12.223101
vt -0.120298 11.631607
vt 0.120298 11.715778
vt -0.120298 11.715778
vt 0.994681 0.769148
vt 1.012409 0.751420
vt 0.252302 -0.012822
vt -0.708924 7.145927
vt 0.708924 7.226427
vt -0.708924 7.230099
vt -0.708924 7.278152
vt 0.708924 7.295820
vt -0.708924 7.362323
vt 0.246861 1.132327
vt 0.253805 1.021039
vt 0.232507 1.042839
vt -0.708924 7.413410
vt 0.708924 7.497581
vt -0.708924 7.497581
vt -0.708924 7.502570
vt 0.708924 7.586741
vt -0.708924 7.586741
vt 0.690596 2.063768
vt 2.108443 2.064549
vt 0.690596 2.147939
vt -0.708924 0.486522
vt 0.708924 0.570693
vt -0.708924 0.570693
vt -0.708924 0.637202
vt 0.708924 0.648956
vt -0.708924 0.721373
vt 0.223504 1.712821
vt -0.068128 1.663349
vt 0.223504 1.663349
vt 1.055221 0.706550
vt 1.011443 1.106690
vt 1.011443 1.037525
vt 0.223504 -0.066474
vt -0.015114 -0.013460
vt -0.068128 -0.066474
vt -0.066474 1.712821
vt 0.778150 1.663363
vt 0.778150 1.712821
vt 1.069782 1.706108
vt -0.066474 1.663349
vt 1.012663 1.139418
vt 1.006364 1.021074
vt 1.054553 0.705848
vt 0.828537 1.243144
vt 0.828537 1.339815
vt 0.788344 1.657750
vt 1.015114 1.016768
vt -0.068128 1.069782
vt -0.015114 1.016768
vt 1.068128 0.778150
vt 1.068128 1.069782
vt 0.201544 -0.013460
vt 1.015114 0.800110
vt 1.017074 0.799297
vt 1.054553 1.056207
vt 1.054553 0.783773
vt -0.017074 -0.015420
vt -0.054553 -0.052899
vt -0.017074 1.018728
vt 0.217881 -0.052899
vt 0.202357 -0.015420
vt -0.054553 1.056207
vt -0.032408 1.733050
vt 0.207570 2.648841
vt -0.032572 2.635265
vt -0.650008 14.902908
vt 0.650008 14.987080
vt -0.650008 14.987080
vt 0.749512 3.757821
vt 2.049527 3.770717
vt 0.749512 3.841992
vt 0.749512 4.011195
vt 2.049527 4.031728
vt 0.749512 4.095366
vt -0.650008 15.009295
vt 0.650008 15.025838
vt -0.650008 15.093466
vt -0.120298 11.782288
vt 0.120298 11.866458
vt -0.120298 11.866458
vt -0.120298 12.201021
vt 0.120298 12.285192
vt -0.120298 12.285192
vt -0.120297 15.709045
vt 0.120297 15.793217
vt -0.120297 15.793217
vt -0.120298 12.317251
vt 0.120298 12.401423
vt -0.120298 12.401423
vt -0.120298 12.429063
vt 0.120298 12.344893
vt 0.120298 12.429063
vt 1.279222 13.630053
vt 1.519817 13.714223
vt 1.279222 13.714223
vt -0.120297 13.827991
vt 0.120297 13.743820
vt 0.120297 13.827991
vt -0.120298 15.616194
vt 0.120298 15.700365
vt -0.120298 15.700365
vt 1.012409 0.751420
vt -0.708924 10.177396
vt 0.708924 10.258436
vt -0.708924 10.261566
vt -0.708924 0.726362
vt 0.708924 0.744030
vt -0.708924 0.810533
vt 0.254258 2.129271
vt 0.253807 2.018406
vt 0.232507 2.040152
vt 0.690596 0.904683
vt 2.108443 0.988854
vt 0.690596 0.988854
vt 0.252367 2.203618
vt 0.232507 2.140464
vt 0.690596 0.993843
vt 2.108443 1.078014
vt 0.690596 1.078014
vt -0.708924 10.712359
vt 0.708924 10.713279
vt -0.708924 10.796531
vt -0.708924 0.013078
vt 0.708924 0.097250
vt -0.708924 0.097250
vt -0.708924 14.457106
vt 0.708924 14.541277
vt -0.708924 14.541277
vt 0.223504 2.710133
vt -0.068128 2.701458
vt 0.223504 2.660661
vt 1.056154 1.703199
vt 1.011443 2.111405
vt 1.011443 2.033946
vt 0.022783 0.495437
vt 1.000000 0.314463
vt 0.174407 0.825593
vt 0.223504 -0.066474
vt 0.201544 -0.013460
vt -0.053680 1.704215
vt 0.003789 2.249701
vt 0.003789 1.934893
vt 1.008122 2.120890
vt 1.006931 2.019094
vt 1.054553 1.703161
vt 0.828537 2.222615
vt 0.828537 2.322927
vt 0.783773 2.660676
vt 1.017074 0.799297
vt 0.217881 -0.052899
vt 1.017074 1.018728
vt -0.053671 2.701566
vt -0.004278 3.628021
vt -0.032572 3.628021
vt -0.650008 2.598732
vt 0.650008 2.682189
vt -0.650008 2.682903
vt -0.650008 6.432642
vt 0.650008 6.451361
vt -0.650008 6.516813
vt -0.650008 8.426169
vt 0.650008 8.510341
vt -0.650008 8.510341
vt -0.650008 6.466435
vt 0.650008 6.506603
vt -0.650008 6.550606
vt -0.650008 9.432776
vt 0.650008 9.516949
vt -0.650008 9.516949
vt -0.650008 9.999075
vt 0.650008 10.055378
vt -0.650008 10.083245
vt -0.120298 11.509814
vt 0.120298 11.425644
vt 0.120298 11.509815
vt -0.120298 12.495572
vt 0.120298 12.579742
vt -0.120298 12.579742
vt -0.120297 13.773922
vt 0.120297 13.858093
vt -0.120297 13.858093
vt -0.120297 15.254562
vt 0.120297 15.170391
vt 0.120297 15.254562
vt -0.120297 13.922142
vt 0.120297 14.006313
vt -0.120297 14.006313
vt -0.120297 15.856035
vt 0.120297 15.940207
vt -0.120297 15.940207
vt -0.120298 12.668903
vt 0.120298 12.584732
vt 0.120298 12.668903
vt -0.708924 0.145208
vt 0.708924 0.225290
vt -0.708924 0.229379
vt -0.708924 14.589235
vt 0.708924 14.673407
vt -0.708924 14.673407
vt -0.708924 10.776913
vt 0.708924 10.861083
vt -0.708924 10.861083
vt 0.690596 1.149445
vt 2.108443 1.233616
vt 0.690596 1.233616
vt 0.252214 3.209679
vt 0.254277 3.126815
vt 0.232507 3.137777
vt 0.690596 1.172164
vt 2.108443 1.256335
vt 0.690596 1.256335
vt 0.690596 10.974852
vt 2.108443 10.890680
vt 2.108443 10.974852
vt -0.708924 10.623199
vt 0.708924 10.623639
vt -0.708924 10.707370
vt 0.232507 0.006973
vt 0.250234 -0.010755
vt 1.014476 0.749352
vt 0.223504 3.707446
vt -0.068128 3.693364
vt 0.223504 3.657974
vt 1.054986 2.701310
vt 1.011443 3.107058
vt 1.011443 2.956492
vt 1.069782 3.707446
vt 0.778150 3.657989
vt 1.069782 3.657989
vt -0.066474 3.707446
vt 0.778150 3.707446
vt -0.068128 3.707446
vt 1.068128 3.657989
vt -0.068128 3.657989
vt 1.008172 3.118266
vt 1.007082 3.016593
vt 1.054553 2.700473
vt 0.828537 3.219928
vt 0.828537 3.320240
vt 0.787735 3.651451
vt 0.992088 3.359110
vt 0.992088 3.014546
vt -0.054553 1.056207
vt 0.017472 3.727675
vt 0.045767 4.625333
vt 0.017472 4.625333
vt -0.650008 7.770054
vt 0.650008 7.796679
vt -0.650008 7.854225
vt 0.749512 4.426239
vt 2.049527 4.510411
vt 0.749512 4.510411
vt 0.749512 4.571341
vt 2.049527 4.655512
vt 0.749512 4.655511
vt -0.650008 8.037536
vt 0.650008 8.062431
vt -0.650008 8.121707
vt -0.650008 8.126696
vt 0.650008 8.157996
vt -0.650008 8.210867
vt -0.120298 12.763054
vt 0.120298 12.774679
vt -0.120298 12.847225
vt -0.120297 14.011303
vt 0.120297 14.095474
vt -0.120297 14.095474
vt -0.120297 11.250288
vt 0.120297 11.166117
vt 0.120298 11.250288
vt -0.120297 15.348712
vt 0.120297 15.432883
vt -0.120297 15.432883
vt -0.120297 14.045096
vt 0.120297 14.129268
vt -0.120297 14.129268
vt -0.120298 12.852215
vt 0.120298 12.863138
vt -0.120298 12.936386
vt 1.022559 0.828537
vt 1.047630 0.828537
vt 1.049983 1.011443
vt -0.708924 1.439645
vt 0.708924 1.523817
vt -0.708924 1.523817
vt -0.708924 0.191400
vt 0.708924 0.275570
vt -0.708924 0.275570
vt -0.708924 1.454587
vt 0.708924 1.538758
vt -0.708924 1.538758
vt -0.708924 1.727279
vt 0.708924 1.811450
vt -0.708924 1.811450
vt 0.250472 4.399703
vt 0.255130 4.335715
vt 0.232507 4.335715
vt 0.690596 11.069003
vt 2.108443 11.153173
vt 0.690596 11.153173
vt 0.690596 2.290144
vt 2.108443 2.374316
vt 0.690596 2.374316
vt 1.052272 3.699890
vt 1.011443 4.135506
vt 1.011443 4.027513
vt 1.069782 4.704759
vt 0.778150 4.655302
vt 1.069782 4.655302
vt -0.066474 4.694514
vt 0.778150 4.704759
vt -0.068128 4.704759
vt 1.068128 4.655302
vt -0.068128 4.655302
vt -0.054550 3.697788
vt 0.003789 4.231411
vt 0.003789 3.843407
vt 1.004465 4.110959
vt 1.012762 4.034218
vt 1.054697 3.697665
vt 0.828537 4.217240
vt 0.828537 4.304705
vt 0.783773 4.655302
vt 0.117561 5.622646
vt 0.145855 4.724988
vt 0.145855 5.622646
vt -0.650008 10.355716
vt 0.650008 10.352209
vt -0.650008 10.439887
vt -0.650008 10.570950
vt 0.650008 10.574896
vt -0.650008 10.655122
vt -0.650008 5.585330
vt 0.650008 5.669500
vt -0.650008 5.669500
vt -0.650008 8.750822
vt 0.650008 8.834993
vt -0.650008 8.834993
vt -0.650008 6.878446
vt 0.650008 6.949771
vt -0.650008 6.962617
vt 1.279222 13.055717
vt 1.519817 13.139887
vt 1.279222 13.139887
vt -0.120297 15.437873
vt 0.120297 15.454665
vt -0.120297 15.522043
vt -0.120297 14.189624
vt 0.120297 14.273795
vt -0.120297 14.273795
vt -0.120298 15.967848
vt 0.120298 15.883677
vt 0.120298 15.967848
vt 1.279222 13.208857
vt 1.519817 13.293028
vt 1.279222 13.293028
vt -0.120297 14.278785
vt 0.120297 14.362955
vt -0.120297 14.362955
vt 0.429489 0.711379
vt 0.899303 0.875741
vt 0.429489 0.875741
vt 0.429489 0.711378
vt 0.899303 0.815601
vt 0.429489 0.875743
vt -0.708924 1.885447
vt 0.708924 1.969618
vt -0.708924 1.969618
vt -0.708924 0.280560
vt 0.708924 0.309184
vt -0.708924 0.364731
vt 0.690596 1.911824
vt 2.108443 1.995995
vt 0.690596 1.995995
vt 0.250235 5.310935
vt 0.253677 5.209932
vt 0.232507 5.232714
vt 0.690596 2.152928
vt 2.108443 2.237099
vt 0.690596 2.237099
vt 1.054746 4.696959
vt 1.011443 5.132733
vt 1.011443 4.995741
vt 1.012764 5.131891
vt 1.004504 5.008007
vt 1.054591 4.695067
vt 0.828537 5.201662
vt 0.828537 5.314865
vt 0.788148 5.647241
vt 0.035560 0.444159
vt 0.769096 0.555841
vt 0.769096 0.444159
vt 1.000000 0.444159
vt 0.754366 0.555841
vt 0.754366 0.444159
vt 0.000000 0.555841
vt 0.000000 0.444159
vt 0.964440 0.555841
vt 0.964440 0.444159
vt 1.000000 0.555841
vt 0.035560 0.555841
vt 0.245634 0.444159
vt 0.230905 0.555841
vt 0.230905 0.444159
vt 0.000000 0.599525
vt 0.212185 0.400475
vt 0.212185 0.599525
vt 0.787815 0.599525
vt 1.000000 0.400475
vt 1.000000 0.599525
vt 0.000000 0.400475
vt 0.825593 0.825593
vt 0.000000 1.000000
vt 1.000000 0.789699
vt 1.000000 1.000000
vt 0.174578 0.174407
vt 0.825593 0.745386
vt 0.000000 0.000000
vt 0.982999 0.685537
vt 0.876829 0.314463
vt 0.000000 0.685537
vt 0.000000 0.314463
vt 0.977217 0.961167
vt 0.022783 0.977217
vt 0.061762 0.022783
vt 0.618675 0.000633
vt 0.545450 0.369159
vt 0.545450 0.000633
vt 0.618675 0.369159
vt 0.202090 0.983496
vt 0.246056 0.761977
vt 0.158669 0.761977
vt 0.202228 0.983496
vt 0.204127 0.983496
vt 0.200831 0.983496
vt 0.202497 0.983496
vt 0.222357 1.222357
vt 0.547031 0.240602
vt 0.222357 0.222357
vt -0.099962 1.222357
vt 0.528471 0.241113
vt -0.099963 0.241113
vt 0.543674 1.222357
vt 0.222357 0.241113
vt 0.543674 0.241113
vt 0.528471 1.222357
vt -0.099963 0.222357
vt 0.531193 0.240563
vt -0.099963 0.547031
vt -0.099962 0.543674
vt 0.528471 0.222357
vt 0.528471 0.543674
vt 0.529147 0.544548
vt 0.203115 0.721402
vt 0.749512 9.023718
vt 2.049527 9.018304
vt 2.049527 9.102475
vt -0.650008 5.669675
vt 0.650008 5.630196
vt 0.650008 5.714367
vt -0.650008 5.782457
vt 0.650008 5.772836
vt 0.650008 5.857007
vt -0.650008 6.105496
vt 0.650008 6.057543
vt 0.650008 6.141714
vt -0.650008 3.464048
vt 0.650008 3.423324
vt 0.650008 3.507496
vt 1.519817 13.476339
vt 0.120298 11.991368
vt 0.120298 12.049768
vt 1.279222 13.565500
vt -0.120298 11.336484
vt -0.120298 12.138929
vt 0.120298 11.631607
vt -0.120298 15.575522
vt -0.120298 15.491351
vt 0.120298 15.495797
vt -0.708924 7.397623
vt 0.708924 7.324249
vt 0.708924 7.408420
vt 1.006364 0.757465
vt 0.232507 0.006973
vt 0.255130 -0.015650
vt 0.708924 7.413410
vt 0.708924 7.502570
vt -0.708924 0.541709
vt 0.708924 0.458881
vt 0.708924 0.543052
vt 0.708924 0.486522
vt -0.068128 1.712821
vt 1.054716 1.662084
vt 1.011443 1.227842
vt 1.011443 1.583128
vt 1.011443 1.407701
vt 1.011443 1.325615
vt 1.011443 0.867658
vt 1.068128 1.704108
vt -0.049482 1.651857
vt 0.009735 0.929558
vt 0.995503 0.803099
vt 0.252398 0.804655
vt 0.250458 1.420869
vt 0.255107 1.508226
vt 0.252364 1.206350
vt -0.054336 0.705982
vt -0.048138 1.655811
vt 0.003789 1.338846
vt 0.003789 0.916727
vt 1.054553 1.663363
vt 1.017304 1.537712
vt 1.012335 1.221949
vt 1.012482 0.851866
vt 1.017403 1.444727
vt 0.783766 0.705842
vt 0.828537 0.824052
vt 0.828537 0.926142
vt 0.828537 1.425927
vt 0.828537 1.545503
vt 0.828537 1.011829
vt 0.828537 1.124990
vt 0.992088 1.064161
vt 0.992088 1.336869
vt 1.052617 1.658154
vt 1.055328 0.706473
vt 0.998034 1.120650
vt 0.117561 1.733050
vt 0.145855 1.733050
vt -0.650008 14.849935
vt -0.650008 14.765763
vt 0.650008 14.765715
vt -0.650008 2.531085
vt 0.650008 2.480042
vt 0.650008 2.564213
vt 0.650008 14.902908
vt 0.749512 3.704846
vt 0.749512 3.620675
vt 2.049527 3.621183
vt -0.650008 10.369757
vt 0.650008 10.303468
vt 0.650008 10.387639
vt 0.749512 3.895475
vt 2.049527 3.846982
vt 2.049527 3.931152
vt -0.650008 6.414173
vt 0.650007 6.343481
vt 0.650008 6.427652
vt -0.650008 15.094054
vt 0.650008 15.046780
vt 0.650008 15.130951
vt 0.120298 11.782288
vt 0.120298 12.201021
vt 0.120297 15.709045
vt 0.120298 12.317251
vt -0.120298 12.344893
vt 1.519817 13.630053
vt -0.120297 13.743820
vt 0.120298 15.616194
vt -0.120297 11.492075
vt 0.120298 11.487736
vt 0.120298 11.571907
vt 0.690596 0.842202
vt 2.108443 0.768768
vt 2.108443 0.852939
vt 1.006931 0.756897
vt 0.255130 -0.015650
vt 2.108443 0.904683
vt 1.008122 0.755707
vt 2.108443 0.993843
vt -0.708924 0.006751
vt 0.708924 -0.076082
vt 0.708924 0.008089
vt 0.708924 0.013078
vt 0.708924 14.457106
vt 1.046164 2.649367
vt 1.011443 2.204608
vt 1.011443 2.537094
vt 1.011443 2.441621
vt 1.011443 1.933702
vt 1.011443 1.838980
vt 1.011443 2.304854
vt -0.053026 1.703976
vt -0.048186 2.656499
vt 0.009735 2.086327
vt 0.205035 1.715415
vt 0.252397 1.801985
vt 0.250458 2.418184
vt 0.255130 2.504816
vt -0.066474 2.710133
vt -0.066474 2.660661
vt 0.778150 2.704690
vt -0.050653 2.657001
vt 0.003789 2.452585
vt 0.995382 1.800823
vt 1.051315 2.655898
vt 1.012516 2.219527
vt 1.012482 1.849178
vt 1.017304 2.523552
vt 1.017404 2.442044
vt 0.828537 2.574005
vt 0.783925 1.703283
vt 0.828537 1.821365
vt 0.828537 1.921677
vt 0.828537 2.412343
vt 0.828537 2.021990
vt 0.828537 2.135735
vt 0.992088 2.171540
vt 0.992088 1.889705
vt 0.992088 2.396399
vt 1.051060 2.654756
vt 1.056134 1.703206
vt 0.998034 1.972579
vt 0.205400 2.713279
vt 0.042151 3.628021
vt 0.749512 4.029832
vt 2.049527 4.025302
vt 2.049527 4.109473
vt 0.749512 4.194368
vt 2.049527 4.142762
vt 2.049527 4.226934
vt 0.650008 8.426169
vt 0.650008 9.432776
vt -0.650008 2.434897
vt 0.650008 2.420411
vt 0.650008 2.504581
vt -0.120298 11.425644
vt 0.120298 12.495572
vt -0.120297 11.688136
vt -0.120298 11.603966
vt 0.120298 11.635902
vt 0.120297 13.773922
vt -0.120297 15.170391
vt 0.120297 13.922142
vt 0.120297 15.856035
vt -0.120298 12.584732
vt 0.708924 14.589235
vt 0.708924 10.776913
vt 2.108443 1.149445
vt 1.008172 0.755656
vt 0.255130 -0.015650
vt 2.108443 1.172164
vt 0.690596 10.890680
vt 0.690596 1.283060
vt 2.108443 1.198825
vt 2.108443 1.282995
vt -0.708924 1.354577
vt 0.708924 1.350485
vt 0.708924 1.434656
vt 1.044479 3.643585
vt 1.011443 3.201913
vt 1.011443 2.836933
vt 1.011443 3.431450
vt 1.011443 3.339247
vt -0.043899 3.647929
vt 0.009735 3.311938
vt 0.215799 3.657451
vt 0.251918 2.907162
vt 0.251915 2.805480
vt 0.255130 3.520928
vt 0.233423 3.542138
vt 0.249182 3.029779
vt 0.242162 3.317711
vt -0.066474 3.657974
vt 1.068128 3.707446
vt -0.054525 2.700490
vt -0.047020 3.647922
vt 0.003789 3.375055
vt 0.003789 2.972110
vt 1.049832 3.651021
vt 1.001639 2.806552
vt 1.011517 3.215282
vt 1.017304 3.539879
vt 1.017314 3.302420
vt 1.005886 2.914791
vt 0.783868 2.700550
vt 0.828537 2.807780
vt 0.828537 2.918990
vt 0.828537 3.019302
vt 0.828537 3.119615
vt 0.828537 3.402071
vt 0.992088 2.881631
vt 1.053781 3.654468
vt 1.055312 2.701240
vt 0.998034 3.279382
vt 0.045767 3.727675
vt -0.650008 9.736122
vt 0.650008 9.731592
vt 0.650008 9.815763
vt 2.049527 4.426239
vt 2.049527 4.571341
vt 0.749512 4.800484
vt 2.049527 4.738589
vt 2.049527 4.822761
vt -0.650008 6.766462
vt 0.650008 6.700124
vt 0.650008 6.784295
vt -0.120297 15.286371
vt 0.120297 15.202954
vt 0.120297 15.287125
vt 0.120297 14.011303
vt -0.120298 11.166117
vt 0.120297 15.348712
vt 0.120297 14.045096
vt -0.120298 12.971152
vt 0.120298 12.902003
vt 0.120298 12.986174
vt -0.120298 13.034335
vt 0.120298 13.030536
vt 0.120298 13.114707
vt 0.708924 1.439645
vt 0.708924 0.191400
vt 0.708924 1.454587
vt -0.708924 1.682668
vt 0.708924 1.617966
vt 0.708924 1.702137
vt 0.708924 1.727279
vt 0.690596 10.990396
vt 2.108443 10.917833
vt 2.108443 11.002005
vt 1.006316 0.757512
vt 0.255130 -0.015650
vt 2.108443 11.069003
vt 2.108443 2.290145
vt -0.708924 1.770479
vt 0.708924 1.763732
vt 0.708924 1.847903
vt 1.046118 4.637398
vt 1.011443 4.229728
vt 1.011443 4.536833
vt 1.011443 4.339320
vt 1.011443 3.935030
vt -0.052172 3.698748
vt -0.047534 4.650506
vt 0.009735 4.209818
vt -0.052899 4.655287
vt -0.052988 3.697700
vt -0.007824 4.424148
vt -0.015650 3.815990
vt -0.015650 3.897506
vt -0.013577 4.563867
vt -0.015650 4.083066
vt -0.015650 4.313040
vt 1.068128 4.704759
vt -0.048239 4.646870
vt -0.068128 4.693313
vt 0.632172 4.655294
vt 0.632175 4.600328
vt 1.048848 4.646882
vt 1.017236 4.234909
vt 1.017304 4.531728
vt 1.016524 4.431015
vt 1.006012 3.912261
vt 1.014525 3.834772
vt 1.012409 4.321483
vt 0.828537 4.600328
vt 0.783872 3.697866
vt 0.828537 4.497258
vt 0.828537 3.915381
vt 0.828537 3.997752
vt 0.828537 4.106030
vt 0.992088 4.169994
vt 0.992088 3.809259
vt 1.048787 4.646768
vt 1.055607 3.698296
vt 0.998034 4.071458
vt 0.117561 4.724988
vt 0.749512 4.852820
vt 2.049527 4.852358
vt 2.049527 4.936529
vt 0.749512 5.001065
vt 2.049527 4.916910
vt 2.049527 5.001081
vt -0.650008 5.338552
vt 0.650008 5.288318
vt 0.650008 5.372488
vt 0.650008 5.585330
vt 0.650008 8.750822
vt -0.650008 6.897680
vt 0.650008 6.856957
vt 0.650008 6.941128
vt 1.519817 13.055717
vt 0.120297 14.189624
vt -0.120298 15.883677
vt 1.519817 13.208857
vt 0.120297 14.278785
vt 0.899303 0.711379
vt 1.049034 1.011443
vt 1.022559 1.011443
vt 1.050554 0.828537
vt 0.429489 0.875741
vt 0.429489 0.711377
vt 0.899303 0.718826
vt 0.708924 1.885447
vt -0.708924 0.486877
vt 0.708924 0.430953
vt 0.708924 0.515124
vt 2.108443 1.911824
vt -0.708924 14.708008
vt 0.708924 14.635427
vt 0.708924 14.719599
vt 1.006784 0.757044
vt 2.108443 2.152928
vt 1.054258 5.650942
vt 1.011443 5.597641
vt 1.011443 5.227370
vt 1.011443 5.471369
vt 1.011443 5.327255
vt 1.011443 4.844450
vt -0.052060 4.696607
vt -0.043775 5.642665
vt 0.009735 5.425269
vt 0.009735 4.889386
vt 0.205785 5.641131
vt 0.205533 4.706883
vt 0.252712 5.402288
vt 0.242624 4.818857
vt 0.251689 4.967612
vt -0.054082 4.696255
vt -0.047510 5.644322
vt 0.003789 5.324273
vt 0.003789 5.115160
vt 1.054553 5.652614
vt 0.205818 5.641138
vt 1.017304 5.597675
vt 1.009922 5.208626
vt 1.017304 5.433306
vt 1.008255 5.397016
vt 1.014479 5.332996
vt 1.013741 4.860056
vt 0.783707 4.695045
vt 0.828537 4.813303
vt 0.828537 4.915225
vt 0.828537 5.397819
vt 0.828537 5.534313
vt 0.828537 5.013927
vt 0.828537 5.103342
vt 0.992088 5.301280
vt 0.992088 5.095559
vt 1.052006 5.646428
vt 1.055583 4.696274
vt 0.998034 5.402458
vt 0.245634 0.555841
vt 0.212185 0.000000
vt 0.210301 0.000000
vt 0.000263 0.314463
vt 0.123171 0.685537
vt 0.022783 0.522817
vt 0.076280 0.489930
vt 0.977217 0.495437
vt 0.203086 0.396223
vt 0.034121 0.275102
vt 0.227849 0.269744
vt 0.543674 1.222357
vt 0.528471 1.222357
vt 0.222357 1.222357
vt -0.099963 1.222357
vt -0.099963 0.222357
s 1
usemtl GT_MC_Tiling_Concrete_Blocks
f 1/1/1 27/2/2 54/3/3
f 42/43/30 40/44/31 43/45/32
f 18/52/35 39/53/34 17/54/36
f 57/70/44 54/71/3 27/72/2
f 52/73/8 48/74/20 49/75/18
f 57/76/45 58/77/46 21/78/47
f 57/79/45 23/80/48 56/81/49
f 21/79/47 30/82/7 54/83/3
f 38/84/38 41/85/50 7/86/14
f 12/87/22 13/88/24 23/89/51
f 25/90/52 30/91/7 26/92/53
f 25/90/52 56/93/49 55/94/13
f 22/95/54 56/93/49 24/96/54
f 58/77/46 57/76/45 22/95/54
f 32/97/55 52/98/8 7/99/14
f 31/100/56 1/101/1 33/102/57
f 31/100/56 16/103/33 1/101/1
f 28/104/58 7/99/14 16/103/33
f 33/102/57 1/101/1 2/105/4
f 118/106/59 85/107/60 115/108/61
f 101/43/88 99/145/89 102/45/90
f 103/152/93 98/153/92 76/154/94
f 78/158/97 103/152/93 77/159/98
f 86/172/105 115/173/61 85/174/60
f 61/175/106 109/176/78 110/177/76
f 115/78/61 116/92/110 89/91/63
f 86/181/105 82/93/104 81/182/111
f 59/183/112 64/184/67 113/185/65
f 97/186/96 100/187/113 67/188/114
f 72/189/80 73/190/83 82/191/104
f 84/90/115 82/93/104 117/94/70
f 81/182/111 82/93/104 83/96/116
f 116/92/110 115/78/61 91/77/117
f 92/192/118 61/98/106 67/99/71
f 93/100/119 75/193/91 118/101/59
f 90/102/120 61/98/106 88/194/121
f 90/102/120 118/101/59 59/105/112
f 119/195/122 146/196/123 175/197/124
f 139/249/161 163/250/160 138/251/162
f 141/261/168 155/262/167 154/263/169
f 147/264/170 175/265/124 146/266/123
f 122/267/129 170/268/142 171/269/139
f 176/270/171 156/271/150 166/272/151
f 147/181/170 178/77/172 175/78/124
f 147/273/170 156/271/173 177/274/174
f 147/181/170 177/93/174 142/182/54
f 150/275/175 166/276/136 173/277/135
f 159/278/159 160/279/157 128/280/176
f 133/281/144 134/282/147 156/283/150
f 127/284/134 122/267/129 124/285/132
f 144/90/54 150/91/175 145/92/54
f 144/90/54 177/93/174 176/94/171
f 142/182/54 177/93/174 143/96/54
f 152/192/177 122/98/129 128/99/178
f 153/100/179 136/193/152 119/101/122
f 151/102/180 120/286/125 149/194/181
f 149/194/181 120/286/125 122/98/129
f 151/102/180 119/101/122 120/286/125
f 235/287/182 232/288/183 179/289/184
f 218/323/205 220/324/204 219/325/206
f 194/338/216 211/339/215 193/340/217
f 182/347/188 223/348/199 224/349/196
f 230/350/222 207/351/223 217/352/224
f 232/76/183 233/77/225 179/78/184
f 232/353/183 207/351/226 231/354/227
f 201/355/228 217/356/193 228/357/229
f 180/358/185 227/359/192 183/360/189
f 212/361/230 214/362/212 234/363/194
f 188/364/201 189/365/203 207/366/223
f 197/90/54 201/91/228 198/92/54
f 197/90/54 231/93/227 230/94/222
f 195/95/231 231/93/227 196/96/54
f 233/77/225 232/76/183 195/95/231
f 203/100/232 235/101/182 202/102/233
f 203/100/232 190/193/207 235/101/182
f 202/102/233 180/286/185 200/194/234
f 200/194/234 180/286/185 182/98/188
f 202/102/233 235/101/182 180/286/185
f 287/367/235 250/368/236 289/369/237
f 236/370/238 285/371/239 237/372/240
f 237/373/240 286/374/241 260/375/242
f 238/376/243 283/377/244 239/378/245
f 240/382/247 260/383/248 288/384/249
f 243/391/253 281/392/254 244/393/255
f 270/418/270 271/419/269 252/420/271
f 238/424/243 280/425/257 281/426/254
f 272/427/268 275/428/275 241/429/250
f 246/430/259 247/431/261 257/432/276
f 262/192/289 238/98/243 241/99/250
f 263/100/290 250/103/236 290/101/291
f 261/102/292 236/105/238 259/194/293
f 258/104/294 241/99/250 250/103/236
f 259/194/293 236/105/238 238/98/243
s 0
f 375/480/326 380/481/326 374/482/326
f 376/483/327 381/484/327 380/485/327
f 378/486/328 379/487/328 381/488/328
f 377/489/329 374/490/329 379/491/329
f 380/492/330 379/491/330 374/490/330
f 376/493/54 377/494/54 378/495/54
f 379/491/331 380/492/331 381/496/331
s 1
f 27/2/2 1/1/1 16/497/33
f 41/526/50 17/527/36 39/528/34
f 57/70/44 21/535/333 54/71/3
f 52/73/8 55/536/13 47/537/23
f 55/536/13 44/538/28 45/539/27
f 55/536/13 45/539/27 46/540/25
f 55/536/13 46/540/25 47/537/23
f 49/75/18 50/541/15 52/73/8
f 52/73/8 47/537/23 48/74/20
f 55/542/13 56/81/49 23/80/51
f 21/78/47 58/77/46 30/91/7
f 1/1/1 54/543/3 53/544/5
f 7/86/14 42/545/30 16/497/33
f 27/2/2 16/497/33 39/53/34
f 16/497/33 43/546/32 39/53/34
f 19/547/41 20/548/43 27/2/2
f 27/2/2 39/53/34 18/52/35
f 27/2/2 18/52/35 37/549/40
f 19/547/41 27/2/2 37/549/40
f 57/79/45 27/83/2 23/80/48
f 2/550/4 30/551/7 5/552/11
f 2/550/4 5/552/11 51/553/9
f 23/554/48 27/2/2 34/555/42
f 7/86/14 23/554/48 36/556/39
f 40/557/31 42/545/30 7/86/14
f 23/554/48 34/555/42 35/558/332
f 23/554/48 35/558/332 36/556/39
f 41/85/50 40/557/31 7/86/14
f 7/86/14 36/556/39 38/84/38
f 44/538/28 55/536/13 23/89/51
f 23/89/51 7/559/14 12/87/22
f 7/559/14 8/560/16 9/561/17
f 14/562/26 15/563/29 23/89/51
f 7/559/14 9/561/17 10/564/19
f 7/559/14 10/564/19 11/565/21
f 13/88/24 14/562/26 23/89/51
f 7/559/14 11/565/21 12/87/22
f 55/536/13 52/73/8 4/566/10
f 4/566/10 6/567/12 55/536/13
f 30/568/7 2/569/4 3/570/6
f 25/90/52 55/94/13 30/91/7
f 25/90/52 24/96/54 56/93/49
f 22/95/54 57/76/45 56/93/49
f 26/92/53 30/91/7 58/77/46
f 32/97/55 29/194/334 52/98/8
f 31/100/56 28/104/58 16/103/33
f 33/102/57 2/105/4 52/98/8
f 28/104/58 32/97/55 7/99/14
f 29/194/334 33/102/57 52/98/8
f 85/107/60 118/571/59 75/572/91
f 100/609/113 76/527/94 98/610/92
f 97/612/96 77/527/98 103/528/93
f 61/175/106 117/619/70 108/620/81
f 117/619/70 105/621/86 106/622/85
f 111/623/74 112/624/72 61/175/106
f 117/619/70 106/622/85 107/625/82
f 117/619/70 107/625/82 108/620/81
f 110/177/76 111/623/74 61/175/106
f 61/175/106 108/620/81 109/176/78
f 118/626/59 115/627/61 114/628/335
f 86/181/105 81/182/111 115/78/61
f 89/91/63 116/92/110 117/94/70
f 85/107/60 75/629/91 98/153/92
f 75/629/91 102/630/90 98/153/92
f 79/631/101 80/632/103 85/107/60
f 85/107/60 98/153/92 103/152/93
f 85/107/60 103/152/93 78/158/97
f 85/107/60 78/158/97 79/631/101
f 86/633/105 85/634/60 82/635/104
f 59/183/112 89/636/63 64/184/67
f 89/636/63 66/637/69 64/184/67
f 75/629/91 67/188/114 101/638/88
f 67/188/114 82/639/104 96/640/100
f 99/641/89 101/638/88 67/188/114
f 82/639/104 94/642/102 95/643/336
f 82/639/104 95/643/336 96/640/100
f 100/187/113 99/641/89 67/188/114
f 67/188/114 96/640/100 97/186/96
f 117/619/70 82/191/104 104/644/87
f 82/191/104 67/645/71 72/189/80
f 67/645/71 68/646/73 69/647/75
f 74/648/84 104/644/87 82/191/104
f 67/645/71 69/647/75 70/649/77
f 67/645/71 70/649/77 71/650/79
f 73/190/83 74/648/84 82/191/104
f 67/645/71 71/650/79 72/189/80
f 117/619/70 61/175/106 63/651/66
f 63/651/66 61/175/106 62/652/64
f 63/651/66 65/653/68 117/619/70
f 89/654/63 59/655/112 60/656/62
f 84/90/115 117/94/70 116/92/110
f 84/90/115 83/96/116 82/93/104
f 91/77/117 115/78/61 81/182/111
f 92/192/118 88/194/121 61/98/106
f 93/100/119 87/104/337 75/193/91
f 92/192/118 67/99/71 75/193/91
f 90/102/120 59/105/112 61/98/106
f 87/104/337 92/192/118 75/193/91
f 90/102/120 93/100/119 118/101/59
f 119/195/122 136/657/152 146/658/123
f 159/683/159 138/527/162 163/684/160
f 122/267/129 166/693/151 169/694/145
f 171/269/139 172/695/138 122/267/129
f 166/693/151 167/696/148 168/697/146
f 166/693/151 168/697/146 169/694/145
f 122/267/129 169/694/145 170/268/142
f 176/270/171 177/274/174 156/271/150
f 175/78/124 178/77/172 150/91/175
f 119/195/122 175/698/124 174/699/126
f 147/181/170 142/182/54 178/77/172
f 146/700/123 136/657/152 164/701/156
f 136/657/152 162/702/154 164/701/156
f 155/703/167 141/704/168 146/700/123
f 146/700/123 164/701/156 137/705/158
f 146/700/123 137/705/158 163/250/160
f 146/700/123 163/250/160 139/249/161
f 140/706/165 155/703/167 146/700/123
f 146/700/123 139/249/161 140/706/165
f 147/273/170 146/707/123 156/271/173
f 150/275/175 176/708/171 166/276/136
f 120/709/125 173/710/135 126/711/133
f 120/709/125 126/711/133 125/712/130
f 175/265/124 150/270/175 173/272/128
f 146/700/123 141/704/168 156/713/173
f 136/657/152 128/280/176 161/714/153
f 128/280/176 156/713/173 158/715/164
f 156/713/173 154/716/169 157/717/166
f 165/718/155 161/714/153 128/280/176
f 158/715/164 156/713/173 157/717/166
f 160/279/157 165/718/155 128/280/176
f 128/280/176 158/715/164 159/278/159
f 156/283/150 128/719/178 133/281/144
f 128/719/178 129/720/137 130/721/140
f 128/719/178 130/721/140 131/722/141
f 128/719/178 131/722/141 132/723/143
f 134/282/147 135/724/149 156/283/150
f 128/719/178 132/723/143 133/281/144
f 166/693/136 122/267/129 127/284/134
f 124/285/132 122/267/129 123/725/131
f 173/726/128 120/727/125 121/728/127
f 144/90/54 176/94/171 150/91/175
f 144/90/54 143/96/54 177/93/174
f 145/92/54 150/91/175 178/77/172
f 152/192/177 149/194/181 122/98/129
f 153/100/179 148/104/338 136/193/152
f 152/192/177 128/99/178 136/193/152
f 148/104/338 152/192/177 136/193/152
f 151/102/180 153/100/179 119/101/122
f 235/287/182 190/729/207 232/288/183
f 209/764/341 193/261/217 211/765/215
f 182/347/188 217/771/224 222/772/200
f 217/771/224 219/773/206 221/774/202
f 217/771/224 221/774/202 222/772/200
f 224/349/196 225/775/340 182/347/188
f 182/347/188 222/772/200 223/348/199
f 230/350/222 231/354/227 207/351/223
f 179/78/184 233/77/225 201/91/228
f 235/776/182 179/777/184 229/778/339
f 232/779/183 190/780/207 194/781/216
f 190/780/207 191/782/209 215/783/211
f 194/781/216 206/784/221 232/779/183
f 190/780/207 215/783/211 192/785/213
f 211/786/215 194/781/216 190/780/207
f 190/780/207 192/785/213 211/786/215
f 201/355/228 230/787/222 217/356/193
f 180/358/185 228/788/229 227/359/192
f 179/789/184 201/350/228 228/352/187
f 232/790/183 206/791/221 207/792/226
f 234/363/194 207/792/226 210/793/214
f 207/792/226 205/794/220 208/795/219
f 216/796/210 213/797/208 234/363/194
f 207/792/226 208/795/219 209/798/341
f 207/792/226 209/798/341 210/793/214
f 214/362/212 216/796/210 234/363/194
f 234/363/194 210/793/214 212/361/230
f 217/771/224 207/366/223 218/799/205
f 207/366/223 234/800/194 188/364/201
f 220/801/204 218/799/205 207/366/223
f 234/800/194 185/802/195 186/803/197
f 234/800/194 186/803/197 187/804/198
f 189/365/203 220/801/204 207/366/223
f 234/800/194 187/804/198 188/364/201
f 217/771/193 182/347/188 184/805/191
f 184/805/191 182/347/188 226/806/190
f 228/807/187 180/808/185 181/809/186
f 197/90/54 230/94/222 201/91/228
f 197/90/54 196/96/54 231/93/227
f 195/95/231 232/76/183 231/93/227
f 198/92/54 201/91/228 233/77/225
f 204/192/342 200/194/234 234/99/194
f 203/100/232 199/104/343 190/193/207
f 204/192/342 234/99/194 190/193/207
f 199/104/343 204/192/342 190/193/207
f 200/194/234 182/98/188 234/99/194
f 287/367/235 290/810/291 250/368/236
f 260/817/242 286/818/241 287/819/235
f 238/376/243 236/820/238 283/377/244
f 240/822/247 284/823/246 260/824/248
f 243/391/253 282/826/251 281/392/254
f 277/831/262 276/832/344 249/833/264
f 273/838/267 274/839/265 275/840/275
f 269/845/345 252/527/271 271/684/269
f 288/847/280 257/432/276 276/848/344
f 238/424/243 288/847/280 279/849/258
f 288/847/280 276/848/344 277/850/262
f 288/847/280 277/850/262 278/851/260
f 288/847/280 278/851/260 279/849/258
f 281/426/254 282/852/251 238/424/243
f 238/424/243 279/849/258 280/425/257
f 290/853/291 287/854/235 286/855/241
f 290/853/291 286/855/241 285/856/239
f 289/857/237 250/858/236 266/859/346
f 250/858/236 251/860/266 273/861/267
f 250/858/236 273/861/267 271/419/269
f 270/418/270 266/859/346 250/858/236
f 250/858/236 271/419/269 270/418/270
f 236/862/238 260/863/248 284/864/246
f 236/862/238 284/864/246 283/865/244
f 257/866/282 289/867/284 264/868/347
f 241/429/250 257/866/282 269/869/345
f 257/866/282 264/868/347 265/870/348
f 265/870/348 266/859/349 267/871/350
f 257/866/282 265/870/348 267/871/350
f 257/866/282 267/871/350 268/872/273
f 257/866/282 268/872/273 269/869/345
f 275/428/275 274/873/265 241/429/250
f 241/429/250 269/869/345 272/427/268
f 257/432/276 241/874/250 246/430/259
f 241/874/250 242/875/252 243/876/253
f 248/877/263 249/878/264 257/432/276
f 241/874/250 243/876/253 244/879/255
f 241/874/250 244/879/255 245/880/256
f 247/431/261 248/877/263 257/432/276
f 241/874/250 245/880/256 246/430/259
f 288/847/249 238/424/243 240/881/247
f 238/424/243 239/882/245 240/881/247
f 260/883/242 236/884/238 237/885/240
f 262/192/289 259/194/293 238/98/243
f 263/100/290 290/101/291 236/105/238
f 263/100/290 258/104/294 250/103/236
f 258/104/294 262/192/289 241/99/250
f 261/102/292 263/100/290 236/105/238
s 0
f 375/480/306 376/897/306 380/481/306
f 376/483/357 378/898/357 381/484/357
f 378/486/358 377/899/358 379/487/358
f 377/489/359 375/900/359 374/490/359
f 376/493/54 375/901/54 377/494/54
s 1
usemtl GT_MC_Glass_Facade_2
f 2/4/4 53/5/5 3/6/6
f 3/7/6 54/8/3 30/9/7
f 52/10/8 51/11/9 4/12/10
f 4/13/10 5/14/11 6/15/12
f 6/16/12 30/17/7 55/18/13
f 7/19/14 50/20/15 8/21/16
f 8/22/16 50/23/15 9/24/17
f 9/25/17 49/26/18 10/27/19
f 10/28/19 48/29/20 11/30/21
f 12/31/22 48/32/20 47/33/23
f 13/34/24 47/35/23 46/36/25
f 14/37/26 46/38/25 45/39/27
f 14/40/26 44/41/28 15/42/29
f 16/46/33 42/47/30 43/48/32
f 43/49/32 40/50/31 39/51/34
f 17/55/37 38/56/38 18/57/35
f 18/58/35 36/59/39 37/60/40
f 37/61/40 36/62/39 19/63/41
f 19/64/41 34/65/42 20/66/43
f 20/67/43 34/68/42 27/69/2
f 60/109/62 115/110/61 89/111/63
f 62/112/64 113/113/65 63/114/66
f 63/115/66 64/116/67 65/117/68
f 65/118/68 66/119/69 117/120/70
f 67/121/71 112/122/72 68/123/73
f 68/124/73 111/125/74 69/126/75
f 69/127/75 110/128/76 70/129/77
f 70/130/77 109/131/78 71/132/79
f 72/133/80 109/134/78 108/135/81
f 72/136/80 107/137/82 73/138/83
f 74/139/84 107/140/82 106/141/85
f 74/142/84 105/143/86 104/144/87
f 75/146/91 101/147/88 102/148/90
f 102/149/90 99/150/89 98/151/92
f 76/155/95 97/156/96 103/157/93
f 77/160/99 96/161/100 78/162/97
f 78/163/97 96/164/100 79/165/101
f 79/166/101 94/167/102 80/168/103
f 80/169/103 82/170/104 85/171/60
f 120/198/125 174/199/126 121/200/127
f 121/201/127 174/202/126 173/203/128
f 122/204/129 125/205/130 123/206/131
f 123/207/131 125/208/130 124/209/132
f 124/210/132 126/211/133 127/212/134
f 127/213/134 173/214/135 166/215/136
f 129/216/137 122/217/129 172/218/138
f 129/219/137 171/220/139 130/221/140
f 131/222/141 170/223/142 132/224/143
f 133/225/144 170/226/142 169/227/145
f 133/228/144 168/229/146 134/230/147
f 134/231/147 167/232/148 135/233/149
f 156/234/150 167/235/148 166/236/151
f 136/237/152 161/238/153 162/239/154
f 162/240/154 165/241/155 164/242/156
f 164/243/156 160/244/157 137/245/158
f 137/246/158 159/247/159 163/248/160
f 138/252/163 158/253/164 139/254/161
f 140/255/165 158/256/164 157/257/166
f 140/258/165 157/259/166 155/260/167
f 180/290/185 235/291/182 181/292/186
f 181/293/186 179/294/184 228/295/187
f 182/296/188 183/297/189 226/298/190
f 226/299/190 183/300/189 184/301/191
f 184/302/191 227/303/192 217/304/193
f 234/305/194 182/306/188 185/307/195
f 185/308/195 224/309/196 186/310/197
f 187/311/198 224/312/196 223/313/199
f 187/314/198 222/315/200 188/316/201
f 188/317/201 221/318/202 189/319/203
f 189/320/203 221/321/202 220/322/204
f 190/326/207 213/327/208 191/328/209
f 191/329/209 216/330/210 215/331/211
f 215/332/211 214/333/212 192/334/213
f 192/335/213 210/336/214 211/337/215
f 193/341/218 208/342/219 194/343/216
f 194/344/216 205/345/220 206/346/221
f 241/385/250 282/386/251 242/387/252
f 242/388/252 282/389/251 243/390/253
f 250/409/236 274/410/265 251/411/266
f 251/412/266 274/413/265 273/414/267
f 2/498/4 1/499/1 53/500/5
f 3/501/6 53/502/5 54/503/3
f 52/504/8 2/505/4 51/506/9
f 4/507/10 51/508/9 5/509/11
f 6/510/12 5/511/11 30/512/7
f 7/19/14 52/513/8 50/20/15
f 9/25/17 50/514/15 49/26/18
f 10/28/19 49/515/18 48/29/20
f 12/31/22 11/516/21 48/32/20
f 13/34/24 12/517/22 47/35/23
f 14/37/26 13/518/24 46/38/25
f 14/40/26 45/519/27 44/41/28
f 23/520/51 15/521/29 44/522/28
f 39/523/34 40/524/31 41/525/50
f 17/55/37 41/529/50 38/56/38
f 18/58/35 38/530/38 36/59/39
f 19/531/41 36/532/39 35/533/332
f 19/64/41 35/534/332 34/65/42
f 60/573/62 59/574/112 118/575/59
f 60/576/62 118/577/59 114/578/335
f 60/109/62 114/579/335 115/110/61
f 62/580/64 61/581/106 59/582/112
f 62/583/64 59/584/112 113/585/65
f 63/586/66 113/587/65 64/588/67
f 65/589/68 64/590/67 66/591/69
f 117/592/70 66/593/69 89/594/63
f 67/121/71 61/595/106 112/122/72
f 68/124/73 112/596/72 111/125/74
f 69/127/75 111/597/74 110/128/76
f 70/130/77 110/598/76 109/131/78
f 72/133/80 71/599/79 109/134/78
f 72/136/80 108/600/81 107/137/82
f 74/139/84 73/601/83 107/140/82
f 74/142/84 106/602/85 105/143/86
f 104/603/87 105/604/86 117/605/70
f 98/606/92 99/607/89 100/608/113
f 76/155/95 100/611/113 97/156/96
f 77/160/99 97/613/96 96/161/100
f 79/614/101 96/615/100 95/616/336
f 79/166/101 95/617/336 94/167/102
f 80/169/103 94/618/102 82/170/104
f 120/659/125 119/660/122 174/661/126
f 173/662/128 174/663/126 175/664/124
f 122/204/129 120/665/125 125/205/130
f 124/210/132 125/666/130 126/211/133
f 127/667/134 126/668/133 173/669/135
f 129/216/137 128/670/178 122/217/129
f 129/219/137 172/671/138 171/220/139
f 131/672/141 130/673/140 171/674/139
f 131/222/141 171/675/139 170/223/142
f 133/225/144 132/676/143 170/226/142
f 133/228/144 169/677/145 168/229/146
f 134/231/147 168/678/146 167/232/148
f 156/234/150 135/679/149 167/235/148
f 162/240/154 161/680/153 165/241/155
f 164/243/156 165/681/155 160/244/157
f 137/246/158 160/682/157 159/247/159
f 138/252/163 159/685/159 158/253/164
f 140/255/165 139/686/161 158/256/164
f 155/687/167 157/688/166 154/689/169
f 141/690/168 154/691/169 156/692/173
f 181/730/186 235/731/182 229/732/339
f 181/293/186 229/733/339 179/294/184
f 182/296/188 180/734/185 183/297/189
f 184/735/191 183/736/189 227/737/192
f 217/738/193 227/739/192 228/740/229
f 185/741/195 182/742/188 225/743/340
f 185/308/195 225/744/340 224/309/196
f 187/311/198 186/745/197 224/312/196
f 187/314/198 223/746/199 222/315/200
f 188/317/201 222/747/200 221/318/202
f 220/748/204 221/749/202 219/750/206
f 218/751/205 219/752/206 217/753/224
f 190/326/207 234/754/194 213/327/208
f 191/329/209 213/755/208 216/330/210
f 215/332/211 216/756/210 214/333/212
f 192/757/213 214/758/212 212/759/230
f 192/335/213 212/760/230 210/336/214
f 211/761/215 210/762/214 209/763/341
f 193/341/218 209/766/341 208/342/219
f 194/344/216 208/767/219 205/345/220
f 206/768/221 205/769/220 207/770/226
f 236/811/238 290/812/291 285/813/239
f 241/385/250 238/825/243 282/386/251
f 250/409/236 241/837/250 274/410/265
usemtl GT_MC_Tiling_X_Dark_Concrete
f 305/178/107 255/179/108 256/180/109
f 303/433/277 294/434/278 302/435/279
f 288/436/280 294/437/281 257/438/276
f 257/438/282 295/439/283 289/440/284
f 302/435/285 293/441/286 301/442/287
f 287/440/235 291/443/288 260/436/242
f 260/440/248 293/443/295 288/436/249
f 300/442/296 292/444/297 304/433/298
f 289/445/237 292/439/299 287/440/235
f 301/442/300 291/444/301 300/433/302
f 304/433/303 295/446/304 303/447/305
f 31/448/306 297/449/306 28/450/306
f 32/451/307 299/452/308 29/453/309
f 29/453/309 298/454/310 33/448/311
f 33/453/311 296/454/312 31/448/312
f 255/455/54 300/456/54 256/180/54
f 255/455/54 302/457/54 301/458/54
f 253/459/54 302/457/54 254/460/54
f 256/180/54 304/461/54 253/459/54
f 303/433/277 295/444/283 294/434/278
f 288/436/280 293/443/286 294/437/281
f 257/438/282 294/437/278 295/439/283
f 302/435/285 294/434/281 293/441/286
f 287/440/235 292/439/297 291/443/288
f 260/440/248 291/439/301 293/443/295
f 300/442/296 291/441/288 292/444/297
f 289/445/237 295/886/304 292/439/299
f 301/442/300 293/441/295 291/444/301
f 304/433/303 292/444/299 295/446/304
f 31/448/306 296/454/306 297/449/306
f 297/887/351 296/461/351 298/456/310
f 29/453/309 299/452/308 298/454/310
f 33/453/311 298/452/310 296/454/312
f 255/455/54 301/458/54 300/456/54
f 255/455/54 254/460/54 302/457/54
f 253/459/54 303/888/54 302/457/54
f 256/180/54 300/456/54 304/461/54
f 253/459/54 304/461/54 303/888/54
f 305/178/107 253/889/352 307/891/353
f 305/178/107 308/462/313 255/179/108
f 305/178/107 256/180/109 253/889/352
usemtl GT_MC_Tiling_Dark_Concrete_Slab
f 255/179/108 308/462/313 254/463/314
f 254/463/315 306/464/316 253/465/317
f 308/466/313 305/467/107 306/468/316
f 253/889/352 306/890/316 307/464/353
f 254/463/315 308/462/313 306/464/316
f 307/891/353 306/892/316 305/893/107
s 0
usemtl GT_MC_Light
f 326/473/324 325/474/324 324/475/324
f 326/473/325 324/475/325 325/474/325
f 328/476/324 329/474/324 327/475/324
f 328/476/325 327/475/325 329/474/325
f 332/477/324 331/474/324 330/475/324
f 332/478/325 330/475/325 331/474/325
f 334/479/324 333/474/324 335/475/324
f 334/479/325 335/475/325 333/474/325
s 1
usemtl GT_MC_Trimsheet_1
f 247/403/261 277/404/262 248/405/263
f 248/406/263 277/407/262 249/408/264
f 247/403/261 278/830/260 277/404/262
f 257/834/276 249/835/264 276/836/344
f 336/894/356 338/895/356 337/896/356
usemtl GT_MC_Tiling_X_Light_Concrete
f 310/469/318 311/470/319 312/471/54
f 314/470/320 313/469/321 315/471/54
f 317/469/322 318/470/323 319/471/54
f 323/471/54 320/472/54 321/469/54
f 310/469/318 309/472/354 311/470/319
f 314/470/320 316/472/355 313/469/321
f 323/471/54 322/470/54 320/472/54
usemtl GT_MC_Glass_Facade_2
f 239/379/245 284/380/246 240/381/247
f 245/394/256 281/395/254 280/396/257
f 245/397/256 279/398/258 246/399/259
f 246/400/259 278/401/260 247/402/261
f 273/415/267 272/416/268 271/417/269
f 252/421/272 268/422/273 270/423/274
f 237/814/240 285/815/239 286/816/241
f 239/379/245 283/821/244 284/380/246
f 245/394/256 244/827/255 281/395/254
f 245/397/256 280/828/257 279/398/258
f 246/400/259 279/829/258 278/401/260
f 273/415/267 275/841/275 272/416/268
f 271/842/269 272/843/268 269/844/345
f 252/421/272 269/846/345 268/422/273
l 349 350
l 351 352
l 353 354
l 368 369
l 370 371
l 340 341
l 342 343
l 344 345
l 346 359
l 348 347
l 356 355
l 358 357
l 360 361
l 362 363
l 364 365
l 366 367
